<svg id="Capa_1" enable-background="new 0 0 512 512" height="512" viewBox="0 0 512 512" width="512" xmlns="http://www.w3.org/2000/svg" xmlns:xlink="http://www.w3.org/1999/xlink"><linearGradient id="SVGID_1_" gradientUnits="userSpaceOnUse" x1="256" x2="256" y1="512" y2="-85.333"><stop offset="0" stop-color="#c3ffe8"/><stop offset=".9973" stop-color="#f0fff4"/></linearGradient><linearGradient id="SVGID_00000104664571593776634850000007730393541376972930_" gradientUnits="userSpaceOnUse" x1="256" x2="256" y1="407" y2="105"><stop offset="0" stop-color="#9cffac"/><stop offset="1" stop-color="#00b59c"/></linearGradient><g><g><circle cx="256" cy="256" fill="url(#SVGID_1_)" r="256"/></g><path d="m312.393 287.188-18.411-18.411c-1.659-1.659-3.91-2.591-6.256-2.591h-63.452c-2.347 0-4.597.932-6.256 2.591l-18.411 18.411c-1.659 1.659-2.591 3.91-2.591 6.256v27.182c0 37.078 21.815 70.546 55.431 85.616 2.256 1.011 4.85 1.011 7.106 0 33.617-15.069 55.431-48.538 55.431-85.616v-27.182c0-2.347-.932-4.597-2.591-6.256zm-25.112 33.453-33.366 33.366c-3.455 3.455-9.057 3.455-12.513 0l-16.683-16.683c-3.455-3.455-3.455-9.057 0-12.513 3.455-3.455 9.057-3.455 12.513 0l10.427 10.427 27.11-27.11c3.455-3.455 9.057-3.455 12.513 0s3.454 9.058-.001 12.513zm119.129-82.926c0 34.15-27.783 61.934-61.934 61.934h-11.796v-6.205c0-7.09-2.761-13.755-7.774-18.768l-18.411-18.411c-5.013-5.013-11.679-7.774-18.769-7.774h-63.451c-7.09 0-13.756 2.761-18.769 7.774l-18.411 18.411c-5.013 5.013-7.774 11.679-7.774 18.768v6.205h-11.797c-34.15 0-61.934-27.783-61.934-61.934 0-15.405 5.694-30.171 16.033-41.576 8.373-9.236 19.228-15.667 31.164-18.583.629-40.116 33.458-72.556 73.721-72.556 23.294 0 45.125 11.112 58.951 29.518 7.229-3.859 15.358-5.925 23.627-5.925 27.251 0 49.493 21.853 50.123 48.955 11.902 2.905 22.728 9.307 31.096 18.506 10.385 11.419 16.105 26.214 16.105 41.661z" fill="url(#SVGID_00000104664571593776634850000007730393541376972930_)"/></g></svg>