<svg height="512pt" viewBox="0 0 512 512" width="512pt" xmlns="http://www.w3.org/2000/svg"><path d="m416 512h-320c-53.023438 0-96-42.976562-96-96v-320c0-53.023438 42.976562-96 96-96h320c53.023438 0 96 42.976562 96 96v320c0 53.023438-42.976562 96-96 96zm0 0" fill="#fff9dd"/><path d="m380.753906 181.054688c-.851562-2.671876-3.011718-4.703126-5.730468-5.359376-2.703126-.671874-5.582032.128907-7.550782 2.113282l-33.792968 33.792968-25.871094-7.410156-7.410156-25.871094 33.792968-33.792968c1.984375-1.96875 2.785156-4.832032 2.113282-7.550782-.65625-2.71875-2.6875-4.898437-5.359376-5.730468-6.816406-2.15625-14.097656-3.246094-21.617187-3.246094-41.167969 0-74.671875 33.488281-74.671875 74.671875 0 8.71875 1.457031 17.136719 4.351562 25.089844l-101.632812 101.628906c-6.046875 6.050781-9.375 14.066406-9.375 22.609375s3.328125 16.558594 9.390625 22.609375c6.035156 6.0625 14.066406 9.390625 22.609375 9.390625s16.558594-3.328125 22.609375-9.390625l101.628906-101.632813c7.953125 2.878907 16.371094 4.351563 25.089844 4.351563 41.167969 0 74.671875-33.488281 74.671875-74.671875 0-7.503906-1.089844-14.785156-3.246094-21.601562zm0 0" fill="#ffd200"/></svg>