<svg version="1.2" xmlns="http://www.w3.org/2000/svg" viewBox="0 0 512 512" width="512" height="512">
	<title>Snigdha OS Cloud</title>
	<style>
		.s0 { fill: #74e291 } 
	</style>
	<path id="Layer" fill-rule="evenodd" class="s0" d="m308 151.1q-1.7 0.4-3.2 1.3-1.5 0.9-2.6 2.3-1.1 1.3-1.8 2.9c-0.7 1.7-1 3.6-1 5.5 0.1 1.8 0.5 3.7 1.4 5.3 0.8 1.7 2 3.2 3.5 4.4 1.4 1.1 3.1 2 4.9 2.4 6.8 1.7 13.3 4 19.5 7.1 6.2 3 12.1 6.7 17.5 11.1 5.4 4.3 10.4 9.1 14.8 14.5 4.3 5.4 8.1 11.2 11.2 17.4 9.2-0.5 17.7 3.9 18.6 13.7q0.2 2.4-0.3 4.7-0.6 2.3-1.8 4.3-1.2 2-3 3.6-1.8 1.5-3.9 2.4 0.8 4.8 1.2 9.7c6.8 81.2 33.2 119.6 33.4 120 0.5 0.6 0.7 1.3 0.7 2 0 0.7-0.2 1.5-0.6 2.1-0.4 0.6-0.9 1.1-1.6 1.4-0.7 0.3-1.4 0.4-2.1 0.3-25-4.1-34.4-15.4-34.8-15.9q-0.1-0.2-0.3-0.4-0.1-0.2-0.2-0.4-0.1-0.2-0.2-0.5 0-0.2-0.1-0.4c-4.7-29.6-13.3-44.9-16.1-49.3l-40.7-2.8q2.9 2.9 5.8 5.7 3 2.7 6.1 5.4 3.1 2.6 6.3 5.1 3.3 2.5 6.6 4.9 3.3 2.4 6.1 5.5 2.8 3.1 4.9 6.7 2.2 3.5 3.5 7.5 1.3 3.9 1.8 8.1c8.2 68.1 26.3 95.6 26.5 95.9 1.3 2 2 4.3 2 6.7 0 2.5-0.8 4.8-2.2 6.8-1.4 1.9-3.4 3.4-5.7 4.2-2.3 0.8-4.7 0.9-7.1 0.2-55.8-16.1-84.2-45-96.2-60.9q-2-2.6-3.5-5.6-1.5-2.9-2.5-6.1-0.9-3.1-1.3-6.4-0.4-3.3-0.2-6.6c1.1-19.1-2.2-36.7-8-42.9q-0.4-0.5-1-0.9-0.5-0.4-1.1-0.7-0.6-0.3-1.2-0.4-0.7-0.1-1.3-0.1c-13.1 0-18.7 21.3-20.4 30.4q-0.8 3.8-2.4 7.2-1.7 3.4-4.1 6.4-2.5 2.9-5.6 5.1-3.1 2.2-6.7 3.5l-33.1 12.2c-1.6 0.6-3.2 0.8-4.8 0.7-1.7-0.1-3.3-0.5-4.7-1.3-1.5-0.8-2.7-1.8-3.8-3.1-1-1.3-1.7-2.7-2.2-4.3-0.3-1.5-0.4-2.9-0.2-4.4 0.2-1.5 0.6-2.9 1.3-4.2 0.7-1.3 1.7-2.4 2.8-3.4 1.1-0.9 2.4-1.7 3.8-2.2l7.2-2.6c3.2-8.3-8.1-52.1-12.9-75-1.6 0.3-3.2 0.4-4.7 0.1-1.6-0.3-3.1-0.9-4.5-1.7-1.3-0.9-2.5-2-3.4-3.3-0.9-1.4-1.5-2.8-1.8-4.4l-0.7-3.5c-0.4-1.6-0.3-3.2 0-4.8 0.3-1.6 0.9-3.1 1.8-4.4 0.9-1.3 2.1-2.4 3.4-3.3 1.4-0.8 2.9-1.4 4.5-1.7-3.7-26.1 3.3-47.2 14.4-63.8 5.5-7.6 0.1-18.4-8.3-21q-1.5-0.5-3.1-0.5-1.7 0-3.2 0.5-1.5 0.5-2.8 1.5-1.3 0.9-2.3 2.2c-30.8 41.3-32.4 93.6-31.2 117.4q0 0.5-0.1 0.9-0.1 0.5-0.3 0.9-0.2 0.4-0.5 0.8-0.2 0.3-0.6 0.6c-0.4 0.3-9.7 7.7-5 21.1 8.7 28.7 8.6 92.9-29.2 117.2-3 2.2-7.2-1.5-5.4-4.7 25.7-53.2-18.8-111.9-24.4-160.5q-0.6-3.7-1-7.4-0.5-3.6-0.8-7.3-0.3-3.7-0.4-7.4-0.2-3.7-0.2-7.4c-1.2-35.5 3.9-68.2 15.2-97.4q0.2-0.7 0.7-1.2 0.5-0.5 1.1-0.8 0.6-0.3 1.3-0.4 0.6-0.1 1.3 0.1l11.8 3-1.3-5.6q-0.2-0.6-0.1-1.2 0.1-0.7 0.4-1.2 0.2-0.6 0.7-1.1 0.4-0.4 1-0.7 0.3-0.2 0.7-0.2 0.3-0.1 0.7-0.2 0.3 0 0.6 0.1 0.4 0 0.7 0.1l11.3 3-9.9-11.8c-1.2-1.4-2.1-3-2.8-4.7-0.7-1.7-1.1-3.4-1.2-5.2-0.1-1.9 0.1-3.7 0.5-5.4 0.5-1.8 1.2-3.5 2.2-5 15.2-23.2 36.1-44 60.5-60.7q0.6-0.4 1.2-0.5 0.6-0.2 1.3-0.1 0.6 0 1.2 0.3 0.6 0.3 1.1 0.8l9.3 9.3-1.3-5.6c-0.4-1.6-0.5-3.3-0.3-5 0.1-1.6 0.5-3.2 1.2-4.8 0.7-1.5 1.6-2.9 2.7-4.1 1.1-1.3 2.4-2.3 3.8-3.2 59.7-34.9 124.8-44 190-24.5q0.6 0.2 1.2 0.6 0.5 0.4 0.9 0.9 0.3 0.6 0.5 1.2 0.1 0.7 0 1.4l-1.9 15.4 5-6.1c1.1-1.3 2.4-2.5 3.9-3.4 1.4-0.9 3-1.6 4.7-2.1 1.7-0.4 3.5-0.5 5.2-0.4 1.7 0.2 3.4 0.6 5 1.2 33.7 14 53.7 30.5 54.6 31.2 0.5 0.5 0.9 1.1 1.1 1.9 0.2 0.7 0.2 1.4 0 2.1-0.2 0.7-0.7 1.4-1.2 1.8-0.6 0.5-1.3 0.8-2.1 0.8-68.6 8.6-76.4 44.2-94.9 70.8q-0.3 0.6-0.8 1-0.5 0.4-1.1 0.6-0.6 0.2-1.3 0.2-0.6 0-1.2-0.2c-0.2-0.1-13.9-4.9-34.9-7.1q-1.7-0.2-3.4 0.2zm68.8 128.7c-1.1-8.1-1.9-16.3-2.5-24.6-36.9-1.7-63.7 4.3-87.3 13.3-0.2 0.1-28.7 16.3-41.6 28.2-9.3 8.5-28.4 16.7-38.6 20.7l4.1 15.8c0.3 1.2 0.9 2.3 1.7 3.3 0.9 0.9 1.9 1.6 3.1 2.1 1.1 0.5 2.4 0.6 3.6 0.5 1.3-0.1 2.5-0.5 3.5-1.1 6.2-3.9 15.8-8 29.1-9h-0.1c41-7.5 44.8 49.8 43 69.3-0.8 13.6 30.3 39.1 61 52.5-6.1-16.8-13.2-42.6-17.6-79.3q-0.2-1.7-0.8-3.4-0.5-1.6-1.4-3.1-0.9-1.5-2-2.8-1.2-1.3-2.6-2.3c-16.1-11.6-37.1-29.5-45.9-48.6-3.8-7.7 2.9-17.5 11.5-16.6l67.5 4.6c0 0 12.3 1.1 12.3-19.5zm-127-19.8c-8.7 5.1-16.6 9.6-23.9 13.4-6.1 7-3.7 17.4 8.1 12.3 7.2-3.6 14.8-7.7 22.8-12.3 41.8-24.3 92.5-26.5 119-25.7 9.5 0.1 10.2-13.9 0.7-14.6-22.1-1.5-78.7-1.7-126.7 26.9zm-51.7 18.4c53.8-24.2 85.1-55.3 165.5-53.3q-1-1.7-2-3.4-1-1.6-2.1-3.2-1.1-1.6-2.3-3.1-1.1-1.6-2.4-3.1c-43.4-56.7-174.2-43-156.7 66.1zm147.8-128.4l15.4-24.8c-158.8-51-288.9 78.4-257 230.7q1.2 6.3 2.1 12.7 0.9 6.4 1.5 12.9 0.5 6.4 0.7 12.9 0.2 6.4 0 12.9c-0.2 5.7-0.2 15.9 7.5 18.8 8-25.5 6.5-57 1.3-73.2-4.7-13.4 1.2-23.5 6-28.1-8.6-123.8 94.1-209.7 222.5-174.8z"/>
</svg>