<svg version="1.2" xmlns="http://www.w3.org/2000/svg" viewBox="0 0 512 512" width="512" height="512">
	<title>Snigdha OS Cloud Favicon</title>
	<style>
		.s0 { fill: #000000 } 
	</style>
	<filter id="f0">
		<feFlood flood-color="#f86570" flood-opacity="1" />
		<feBlend mode="normal" in2="SourceGraphic"/>
		<feComposite in2="SourceAlpha" operator="in" />
	</filter>
	<g id="Folder 1" filter="url(#f0)">
		<path id="Layer" class="s0" d="m302.3 33.8c-18.3-5.8-37.2-9-56.3-9.7-19.1-0.6-38.2 1.3-56.9 5.7-18.6 4.4-36.5 11.4-53.2 20.6-16.8 9.2-32.2 20.7-45.9 34q5.4 1.7 10.5 4.3 5.1 2.5 9.7 5.9 4.7 3.3 8.7 7.3 4 4.1 7.3 8.7 2.4 3.3 4.4 6.8 1.9 3.5 3.6 7.2 1.6 3.7 2.8 7.5 1.3 3.9 2.1 7.8 11.5-6.2 23.6-10.9 12.1-4.8 24.7-8 12.6-3.2 25.5-4.9 12.9-1.7 26-1.7c9.8-0.3 19.7 0.4 29.4 2 9.7 1.6 19.2 4.2 28.4 7.7 9.3 3.5 18.1 7.9 26.5 13.1 8.3 5.2 16.2 11.2 23.4 17.9 59.1 54.3 39.2 96.9 30 167.3-1.5 8.1-1.8 16.2-1.1 24.3 0.8 8.2 2.8 16.1 5.7 23.7 3 7.6 7.1 14.7 12 21.2 5 6.5 10.8 12.2 17.3 17.1-9.3-43.5 23-109.5 26.7-116.9 8.3-25.8 11.3-52.9 9-79.9-2.3-27-9.9-53.3-22.5-77.3-12.5-24-29.7-45.3-50.6-62.6-20.8-17.3-44.9-30.3-70.8-38.2z"/>
		<path id="Layer" class="s0" d="m334.5 167.4c-29.2-28.9-70.5-38.6-110.3-35.3l-11.8 8.3c14.3 0.6 28.4 3.1 42 7.4 13.7 4.4 26.6 10.5 38.6 18.3 12 7.9 22.9 17.2 32.4 27.9 9.4 10.7 17.4 22.7 23.7 35.5q1.3 2.5 2.5 5.1 1.1 2.6 2.2 5.2 1 2.6 2 5.3 0.9 2.6 1.8 5.3l12.3-23.2c-3.2-25.5-14.4-38.4-35.4-59.8z"/>
		<path id="Layer" class="s0" d="m338.9 249c-57.3-144.8-270.4-108.2-273.9 50 0.2 10.9-0.1 33.3 0 44.2 0.1 1.7 0.6 3.4 1.6 4.8 1 1.4 2.4 2.5 4 3.1 1.7 0.6 3.4 0.7 5.1 0.3 1.7-0.4 3.2-1.3 4.4-2.6l41.2-46.4q0.2-0.3 0.6-0.6 0.3-0.2 0.7-0.4 0.4-0.2 0.8-0.3 0.4-0.1 0.9-0.2l8.4-0.5-18 29.2q-1 1.7-1.7 3.5-0.7 1.8-1.1 3.8-0.4 1.9-0.4 3.9 0 2 0.4 3.9c2.2 12.3 4.7 43-20.6 63.3q-1.8 1.5-3.3 3.3-1.6 1.9-2.6 4-1.1 2.1-1.6 4.5-0.6 2.3-0.6 4.7v41.8c0 2.9 0.6 5.7 1.6 8.3 1.1 2.6 2.7 4.9 4.7 6.9 2 2 4.4 3.6 7 4.7 2.6 1.1 5.4 1.6 8.2 1.6 96.6-19.5 150.2-76 162.1-94.9q0.3-0.4 0.7-0.7 0.4-0.3 0.8-0.6 0.5-0.2 1-0.3 0.5-0.2 1-0.2h52.1c3.4 0 6.7-0.7 9.8-2 3.1-1.3 5.9-3.1 8.2-5.5 2.4-2.4 4.3-5.2 5.6-8.3 1.3-3 2-6.4 2-9.7-1.3-32.1 4.6-86.9-9.1-116.6z"/>
	</g>
</svg>