<svg version="1.2" xmlns="http://www.w3.org/2000/svg" viewBox="0 0 112 31" width="112" height="31">
	<title>Snigdha OS Cloud</title>
	<style>
		.s0 { fill: #000000 } 
		.s1 { fill: #c1e7e3 } 
	</style>
	<filter id="f0">
		<feFlood flood-color="#c1e7e3" flood-opacity="1" />
		<feBlend mode="normal" in2="SourceGraphic"/>
		<feComposite in2="SourceAlpha" operator="in" />
	</filter>
	<g id="Folder 1" filter="url(#f0)">
		<path id="Layer" class="s0" d="m20.1 2.1q-1.8-0.5-3.6-0.6-1.8 0-3.6 0.4-1.8 0.4-3.4 1.3-1.6 0.9-2.9 2.1 0.3 0.2 0.7 0.3 0.3 0.2 0.6 0.4 0.3 0.2 0.5 0.5 0.3 0.2 0.5 0.5 0.1 0.2 0.3 0.4 0.1 0.3 0.2 0.5 0.1 0.2 0.2 0.5 0.1 0.2 0.1 0.5 0.7-0.4 1.5-0.7 0.8-0.3 1.6-0.5 0.8-0.2 1.6-0.3 0.8-0.1 1.7-0.1 0.9-0.1 1.8 0.1 1 0.1 1.8 0.5 0.9 0.3 1.7 0.8 0.8 0.5 1.5 1.1c3.8 3.5 2.5 6.2 1.9 10.7q-0.1 0.8-0.1 1.5 0.1 0.8 0.4 1.5 0.3 0.8 0.8 1.4 0.4 0.6 1.1 1.1c-0.6-2.8 1.4-7 1.7-7.5 0.5-1.6 0.7-3.3 0.5-5-0.1-1.8-0.6-3.4-1.4-5-0.8-1.5-1.9-2.8-3.2-3.9-1.3-1.1-2.9-2-4.5-2.5z"/>
		<path id="Layer" class="s0" d="m22.1 10.6c-1.8-1.8-4.5-2.4-7-2.2l-0.7 0.5q1.3 0.1 2.6 0.5 1.3 0.4 2.5 1.1 1.1 0.8 2.1 1.8 0.9 1 1.5 2.3 0 0.1 0.1 0.3 0.1 0.2 0.2 0.3 0 0.2 0.1 0.4 0 0.1 0.1 0.3l0.8-1.5c-0.2-1.6-0.9-2.4-2.3-3.8z"/>
		<path id="Layer" class="s0" d="m22.4 15.8c-3.6-9.2-17.2-6.9-17.4 3.2 0 0.7 0 2.1 0 2.8q0 0.2 0.1 0.3 0.1 0.1 0.3 0.2 0.1 0.1 0.3 0 0.1 0 0.3-0.1l2.6-3q0 0 0 0 0 0 0.1-0.1 0 0 0 0 0 0 0.1 0h0.5l-1.1 1.8q-0.1 0.1-0.2 0.3 0 0.1 0 0.2 0 0.1 0 0.3 0 0.1 0 0.2c0.1 0.8 0.3 2.7-1.3 4q-0.1 0.1-0.2 0.2-0.1 0.2-0.2 0.3-0.1 0.1-0.1 0.3 0 0.1 0 0.3v2.6q0 0.3 0.1 0.6 0.1 0.2 0.3 0.4 0.2 0.2 0.4 0.3 0.3 0.1 0.5 0.1c6.2-1.2 9.6-4.8 10.3-6q0-0.1 0.1-0.1 0 0 0 0 0.1 0 0.1 0 0 0 0.1 0h3.3q0.3-0.1 0.6-0.2 0.3-0.1 0.5-0.3 0.2-0.3 0.4-0.6 0.1-0.2 0.1-0.6c-0.1-2 0.3-5.5-0.6-7.4z"/>
	</g>
	<path id="CLOUD" class="s1" aria-label="CLOUD"  d="m41 12.2v-3.9q0.2 0 0.6 0h0.7q1.6 0 3.1 0.2 0.8 0.2 1.2 0.3v3.4q-0.3 0-1.2-0.1-1.1-0.1-1.9-0.1-1 0-1.6 0-0.5 0.1-0.9 0.2zm1.3 13q-2.4 0-3.9-0.4-1.4-0.4-2.1-1.4-0.7-1-0.9-2.5-0.3-1.6-0.3-4.2 0-2.2 0.2-3.7 0.2-1.4 0.7-2.3 0.5-1 1.4-1.5 1-0.6 2.6-0.8v8.3q0 1.4 0.1 2.6 0 1 0.3 1.5 0.4 0.5 1.1 0.6 0.6 0.1 2 0.1 1.3 0 2.3-0.1 0.4 0 0.9-0.1v3.5q-1.2 0.2-2.6 0.3-0.9 0.1-1.8 0.1zm6.9-0.2v-16.5h4.8v16.5zm5.8 0v-3.9h5.1v3.9zm16.4 0.1v-8.4q0-2 0-2.7-0.1-1-0.3-1.4-0.2-0.5-0.7-0.6-0.5 0-1.4 0-1 0-1.3 0.1v-3.8q0.2 0 0.6 0h0.7q2.7 0 4.2 0.4 1.5 0.4 2.1 1.4 0.7 0.9 0.8 2.3 0.2 1.5 0.2 4.3 0 2.6-0.1 3.9-0.1 1.4-0.6 2.3-0.5 1-1.5 1.5-0.9 0.5-2.7 0.7zm-2.4 0.1q-3.5 0-5-0.8-0.8-0.4-1.3-1-0.4-0.7-0.6-1.6-0.2-0.9-0.3-1.9 0-1.1 0-3.2 0-2.5 0.1-3.8 0.1-1.4 0.5-2.3 0.5-1 1.5-1.5 1-0.5 2.8-0.7v8.3q0 1.5 0 2.8 0.1 0.9 0.3 1.4 0.2 0.5 0.7 0.5 0.4 0.1 1.3 0.1 1 0 1.4-0.1v3.8q-0.2 0-0.7 0zm16.7 0q-2.5 0-3.9-0.4-1.4-0.4-2-1.3-0.6-0.9-0.8-2.2-0.1-1.3-0.1-3.8v-9h4.8v9.9q0 0.9 0 1.7 0.1 0.7 0.3 1 0.1 0.3 0.5 0.3 0.4 0.1 1.2 0.1h0.5q0.2 0 0.5 0v3.7q-0.2 0-0.5 0zm2-0.1v-16.6h4.8v9q0 2.3-0.1 3.5-0.1 1.2-0.5 2-0.5 1-1.5 1.5-1 0.5-2.7 0.6zm7.8-0.1v-16.5h4.8v16.5zm5.8 0v-3.7h0.2q1.2 0 1.7-0.1 0.5-0.1 0.7-0.5 0.3-0.4 0.3-1.4 0.1-1.2 0.1-2.6 0-1.3-0.1-2.6 0-0.9-0.3-1.3-0.2-0.5-0.8-0.6-0.5 0-1.6 0h-0.2v-3.7h0.2q1.9 0 3.2 0.2 1.3 0.1 2.2 0.5 0.8 0.3 1.2 1 0.5 0.6 0.7 1.5 0.2 0.9 0.3 2 0.1 1.1 0.1 3 0 2-0.1 3.1-0.1 1.1-0.3 2-0.2 0.9-0.7 1.5-0.4 0.6-1.2 1-0.9 0.4-2.2 0.5-1.3 0.2-3.2 0.2z"/>
</svg>