<svg version="1.2" xmlns="http://www.w3.org/2000/svg" viewBox="0 0 24 24" width="24" height="24">
	<title>snigdhaos-logo-menu</title>
	<style>
		.s0 { fill: #c6bee1 } 
	</style>
	<path id="&lt;Compound Path&gt;" fill-rule="evenodd" class="s0" d="m12.4 12.1c-0.3-5.9 8-6.6 8.1-8.6l-0.1-3.5 0.9 3.4c0.7 2.8-0.1 5.7-1.3 7.8l-0.1 0.2-0.1 0.1c0 0.3 0.4 1.1 0.4 1.3 0.7 1.1 1 0.6 0.8 1.4l-1 3.7-0.4 0.4c-1.4 0.6-2.6 1.5-3.6 2.3-1.6 1.3-2.6 2.6-2.8 3-0.2 0.5-0.6 0.4-1.2 0.4-0.6 0-1 0.1-1.2-0.4-0.2-0.4-1.2-1.7-2.7-3-1-0.8-2.3-1.7-3.7-2.3l-0.3-0.4-1.1-3.7c-0.2-0.8 0.2-0.3 0.8-1.4 0.1-0.2 0.4-1 0.4-1.3v-0.1l-0.1-0.2c-1.3-2.1-2.1-5-1.4-7.8l0.9-3.4v3.5c0 2 8.3 2.7 8.1 8.6zm-2.6 6.9c-0.9-1.5-1.9-2.1-2.8-2.7l-1.4-1.1-0.3 0.2-0.1 0.1c-0.5 0.5-0.4 1.4-0.3 2 2.4 1.2 5.3 3.6 6.5 5.5l-0.4-1.3zm-3-6.2h0.1l0.1 0.1 0.2 0.1 0.1 0.1c0.3-0.4 0.5-0.8 0.4-1.3l-0.1-0.4v-0.2l-0.3-0.4-0.1-0.2-0.1-0.2-1.6-1.5c-0.8-0.9-1.6-1.7-2.1-2.8q0.1 1 0.3 1.9c0.4 1.4 0.9 2.2 1.2 2.9 0.4 0.7 0.7 1.1 1.3 1.5l0.2 0.2h0.1l0.1 0.1zm6.8 5.8c0-0.2-0.2-2.2 0-2.9 0.2-1.3 1.3-1.8 2.4-2.3-0.5-0.8-0.7-1.6-0.2-2.6 0.9-1.8 3.6-3.1 4.5-5.7-0.6 0.4-1.3 0.8-2 1.2-2.4 1.1-5.2 2.6-5 6 0.1 0.8-0.5 0.6-1.2 0.6-0.7 0-1.3 0.2-1.2-0.6 0.2-3.4-2.7-4.9-5-6-0.7-0.4-1.4-0.8-2-1.2 0.9 2.6 3.6 3.9 4.5 5.7 0.5 1 0.3 1.8-0.2 2.6 1 0.5 2.2 1 2.4 2.3 0.2 0.7 0 2.7 0 2.9l0.4 0.7 0.9 2.1 0.2 0.5 0.2-0.5 0.9-2.1zm5.5-4.1c0.4 0.1 0.6 0.5 0.8 0.9l0.4-1.4c-0.2-0.1-0.4-0.4-0.7-0.8l-0.1 0.5-0.1 0.1zm-5.9 7.1l-0.4 1.3c1.2-1.8 4.1-4.2 6.5-5.4 0.1-0.6 0.1-1.5-0.3-2l-0.1-0.2-0.3-0.1-1.4 1c-0.9 0.7-1.9 1.3-2.8 2.8zm4.5-9l0.1-0.1h0.1l0.2-0.2c0.6-0.4 0.9-0.8 1.3-1.5 0.3-0.7 0.8-1.4 1.2-2.9q0.3-0.8 0.3-1.8c-0.5 1-1.3 1.8-2.1 2.7l-1.6 1.6-0.1 0.1-0.1 0.2-0.3 0.5v0.1l-0.1 0.4c0 0.5 0.1 0.9 0.4 1.3l0.1-0.1 0.2-0.1 0.2-0.1zm-3.2 3.5l0.1 1.3 0.1-0.2 0.1-0.1v-0.1h0.1l0.1-0.1 0.1-0.1 0.7-0.6 1-0.7c1-0.8 1.7-1.2 2.1-2.4l0.1-0.4c-0.7 0.6-1.4 1-2.3 1.4-1.1 0.5-2.2 0.9-2.2 2zm-9.6-2.4l-0.2-0.5c-0.2 0.3-0.4 0.6-0.6 0.8l0.4 1.3c0.1-0.4 0.4-0.7 0.8-0.9zm2.9 0.4c-0.9-0.5-1.6-0.8-2.4-1.4l0.2 0.4c0.4 1.2 1 1.6 2.1 2.3l1 0.8 0.7 0.6 0.1 0.1 0.1 0.1 0.1 0.1 0.1 0.1 0.1 0.2v-1.3c0-1.1-1-1.5-2.1-2z"/>
</svg>