<svg version="1.2" xmlns="http://www.w3.org/2000/svg" viewBox="0 0 24 24" width="24" height="24">
	<title>snigdhaos-icon-24x24</title>
	<style>
		.s0 { fill: #754ffe } 
		.s1 { fill: #28282b } 
		.s2 { fill: #ff0000 } 
	</style>
	<path id="Path 2" class="s0" d="m15.8 1c-0.9 2.9-3 4.5-5.3 5.6-1.4 0.8-2.5 1.6-3.2 2.4l0.6-2.2c0 0-2.7 1.6-3.9 4.6-0.7 1.6-0.6 3.6 0.5 5.7l-1.5-0.4c1.6 3.7 5.3 5.9 8 5.9l-1.4 1.4c3.1-0.2 6.6-1 8.7-3.3 0.3 0.7 0.5 1.5 0.8 2.2 1.2-2.2 1.5-5.8 0.8-8h1.6c-1.3-1.2-2.8-2.5-4.2-3-0.6-1.6-1.4-2.1-2.7-2.8 2.6-2.4 2.3-5.1 1.2-8.1z"/>
	<path id="Path 3" fill-rule="evenodd" class="s1" d="m16.7 12.5c1.4 0.4 2.7 1.6 2.7 1.6h-0.9c1.9 2.8 0.6 6.4 0.6 6.4-0.3-0.8-0.8-1.5-0.8-1.5-1.4 3.2-6.4 3.9-6.4 3.9l1.1-1.1c-6 0.5-8.4-3.8-8.4-3.8l2 0.5c-4.9-5.1 0.1-9.8 0.1-9.8-0.8 1.7-0.4 3.4-0.4 3.4 0 0 0.6-2.7 4.6-4.7 4-2 4.8-4.1 4.8-4.1 0 0 1.5 3.9-4 6.8l1.3 0.2c0 0-4.4 0.4-4.9 3.6-0.5 3.2 2.4 4.6 3.3 4.7 0 0-0.6-0.4-0.8-1.2 0 0 1.4 1.3 4.2 0.6 0 0 0 0.6-0.5 1.3 0 0 2.1-1.3 1.2-3.1l1.1-0.4c0 0-2.1 0.2-3.1 1-1.1 0.7-2.1-0.5-2.1-0.5 0 0 0.4-0.3 0.4-0.7 0 0 1-1 1.5-1.2 0.4-0.2 1.4-0.5 1.3-1.4l0.5-0.4c0 0-1.2 0.6-1.5 0.9-0.2 0.2-0.2 0.5-0.2 0.5 0 0-0.2 0.1-0.3 0.1-0.1-0.1-0.2-0.3-0.2-0.3 0 0 0.3-0.7 2-1.8 0 0 0.3-1.1 0.2-1.7 0 0 1.1 0.6 1.6 2.2zm-4.2 1.7c-1.2 0.8-1.8 1.5-1.8 1.7 0 0.1 0.1 0.6 0.1 0.6-0.5-0.5-0.8-1.2-0.8-1.2-0.2 0.7-0.1 1.1-0.1 1.1-2-2.1 0.4-5.1 4.4-5.6 0 0 0 0.5-0.1 0.9 0 0-1.4 0.6-1.9 1.8 0 0 0.1 0.4 0.2 0.7z"/>
	<path id="Path 4" class="s2" d="m13.6 13.9c0 0 0.8-0.2 0.7-0.6 0 0-0.6 0.2-0.7 0.6z"/>
</svg>