<svg version="1.2" xmlns="http://www.w3.org/2000/svg" viewBox="0 0 2000 2000" width="2000" height="2000">
	<title>vecteezy_halloween-bat-logo-bat-night-animal-design-vector_36224102-ai</title>
	<style>
		.s0 { fill: #ffffff } 
		.s1 { fill: #3be8b0 } 
	</style>
	<g id="GRAPHICS">
		<g id="&lt;Group&gt;">
			<g id="&lt;Group&gt;">
				<path id="&lt;Path&gt;" class="s0" d="m653.2 850.2l-34.5 55.9h113.6c30.8-22.9 59.3-31.1 59.3-31.1-12.3 5.2-25.1 16.9-37.3 31.1h491.4c-12.1-14.2-25-25.9-37.2-31.1 0 0 28.5 8.2 59.2 31.1h113.6l-34.4-55.9c0 0 38.3 21.4 61.9 55.9h40.3c19.6-36.4 49.9-79.2 82-73.8 0 0-4.8-108.7-33.9-142.6 0 0 31.3 23.2 49.1 131.3 0 0 44.6-56.4 121.4-44.5 76.8 11.9 112.3 123.5 112.3 123.5 0 0 27.8-223-120.5-365.2-148.3-142.3-394.8-123.2-488.6-94.9 0 0 107.3-1.2 175 51.6l-76-12.9c0 0 150.4 56.2 135.6 241.7 0 0-6.9-81.5-38.4-113.4 0 0-27.8 118.5-187 128.3l-5 98.6-8.3-64.1-18.8 24.7-16.4 53.1 3.7-42.9c0 0-51.8 32-75 18.2-23.3-13.7 14.8-44.1 16.1-62.5 1.3-18.4-30.4-67.5-30.4-67.5 0 0 16.4 58.7 5.5 61.7-9.6 2.7-23.2-11.6-51.5-3.4-28.2-8.2-41.8 6.1-51.4 3.4-10.9-3 5.4-61.7 5.4-61.7 0 0-31.7 49.1-30.3 67.5 1.3 18.4 39.4 48.8 16.1 62.5-23.3 13.8-75-18.2-75-18.2l3.6 42.9-16.3-53.1-18.8-24.7-8.3 64.1-5-98.6c-159.3-9.8-187.1-128.3-187.1-128.3-31.4 31.9-38.3 113.4-38.3 113.4-14.9-185.5 135.6-241.7 135.6-241.7l-76.1 12.9c67.7-52.8 175-51.6 175-51.6-93.8-28.3-340.3-47.4-488.6 94.9-148.3 142.2-120.4 365.2-120.4 365.2 0 0 35.5-111.6 112.3-123.5 76.8-11.9 121.3 44.5 121.3 44.5 17.8-108.1 49.1-131.3 49.1-131.3-29.1 33.9-33.9 142.6-33.9 142.6 32.1-5.4 62.4 37.4 82.1 73.8h40.3c23.5-34.5 61.9-55.9 61.9-55.9z"/>
				<path id="&lt;Path&gt;" class="s0" d="m1318.2 1309c0 0 28.5-38.9 73.5-38.9l-10.4-16.9h-113.6c17.8 13.3 36.3 31.4 50.5 55.8z"/>
				<path id="&lt;Path&gt;" class="s0" d="m591.3 1253.2h-40.3c13.9 25.8 22.4 48.4 22.4 48.4 1.1-18 8.3-34.3 17.9-48.4z"/>
				<path id="&lt;Path&gt;" class="s0" d="m1426.6 1301.6c0 0 8.5-22.6 22.5-48.4h-40.3c9.6 14.1 16.7 30.4 17.8 48.4z"/>
				<path id="&lt;Path&gt;" class="s0" d="m608.3 1270.1c45.1 0 73.5 38.9 73.5 38.9 14.2-24.4 32.8-42.5 50.5-55.8h-113.6z"/>
				<path id="&lt;Path&gt;" class="s0" d="m694.8 1346c50.4-1.1 91.8 82.6 91.8 82.6 47.8-120.1 111.1-135.3 111.1-135.3-48.5 22.1-81.1 108.5-81.1 108.5 82 40.7 77.3 103.4 77.3 103.4 65.9-14.8 105.6 75.6 105.6 75.6l0.5-18.6 0.5 18.6c0 0 39.8-90.4 105.7-75.6 0 0-4.7-62.7 77.2-103.4 0 0-32.6-86.4-81.1-108.5 0 0 63.3 15.2 111.1 135.3 0 0 41.4-83.7 91.8-82.6 0 0-27.4-55.2-59.5-92.8h-491.4c-32.1 37.6-59.5 92.8-59.5 92.8z"/>
			</g>
		</g>
	</g>
	<g id="TEXT">
		<path id="SNIGDHA OS" class="s1" aria-label="SNIGDHA OS"  d="m480.3 1132c5.8 0 17-0.7 26.2-5.1 15.3-7.4 25.1-25.1 24.4-44.1-0.5-17.6-9.7-31.4-24.2-37.2-6.9-2.8-14.6-4.6-22-6.2-19.5-4.4-38.1-8.6-42.2-30.7-2.8-15 2.8-25.3 7.8-31.3 7.7-9.3 19.8-14.7 32.3-14.7 24.1 0 34.6 17 39.3 32.3l-18.8 8.8c-1.9-6.7-5.2-13.6-12.6-16.6-8.6-3.5-18.3 0.2-22.5 9-4.6 9.3-1.8 19.9 7.4 26.2 1.4 1 3.5 0.7 4.5-0.7 1.1-1.4 0.6-3.4-0.8-4.4-6.5-4.6-8.5-11.8-5.3-18.3 2.8-5.6 8.6-8.2 14.2-6 6.2 2.5 8.6 9.9 10 16 0.2 0.9 0.9 1.8 1.8 2.1 0.9 0.4 1.8 0.4 2.6 0l24.6-11.6c1.4-0.7 2.1-2.2 1.8-3.6-7-25.5-23.4-39.6-46.2-39.6-14.4 0-28.3 6.4-37.3 17.1-5.8 7-12.3 19.1-9.1 36.5 4.7 26.4 26.4 31.1 47.1 35.7 7.2 1.5 14.4 3.3 20.9 5.9 12.1 5 19.8 16.7 20.4 31.5 0.5 16.5-7.9 31.8-20.9 38.1-6 2.8-14.4 4.6-23.4 4.6-30.7 0-38.3-23-42.5-38.1l20-8.1c1.9 8.1 5.6 18.8 16.5 21.9 6.2 1.8 12.1 0.9 16.9-2.8 4.9-3.7 7.9-9.8 7.9-16.7 0-12.6-7.7-18.1-14.6-21.4-1.6-0.7-3.5-0.2-4.2 1.4-0.7 1.6-0.2 3.5 1.4 4.2 5.8 2.8 11.1 6.7 11.1 15.8 0 4.8-1.8 9-5.3 11.6-3.2 2.5-7.2 3-11.4 1.8-8.3-2.5-10.7-11.3-12.8-20.9-0.2-0.9-0.7-1.8-1.6-2.1-0.9-0.4-1.8-0.6-2.7-0.2l-26.3 10.5c-1.4 0.6-2.3 2.1-1.9 3.7l0.1 0.7c4.3 15.7 12.3 45 49.4 45zm100.7-169.3c8.6 0 11.7 2.8 15.6 9.6l71.8 130.4 0.2 0.3c0.2 0.4 0.7 0.7 1.1 0.9 0.3 0.2 0.9 0.3 1.2 0.3h1.1c0.3 0 0.7-0.3 1-0.5 0.4-0.2 0.7-0.5 0.9-0.9 0.2-0.3 0.3-0.8 0.3-1.2v-0.5-141.6c0-1.8-1.2-3.2-2.9-3.2h-33.8c-1.7 0-3.1 1.4-3.1 3.2v40c0 1.8 1.4 3.2 3.1 3.2 1.8 0 3.2-1.4 3.2-3.2v-36.8h27.4v126.3l-66.1-119.7c-4.5-8.1-9.6-13-21-13h-25c-1.7 0-3.1 1.4-3.1 3.2v169.3c0 0.9 0.3 1.8 0.8 2.3 0.6 0.5 1.4 0.9 2.3 0.9h32.7c1.7 0 3.2-1.4 3.2-3.2v-95.4l42.8 82.1v0.2l3.5 5.4c5.1 7.7 11.4 10.9 22 10.9h11.1c1.7 0 2.9-1.4 2.9-3.2 0-1.7-1.2-3.1-2.9-3.1h-11.1c-9.8 0-13.2-2.8-16.5-7.9l-3.5-5.5-48.7-93.1-0.4-0.3c-0.1-0.4-0.5-0.7-0.8-0.9-0.4-0.2-0.9-0.4-1.3-0.4h-1.2c-0.3 0-0.7 0.4-1 0.6-0.4 0.1-0.7 0.5-0.9 0.8-0.2 0.4-0.4 0.9-0.4 1.3v0.5 104.9h-26.3v-163zm149.8 169.3c1.8 0 3.2-1.4 3.2-3.2v-169.3c0-1.8-1.4-3.2-3.2-3.2h-31.6c-1.8 0-3.2 1.4-3.2 3.2v19.1c0 1.8 1.4 3.2 3.2 3.2 1.8 0 3.2-1.4 3.2-3.2v-15.9h25.4v163h-25.4v-114.2c0-10.9 4-11.8 10.2-11.8h3.8c1.8 0 3.2-1.4 3.2-3.1 0-1.8-1.4-3.2-3.2-3.2h-3.8c-7.6 0-16.6 2.1-16.6 18.1v117.3c0 1.8 1.4 3.2 3.2 3.2zm88.5 2.6c12.2 0 24.3-6.7 31.8-14.3 5-4.8 10.2-10.8 10.2-15.3v-50.3c0-1.7-1.4-2.9-3-3.1l-40.4-4.2c-0.8 0-1.7 0.2-2.4 0.7-0.7 0.6-1.1 1.7-1.1 2.6v16.6c0 1.7 1.3 3.1 2.8 3.3l6.7 0.9v37.4c0 1.9 1.4 3.3 3.2 3.3 1.7 0 3.1-1.4 3.1-3.3v-40.1c0-1.7-1-3.1-2.6-3.3l-6.9-0.9v-10.3l34.3 3.4v47.3c0 0.3-0.5 3-8.3 10.8-7 7.1-19.6 13.8-30.9 12.1-6.3-0.9-11.4-4.5-14.7-10.5-2.3-3.9-4.8-16.2-4.8-51.9v-0.9-17.4c0-8.8 0.4-36 4.4-47.7 2.7-7.6 5.6-9.1 10.6-9.1 7.9 0 8.6 19.6 8.9 33.7v1.2c0 1 0.5 1.9 1.2 2.4 0.8 0.5 1.5 0.9 2.3 0.9l34.6-3.1c1.8-0.2 3-1.6 3-3.4-3.7-56.5-29.7-68.4-50.7-68.4-13.4 0-24.5 4.3-33.1 13.2-18.1 18.5-21.8 52.8-21.8 78.4 0 36.7 6.5 61.7 20.1 75.9 1.2 1.3 3.1 1.3 4.4 0 1.2-1.2 1.4-3.2 0.1-4.5-12.1-12.8-18.2-36.9-18.2-71.4 0-24.3 3.3-56.9 19.8-73.7 7.4-7.6 17.1-11.4 28.7-11.4 26 0 40.9 20.1 44.1 59.2l-28.2 2.3c-0.5-18.1-1.5-37.8-15.1-37.8h-0.1c-8.3 0-13.2 4-16.6 13.4-4 11.4-4.7 34-4.7 49.8v17.5 0.9c0 19.2 0.5 45.8 5.6 55 4.2 7.8 10.9 12.5 19.2 13.8 1.4 0.2 3.1 0.3 4.5 0.3zm143.4-167c-13.4-10.6-27.6-11.3-46-11.3h-30.4c-1.8 0-3.2 1.4-3.2 3.2v124.7c0 16 9 18.1 16.7 18.1h18.4 9.5c13.9 0 19.2-7.2 21.3-13.3 4-12.7 4.2-42.6 4.2-43.8 0-50.9-7.7-59.5-25.5-59.5h-9.5c-1.7 0-3.1 1.5-3.1 3.3v89.6c0 1.8 1.4 3.2 3.1 3.2 1.8 0 3-1.4 3-3.2v-86.4h6.5c10.4 0 19.2-0.2 19.2 53 0 10.4-0.7 32.5-3.9 41.8-2.8 8.1-10 9-15.3 9h-9.5-0.1-18.3c-6.3 0-10.4-0.9-10.4-11.8v-121.5h27.3c17.7 0 30.4 0.7 42.1 10 18.6 14.5 22.7 45.8 22.7 69.4 0 35.1-7.4 59.2-22.3 73.6-5.1 4.5-14.8 10-30.4 10h-42.5c-1.8 0-3.2 1.4-3.2 3.1 0 1.8 1.4 3.2 3.2 3.2h42.5c17.7 0 28.6-6.3 34.6-11.8 16.3-15.6 24.2-41.3 24.2-78.1 0-35.9-8.6-61.7-24.9-74.5zm82.7 164.6c0.9 0 1.6-0.4 2.1-0.9 0.6-0.5 0.9-1.4 0.9-2.3v-55.7c0-1.7-1.2-3.1-3-3.1-1.7 0-3.1 1.4-3.1 3.1v52.6l-26.4-0.2v-162.9h26.4v76.1c0 13.7 3 21.1 19.1 21.1h7.9v68.8c0 1.8 1.4 3.2 3.2 3.2h32.5c1.7 0 3.3-1.4 3.3-3.2v-169.1c0-1.8-1.6-3.2-3.3-3.2h-32.5c-1.8 0-3.2 1.4-3.2 3.2v76.6c0 1.7 1.4 2.9 3.2 2.9 1.7 0 3.1-1.2 3.1-2.9v-73.5h26.2v162.9h-26.2v-68.9c0-1.7-1.4-3.1-3.1-3.1h-11.1c-11.4 0-13-3.2-13-14.8v-79.2c0-1.8-1.2-3.2-3-3.2h-32.6c-1.8 0-3.2 1.4-3.2 3.2v169.1c0 1.8 1.4 3.2 3.2 3.2l32.5 0.2zm206.1-4.1l-15.3-63.9-25.5-105.4c-0.3-1.4-1.6-2.5-3-2.5h-33.9c-1.4 0-2.8 1.1-3.1 2.5l-25.3 105.4-15.3 63.9c-0.2 0.9 0.1 2 0.7 2.7 0.5 0.7 1.6 1.2 2.4 1.2h32.2 0.9c0.3 0 0.8-0.3 1.2-0.7 0.3-0.2 0.7-0.7 0.9-1.1 0-0.1 0.1-0.7 0.1-0.8l9.4-50.8c1.4-8.1 3.5-10.5 12.3-10.5 0 0 0.3-0.2 0.3-0.2 0 0 0.4 0.2 0.4 0.2h13.5 0.3c0.4 0 0.7-0.2 1.1-0.4 0.3-0.2 0.9-0.5 1-0.9 0.2-0.3 0.7-0.9 0.7-1.2v-1.1-0.3l-13.7-73.6c-0.1-1.4-1.4-2.5-2.9-2.5-1.6 0-3 1.1-3.2 2.5l-10 54.1c-0.4 1.7 0.9 3.2 2.6 3.5 1.8 0.4 3.4-0.7 3.7-2.5l6.9-37.2 9.8 53.2h-9.8-0.4-0.3c-12.9 0-16.7 6-18.5 15.7l-8.8 48.3h-25.6l14.4-59.9 24.6-103.1h29l24.7 102.9 14.4 60.1h-25.4l-4.1-21.8-2.1-12.1c-0.2-1.6-1.9-2.8-3.5-2.7h-16.2c-1.7 0-3.1 1.4-3.1 3.2 0 1.8 1.4 3.2 3.1 3.2h13.9l1.8 9.6 4.5 24.3c0 0.1 0.4 0.7 0.4 0.8 0.2 0.4 0.3 0.7 0.7 1.1 0.3 0.2 0.9 0.7 1.2 0.7h0.9 32c0.9 0 1.9-0.5 2.4-1.2 0.6-0.7 0.6-2.7 0.6-2.7zm157.9 6.5c30.7 0 41.8-45.7 41.8-88.6 0-39.7-5.6-92.3-52.7-92.3-35.8 0-53.2 29.1-53.2 89.2 0 32.7 4.4 55.5 13.8 72 0.6 0.9 1.8 3.1 4.1 5.8 1 1.5 3.1 1.5 4.4 0.4 1.2-1.1 1.4-3.3 0.3-4.6-1.9-2.3-3-4.3-3.5-5-8.6-15.2-12.8-37.7-12.8-68.6 0-56.5 14.9-82.7 46.9-82.7 31.6 0 46.2 27.3 46.2 85.8 0 37.8-9.1 81.9-35 82.1h-0.3c-16.9 0-19.3-11.2-21.1-18.6l-0.3-1.3c-2.3-9.4-2.2-35.1-2-51.9 0-3.8 0.2-7.1 0.2-9.8 0-19.7 0.3-39.2 3.2-47.4 2.6-7.6 5.8-8.5 8.4-8.5 4.6 0 7.2 1.3 9.5 8.7 3 9.8 3 33.6 3 43.8 0 3.2-0.2 32.2-2 43.4-1 6.9-2.6 10.1-5.4 11.6-1.6 0.7-2.1 2.7-1.4 4.3 0.7 1.7 2.6 2.2 4.2 1.5 6-3.1 7.9-10 9-16.3 1.9-11.4 1.7-39.1 1.7-44.5 0-11.4 0.2-35.1-3.1-45.8-3-9.4-7.4-13.2-15.5-13.2-6.7 0-11.4 4.5-14.4 13-3 8.5-3.5 26.1-3.5 49.4v9.8c-0.2 17.2-0.6 43.1 1.9 53.4l0.2 1.2c1.6 7.1 5.4 23.6 27 23.7zm107.8-2.6c5.8 0 17-0.7 26.1-5.1 15.3-7.4 25.2-25.1 24.5-44.1-0.6-17.6-9.7-31.4-24.3-37.2-6.8-2.8-14.6-4.6-21.9-6.2-19.5-4.4-38.2-8.6-42.2-30.7-2.8-15 2.8-25.3 7.7-31.3 7.8-9.3 19.9-14.7 32.3-14.7 24.1 0 34.7 17 39.4 32.3l-18.8 8.8c-1.9-6.7-5.3-13.6-12.6-16.6-8.7-3.5-18.3 0.2-22.5 9-4.6 9.3-1.8 19.9 7.3 26.2 1.5 1 3.6 0.7 4.6-0.7 1.1-1.4 0.5-3.4-0.9-4.4-6.5-4.6-8.4-11.8-5.2-18.3 2.8-5.6 8.6-8.2 14.2-6 6.1 2.5 8.6 9.9 10 16 0.2 0.9 0.9 1.8 1.8 2.1 0.8 0.4 1.7 0.4 2.6 0l24.6-11.6c1.4-0.7 2.1-2.2 1.8-3.6-7.1-25.5-23.4-39.6-46.3-39.6-14.4 0-28.2 6.4-37.2 17.1-5.8 7-12.3 19.1-9.1 36.5 4.7 26.4 26.3 31.1 47.1 35.7 7.2 1.6 14.4 3.3 20.9 5.9 12.1 5 19.8 16.7 20.3 31.5 0.6 16.5-7.9 31.8-20.9 38.1-5.9 2.8-14.4 4.6-23.3 4.6-30.8 0-38.3-23-42.5-38.1l20-8.1c1.9 8.1 5.6 18.8 16.5 21.9 6.1 1.8 12.1 0.9 16.9-2.8 4.9-3.7 7.9-9.8 7.9-16.7 0-12.6-7.8-18.1-14.6-21.4-1.6-0.7-3.5-0.2-4.2 1.4-0.7 1.6-0.2 3.5 1.4 4.2 5.8 2.8 11 6.7 11 15.8 0 4.8-1.7 9-5.2 11.6-3.2 2.5-7.2 3-11.5 1.8-8.2-2.5-10.7-11.3-12.8-20.9-0.2-0.9-0.7-1.8-1.6-2.1-0.8-0.4-1.7-0.6-2.6-0.2l-26.3 10.5c-1.4 0.6-2.3 2.1-2 3.7l0.2 0.7c4.2 15.7 12.3 45 49.4 45z"/>
		<path id="be silent when it is time to hea" class="s1" aria-label="be silent when it is time to hear!"  d="m458.8 1183.6q0.1 0.5 0.1 0.8 0 0.5-0.4 1.6-0.3 1-0.3 1.6 0 0.3 0 0.5-2.7 5.8-11.6 5.8-1.9 0-5.8-0.3-3.9-0.3-5.8-0.3 0 0-6.6 0.2-0.1-8.2-0.1-16.4-0.1-9.3-0.6-16.3 3.5 0.4 8.5 0.4 1.4 0 3.9-0.1 2.7 0 3.9 0 4.6 0 8.5 1.2 0.6 0.1 1.8 1.2 1.4 1 2.4 1.3 0.8 2.7 0.8 4.8 0 3.2-1.6 5.3-1.3 0.3-1.3 1.4 0 0.5 0.7 1.2 0.2 0.2 0.7 0.6 1.6 1.5 1.9 1.9 1.1 1.3 1.1 2.5 0 0.5-0.2 1.1zm-7.7-17.3q-3.9-1.6-10.6-1.6h-5.8q-0.6 0.2-0.9 0.2-1.6 0-1.9 0.5v7.8l0.6 1q5.5 0.4 8.2 0.4 3.4 0 3.4 0 8.3-0.4 8.3-4.9 0-1.8-1.3-3.4zm-7.1 12.7q-1.2 0-3.5 0.1-2.3 0.2-3.5 0.2-2.2 0-3.8-0.3l-0.8 0.4v9.5l0.2 0.5q12.4 0.2 12.3 0.2 0 0 1.9-0.2 7.6-0.8 7.6-4.8 0-5.6-10.4-5.6zm54.5 13.2q0 0.4 0 0.6l-0.3 0.4q-0.8 0-2.3 0-1.6 0-2.4 0-2.8 0-8.5-0.1-5.7-0.1-8.6-0.1-3.6 0-7.3 0.2-0.3-1.4-0.3-2.7 0-1.1 0.2-3.4 0.3-2.3 0.3-3.4 0-1-0.1-2.7-0.1-1.8-0.1-2.7 0-1.7 0.1-5 0.2-3.4 0.2-5 0-2.4-0.3-4.7-0.3-2.7-0.3-2.1 0-1 1-1 0.2 0 0.7 0.1 0.5 0.1 0.8 0.1 0.5 0 0.9-0.3 3.2 0.4 8.5 0.4 2 0 6 0 4-0.1 6-0.1 0.6 0 1.6 0 1.2 0 1.7 0 0.4-0.1 0.3-0.1 0.2-0.2 0.4-0.2 0.4 0 0.6 0.3l-0.5 3.3q-4.1 0.4-10.6 0.4-1.5 0-4.5 0-2.9 0-4.4 0-1.9 0-2.8 0l-0.9 1q0.2 0.8 0.2 1.7 0 0.8-0.2 2.4-0.3 1.6-0.2 2.5l0.1 0.8 0.6 0.6q1.4 0.4 3.6 0.4 5.3 0 3.9-0.1 2.3 0.1 3.9 0.6v2.8q-1.9 0.2-3.8 0.2-6.1 0-8 0.5l-0.2 0.3 0.1 10.3 0.8 0.7q1.3-0.1 3.9-0.1 2.6 0 8 0.3 5.4 0.1 8 0.1 2.7 0 4 0 0.3 0.4 0.3 1 0 0.4-0.1 0.9 0 0.6 0 0.9zm66.3-5.8q-0.5 2.5-2.5 4.8-2 2.2-4.5 2.8-7.3 1.9-9.7 1.9-4.2 0-8.8-2.2-4.5-2.3-7.3-5.5l2.7-2.5q5.7 5.7 13.7 5.7 3.5 0 6.6-1.2 3.8-1.6 4.8-4.3 0.4-0.7 0.4-1.2 0-0.2-0.3-1.3-0.7-2.7-2.6-3.3-2.1-0.6-5.4-0.8-0.2 0-5.4-0.2-1.3 0.1-3.8-0.1-0.2 0-1.7-0.5-4.4-1.6-6.4-4.5-0.5-3.6-0.5-4.4 0-2.4 1.2-3.8 0.4-0.6 1.6-1.6 5.3-4.5 10.3-4.2 8.7 0.4 13.4 4.2 1 0.1 1.8 0.8 0 0.1 0 0.2 0 0.1 0 0.2 0 0.5-0.9 1.4-0.5 0.5-1.3 1.4-0.2 0.1-0.5 0.1-0.3 0-1.1-0.5-0.2-0.2-0.6-0.4l-0.5-0.4q-4.7-2.2-10.3-2.2-4.8 0-7.9 2.6-1.4 1.2-1.4 2.5 0 0.5 0.2 1.1 1.8 4.1 9.5 4.1 0.5 0 1.9 0 1.3 0 2 0 2.5 0 4 0.4 2.9 0.9 4 1.4 5.4 2.8 5.4 9.1 0 0.2-0.1 0.4zm14.4 7.1q-0.6 0.5-1.1 0.5-0.4 0-1.2-0.2-0.8-0.2-1.1-0.2-0.5 0-0.6 0.1l-0.3-0.4q0.3-4.5 0.3-10.8 0-2.6-0.2-7.8-0.1-5.2-0.1-7.7 0-4.1 0.9-6.5 0.5 0.4 1.6 0.4 1.4 0 1.8 0.2 0.1 8.5 0.1 12.8v6.9q0 4.2-0.1 12.7zm37.3-2.3q-0.3 1.3-0.3 1.5 0 0.3 0.1 0.6l-0.3 0.4q-1.1 0-3.4 0-2.9 0-8.7-0.2-5.8-0.2-8.7-0.2-1.3 0-4 0.1-0.3-4.2-0.3-10.4 0-2.5 0-7.7 0.2-5.1 0.2-7.7 0-3.7-0.2-7.3 1.3-0.5 2.3-0.5 0.6 0 1.1 0.2l0.3 0.4 0.5 28.5q0.7 0.7 2.6 0.7h18.4q0.5 0.5 0.5 1 0 0.4-0.1 0.6zm39.6 1q0 0.4 0.1 0.6l-0.3 0.4q-0.8 0-2.3 0-1.6 0-2.4 0-2.8 0-8.6-0.1-5.6-0.1-8.5-0.1-3.6 0-7.3 0.2-0.4-1.4-0.4-2.7 0-1.1 0.3-3.4 0.3-2.3 0.3-3.4 0-1-0.1-2.7-0.1-1.8-0.1-2.7 0-1.7 0.1-5 0.2-3.4 0.2-5 0-2.4-0.3-4.7-0.4-2.7-0.4-2.1 0-1 1.1-1 0.2 0 0.7 0.1 0.5 0.1 0.8 0.1 0.5 0 0.9-0.3 3.2 0.4 8.4 0.4 2 0 6 0 4.1-0.1 6.1-0.1 0.5 0 1.6 0 1.2 0 1.7 0 0.4-0.1 0.3-0.1 0.2-0.2 0.4-0.2 0.4 0 0.5 0.3l-0.4 3.3q-4.1 0.4-10.6 0.4-1.5 0-4.5 0-2.9 0-4.4 0-1.9 0-2.8 0l-0.9 1q0.2 0.8 0.2 1.7 0 0.8-0.3 2.4-0.2 1.6-0.1 2.5v0.8l0.7 0.6q1.4 0.4 3.6 0.4 5.2 0 3.9-0.1 2.3 0.1 3.8 0.6v2.8q-1.8 0.2-3.7 0.2-6.1 0-8 0.5l-0.3 0.3 0.2 10.3 0.7 0.7q1.4-0.1 3.9-0.1 2.7 0 8 0.3 5.4 0.1 8.1 0.1 2.7 0 4 0 0.3 0.4 0.3 1 0 0.4-0.1 0.9-0.1 0.6-0.1 0.9zm39.2 2.3q-0.8 0-2.4-0.1-3-3.4-9.7-12.8-6.1-8.3-10.1-12.5-0.7-0.4-1.2-0.4h-0.2l-0.5 0.7q0.1 0.5 0.1 1.6 0 1.2-0.3 3.7-0.2 2.6-0.2 3.8 0 11.3 0.1 14.4 0.1 0.4 0.1 0.7 0 0.1-0.1 0.5l-4.3-0.1q0.2-3.5 0.2-7.8 0-2.2-0.1-6.8-0.1-4.5-0.1-6.8 0-7.1 0.6-11.9 0.5 0 1.4-0.1 0.9-0.1 1.3-0.1 0.7 0 1.1 0.2 0.9 0.3 2.3 2 1 1.3 2 2.7 0.4 0.5 1.3 1.4 0.5 0.7 1.4 1.8 4.7 5.4 14 16.2h0.4q0.6-6.7 0.6-23.8 1-0.3 2.1-0.3 1.1 0 1.8 0.4 0 3 0.2 9.1 0.1 6.1 0.1 9.1 0 4-0.1 5.9-0.2 3.7-0.2 5.2 0 2.5 0.4 3.9-0.8 0.2-2 0.2zm41.4-30.5h-10.7l-0.3 0.4v3.8q0 12.8-0.1 15.1 0 0.4-0.3 1.7-0.1 1.1-0.1 1.7 0 1 0.2 2.9 0.2 2 0.2 2.9 0 1.4-1.9 1.4-0.3 0-1.1-0.1-0.7-0.1-1.1-0.1-0.2 0-0.7 0.1 0.3-7.3 0.3-14.4 0-6.5-0.2-10.3 0-1.3-0.3-4.1-0.3-1.1-1.8-1.1-0.4 0-1 0-0.6 0.1-0.9 0.1-0.3 0-1.2-0.2-0.8-0.2-2.3-0.2-3.6 0-5.4 0.2 0 0 0-2.2 0-2.1 1.4-2 21.6 0.6 20.1 0.6 2.4 0 7.3-0.1 0.4 2.3 0.4 2.5 0 0.9-0.5 1.4zm74.4 0.8q-3.2 9.7-9.1 29.1-0.7 0.3-1.9 0.3-2.1 0-2.1 0-2.4-6-3.8-10.8-0.4-1.8-1.2-5.3-0.8-3.5-2.4-6.1-0.5 0.3-0.7 1-0.1 0.7-0.2 1.3-0.2 0.6-0.7 1.9-0.4 1.2-1.4 4.1-1.3 4.3-3.9 12.8-0.7 0.4-1.8 0.4-1 0-1.9-0.3-1.4-4.5-4.6-13.5-2.2-6.2-6.7-18.6 0.7-0.3 1.7-0.3 0.6 0 1.8 0.1 0.3 0.5 2.6 6.1 1 2.5 6 16.7 0.9 0.9 1.1 0.9 0.1 0 0.2 0 0.2-0.4 0.6-1 0.2-0.3 0.7-2.3 0 0 1.5-5.2 1.6-5.1 4.8-15.4 0 0 1.9 0 1.7 3.8 3.8 11.6 2.1 8.1 3.6 11.7l0.2 0.1q0.3 0.4 0.5 0.4 0 0 0.1 0 2.2-4.6 4.7-11.8 3.8-11.2 4.1-12-0.6-0.1 1.8-0.1 1 0 1.6 0.3-0.4 0.6-0.6 1.9-0.3 1.7-0.3 2zm39.2 26.9v1.6l-3.9 0.3v-14.4q-0.2-0.7-0.8-0.9-5.1 0.2-7.3 0.2-9.8 0-13 0.1l-0.7 0.6q0.1 2.2 0 5.8-0.1 4.5-0.1 5.8 0 1.4 0 2.2-0.7 0.5-1.6 0.5-0.7 0-2.6-0.5l-0.4-0.5v-5.1q0 0 0.4-26.8 0.2 0.1 0.7 0.1 0.4 0 1.2-0.2 0.8-0.1 1.2-0.1 0.7 0 1.1 0.2l0.1 12.4q0.3 0.5 1 0.6 0.8 0.2 1.4 0.2 1 0.2 1.6 0.2 1.5 0 4.5-0.1 3 0 4.5 0 3.8 0 7.6 0.2l0.4-0.5q0.2-0.8 0.2-2.5 0-1.1-0.2-3.2-0.1-2.1-0.1-3.2 0-2.1 0.4-3.6 1.6-0.5 2.9-0.5 0.9 0 1.3 0.1 0.5 0.6 0.5 2 0 0.8 0.1 2.2 0.1 1.5 0.1 2.2 0 4.1-0.2 12.4-0.3 8.2-0.3 12.2zm40.8 0.5q0 0.4 0 0.6l-0.3 0.4q-0.7 0-2.3 0-1.5 0-2.3 0-2.9 0-8.6-0.1-5.7-0.1-8.6-0.1-3.6 0-7.3 0.2-0.3-1.4-0.3-2.7 0-1.1 0.3-3.4 0.2-2.3 0.2-3.4 0-1-0.1-2.7-0.1-1.8-0.1-2.7 0-1.7 0.1-5 0.2-3.4 0.2-5 0-2.4-0.3-4.7-0.3-2.7-0.3-2.1 0-1 1-1 0.2 0 0.7 0.1 0.5 0.1 0.8 0.1 0.6 0 0.9-0.3 3.2 0.4 8.5 0.4 2 0 6 0 4-0.1 6-0.1 0.6 0 1.7 0 1.1 0 1.6 0 0.4-0.1 0.4-0.1 0.1-0.2 0.4-0.2 0.3 0 0.5 0.3l-0.5 3.3q-4 0.4-10.6 0.4-1.5 0-4.4 0-3 0-4.5 0-1.9 0-2.8 0l-0.9 1q0.2 0.8 0.2 1.7 0 0.8-0.2 2.4-0.2 1.6-0.2 2.5l0.1 0.8 0.6 0.6q1.4 0.4 3.7 0.4 5.2 0 3.9-0.1 2.2 0.1 3.8 0.6v2.8q-1.9 0.2-3.7 0.2-6.2 0-8 0.5l-0.3 0.3 0.1 10.3 0.8 0.7q1.3-0.1 3.9-0.1 2.7 0 8 0.3 5.4 0.1 8.1 0.1 2.6 0 3.9 0 0.4 0.4 0.4 1 0 0.4-0.2 0.9 0 0.6 0 0.9zm39.1 2.3q-0.8 0-2.4-0.1-3-3.4-9.7-12.8-6-8.3-10.1-12.5-0.7-0.4-1.1-0.4h-0.3l-0.4 0.7q0 0.5 0 1.6 0 1.2-0.2 3.7-0.3 2.6-0.3 3.8 0 11.3 0.1 14.4 0.2 0.4 0.2 0.7 0 0.1-0.2 0.5l-4.3-0.1q0.2-3.5 0.2-7.8 0-2.2-0.1-6.8 0-4.5 0-6.8 0-7.1 0.6-11.9 0.4 0 1.3-0.1 0.9-0.1 1.4-0.1 0.6 0 1.1 0.2 0.8 0.3 2.3 2 0.9 1.3 1.9 2.7 0.5 0.5 1.4 1.4 0.4 0.7 1.3 1.8 4.7 5.4 14 16.2h0.4q0.6-6.7 0.6-23.8 1.1-0.3 2.1-0.3 1.1 0 1.9 0.4 0 3 0.1 9.1 0.2 6.1 0.2 9.1 0 4-0.1 5.9-0.3 3.7-0.3 5.2 0 2.5 0.5 3.9-0.9 0.2-2.1 0.2zm39.6-1q-0.5 0.5-1.1 0.5-0.4 0-1.2-0.2-0.8-0.2-1.1-0.2-0.5 0-0.6 0.1l-0.3-0.4q0.3-4.5 0.3-10.8 0-2.6-0.1-7.8-0.2-5.2-0.2-7.7 0-4.1 0.9-6.5 0.5 0.4 1.6 0.4 1.4 0 1.8 0.2 0.1 8.5 0.1 12.8v6.9q0 4.2-0.1 12.7zm40-29.5h-10.7l-0.2 0.4v3.8q0 12.8-0.2 15.1 0 0.4-0.2 1.7-0.2 1.1-0.2 1.7 0 1 0.2 2.9 0.2 2 0.2 2.9 0 1.4-1.9 1.4-0.3 0-1-0.1-0.8-0.1-1.2-0.1-0.2 0-0.7 0.1 0.3-7.3 0.3-14.4 0-6.5-0.2-10.3 0-1.3-0.3-4.1-0.3-1.1-1.8-1.1-0.4 0-0.9 0-0.7 0.1-1 0.1-0.3 0-1.2-0.2-0.8-0.2-2.3-0.2-3.6 0-5.4 0.2 0 0 0-2.2 0-2.1 1.4-2 21.6 0.6 20.1 0.6 2.4 0 7.3-0.1 0.5 2.3 0.5 2.5 0 0.9-0.6 1.4zm39.3 29.5q-0.6 0.5-1.1 0.5-0.4 0-1.2-0.2-0.8-0.2-1.1-0.2-0.5 0-0.7 0.1l-0.2-0.4q0.2-4.5 0.2-10.8 0-2.6-0.1-7.8-0.1-5.2-0.1-7.7 0-4.1 0.9-6.5 0.5 0.4 1.6 0.4 1.3 0 1.8 0.2 0.1 8.5 0.1 12.8v6.9q0 4.2-0.1 12.7zm44-7.1q-0.4 2.5-2.4 4.8-2.1 2.2-4.6 2.8-7.3 1.9-9.7 1.9-4.2 0-8.8-2.2-4.5-2.3-7.3-5.5l2.7-2.5q5.7 5.7 13.7 5.7 3.5 0 6.6-1.2 3.8-1.6 4.8-4.3 0.4-0.7 0.4-1.2 0-0.2-0.3-1.3-0.7-2.7-2.6-3.3-2.1-0.6-5.4-0.8-0.1 0-5.4-0.2-1.3 0.1-3.8-0.1-0.2 0-1.6-0.5-4.4-1.6-6.4-4.5-0.6-3.6-0.6-4.4 0-2.4 1.2-3.8 0.4-0.6 1.6-1.6 5.3-4.5 10.3-4.2 8.7 0.4 13.4 4.2 1 0.1 1.8 0.8 0 0.1 0.1 0.2 0 0.1 0 0.2 0 0.5-1 1.4-0.5 0.5-1.3 1.4-0.1 0.1-0.5 0.1-0.3 0-1.1-0.5-0.2-0.2-0.5-0.4l-0.6-0.4q-4.7-2.2-10.3-2.2-4.8 0-7.9 2.6-1.4 1.2-1.4 2.5 0 0.5 0.2 1.1 1.8 4.1 9.5 4.1 0.5 0 1.9 0 1.3 0 2 0 2.6 0 4 0.4 3 0.9 4 1.4 5.4 2.8 5.4 9.1 0 0.2-0.1 0.4zm62.1-22.4h-10.7l-0.3 0.4v3.8q0 12.8-0.2 15.1 0 0.4-0.2 1.7-0.1 1.1-0.1 1.7 0 1 0.1 2.9 0.2 2 0.2 2.9 0 1.4-1.8 1.4-0.4 0-1.1-0.1-0.8-0.1-1.2-0.1-0.1 0-0.7 0.1 0.3-7.3 0.3-14.4 0-6.5-0.2-10.3 0-1.3-0.3-4.1-0.3-1.1-1.8-1.1-0.4 0-0.9 0-0.7 0.1-0.9 0.1-0.4 0-1.2-0.2-0.9-0.2-2.4-0.2-3.5 0-5.4 0.2 0 0 0-2.2 0-2.1 1.5-2 21.5 0.6 20 0.6 2.4 0 7.3-0.1 0.5 2.3 0.5 2.5 0 0.9-0.5 1.4zm16.3 29.5q-0.5 0.5-1.1 0.5-0.4 0-1.2-0.2-0.8-0.2-1.1-0.2-0.5 0-0.6 0.1l-0.3-0.4q0.3-4.5 0.3-10.8 0-2.6-0.2-7.8-0.1-5.2-0.1-7.7 0-4.1 0.9-6.5 0.5 0.4 1.6 0.4 1.4 0 1.8 0.2 0.1 8.5 0.1 12.8v6.9q0 4.2-0.1 12.7zm44.9-4.7q0 0.8 0.1 2.5 0 1.8 0 2.6-0.6 0.3-1.5 0.3-1 0-2.6-0.5l-0.1-0.6q-0.1-0.2-0.2-0.4 0-0.6 0.1-1.8 0-1.1 0-1.7 0-2-0.2-6.1-0.1-4.1-0.1-6.1 0-2.8 0.2-5.4-0.1-0.5-0.5-0.5h-0.2q-1.5 2.7-4.7 7.9-0.3 0.3-0.8 1.1-0.2 0.4-0.6 1.2-0.6 1.4-2.8 4.9-2 3.1-2.8 5.1-0.9-1.1-1.7-3-0.7-1.6-1.4-3.2-3.4-6.9-7.1-12-0.8-0.2-1.5-1-0.1 0.6-0.1 0.9 0 0.5 0.2 1.5 0.1 1 0.1 1.5 0-0.1-0.5 17.5-0.8 0.4-1.9 0.4-0.8 0-2.4-0.2-0.5-4.2-0.5-9.8 0-2.8 0.1-8.5 0.2-5.7 0.2-8.6 0-4.1-0.2-6.2 0.7 0 2-0.1 1.3 0 2 0 0.7 0 1.1 0.8 0.4 0.7 0.7 1.3 0.2 0.6 1 1.9 1.5 2.5 4.7 8.6 3 5.6 4.9 8.6 1-0.3 2.4-2.8 0.7-1.2 5.3-8.8 3.3-5.4 4.9-9.2 0.6-0.6 1.5-0.6 0.4 0 1.2 0.2 0.8 0.1 1.2 0.1h0.4q0.4 2.3 0.4 5.9 0 3.7-0.2 11.2-0.1 7.3-0.1 11.1zm40.9 3.4q0 0.4 0.1 0.6l-0.4 0.4q-0.7 0-2.3 0-1.5 0-2.3 0-2.9 0-8.6-0.1-5.7-0.1-8.5-0.1-3.6 0-7.3 0.2-0.4-1.4-0.4-2.7 0-1.1 0.3-3.4 0.3-2.3 0.3-3.4 0-1-0.1-2.7-0.1-1.8-0.1-2.7 0-1.7 0.1-5 0.1-3.4 0.1-5 0-2.4-0.2-4.7-0.4-2.7-0.4-2.1 0-1 1-1 0.3 0 0.7 0.1 0.5 0.1 0.8 0.1 0.6 0 0.9-0.3 3.3 0.4 8.5 0.4 2 0 6 0 4-0.1 6-0.1 0.6 0 1.7 0 1.1 0 1.7 0 0.4-0.1 0.3-0.1 0.2-0.2 0.4-0.2 0.3 0 0.5 0.3l-0.4 3.3q-4.1 0.4-10.6 0.4-1.5 0-4.5 0-3 0-4.5 0-1.8 0-2.8 0l-0.8 1q0.1 0.8 0.1 1.7 0 0.8-0.2 2.4-0.2 1.6-0.2 2.5l0.1 0.8 0.6 0.6q1.5 0.4 3.7 0.4 5.2 0 3.9-0.1 2.3 0.1 3.8 0.6v2.8q-1.9 0.2-3.7 0.2-6.1 0-8 0.5l-0.3 0.3 0.2 10.3 0.7 0.7q1.3-0.1 3.9-0.1 2.7 0 8 0.3 5.4 0.1 8.1 0.1 2.6 0 3.9 0 0.4 0.4 0.4 1 0 0.4-0.1 0.9-0.1 0.6-0.1 0.9zm62.3-28.2h-10.7l-0.2 0.4v3.8q0 12.8-0.2 15.1 0 0.4-0.2 1.7-0.2 1.1-0.2 1.7 0 1 0.2 2.9 0.2 2 0.2 2.9 0 1.4-1.8 1.4-0.4 0-1.1-0.1-0.8-0.1-1.2-0.1-0.2 0-0.7 0.1 0.3-7.3 0.3-14.4 0-6.5-0.2-10.3 0-1.3-0.3-4.1-0.3-1.1-1.8-1.1-0.4 0-0.9 0-0.7 0.1-1 0.1-0.3 0-1.2-0.2-0.8-0.2-2.3-0.2-3.6 0-5.4 0.2 0 0 0-2.2 0-2.1 1.4-2 21.6 0.6 20.1 0.6 2.4 0 7.3-0.1 0.5 2.3 0.5 2.5 0 0.9-0.6 1.4zm47.8 18.4q-0.7 1-1.3 3-0.6 2.1-1.6 3.2-5.8 6.2-12.5 6.1-2.5 0.3-3 0.3-5.5 0-10.6-3.3-2.7-1.7-4-4.4-1.2-2.8-2.4-5.5l-0.3-6.3q0.8-2 2.4-6.1 1.3-3.5 4-5.3 6.3-4.3 11.9-4.3 4.3 0 8.7 2.5 4.4 2.4 6.7 6.1 2.1 3.3 2.1 10.6 0 0.5 0 1.7-0.1 1.1-0.1 1.7zm-5.9-11.5q-0.4-0.7-1.4-2.1-3.7-4.3-10.6-4.3-2.7 0-4.5 0.5-3 0.9-5.3 3.7-2.1 2.5-3 5.8-0.5 1.7-0.5 2.4 0 1.1 0.3 3 1.2 7.5 6.3 9.7 3.3 1.3 7.3 1.3 4.4 0 7-1.3 0.9-0.6 2-1.5 4.6-4 4.6-10.3 0-3.6-2.2-6.9zm70 20.8v1.6l-3.9 0.3v-14.4q-0.2-0.7-0.8-0.9-5.1 0.2-7.3 0.2-9.8 0-13 0.1l-0.7 0.6q0.2 2.2 0 5.8-0.1 4.5-0.1 5.8 0 1.4 0 2.2-0.7 0.5-1.6 0.5-0.7 0-2.6-0.5l-0.4-0.5v-5.1q0 0 0.4-26.8 0.2 0.1 0.7 0.1 0.4 0 1.2-0.2 0.8-0.1 1.2-0.1 0.7 0 1.1 0.2l0.1 12.4q0.3 0.5 1 0.6 0.8 0.2 1.4 0.2 1 0.2 1.6 0.2 1.5 0 4.5-0.1 3 0 4.5 0 3.8 0 7.6 0.2l0.4-0.5q0.2-0.8 0.2-2.5 0-1.1-0.2-3.2-0.1-2.1-0.1-3.2 0-2.1 0.4-3.6 1.6-0.5 2.9-0.5 0.9 0 1.3 0.1 0.5 0.6 0.5 2 0 0.8 0.1 2.2 0.1 1.5 0.1 2.2 0 4.1-0.2 12.4-0.3 8.2-0.3 12.2zm40.8 0.5q0 0.4 0 0.6l-0.3 0.4q-0.7 0-2.3 0-1.5 0-2.3 0-2.9 0-8.6-0.1-5.7-0.1-8.6-0.1-3.6 0-7.3 0.2-0.3-1.4-0.3-2.7 0-1.1 0.3-3.4 0.3-2.3 0.3-3.4 0-1-0.2-2.7-0.1-1.8-0.1-2.7 0-1.7 0.1-5 0.2-3.4 0.2-5 0-2.4-0.3-4.7-0.3-2.7-0.3-2.1 0-1 1-1 0.2 0 0.7 0.1 0.5 0.1 0.8 0.1 0.6 0 0.9-0.3 3.2 0.4 8.5 0.4 2 0 6 0 4-0.1 6-0.1 0.6 0 1.7 0 1.1 0 1.6 0 0.4-0.1 0.4-0.1 0.1-0.2 0.4-0.2 0.3 0 0.5 0.3l-0.5 3.3q-4 0.4-10.6 0.4-1.5 0-4.4 0-3 0-4.5 0-1.9 0-2.8 0l-0.9 1q0.2 0.8 0.2 1.7 0 0.8-0.2 2.4-0.2 1.6-0.2 2.5l0.1 0.8 0.6 0.6q1.4 0.4 3.7 0.4 5.2 0 3.9-0.1 2.2 0.1 3.8 0.6v2.8q-1.9 0.2-3.7 0.2-6.2 0-8 0.5l-0.3 0.3 0.1 10.3 0.8 0.7q1.3-0.1 3.9-0.1 2.7 0 8 0.3 5.4 0.1 8.1 0.1 2.6 0 3.9 0 0.4 0.4 0.4 1 0 0.4-0.2 0.9 0 0.6 0 0.9zm41.1 1.4q-0.4 0-1.1 0-0.7 0-1.1 0-0.8-1.1-1.6-3.3-0.6-1.7-1.2-3.5-1.7-4.2-5.2-4.2-0.1 0-0.4 0-0.3 0.1-0.5 0.1-0.9 0-2.9-0.1-2-0.2-3.1-0.2-0.6 0-1.7 0.2-1.1 0.1-1.5 0.1-0.4 0-1-0.1-0.8-0.2-1-0.2-0.9 1.4-3.1 5.6-1.9 3.6-3.5 5.5-1.1 0.1-2.1 0.1-1.3 0-2.1-0.5 3.5-7.1 11.2-21.3 0.4-0.7 1.3-2.2 0.3-0.8 1.1-2.4 0.7-1.5 1.4-3 1-1.8 1.3-3.2 0.5-0.6 1.4-0.6 0.4 0 1.2 0.1 0.9 0.2 1.3 0.2h0.2q0.7 1.3 2.1 4 0 0 1.1 2.8 2 4.9 5.8 13 4.4 9.3 5.9 12.8-1 0.3-2.2 0.3zm-11.5-19.6q-0.2-0.6-0.7-2.1-0.8-1.5-2.3-4.4-0.1-0.1-0.3-0.1-0.3 0-0.4 0.1-0.4 0.9-2.9 5.2-1.8 3.2-2.2 5.5 1.7-0.1 4.7 0 3.3 0.2 4.6 0.2 0.8 0 1.3-0.1-0.2-0.6-1.8-4.3zm52.3 0q-0.1 0.3-0.8 1.5-2.6 4.7-6.5 4.7-0.2 0.1-0.7 0.6 0.8 2.6 3.1 6.5 2.9 4.7 3.6 6.3v0.3q-0.6-0.1-0.9-0.1-0.4 0-1.1 0.1-0.8 0-1.2 0-1.7 0-2.4-1.2l-6.2-11.9-0.8-0.6q-1.3 0.1-2 0.1-1 0-3.1-0.1-2-0.1-3.1-0.1-2.2 0-3.6 0.3l-0.5 0.7q0.1 0.6 0.1 1.8 0 1.5-0.2 4.5-0.3 2.9-0.3 4.4 0 0.7 0.1 2.1l-0.5 0.3q-0.5-0.2-1.2-0.2-0.6 0-0.9 0.1-2.1 0-2.1-1.2 0-0.4 0.2-1 0.1-0.6 0.3-4.9 0.2-5.1 0.2-10.4 0-2 0-6.3-0.1-4.2-0.1-6.3v-4q1.3-0.2 2.9-0.2 1.1 0 3.3 0.2 2.3 0.1 3.4 0.1 2 0 3.5-0.4 4 0.6 8 1.1 4.7 0.8 7.3 3.1 1.2 1 1.7 1.9 0.8 1.3 0.8 5 0 2.3-0.3 3.2zm-6-7.3q-3.2-2.1-14-2.3-0.5 0-2-0.1-1.1 0-1.9 0-1.3 0-1.7 0.7l-0.1 9.8 0.4 0.4q2.4 0.7 6.9 0.7 0.9 0 2.7-0.1 1.8 0 2.8 0 1.8 0 1.8 0 0 0 1.5-0.2 4.8-0.7 5.5-3.3 0.1-0.4 0.1-1.3 0-3.1-2-4.3zm22.2 15q-0.2 0.4-0.2 0.9 0 0.3 0.1 0.8 0 0.4 0 0.7 0 1.1-1.1 1.3-0.8 0.2-1.2 0.2-1.5 0-2.2-0.7-0.1-3.4-0.2-6.8-0.1-4.1-0.7-6.8 0.4-1.8 0.4-3.8 0-1.2-0.2-3.8-0.2-2.6-0.2-3.9 0.7-0.9 0.8-0.9h2.2q2.3 0 3.3 0.4-0.4 4.5-0.6 11.2-0.2 11.2-0.2 11.2zm-2.1 13.6q-1.2 0-2.3-1.1-0.7-0.6-0.7-1.8 0-0.8 0.7-3.1 0.9-0.7 2.3-0.7 2.7 0 2.7 2.5 0 1.3-0.7 2.6-0.9 1.6-2 1.6z"/>
	</g>
</svg>