<svg version="1.2" xmlns="http://www.w3.org/2000/svg" viewBox="0 0 200 50" width="200" height="50">
	<title>snigdhaos-forum</title>
	<style>
		.s0 { fill: #000000 } 
		.s1 { fill: #c1e7e3 } 
	</style>
	<filter id="f0">
		<feFlood flood-color="#c1e7e3" flood-opacity="1" />
		<feBlend mode="normal" in2="SourceGraphic"/>
		<feComposite in2="SourceAlpha" operator="in" />
	</filter>
	<g id="Folder 1" filter="url(#f0)">
		<path id="Layer" class="s0" d="m22.6 8.7q-2-0.6-4.1-0.7-2.2-0.1-4.3 0.4-2.1 0.5-3.9 1.6-1.9 1-3.4 2.5 0.4 0.1 0.7 0.3 0.4 0.2 0.8 0.4 0.3 0.3 0.6 0.6 0.3 0.3 0.6 0.6 0.1 0.3 0.3 0.5 0.1 0.3 0.2 0.6 0.2 0.3 0.3 0.5 0 0.3 0.1 0.6 0.9-0.4 1.8-0.8 0.9-0.3 1.8-0.6 0.9-0.2 1.9-0.4 1-0.1 1.9-0.1 1.1 0 2.2 0.2 1.1 0.2 2.1 0.5 1.1 0.4 2 1 0.9 0.6 1.7 1.4c4.4 4 3 7.2 2.3 12.4q-0.2 0.9-0.1 1.8 0.1 0.9 0.4 1.8 0.4 0.8 0.9 1.5 0.6 0.8 1.3 1.3c-0.7-3.2 1.7-8.1 2-8.7 0.6-1.9 0.8-3.9 0.6-5.9-0.1-2-0.7-4-1.6-5.8-1-1.8-2.2-3.3-3.8-4.6-1.5-1.3-3.3-2.3-5.3-2.9z"/>
		<path id="Layer" class="s0" d="m25 18.7c-2.1-2.2-5.2-2.9-8.2-2.7l-0.8 0.7q1.6 0 3.1 0.5 1.5 0.5 2.9 1.4 1.3 0.8 2.4 2 1 1.2 1.7 2.7 0.1 0.2 0.2 0.4 0.1 0.2 0.2 0.3 0.1 0.2 0.1 0.4 0.1 0.2 0.2 0.4l0.9-1.7c-0.3-1.9-1.1-2.8-2.7-4.4z"/>
		<path id="Layer" class="s0" d="m25.4 24.7c-4.3-10.7-20.1-8-20.4 3.7 0 0.9 0 2.5 0 3.3q0 0.2 0.1 0.4 0.1 0.1 0.3 0.2 0.2 0.1 0.4 0 0.2 0 0.3-0.1l3.1-3.5q0 0 0 0 0.1-0.1 0.1-0.1 0 0 0 0 0.1 0 0.1 0h0.6l-1.3 2.1q-0.1 0.1-0.1 0.3-0.1 0.1-0.1 0.3 0 0.1 0 0.3 0 0.1 0 0.2c0.2 1 0.3 3.2-1.5 4.8q-0.2 0.1-0.3 0.2-0.1 0.1-0.2 0.3-0.1 0.2-0.1 0.3 0 0.2 0 0.4v3.1q0 0.3 0.1 0.6 0.1 0.3 0.3 0.5 0.2 0.2 0.5 0.4 0.3 0.1 0.7 0.1c7.1-1.5 11.1-5.7 12-7.1q0 0 0.1 0 0 0 0-0.1 0.1 0 0.1 0 0 0 0.1 0h3.8q0.4 0 0.8-0.1 0.3-0.2 0.6-0.5 0.2-0.2 0.4-0.6 0.1-0.3 0.1-0.7c-0.1-2.4 0.4-6.5-0.6-8.7z"/>
	</g>
	<path id="FORUM" class="s1" aria-label="FORUM"  d="m35.8 41v-32.9h9.5v32.9zm11.6-25.6v-7.3h11.1v7.3zm0 13.6v-7.3h9.5v7.3zm34.2 12.2v-16.6q0-4.2-0.1-5.5-0.1-1.9-0.5-2.8-0.5-0.9-1.4-1.1-1-0.1-2.7-0.1-2.1 0-2.7 0.2v-7.5q0.4 0 1.3 0h1.4q5.3 0 8.2 0.8 3 0.8 4.3 2.7 1.3 1.8 1.6 4.7 0.3 2.8 0.3 8.6 0 5-0.2 7.7-0.2 2.7-1.1 4.4-1 2.1-3 3.1-1.9 1.1-5.4 1.4zm-4.7 0.2q-7 0-10.1-1.5-1.5-0.8-2.4-2.1-1-1.3-1.4-3.2-0.4-1.7-0.5-3.8-0.1-2.2-0.1-6.2 0-5 0.2-7.7 0.3-2.7 1.1-4.5 1-2 2.9-3 2-1.1 5.6-1.5v16.7q0 2.8 0.1 5.4 0.1 1.9 0.5 2.8 0.4 0.9 1.3 1.1 0.9 0.2 2.8 0.2 1.9 0 2.6-0.2v7.4q-0.4 0.1-1.2 0.1zm19.7-0.4v-32.9h9.6v32.9zm17.7 0l-4.2-11.2h-2v-7.3h1.7q1.4 0 2.2-0.1 0.8-0.1 1.2-0.5 0.4-0.3 0.5-1 0.2-0.6 0.2-1.9 0-1.3-0.2-2-0.1-0.7-0.5-1-0.4-0.4-1.1-0.5-0.8-0.1-2.3-0.1h-1.7v-7.3h5q3.4 0 5.5 0.7 2.1 0.7 3.2 2.1 1.1 1.3 1.4 3.2 0.4 1.9 0.4 4.9 0 3.8-0.7 6-1.1 2.6-3.6 3.7l5 12.3zm27.9 0.4q-5 0-7.8-0.8-2.7-0.8-4-2.7-1.2-1.6-1.5-4.2-0.2-2.6-0.2-7.7v-17.9h9.5v19.8q0 1.8 0.1 3.4 0.1 1.3 0.4 1.9 0.4 0.5 1.2 0.7 0.7 0.2 2.3 0.2h1.1q0.4 0 0.8-0.1v7.3q-0.3 0.1-0.9 0.1zm3.9-0.2v-33.1h9.6v17.9q0 4.7-0.2 7.1-0.2 2.4-1 4-1 1.8-3 2.8-1.9 1.1-5.4 1.3zm30.4-0.2l-14.7-31.4v-1.5h8.8l13.7 29.3-1.6 3.6zm12.3 0v-13.8h-0.2l-3.2 7.7-4.1-8.8 7.5-18h9v32.9zm-26.9 0v-26.7l8.7 18.7v8z"/>
</svg>