<svg version="1.2" xmlns="http://www.w3.org/2000/svg" viewBox="0 0 300 50" width="300" height="50">
	<title>New Project</title>
	<defs>
		<linearGradient id="g1" x2="1" gradientUnits="userSpaceOnUse" gradientTransform="matrix(-12.961,26.162,-23.386,-11.586,29.723,11.037)">
			<stop offset="0" stop-color="#ffc79c"/>
			<stop offset="1" stop-color="#ffc79c"/>
		</linearGradient>
		<linearGradient id="g2" x2="1" gradientUnits="userSpaceOnUse" gradientTransform="matrix(-3.198,25.23,-21.887,-2.774,34.859,17.961)">
			<stop offset="0" stop-color="#ffab7a"/>
			<stop offset="1" stop-color="#ffab7a"/>
		</linearGradient>
		<linearGradient id="g3" x2="1" gradientUnits="userSpaceOnUse" gradientTransform="matrix(-12.961,26.162,-31.832,-15.77,43.787,18.005)">
			<stop offset="0" stop-color="#ffab7a"/>
			<stop offset="1" stop-color="#ffab7a"/>
		</linearGradient>
		<linearGradient id="g4" x2="1" gradientUnits="userSpaceOnUse" gradientTransform="matrix(-16.324,26.306,-18.962,-11.767,35.376,1.09)">
			<stop offset="0" stop-color="#ffab7a"/>
			<stop offset="1" stop-color="#ffab7a"/>
		</linearGradient>
		<linearGradient id="g5" x2="1" gradientUnits="userSpaceOnUse" gradientTransform="matrix(.299,15.079,-4.112,.081,11.58,25.872)">
			<stop offset="0" stop-color="#ffab7a"/>
			<stop offset="1" stop-color="#ffab7a"/>
		</linearGradient>
		<linearGradient id="g6" x2="1" gradientUnits="userSpaceOnUse" gradientTransform="matrix(-9.397,15.753,-10.304,-6.147,32.032,7.756)">
			<stop offset="0" stop-color="#ffb485"/>
			<stop offset="1" stop-color="#ffb485"/>
		</linearGradient>
		<linearGradient id="g7" x2="1" gradientUnits="userSpaceOnUse" gradientTransform="matrix(-12.961,26.162,-18.992,-9.409,34.053,13.182)">
			<stop offset="0" stop-color="#ffab7a"/>
			<stop offset="1" stop-color="#ffab7a"/>
		</linearGradient>
		<linearGradient id="g8" x2="1" gradientUnits="userSpaceOnUse" gradientTransform="matrix(-2.683,20.436,-3.763,-0.494,14.961,23.423)">
			<stop offset="0" stop-color="#ffb485"/>
			<stop offset="1" stop-color="#ffb485"/>
		</linearGradient>
	</defs>
	<style>
		.s0 { fill: url(#g1) } 
		.s1 { fill: url(#g2) } 
		.s2 { fill: url(#g3) } 
		.s3 { fill: url(#g4) } 
		.s4 { fill: url(#g5) } 
		.s5 { fill: url(#g6) } 
		.s6 { fill: url(#g7) } 
		.s7 { fill: url(#g8) } 
		.s8 { fill: #ffab7a } 
	</style>
	<path id="Layer" class="s0" d="m17.6 20.1c2.9-2.2 4.9 0.8 3.6 3.2l12.8-5.5c-2.5-1.4-1.5-4.4 0.9-4.8 0 0-10.3-3.7-17.3 7.1z"/>
	<path id="Layer" class="s1" d="m31.6 16.8c-5.2-0.5-17.9 5.9-2.6 16.4 0 0 1.6 0.1 1.7 2l0.7 5.4c0 0 2.1 5.1 8.6 5.9q-0.3-1.4-0.6-2.8-0.3-1.4-0.6-2.8-0.2-1.4-0.4-2.8-0.3-1.4-0.4-2.8c-0.1-0.9-4.1-2.4-5-4.6l6.6 0.8c0 0 1.2 1.6 1.8 5.4 0 0 0.9 1.1 3.3 1.5 0 0-2.8-4-3.5-12.6-0.5-4.9-3.7-8.8-9.6-9z"/>
	<path id="Layer" class="s2" d="m41.1 48c-5.6-1.4-10.9-5.6-10.6-8.5 0.1-1.7-0.2-3.8-1-4.7q0-0.1-0.1-0.1-0.1-0.1-0.2-0.1-0.1-0.1-0.2-0.1-0.1 0-0.2 0c-1.6 0-2.2 2.2-2.5 3.4q-0.1 0.4-0.2 0.7-0.2 0.3-0.4 0.6-0.2 0.2-0.5 0.4-0.3 0.2-0.6 0.3l-3.4 1.3q-0.3 0.1-0.6 0c-0.2-0.1-0.4-0.3-0.5-0.5q-0.1-0.3 0.1-0.6 0.1-0.3 0.4-0.4l3.4-1.3q0.2-0.1 0.3-0.1 0.1-0.1 0.2-0.2 0-0.1 0.1-0.2 0.1-0.1 0.1-0.3c0.6-3.1 2-4.7 4.1-4.7q0.3-0.1 0.5 0 0.3 0.1 0.5 0.2 0.3 0.1 0.5 0.2 0.2 0.2 0.4 0.4c1.5 1.6 1.5 5 1.4 5.9-0.1 1.8 3.6 4.7 7.4 6.2-0.7-1.7-1.6-4.6-2.1-8.9q-0.1-0.3-0.1-0.5-0.1-0.2-0.2-0.4-0.1-0.1-0.3-0.3-0.1-0.2-0.3-0.3c-1.6-1.2-3.7-3-4.6-4.9-0.3-0.5 0.2-1.2 0.8-1.1l7 0.4q0.3 0.1 0.5 0.3 0.2 0.3 0.2 0.6 0 0.4-0.2 0.6-0.3 0.2-0.6 0.2l-5.4-0.4c1 1.2 2.4 2.3 3.3 3q0.3 0.2 0.5 0.5 0.3 0.3 0.5 0.6 0.2 0.3 0.3 0.7 0.1 0.4 0.2 0.8c0.9 7.1 2.8 10 2.8 10 0.4 0.5-0.1 1.3-0.7 1.3z"/>
	<path id="Layer" class="s3" d="m41 4.3l-0.9 1q0 0.1-0.1 0.1-0.1 0-0.1 0-0.1 0-0.1-0.1-0.1-0.1-0.1-0.1l0.2-1.7q0.1-0.1 0-0.2 0-0.1 0-0.2-0.1-0.1-0.2-0.1-0.1-0.1-0.2-0.1c-4.9-1.4-11.5-1.6-18.8 2.6q-0.1 0.1-0.3 0.3-0.1 0.1-0.2 0.3 0 0.2-0.1 0.4 0 0.2 0.1 0.3l0.2 1.2q0 0 0 0.1 0 0.1-0.1 0.1-0.1 0-0.1 0-0.1 0-0.2 0l-0.8-0.9q-0.1-0.1-0.3-0.2-0.1 0-0.2 0-0.2 0-0.3 0-0.2 0-0.3 0.1c-2.1 1.6-4.3 3.9-5.5 5.8q-0.2 0.1-0.2 0.4-0.1 0.2-0.1 0.4 0 0.2 0.1 0.4 0.1 0.2 0.3 0.4l1.3 1.6q0.1 0.1 0.1 0.1 0 0.1-0.1 0.2 0 0-0.1 0.1-0.1 0-0.1 0l-1.3-0.4q-0.1 0-0.1 0-0.1 0-0.1 0.1-0.1 0-0.1 0.1 0 0 0 0.1l0.1 0.5q0 0 0 0.1 0 0 0 0.1-0.1 0-0.2 0 0 0-0.1 0l-1.2-0.3q-0.1 0-0.1 0-0.1 0-0.1 0 0 0-0.1 0.1 0 0 0 0c-1.1 2.8-1.5 5.7-1.5 8.4 1.3 1.6 4.4 1.9 5.1-0.4 3.2-13.7 18.8-14.8 25.8-13.7 0 0 2.1-3.3 6.9-4.1q0.2 0 0.3-0.1 0.1-0.1 0.1-0.3 0.1-0.1 0-0.2 0-0.2-0.2-0.3-0.5-0.3-1.1-0.7-0.5-0.3-1.1-0.6-0.5-0.3-1.1-0.6-0.6-0.2-1.2-0.5-0.2-0.1-0.4-0.1-0.2 0-0.4 0-0.2 0.1-0.4 0.2-0.2 0.1-0.3 0.3z"/>
	<path id="Layer" class="s4" d="m9 25.4q0 0.4 0 0.8 0 0.4 0 0.8 0 0.4 0.1 0.8 0 0.4 0 0.8c0.3 5.5 4 9.4 3.4 15.4 0 0 2.3-4.7 1.3-11.9q-0.2-0.9-0.2-1.8 0-0.9 0-1.8 0.1-0.8 0.2-1.7 0.1-0.9 0.3-1.8-0.5 0.3-1.2 0.5-0.6 0.2-1.3 0.2-0.7 0.1-1.3 0-0.7-0.1-1.3-0.3z"/>
	<path id="Layer" class="s5" d="m37.9 14.5c0 0-8.7-3.1-16.4 2.5-2.4 1.7-3.8 3.9-4.8 6.1-1.1 2.4-3 3.5-4.1 2.5 3.9-15.5 18.5-17.4 27.3-14.3z"/>
	<path id="Layer" class="s6" d="m25.3 27.6c-4.3-2.3-1.9-7.9-0.2-9.1-10.8 6.7-1.6 16.4-3.8 21.6l4-1.7c0 0-0.2-4.1 3.7-5.2 0 0 1.6 0.1 1.7 2l0.1 0.8 0.8-0.7c0 0-1.2-5.1-6.3-7.7z"/>
	<path id="Layer" class="s7" d="m12.6 25.6c-1.3 5.4-0.1 9.8-0.1 9.8 1.3 6.8-0.8 11.1-0.8 11.1 4.2-2.8 3.5-10 2.9-11.6-0.6-1.7 0.6-2.6 0.6-2.6-0.1-1.9 0-5.6 1.5-9.2-1.4 1.5-2.9 2.2-4.1 2.5z"/>
	<path id="SNIGDHA OS FORUM" class="s8" aria-label="SNIGDHA OS FORUM"  d="m50.5 20q0 0.6 0.4 1.1 0.3 0.5 0.9 0.9 0.5 0.4 1.2 0.8 0.7 0.4 1.5 0.9 0.7 0.4 1.4 1 0.7 0.5 1.3 1.2 0.5 0.6 0.9 1.5 0.3 0.8 0.3 1.9v0.1q0 1.2-0.3 2.1-0.2 0.8-0.7 1.5-0.5 0.6-1.1 1-0.6 0.4-1.3 0.7-0.7 0.2-1.5 0.3-0.7 0.1-1.3 0.1h-0.1q-1.2 0-2.2-0.2-0.9-0.3-1.5-0.7-0.7-0.4-1.1-0.9-0.5-0.5-0.7-1.1-0.3-0.6-0.4-1.1-0.1-0.6-0.1-1.1 0-0.5 0.2-0.9 0.1-0.3 0.4-0.6 0.3-0.2 0.6-0.3 0.4-0.1 0.8-0.1 0.4 0 0.8 0.1 0.4 0.1 0.7 0.3 0.3 0.3 0.5 0.6 0.2 0.4 0.3 0.9 0 1.1 0.4 1.5 0.5 0.3 1.4 0.3 0.4 0 0.7-0.1 0.4-0.1 0.7-0.3 0.2-0.2 0.4-0.6 0.1-0.4 0.1-1 0-0.8-0.3-1.4-0.3-0.6-0.9-1.1-0.5-0.5-1.2-1-0.7-0.4-1.5-0.9-0.7-0.5-1.4-1-0.7-0.5-1.2-1.1-0.6-0.6-0.9-1.3-0.4-0.7-0.4-1.7v-0.2q0-1.5 0.4-2.5 0.4-1.1 1.2-1.7 0.8-0.6 1.9-0.8 1.1-0.3 2.5-0.3h0.4q1.3 0 2.2 0.3 1 0.3 1.6 0.8 0.6 0.4 0.9 1 0.4 0.5 0.5 1.1 0.2 0.5 0.3 1 0 0.4 0 0.7 0 0.5-0.2 0.8-0.1 0.4-0.4 0.6-0.3 0.3-0.7 0.4-0.3 0.1-0.8 0.1-0.3 0-0.7-0.1-0.3-0.1-0.6-0.4-0.3-0.2-0.4-0.5-0.2-0.2-0.2-0.5 0-1.2-0.4-1.7-0.5-0.4-1.3-0.4-0.4 0-0.7 0-0.4 0.1-0.7 0.3-0.2 0.2-0.4 0.6-0.2 0.4-0.2 1.1zm17.4-3.3l4.6 12.4h0.3v-11.9q0-0.5 0.1-0.9 0-0.4 0.2-0.7 0.2-0.3 0.6-0.5 0.4-0.2 1-0.2 0.8 0 1.2 0.2 0.4 0.2 0.6 0.5 0.2 0.3 0.3 0.7 0.1 0.4 0.1 0.9v14.5q0 0.6-0.1 1.2 0 0.6-0.2 1.1-0.2 0.4-0.6 0.7-0.5 0.3-1.3 0.3h-1.9q-0.6 0-1.1-0.3-0.4-0.2-0.7-0.6-0.3-0.4-0.5-0.8-0.2-0.4-0.3-0.7l-4.3-11.7h-0.4v11.9q0 0.4 0 0.8-0.1 0.4-0.3 0.7-0.2 0.3-0.5 0.5-0.4 0.2-1.1 0.2-0.7 0-1.2-0.2-0.4-0.2-0.6-0.5-0.2-0.3-0.3-0.7 0-0.4 0-0.8v-14.6q0-0.6 0-1.2 0-0.6 0.2-1 0.2-0.5 0.7-0.8 0.4-0.3 1.2-0.3h1.9q0.7 0 1.2 0.3 0.4 0.3 0.7 0.6 0.3 0.4 0.5 0.9zm13.3 15v-13.5q0-0.6 0.1-1.2 0.1-0.5 0.3-1 0.2-0.5 0.7-0.8 0.5-0.3 1.3-0.3 0.8 0 1.3 0.3 0.5 0.3 0.7 0.8 0.3 0.5 0.3 1 0.1 0.6 0.1 1.2v13.5q0 0.6-0.1 1.2 0 0.6-0.3 1.1-0.2 0.4-0.7 0.7-0.5 0.3-1.3 0.3-0.8 0-1.3-0.3-0.5-0.3-0.7-0.7-0.2-0.5-0.3-1.1-0.1-0.6-0.1-1.2zm22.5-4.1v6.1q0 0.2 0 0.4 0 0.3-0.2 0.5-0.1 0.2-0.4 0.4-0.3 0.1-0.8 0.1-0.6 0-0.9-0.1-0.3-0.2-0.5-0.4-0.1-0.2-0.2-0.5 0-0.2 0-0.4v-0.9q-0.7 1-1.8 1.7-1 0.6-2.6 0.6-0.3 0-0.8 0-0.6-0.1-1.3-0.3-0.7-0.1-1.5-0.5-0.8-0.4-1.4-1-0.6-0.7-1-1.7-0.4-1-0.4-2.4v-8.1q0-1.1 0.3-2 0.3-0.9 0.7-1.6 0.5-0.7 1.1-1.1 0.6-0.5 1.2-0.8 1.5-0.7 3.4-0.8 1.6 0 2.7 0.4 1.1 0.3 1.9 0.9 0.8 0.6 1.3 1.3 0.4 0.7 0.7 1.5 0.3 0.7 0.3 1.4 0.1 0.7 0.1 1.2 0 0.2 0 0.5-0.1 0.3-0.3 0.6-0.2 0.3-0.7 0.5-0.4 0.2-1.3 0.2-0.3 0-0.7 0-0.5-0.1-0.9-0.2-0.4-0.2-0.6-0.4-0.3-0.3-0.3-0.8 0-0.8-0.1-1.4-0.1-0.6-0.4-1-0.2-0.5-0.6-0.7-0.5-0.2-1.1-0.2-0.7 0-1.1 0.3-0.4 0.3-0.6 0.6-0.2 0.4-0.2 0.9v9.2q0 0.4 0.2 0.8 0.1 0.4 0.4 0.7 0.3 0.3 0.7 0.5 0.4 0.2 0.9 0.2 0.6 0 1.1-0.3 0.4-0.2 0.8-0.6 0.4-0.5 0.7-1 0.3-0.5 0.5-1.1h-1.4q-0.4-0.1-0.7-0.2-0.3-0.2-0.5-0.5-0.2-0.2-0.2-0.7 0-0.6 0.2-0.9 0.2-0.3 0.5-0.4 0.3-0.2 0.7-0.2h3.7q0.1 0 0.4 0 0.2 0.1 0.4 0.2 0.3 0.2 0.4 0.5 0.2 0.4 0.2 1zm5.3-12.7h4.2q1.3 0 2.4 0.4 1.1 0.3 2 1 0.8 0.6 1.3 1.6 0.5 1 0.5 2.3v8.8q0 1.2-0.3 2-0.2 0.9-0.6 1.5-0.4 0.6-0.9 1.1-0.5 0.4-1 0.7-1.3 0.6-2.8 0.7h-4.8q-0.8 0-1.2-0.3-0.5-0.3-0.7-0.7-0.2-0.5-0.2-1.1-0.1-0.6-0.1-1.2v-13.5q0-0.6 0.1-1.2 0-0.6 0.2-1 0.2-0.5 0.7-0.8 0.4-0.3 1.2-0.3zm4.1 3.4h-1.9v13.3h1.9q0.6 0 1.1-0.3 0.2-0.1 0.4-0.3 0.2-0.1 0.3-0.4 0.2-0.2 0.3-0.5 0.1-0.4 0.1-0.8v-8.5q0-0.4-0.1-0.8-0.1-0.4-0.3-0.6-0.1-0.3-0.3-0.5-0.2-0.2-0.4-0.3-0.5-0.3-1.1-0.3zm9.6 13.4v-13.5q0-0.6 0-1.2 0.1-0.5 0.3-1 0.2-0.5 0.7-0.8 0.4-0.3 1.2-0.3 0.7 0 1.1 0.3 0.5 0.3 0.7 0.8 0.2 0.5 0.3 1 0 0.6 0 1.2v4.5h4v-4.5q0-0.6 0-1.2 0.1-0.5 0.3-1 0.2-0.5 0.7-0.8 0.4-0.3 1.1-0.3 0.8 0 1.2 0.3 0.5 0.3 0.7 0.8 0.2 0.5 0.3 1 0 0.6 0 1.2v13.5q0 0.6 0 1.2-0.1 0.6-0.3 1.1-0.2 0.4-0.7 0.7-0.4 0.3-1.2 0.3-0.7 0-1.1-0.3-0.5-0.3-0.7-0.7-0.2-0.5-0.3-1.1 0-0.6 0-1.2v-4.7h-4v4.7q0 0.6 0 1.2-0.1 0.6-0.3 1.1-0.2 0.4-0.7 0.7-0.4 0.3-1.1 0.3-0.8 0-1.2-0.3-0.5-0.3-0.7-0.7-0.2-0.5-0.3-1.1 0-0.6 0-1.2zm22.4-13l-2.2 7.6h4.6l-2.1-7.6zm3.9-1.1l2.9 10.2q0.1 0.9 0.1 1.9 0.1 1.1 0.1 2v0.4q0 0.6-0.1 1.1 0 0.5-0.2 0.9-0.2 0.4-0.6 0.7-0.4 0.2-1.1 0.2-0.8 0-1.2-0.2-0.4-0.3-0.6-0.7-0.1-0.4-0.2-0.9 0-0.5 0-1.1v-2h-5.7v2q0 0.6-0.1 1.1 0 0.5-0.2 0.9-0.2 0.4-0.6 0.7-0.4 0.2-1.2 0.2-0.7 0-1.1-0.2-0.4-0.3-0.6-0.7-0.2-0.4-0.2-0.9 0-0.5 0-1.1v-0.4q0-0.4 0-0.9 0-0.5 0-1.1 0-0.5 0-1 0-0.5 0.1-0.9 0.7-2.5 1.5-5.1 0.7-2.6 1.5-5.1 0.1-0.5 0.3-1 0.2-0.5 0.5-0.8 0.4-0.4 0.9-0.6 0.5-0.3 1.3-0.3h1.4q0.8 0 1.3 0.3 0.6 0.2 0.9 0.6 0.3 0.3 0.5 0.8 0.2 0.5 0.4 1zm17 11.6v-8.6q0-1.4 0.4-2.3 0.4-1 1.1-1.6 0.6-0.7 1.3-1 0.8-0.4 1.5-0.6 0.7-0.2 1.3-0.2 0.6-0.1 0.8-0.1h0.5q0.3 0 0.9 0.1 0.5 0 1.2 0.2 0.7 0.2 1.5 0.6 0.7 0.3 1.3 1 0.7 0.6 1 1.6 0.4 0.9 0.4 2.3v8.6q0 1.4-0.4 2.4-0.3 1-1 1.6-0.6 0.7-1.3 1.1-0.8 0.4-1.5 0.5-0.7 0.2-1.2 0.3-0.6 0-0.9 0h-0.5q-0.2 0-0.8 0-0.6-0.1-1.3-0.3-0.7-0.1-1.5-0.5-0.7-0.4-1.3-1.1-0.7-0.6-1.1-1.6-0.4-1-0.4-2.4zm4.8-8.8v9.3q0 0.6 0.2 1 0.2 0.3 0.6 0.6 0.4 0.3 1.1 0.3 0.7 0 1-0.3 0.4-0.3 0.6-0.6 0.2-0.4 0.3-1v-9.3q-0.1-0.5-0.3-0.9-0.2-0.4-0.6-0.7-0.3-0.3-1-0.3-0.7 0-1.1 0.3-0.4 0.3-0.6 0.7-0.2 0.4-0.2 0.9zm15.6-0.4q0 0.6 0.4 1.1 0.3 0.5 0.8 0.9 0.6 0.4 1.3 0.8 0.7 0.4 1.4 0.9 0.8 0.4 1.5 1 0.7 0.5 1.2 1.2 0.6 0.6 0.9 1.5 0.4 0.8 0.4 1.9v0.1q0 1.2-0.3 2.1-0.3 0.8-0.7 1.5-0.5 0.6-1.1 1-0.7 0.4-1.4 0.7-0.7 0.2-1.4 0.3-0.7 0.1-1.3 0.1h-0.1q-1.3 0-2.2-0.2-0.9-0.3-1.6-0.7-0.6-0.4-1.1-0.9-0.4-0.5-0.6-1.1-0.3-0.6-0.4-1.1-0.1-0.6-0.1-1.1 0-0.5 0.1-0.9 0.2-0.3 0.5-0.6 0.3-0.2 0.6-0.3 0.4-0.1 0.8-0.1 0.4 0 0.8 0.1 0.4 0.1 0.7 0.3 0.3 0.3 0.5 0.6 0.2 0.4 0.2 0.9 0.1 1.1 0.5 1.5 0.5 0.3 1.3 0.3 0.5 0 0.8-0.1 0.4-0.1 0.7-0.3 0.2-0.2 0.4-0.6 0.1-0.4 0.1-1 0-0.8-0.3-1.4-0.4-0.6-0.9-1.1-0.5-0.5-1.2-1-0.7-0.4-1.5-0.9-0.7-0.5-1.4-1-0.7-0.5-1.3-1.1-0.5-0.6-0.9-1.3-0.3-0.7-0.3-1.7v-0.2q0-1.5 0.4-2.5 0.4-1.1 1.2-1.7 0.7-0.6 1.9-0.8 1.1-0.3 2.5-0.3h0.4q1.3 0 2.2 0.3 0.9 0.3 1.5 0.8 0.7 0.4 1 1 0.4 0.5 0.5 1.1 0.2 0.5 0.2 1 0.1 0.4 0.1 0.7 0 0.5-0.2 0.8-0.1 0.4-0.4 0.6-0.3 0.3-0.7 0.4-0.4 0.1-0.8 0.1-0.3 0-0.7-0.1-0.3-0.1-0.6-0.4-0.3-0.2-0.5-0.5-0.1-0.2-0.1-0.5 0-1.2-0.5-1.7-0.4-0.4-1.2-0.4-0.4 0-0.7 0-0.4 0.1-0.7 0.3-0.3 0.2-0.4 0.6-0.2 0.4-0.2 1.1zm24.4-5.1h5.6q0.6 0 1.2 0.1 0.6 0.1 1.1 0.3 0.4 0.2 0.7 0.6 0.3 0.4 0.3 1.2 0 0.7-0.3 1.1-0.3 0.4-0.7 0.7-0.5 0.2-1.1 0.2-0.6 0.1-1.2 0.1h-3.4v3.7h1.8q0.6 0 1.2 0.1 0.6 0 1 0.2 0.5 0.2 0.8 0.6 0.3 0.5 0.3 1.2 0 0.8-0.3 1.2-0.3 0.5-0.8 0.7-0.4 0.2-1 0.2-0.6 0.1-1.2 0.1h-1.8v4.5q0 0.6 0 1.2 0 0.6-0.3 1.1-0.2 0.4-0.6 0.7-0.5 0.3-1.3 0.3-0.8 0-1.2-0.3-0.5-0.3-0.7-0.7-0.2-0.5-0.2-1.1 0-0.6 0-1.2v-13.5q0-0.6 0-1.2 0-0.5 0.2-1 0.2-0.5 0.7-0.8 0.4-0.3 1.2-0.3zm10.8 14.3v-8.6q0-1.4 0.4-2.3 0.4-1 1-1.6 0.6-0.7 1.4-1 0.7-0.4 1.4-0.6 0.8-0.2 1.3-0.2 0.6-0.1 0.9-0.1h0.5q0.2 0 0.8 0.1 0.6 0 1.3 0.2 0.7 0.2 1.4 0.6 0.8 0.3 1.4 1 0.6 0.6 1 1.6 0.4 0.9 0.4 2.3v8.6q0 1.4-0.4 2.4-0.4 1-1 1.6-0.6 0.7-1.4 1.1-0.7 0.4-1.4 0.5-0.7 0.2-1.3 0.3-0.6 0-0.8 0h-0.5q-0.3 0-0.9 0-0.5-0.1-1.3-0.3-0.7-0.1-1.4-0.5-0.8-0.4-1.4-1.1-0.6-0.6-1-1.6-0.4-1-0.4-2.4zm4.7-8.8v9.3q0.1 0.6 0.3 1 0.2 0.3 0.5 0.6 0.4 0.3 1.1 0.3 0.7 0 1.1-0.3 0.4-0.3 0.6-0.6 0.2-0.4 0.2-1v-9.3q0-0.5-0.2-0.9-0.2-0.4-0.6-0.7-0.4-0.3-1.1-0.3-0.7 0-1.1 0.3-0.3 0.3-0.5 0.7-0.2 0.4-0.3 0.9zm12 11.3v-13.5q0-0.6 0-1.2 0.1-0.6 0.3-1 0.2-0.5 0.6-0.8 0.4-0.3 1.2-0.3h4.8q1.7 0.1 3.1 0.8 0.6 0.3 1.2 0.7 0.5 0.4 1 1.1 0.4 0.6 0.7 1.4 0.3 0.9 0.3 2 0 0.2-0.1 0.6 0 0.4-0.2 0.8-0.1 0.5-0.4 1-0.2 0.4-0.6 0.9-0.4 0.4-1 0.8-0.6 0.4-1.3 0.6 0.5 0.2 1 0.5 0.5 0.3 0.9 0.9 0.4 0.5 0.7 1.2 0.2 0.7 0.2 1.6v2q0 0.2 0.1 0.3 0.1 0.1 0.2 0.2 0.4 0.4 0.4 0.6 0.1 0.3 0.1 0.4 0 0.5-0.2 0.9-0.2 0.3-0.6 0.5-0.3 0.2-0.7 0.3-0.4 0.1-0.8 0.1-0.5 0-1-0.1-0.5-0.2-0.9-0.5-0.4-0.3-0.6-0.7-0.3-0.4-0.3-1v-3q0-0.6-0.1-1.2 0-0.5-0.3-0.9-0.2-0.4-0.7-0.6-0.4-0.2-1.1-0.2h-1.6v4.8q0 0.6 0 1.2-0.1 0.6-0.3 1.1-0.2 0.4-0.6 0.7-0.4 0.3-1.3 0.3-0.8 0-1.2-0.3-0.4-0.3-0.6-0.7-0.2-0.5-0.3-1.1 0-0.6 0-1.2zm4.3-8h2q0.7 0 1.3-0.4 0.2-0.1 0.4-0.3 0.3-0.2 0.4-0.5 0.2-0.3 0.3-0.7 0.1-0.4 0.1-0.9 0-0.5-0.1-0.9-0.1-0.3-0.2-0.6-0.2-0.3-0.4-0.5-0.3-0.1-0.5-0.3-0.5-0.2-1.2-0.3h-2.1zm12 5.5v-10.9q0-0.7 0.1-1.2 0.1-0.6 0.3-1.1 0.2-0.5 0.7-0.7 0.5-0.3 1.3-0.3 0.9 0 1.3 0.3 0.5 0.2 0.7 0.7 0.3 0.5 0.3 1.1 0.1 0.5 0.1 1.2v11.2q0 0.7 0.3 1.2 0 0.2 0.2 0.4 0.1 0.2 0.3 0.3 0.2 0.2 0.5 0.3 0.2 0.1 0.6 0.1 0.3 0 0.6-0.1 0.3-0.1 0.5-0.3 0.2-0.1 0.3-0.3 0.2-0.2 0.2-0.4 0.3-0.5 0.3-1.2v-11.2q0-0.7 0-1.2 0.1-0.6 0.3-1.1 0.3-0.5 0.7-0.7 0.5-0.3 1.4-0.3 0.8 0 1.3 0.3 0.4 0.2 0.7 0.7 0.2 0.5 0.3 1.1 0 0.5 0 1.2v10.9q0 1.5-0.5 2.6-0.4 1.1-1.3 1.9-0.9 0.7-2.1 1.1-1.2 0.4-2.7 0.4-1.5 0-2.7-0.4-1.2-0.4-2.1-1.2-0.9-0.7-1.4-1.9-0.5-1.1-0.5-2.5zm26.8 1.2h-0.3q-0.4 0-0.7-0.2-0.3-0.1-0.5-0.4-0.2-0.2-0.3-0.5-0.2-0.3-0.3-0.6l-2.7-7.8h-0.4v11.9q0 0.5 0 0.9-0.1 0.4-0.3 0.7-0.2 0.3-0.6 0.5-0.3 0.1-1 0.1-0.7 0-1.2-0.1-0.4-0.2-0.6-0.5-0.2-0.3-0.3-0.7-0.1-0.4-0.1-0.9v-14.5q0-0.7 0.1-1.2 0-0.6 0.2-1.1 0.2-0.5 0.6-0.7 0.5-0.3 1.3-0.3h1.9q0.5 0 0.9 0 0.3 0.1 0.6 0.3 0.3 0.2 0.5 0.6 0.3 0.5 0.7 1.3 0.3 0.9 0.8 2.2 0.4 1.3 1 3.2l0.4 1.1h0.4l0.4-1.4q0.6-1.8 1-3.1 0.4-1.2 0.7-2 0.4-0.8 0.6-1.3 0.3-0.4 0.5-0.6 0.3-0.2 0.7-0.3 0.3 0 0.8 0h2q0.8 0 1.3 0.3 0.4 0.2 0.6 0.7 0.2 0.5 0.3 1.1 0 0.5 0 1.2v14.5q0 0.5-0.1 0.9 0 0.4-0.2 0.7-0.2 0.3-0.7 0.5-0.4 0.1-1.2 0.1-0.6 0-1-0.1-0.4-0.2-0.6-0.5-0.2-0.3-0.2-0.7-0.1-0.4-0.1-0.9v-11.9h-0.4l-2.7 7.8q-0.1 0.3-0.2 0.6-0.2 0.3-0.4 0.5-0.2 0.3-0.5 0.4-0.3 0.2-0.7 0.2z"/>
</svg>