<svg version="1.2" xmlns="http://www.w3.org/2000/svg" viewBox="0 0 24 24" width="24" height="24">
	<title>snigdhaos-menu</title>
	<style>
		.s0 { fill: #000000 } 
	</style>
	<filter id="f0">
		<feFlood flood-color="#ffffff" flood-opacity="1" />
		<feBlend mode="normal" in2="SourceGraphic"/>
		<feComposite in2="SourceAlpha" operator="in" />
	</filter>
	<g id="Folder 1" filter="url(#f0)">
		<path id="&lt;Path&gt;" class="s0" d="m13.6 13.5c-1.9 1.9-4.3 2.4-5.9 4.9-1.8 2.8-0.6 5.6-0.6 5.6 0 0 0.2-1.7 2.7-3.7 2.5-2.1 6.3-4.1 6.7-6 0.2-1.2 0.4-2.7-1.3-4.7 0 0 0.3 2.1-1.6 3.9z"/>
		<path id="&lt;Path&gt;" class="s0" d="m9.8 10.5c1.9-1.9 4.3-2.4 5.9-4.9 1.8-2.8 0.6-5.6 0.6-5.6 0 0-0.2 1.7-2.7 3.7-2.5 2.1-6.2 4.2-6.7 6-0.5 1.8-0.4 2.7 1.3 4.7 0 0-0.3-2.1 1.6-3.9z"/>
	</g>
</svg>