<svg version="1.2" xmlns="http://www.w3.org/2000/svg" viewBox="0 0 256 256" width="256" height="256">
	<title>snigdhaos-icon</title>
	<style>
		.s0 { fill: #000000 } 
	</style>
	<filter id="f0">
		<feFlood flood-color="#c1e7e3" flood-opacity="1" />
		<feBlend mode="normal" in2="SourceGraphic"/>
		<feComposite in2="SourceAlpha" operator="in" />
	</filter>
	<g id="snigdhaos-icon" filter="url(#f0)">
		<path id="Layer" class="s0" d="m152.1 15c-9.3-2.9-19-4.6-28.7-4.9-9.8-0.4-19.5 0.6-29 2.9-9.5 2.2-18.7 5.8-27.2 10.5-8.6 4.7-16.5 10.5-23.5 17.3q2.8 0.9 5.4 2.2 2.6 1.3 5 3 2.3 1.7 4.4 3.8 2.1 2 3.8 4.4 1.1 1.7 2.2 3.5 1 1.8 1.8 3.7 0.8 1.8 1.5 3.8 0.6 2 1 4 5.9-3.2 12.1-5.6 6.1-2.5 12.6-4.1 6.4-1.7 13-2.5 6.6-0.8 13.2-0.9c5.1-0.1 10.1 0.2 15 1.1 5 0.8 9.9 2.1 14.6 3.9 4.7 1.8 9.2 4 13.5 6.7 4.2 2.6 8.2 5.7 11.9 9.1 30.2 27.7 20 49.5 15.3 85.4-0.7 4.1-0.9 8.3-0.5 12.4 0.4 4.2 1.4 8.2 2.9 12.1 1.5 3.9 3.6 7.5 6.1 10.8 2.5 3.3 5.5 6.2 8.8 8.7-4.7-22.2 11.8-55.8 13.6-59.6 4.3-13.2 5.8-27.1 4.7-40.8-1.2-13.8-5.1-27.2-11.5-39.5-6.4-12.2-15.2-23.1-25.8-31.9-10.7-8.8-23-15.5-36.2-19.5z"/>
		<path id="Layer" class="s0" d="m168.6 83.2c-15-14.8-36.1-19.7-56.3-18l-6.1 4.2c7.3 0.3 14.5 1.6 21.5 3.8 6.9 2.2 13.6 5.4 19.7 9.3 6.1 4 11.6 8.8 16.5 14.3 4.8 5.4 8.9 11.5 12.1 18.1q0.7 1.3 1.2 2.6 0.6 1.3 1.2 2.6 0.5 1.4 1 2.7 0.5 1.4 0.9 2.7l6.3-11.8c-1.6-13-7.4-19.6-18-30.5z"/>
		<path id="Layer" class="s0" d="m170.8 124.8c-29.2-73.9-138-55.2-139.8 25.5 0.1 5.6 0 17 0 22.6 0 0.9 0.3 1.7 0.8 2.4 0.5 0.8 1.3 1.3 2.1 1.6 0.8 0.3 1.7 0.4 2.6 0.2 0.8-0.2 1.6-0.7 2.2-1.3l21-23.7q0.2-0.2 0.3-0.3 0.2-0.1 0.4-0.2 0.2-0.1 0.4-0.2 0.2 0 0.4-0.1l4.3-0.2-9.1 14.8q-0.6 0.9-0.9 1.8-0.4 1-0.6 2-0.2 1-0.2 2 0 1 0.2 2c1.2 6.2 2.4 21.9-10.5 32.3q-0.9 0.7-1.7 1.7-0.8 0.9-1.3 2-0.5 1.1-0.8 2.3-0.3 1.2-0.3 2.4v21.4c0 1.4 0.3 2.8 0.8 4.1 0.6 1.4 1.4 2.6 2.4 3.6 1 1 2.3 1.8 3.6 2.4 1.3 0.5 2.7 0.8 4.2 0.8 49.2-10 76.6-38.8 82.7-48.4q0.1-0.2 0.3-0.4 0.2-0.2 0.5-0.3 0.2-0.1 0.5-0.2 0.2 0 0.5 0h26.6c1.7 0 3.4-0.4 5-1.1 1.5-0.6 3-1.6 4.2-2.8 1.2-1.2 2.1-2.6 2.8-4.2 0.7-1.6 1-3.3 1-5-0.6-16.3 2.4-44.3-4.6-59.5z"/>
	</g>
</svg>