<svg id="SvgjsSvg1037" width="256" height="256" xmlns="http://www.w3.org/2000/svg" version="1.1" xmlns:xlink="http://www.w3.org/1999/xlink" xmlns:svgjs="http://svgjs.com/svgjs"><defs id="SvgjsDefs1038"></defs><g id="SvgjsG1039"><svg xmlns="http://www.w3.org/2000/svg" data-name="Layer 1" viewBox="0 0 128 128" width="256" height="256"><path d="M69.90527 103H58.09473a3.09226 3.09226 0 00-2.83789 1.84961 3.05558 3.05558 0 00.56055 3.29883l5.09668 5.50781a4.21532 4.21532 0 006.17188 0l5.09668-5.50684a3.05751 3.05751 0 00.56055-3.2998A3.09226 3.09226 0 0069.90527 103zm-5.75488 7.93945a.18873.18873 0 01-.30078 0L60.2041 107h7.5918zM24.666 60.92467a2.00937 2.00937 0 002.76172-2.91945c-17.16309-16.512-21.83105-38.795-23.03516-47.44791a261.15309 261.15309 0 0140.335 27.5082 1.98694 1.98694 0 002.81543-.27284 2.02851 2.02851 0 00-.27051-2.83966A256.71841 256.71841 0 002.88184 5.207 1.98254 1.98254 0 00.90039 5.333 2.0218 2.0218 0 00.00293 7.11977C.06738 8.41008 1.85155 38.97451 24.666 60.92467z" fill="#000000" class="color000 svgShape"></path><path d="M36.55371 42.552a2.03027 2.03027 0 00-.29395-2.83769l-16-13.08334a1.988 1.988 0 00-2.32031-.14381 2.02479 2.02479 0 00-.8877 2.16595 42.89487 42.89487 0 007.76652 16.93249 2.05444 2.05444 0 002.80868.333A2.02788 2.02788 0 0027.957 43.0859a36.05777 36.05777 0 01-5.1123-9.1474l10.89551 8.91A1.99044 1.99044 0 0036.55371 42.552zM46.03809 26.9334a2.07012 2.07012 0 011.59863-.75252H80.36328a2.07356 2.07356 0 011.59961.75252l.79309 1.19286q1.597-1.26765 3.1698-2.47449l-.69043-1.03994c-.0293-.04334-.05957-.08569-.09277-.12706a6.03653 6.03653 0 00-4.7793-2.33832H47.63672a6.03653 6.03653 0 00-4.7793 2.33832c-.0332.04137-.06348.08372-.09277.12706l-.69037 1.03994q1.57416 1.21059 3.17108 2.4756zM109.18 60.67726c-.9126.98608-1.85266 1.96243-2.83954 2.92068l6.66541 10.02495C109.84949 86.7559 89.47516 92.03447 88 92.39885V91.7404a2.00007 2.00007 0 10-4 0v3.69191a12.32231 12.32231 0 00-.86719 1.15808c-2.59668 3.94283-9.13379 15.40983-9.98145 16.72181a14.16789 14.16789 0 01-3.88769 4.28264 9.241 9.241 0 01-7.7002.94853c-4.30273-1.29228-6.94238-5.51779-9.94727-10.90951-1.94434-3.48777-4.15234-7.10064-6.749-11.04347A12.32231 12.32231 0 0044 95.43231V91.7404a2.00007 2.00007 0 10-4 0v.65845c-1.47516-.36438-21.84772-5.64344-24.94922-18.79172l6.63068-9.98727c-.99445-.9649-1.94116-1.94821-2.86035-2.94142l-7.05157 10.6219a4.01141 4.01141 0 00-.66211 3.274c3.6543 15.204 24.87109 20.98082 27.78027 21.70477a8.31772 8.31772 0 012.64746 2.54319c2.541 3.85911 4.69824 7.38825 6.59473 10.78935 2.71582 4.87264 6.0957 10.93808 12.291 12.7977a13.272 13.272 0 0011.04687-1.4479 17.95745 17.95745 0 005.03516-5.44688c.92969-1.43805 7.4209-12.83316 9.96191-16.69226a8.31772 8.31772 0 012.64746-2.54319c2.90918-.724 24.126-6.50079 27.78125-21.70674a3.97038 3.97038 0 00-.62012-3.211z" fill="#000000" class="color000 svgShape"></path><path d="M80.457,37.79268a1.98694,1.98694,0,0,0,2.81543.27284,261.32958,261.32958,0,0,1,40.33887-27.50919c-1.19434,8.6431-5.84277,30.90536-23.03906,47.4489a2.0302,2.0302,0,0,0-.06642,2.85246,2.00869,2.00869,0,0,0,2.82814.067c22.81445-21.95,24.59863-52.51459,24.66309-53.8049a2.0218,2.0218,0,0,0-.89746-1.78673,1.98224,1.98224,0,0,0-1.98145-.12608A256.71841,256.71841,0,0,0,80.72754,34.953,2.02851,2.02851,0,0,0,80.457,37.79268Z" fill="#000000" class="color000 svgShape"></path><path d="M100.373 45.91867a2.00971 2.00971 0 002.80859-.33292 42.89479 42.89479 0 007.7666-16.9326 2.02479 2.02479 0 00-.8877-2.16595 1.99133 1.99133 0 00-2.32031.14381l-16 13.08334a2.03027 2.03027 0 00-.29395 2.83769 1.99131 1.99131 0 002.81348.29648l10.89551-8.91a36.05777 36.05777 0 01-5.1123 9.1474A2.02788 2.02788 0 00100.373 45.91867zM40.25 72.57685a2.98962 2.98962 0 005.81464 1.0139l1.074 2.75065a2.0026 2.0026 0 103.72266-1.47745l-2.16309-5.53848a3.5516 3.5516 0 00-2.49316-2.18171l-6.75488-1.575a2.016 2.016 0 00-.90039 3.93l2.89532.67507A3.0196 3.0196 0 0040.25 72.57685zM90.94824 67.07974A1.99766 1.99766 0 0088.5498 65.5688l-6.75586 1.575a3.55278 3.55278 0 00-2.49219 2.18072l-2.16309 5.53946a2.0026 2.0026 0 103.72266 1.47745l1.074-2.75065a2.99713 2.99713 0 104.61951-3.41686l2.89532-.67507A2.01655 2.01655 0 0090.94824 67.07974z" fill="#000000" class="color000 svgShape"></path></svg></g></svg>