<svg id="SvgjsSvg1001" width="256" height="256" xmlns="http://www.w3.org/2000/svg" version="1.1" xmlns:xlink="http://www.w3.org/1999/xlink" xmlns:svgjs="http://svgjs.com/svgjs"><defs id="SvgjsDefs1002"></defs><g id="SvgjsG1008"><svg xmlns="http://www.w3.org/2000/svg" data-name="Layer 1" viewBox="0 0 168 168" width="256" height="256"><path fill="#0bceb2" d="M89.90527,129H78.09473a3.09226,3.09226,0,0,0-2.83789,1.84961,3.05558,3.05558,0,0,0,.56055,3.29883l5.09668,5.50781a4.21532,4.21532,0,0,0,6.17188,0l5.09668-5.50684a3.05751,3.05751,0,0,0,.56055-3.2998A3.09226,3.09226,0,0,0,89.90527,129Zm-5.75488,7.93945a.18873.18873,0,0,1-.30078,0L80.2041,133h7.5918Z" class="color0bceb2 svgShape"></path><path fill="#2d4356" d="M44.666,86.92467a2.00937,2.00937,0,0,0,2.76172-2.91945c-17.16309-16.512-21.83105-38.795-23.03516-47.44791a261.15309,261.15309,0,0,1,40.335,27.5082,1.98694,1.98694,0,0,0,2.81543-.27284,2.02851,2.02851,0,0,0-.27051-2.83966A256.71841,256.71841,0,0,0,22.88184,31.207a1.98254,1.98254,0,0,0-1.98145.12608,2.0218,2.0218,0,0,0-.89746,1.78673C20.06738,34.41008,21.85155,64.97451,44.666,86.92467Z" class="color2d4356 svgShape"></path><path fill="#0bceb2" d="M56.55371,68.552a2.03027,2.03027,0,0,0-.29395-2.83769l-16-13.08334a1.988,1.988,0,0,0-2.32031-.14381,2.02479,2.02479,0,0,0-.8877,2.16595,42.89487,42.89487,0,0,0,7.76652,16.93249,2.05444,2.05444,0,0,0,2.80868.333A2.02788,2.02788,0,0,0,47.957,69.0859a36.05777,36.05777,0,0,1-5.1123-9.1474l10.89551,8.91A1.99044,1.99044,0,0,0,56.55371,68.552Z" class="color0bceb2 svgShape"></path><path fill="#2d4356" d="M66.03809 52.9334a2.07012 2.07012 0 011.59863-.75252h32.72656a2.07356 2.07356 0 011.59961.75252l.79309 1.19286q1.597-1.26765 3.1698-2.47449l-.69043-1.03994c-.0293-.04334-.05957-.08569-.09277-.12706a6.03653 6.03653 0 00-4.7793-2.33832H67.63672a6.03653 6.03653 0 00-4.7793 2.33832c-.0332.04137-.06348.08372-.09277.12706l-.69037 1.03994q1.57416 1.21059 3.17108 2.4756zM100.457 63.79268a1.98694 1.98694 0 002.81543.27284 261.32958 261.32958 0 0140.33887-27.50919c-1.19434 8.6431-5.84277 30.90536-23.03906 47.4489a2.0302 2.0302 0 00-.06642 2.85246 2.00869 2.00869 0 002.82814.067c22.81445-21.95 24.59863-52.51459 24.66309-53.8049a2.0218 2.0218 0 00-.89746-1.78673 1.98224 1.98224 0 00-1.98145-.12608A256.71841 256.71841 0 00100.72754 60.953 2.02851 2.02851 0 00100.457 63.79268z" class="color2d4356 svgShape"></path><path fill="#0bceb2" d="M120.373 71.91867a2.00971 2.00971 0 002.80859-.33292 42.89479 42.89479 0 007.7666-16.9326 2.02479 2.02479 0 00-.8877-2.16595 1.99133 1.99133 0 00-2.32031.14381l-16 13.08334a2.03027 2.03027 0 00-.29395 2.83769 1.99131 1.99131 0 002.81348.29648l10.89551-8.91a36.05777 36.05777 0 01-5.1123 9.1474A2.02788 2.02788 0 00120.373 71.91867zM60.25 98.57685a2.98962 2.98962 0 005.81464 1.0139l1.074 2.75065a2.0026 2.0026 0 103.72266-1.47745l-2.16309-5.53848a3.5516 3.5516 0 00-2.49316-2.18171l-6.75488-1.575a2.016 2.016 0 00-.90039 3.93l2.89532.67507A3.0196 3.0196 0 0060.25 98.57685zM110.94824 93.07974a1.99766 1.99766 0 00-2.39844-1.51094l-6.75586 1.575a3.55278 3.55278 0 00-2.49219 2.18072l-2.16309 5.53946a2.0026 2.0026 0 103.72266 1.47745l1.074-2.75065a2.99713 2.99713 0 104.61951-3.41686l2.89532-.67507A2.01655 2.01655 0 00110.94824 93.07974z" class="color0bceb2 svgShape"></path><path fill="#2d4356" d="M38.11042 30.94658a3 3 0 10-3-3A3.00344 3.00344 0 0038.11042 30.94658zm0-4.5a1.5 1.5 0 11-1.5 1.5A1.50148 1.50148 0 0138.11042 26.44658zM160.11042 49.89642a2 2 0 102 2A2.00229 2.00229 0 00160.11042 49.89642zm0 3a1 1 0 111-1A1.001 1.001 0 01160.11042 52.89642zM8.88958 13.61021a2 2 0 102 2A2.00229 2.00229 0 008.88958 13.61021zm0 3a1 1 0 111-1A1.001 1.001 0 018.88958 16.61021zM116.55342 5a2 2 0 102 2A2.00229 2.00229 0 00116.55342 5zm0 3a1 1 0 111-1A1.001 1.001 0 01116.55342 8zM87.88958 35.61021a2 2 0 10-2 2A2.00229 2.00229 0 0087.88958 35.61021zm-3 0a1 1 0 111 1A1.001 1.001 0 0184.88958 35.61021z" class="color2d4356 svgShape"></path><polygon fill="#0bceb2" points="8.305 53.729 9.792 51.773 8.853 51.241 7.898 53.431 7.867 53.431 6.897 51.257 5.942 51.804 7.413 53.714 7.413 53.745 5.112 53.447 5.112 54.511 7.428 54.214 7.428 54.245 5.942 56.154 6.833 56.718 7.851 54.511 7.882 54.511 8.821 56.702 9.807 56.139 8.305 54.261 8.305 54.23 10.667 54.511 10.667 53.447 8.305 53.76 8.305 53.729" class="color0bceb2 svgShape"></polygon><polygon fill="#0bceb2" points="62.781 10.677 61.925 11.776 62.439 12.1 63.025 10.83 63.043 10.83 63.583 12.091 64.151 11.767 63.286 10.686 63.286 10.668 64.646 10.83 64.646 10.217 63.286 10.397 63.286 10.379 64.142 9.253 63.602 8.947 63.052 10.208 63.034 10.208 62.476 8.956 61.925 9.271 62.773 10.37 62.773 10.388 61.448 10.217 61.448 10.83 62.781 10.659 62.781 10.677" class="color0bceb2 svgShape"></polygon><polygon fill="#0bceb2" points="122.614 33.638 122.614 32.594 120.297 32.901 120.297 32.871 121.755 30.952 120.834 30.431 119.898 32.579 119.867 32.579 118.916 30.446 117.979 30.983 119.422 32.856 119.422 32.886 117.165 32.594 117.165 33.638 119.437 33.347 119.437 33.377 117.979 35.249 118.854 35.802 119.852 33.638 119.882 33.638 120.803 35.787 121.77 35.234 120.297 33.392 120.297 33.362 122.614 33.638" class="color0bceb2 svgShape"></polygon><polygon fill="#0bceb2" points="151.333 14.196 152.591 12.541 151.796 12.091 150.989 13.944 150.962 13.944 150.142 12.104 149.333 12.568 150.578 14.183 150.578 14.21 148.632 13.958 148.632 14.858 150.591 14.607 150.591 14.633 149.333 16.248 150.088 16.725 150.949 14.858 150.975 14.858 151.769 16.711 152.604 16.235 151.333 14.646 151.333 14.62 153.331 14.858 153.331 13.958 151.333 14.222 151.333 14.196" class="color0bceb2 svgShape"></polygon><circle cx="2" cy="147" r="2" fill="#2d4356" class="color2d4356 svgShape"></circle><path fill="#2d4356" d="M11 145H8a2 2 0 000 4h3a2 2 0 000-4zM160 145h-3a2 2 0 000 4h3a2 2 0 000-4z" class="color2d4356 svgShape"></path><circle cx="166" cy="147" r="2" fill="#2d4356" class="color2d4356 svgShape"></circle><path fill="#0bceb2" d="M118.15387 153h-8.30774a2.00641 2.00641 0 000 4h8.30774a2.00641 2.00641 0 000-4zM58.15387 153H49.84613a2.00641 2.00641 0 000 4h8.30774a2.00641 2.00641 0 000-4zM104 153H64a2 2 0 000 4H79.94v2H72a2 2 0 000 4H97a2 2 0 000-4H88.06v-2H104a2 2 0 000-4z" class="color0bceb2 svgShape"></path><path fill="#2d4356" d="M150.72131,145H93.79059a22.56115,22.56115,0,0,0,2.71234-3.48541c.92969-1.438,7.4209-12.83319,9.96191-16.69226a8.31774,8.31774,0,0,1,2.64746-2.54321c2.90918-.72394,24.126-6.50079,27.78125-21.70673a3.97034,3.97034,0,0,0-.62012-3.211L129.18,86.67725c-.9126.98608-1.85266,1.9624-2.83954,2.92065l6.66541,10.025c-3.15637,13.133-23.5307,18.41162-25.00586,18.776v-.65851a2.00007,2.00007,0,1,0-4,0v3.692a12.31328,12.31328,0,0,0-.86719,1.15808c-2.59668,3.94281-9.13379,15.40979-9.98145,16.7218a14.16885,14.16885,0,0,1-3.8877,4.28265,9.24106,9.24106,0,0,1-7.7002.94849c-4.30273-1.29224-6.94238-5.51776-9.94727-10.90948-1.94434-3.48779-4.15234-7.10065-6.749-11.04346A12.31328,12.31328,0,0,0,64,121.43231v-3.692a2.00007,2.00007,0,1,0-4,0v.65851c-1.47516-.36438-21.84772-5.64349-24.94922-18.79175l6.63068-9.9873c-.99445-.9649-1.94116-1.94818-2.86035-2.94141L31.76953,97.30029a4.01142,4.01142,0,0,0-.66211,3.274c3.6543,15.204,24.87109,20.98084,27.78027,21.70477a8.31774,8.31774,0,0,1,2.64746,2.54321c2.541,3.85907,4.69824,7.38824,6.59473,10.78931,1.73535,3.11353,3.746,6.70929,6.58484,9.38837h-57.436a2.017,2.017,0,1,0,0,4H150.72131a2.017,2.017,0,1,0,0-4Z" class="color2d4356 svgShape"></path></svg></g></svg>