<svg id="SvgjsSvg1025" width="256" height="256" xmlns="http://www.w3.org/2000/svg" version="1.1" xmlns:xlink="http://www.w3.org/1999/xlink" xmlns:svgjs="http://svgjs.com/svgjs"><defs id="SvgjsDefs1026"></defs><g id="SvgjsG1027"><svg xmlns="http://www.w3.org/2000/svg" data-name="Layer 1" viewBox="0 0 128 128" width="256" height="256"><path fill="#d68751" d="M2.84,7.07874,39.2,30.26886l7.38-6.37244H80.6l7.38,6.37244L125.6,7.07874s-2.21079,31.00737-20.39,49.22506l9.77,17.63761S111.2,87.38,87.08,93.98l-16.2,25.02679a16.20741,16.20741,0,0,1-10.6759.83323C54.01737,118.31574,42.08,95.88855,42.08,95.88855S17.42,86.18281,13.1,73.94141L22.82,56.3S-.22,27.15747,2.84,7.07874Z" class="colord68751 svgShape"></path><path fill="#2d4356" d="M72.74,104.85A3.09026,3.09026,0,0,0,69.91,103H58.09a3.09026,3.09026,0,0,0-2.83,1.85,3.04158,3.04158,0,0,0,.56,3.3l5.09,5.51a4.23273,4.23273,0,0,0,6.18005,0l5.09-5.51A3.04158,3.04158,0,0,0,72.74,104.85Zm-8.59,6.09a.18758.18758,0,0,1-.3,0L60.2,107h7.6Z" class="color2d4356 svgShape"></path><path fill="#ffdb80" d="M67.8,107l-3.65,3.94a.18758.18758,0,0,1-.3,0L60.2,107Z" class="colorffdb80 svgShape"></path><path fill="#2d4356" d="M36.55371,42.552a2.03027,2.03027,0,0,0-.29395-2.83769l-16-13.08334a1.988,1.988,0,0,0-2.32031-.14381,2.02479,2.02479,0,0,0-.8877,2.16595,42.89487,42.89487,0,0,0,7.76652,16.93249,2.05444,2.05444,0,0,0,2.80868.333A2.02788,2.02788,0,0,0,27.957,43.0859a36.05777,36.05777,0,0,1-5.1123-9.1474l10.89551,8.91A1.99044,1.99044,0,0,0,36.55371,42.552Z" class="color2d4356 svgShape"></path><path fill="#2d4356" d="M106.84869,57.28314c19.4765-21.53845,21.0874-48.94293,21.14838-50.16339a2.02181,2.02181,0,0,0-.89746-1.78674,1.98211,1.98211,0,0,0-1.98145-.126A252.20672,252.20672,0,0,0,88.21472,28.97015s-3.03894-4.444-3.07214-4.48541a6.0365,6.0365,0,0,0-4.7793-2.33832H47.63672a6.0365,6.0365,0,0,0-4.7793,2.33832c-.0332.04138-.06348.08374-.09277.12708l-3.08258,4.27893A252.10768,252.10768,0,0,0,2.88184,5.207a1.98241,1.98241,0,0,0-1.98145.126A2.02181,2.02181,0,0,0,.00293,7.11975C.06384,8.33966,1.6734,35.72491,21.13,57.26L11.76953,71.30029a4.01142,4.01142,0,0,0-.66211,3.274c3.6543,15.204,24.87109,20.98083,27.78027,21.70477a8.31774,8.31774,0,0,1,2.64746,2.54321c2.541,3.85907,4.69824,7.38824,6.59473,10.78931,2.71582,4.87268,6.0957,10.93811,12.291,12.79773a13.27185,13.27185,0,0,0,11.04688-1.44794,17.95735,17.95735,0,0,0,5.03516-5.44684c.92969-1.438,7.4209-12.83319,9.96191-16.69226a8.31774,8.31774,0,0,1,2.64746-2.54321c2.90918-.72394,24.126-6.50079,27.78125-21.70673a3.97034,3.97034,0,0,0-.62012-3.211ZM88,92.39886v-.65851a2.00007,2.00007,0,1,0-4,0v3.692a12.31328,12.31328,0,0,0-.86719,1.15808c-2.59668,3.94281-9.13379,15.40979-9.98145,16.7218a14.16885,14.16885,0,0,1-3.8877,4.28265,9.24106,9.24106,0,0,1-7.7002.94849c-4.30273-1.29224-6.94238-5.51776-9.94727-10.90948-1.94434-3.48779-4.15234-7.10065-6.749-11.04346A12.31328,12.31328,0,0,0,44,95.43231v-3.692a2.00007,2.00007,0,1,0-4,0v.65851c-1.47516-.36438-21.84772-5.64349-24.94922-18.79175l8.8855-13.41357c.24536.24292.47937.49023.72974.73114a2.00939,2.00939,0,0,0,2.76172-2.91949C10.26465,41.49316,5.59668,19.21027,4.39258,10.55731a261.15174,261.15174,0,0,1,40.335,27.50818,1.987,1.987,0,0,0,2.81543-.27283,2.0285,2.0285,0,0,0-.27051-2.83966q-2.23434-1.85907-4.44519-3.60968l3.21082-4.40991a2.07015,2.07015,0,0,1,1.59863-.75256H80.36328a2.0736,2.0736,0,0,1,1.59961.75256l3.09277,4.502q-2.15085,1.70847-4.32812,3.51764a2.0285,2.0285,0,0,0-.27051,2.83966,1.987,1.987,0,0,0,2.81543.27283,261.325,261.325,0,0,1,40.33887-27.50916c-1.19434,8.64307-5.84277,30.90533-23.03906,47.44885a2.03021,2.03021,0,0,0-.06641,2.85248,2.00871,2.00871,0,0,0,2.82813.067c.2276-.21893.43988-.44391.66327-.66455l9.00861,13.36273C109.84949,86.75586,89.47516,92.03448,88,92.39886Z" class="color2d4356 svgShape"></path><path fill="#2d4356" d="M100.373 45.91867a2.00971 2.00971 0 002.80859-.33292 42.89479 42.89479 0 007.7666-16.9326 2.02479 2.02479 0 00-.8877-2.16595 1.99133 1.99133 0 00-2.32031.14381l-16 13.08334a2.03027 2.03027 0 00-.29395 2.83769 1.99131 1.99131 0 002.81348.29648l10.89551-8.91a36.05777 36.05777 0 01-5.1123 9.1474A2.02788 2.02788 0 00100.373 45.91867zM40.25 72.57685a2.98962 2.98962 0 005.81464 1.0139l1.074 2.75065a2.0026 2.0026 0 103.72266-1.47745l-2.16309-5.53848a3.5516 3.5516 0 00-2.49316-2.18171l-6.75488-1.575a2.016 2.016 0 00-.90039 3.93l2.89532.67507A3.0196 3.0196 0 0040.25 72.57685zM90.94824 67.07974A1.99766 1.99766 0 0088.5498 65.5688l-6.75586 1.575a3.55278 3.55278 0 00-2.49219 2.18072l-2.16309 5.53946a2.0026 2.0026 0 103.72266 1.47745l1.074-2.75065a2.99713 2.99713 0 104.61951-3.41686l2.89532-.67507A2.01655 2.01655 0 0090.94824 67.07974z" class="color2d4356 svgShape"></path><path fill="#72492d" d="M113.01 73.62C109.85 86.76 89.48 92.03 88 92.4v-.66a2.0001 2.0001 0 10-4 0v-2a2.0001 2.0001 0 114 0v.66c1.43-.36 20.41-5.27 24.6-17.39zM84 93.43v2a14.03583 14.03583 0 00-.87 1.16C80.54 100.53 74 112 73.15 113.31a13.99717 13.99717 0 01-3.89 4.28 9.19222 9.19222 0 01-7.7.95c-4.3-1.29-6.94-5.51-9.94-10.91-1.95-3.48-4.16-7.1-6.75-11.04A14.03583 14.03583 0 0044 95.43v-2a14.03583 14.03583 0 01.87 1.16c2.59 3.94 4.8 7.56 6.75 11.04 3 5.4 5.64 9.62 9.94 10.91a9.19222 9.19222 0 007.7-.95 13.99717 13.99717 0 003.89-4.28C74 110 80.54 98.53 83.13 94.59A14.03583 14.03583 0 0184 93.43zM44 89.74v2a2.0001 2.0001 0 10-4 0v.66c-1.48-.37-21.85-5.64-24.95-18.79l.4-.61C19.59 85.13 38.57 90.04 40 90.4v-.66a2.0001 2.0001 0 114 0zM27.77 58.47a1.662 1.662 0 00-.34-.46C10.26 41.49 5.6 19.21 4.39 10.56c.11.06.22.12.34.18 1.64 9.8 6.83 30 22.7 45.27A2.00534 2.00534 0 0127.77 58.47zM123.61 10.56c-1.19 8.64-5.84 30.9-23.04 47.45a1.662 1.662 0 00-.34.46 2.00534 2.00534 0 01.34-2.46c15.9-15.3 21.08-35.49005 22.71-45.27z" opacity=".4" class="color72492d svgShape"></path><path fill="#e5d0c3" d="M123.61 10.56c-.09.65-.2 1.38-.33 2.18A261.37286 261.37286 0 0083.27 40.07a1.98119 1.98119 0 01-2.81-.28 2.01422 2.01422 0 01-.19-2.29 1.80622 1.80622 0 00.19.29 1.98119 1.98119 0 002.81.28A260.84218 260.84218 0 01123.61 10.56zM85.06 31.44c-.3.23-.59.47-.89.71l-2.21-3.22a2.07046 2.07046 0 00-1.6-.75H47.64a2.07046 2.07046 0 00-1.6.75l-2.29 3.15c-.31-.25-.61-.5-.92-.74l3.21-4.41a2.07046 2.07046 0 011.6-.75H80.36a2.07046 2.07046 0 011.6.75zM47.54 39.79a1.98119 1.98119 0 01-2.81.28 261.42743 261.42743 0 00-40-27.33c-.14-.8-.25-1.53-.34-2.18A260.58247 260.58247 0 0144.73 38.07a1.98119 1.98119 0 002.81-.28 1.80622 1.80622 0 00.19-.29A2.01422 2.01422 0 0147.54 39.79z" opacity=".3" class="colore5d0c3 svgShape"></path></svg></g></svg>