<svg id="LINE" viewBox="0 0 64 64" xmlns="http://www.w3.org/2000/svg"><path d="m36.95215 5.26758c-13.52588-4.2002-23.15235 3.03906-26.66358 6.34765h-.00048a1.976 1.976 0 0 0 .7163 3.3086 6.55668 6.55668 0 0 1 4.42676 5.03517 2.01954 2.01954 0 0 0 1.13185 1.4033 1.94748 1.94748 0 0 0 1.75928-.06933 22.70225 22.70225 0 0 1 8.95788-2.66113l-4.47052 3.14044a16.46837 16.46837 0 0 0 -14.046 16.26v5.13472a1.00016 1.00016 0 0 0 1.74854.66309l4.78711-5.40039a.50129.50129 0 0 1 .35009-.16992l.97657-.05957-2.08789 3.39257a2.49115 2.49115 0 0 0 -.33155 1.75586c.26221 1.42676.55567 4.999-2.3833 7.36231a2.4715 2.4715 0 0 0 -.95215 1.91894v4.86719a2.51178 2.51178 0 0 0 2.50785 2.50392 2.52518 2.52518 0 0 0 .61816-.07715c11.56348-2.89063 16.606-8.62793 18.23682-10.96a.4924.4924 0 0 1 .41015-.209h6.06055a2.97712 2.97712 0 0 0 2.97412-2.97363v-7.749a16.44072 16.44072 0 0 0 -.2876-3.00293l2.8382-5.3617a27.06894 27.06894 0 0 1 -.58234 6.60877c-.19824 1.2539-.41894 2.64746-.626 4.22461-.81885 6.24707 2.11816 9.91015 4.72607 11.88379a1.95194 1.95194 0 0 0 2.23438.0957 1.99272 1.99272 0 0 0 .89062-2.10449c-.73584-3.5625 1.519-9.39453 2.96826-12.28125a1.924 1.924 0 0 0 .10938-.26856l.14355-.45215a25.79 25.79 0 0 0 -17.14108-32.10643zm2.72656 40.51367a.97483.97483 0 0 1 -.97412.97363h-6.06059a2.50029 2.50029 0 0 0 -2.04834 1.06153c-1.17236 1.67675-5.86914 7.36328-17.084 10.168a.52526.52526 0 0 1 -.44824-.09473.4916.4916 0 0 1 -.19239-.39258v-4.86722a.49911.49911 0 0 1 .20606-.36133c3.8833-3.12207 3.35156-7.89355 3.09619-9.28125a.48681.48681 0 0 1 .06836-.34667l3.09619-5.03028a1.00014 1.00014 0 0 0 -.85156-1.52441c-.02 0-.04.001-.06055.002l-2.89551.17578a2.486 2.486 0 0 0 -1.728.83985l-3.03858 3.42773v-2.499a14.45752 14.45752 0 0 1 28.915 0zm.92688-13.54266a16.47021 16.47021 0 0 0 -14.12689-10.59967l4.27759-3.00483a15.02084 15.02084 0 0 1 9.35455 4.0915 16.41129 16.41129 0 0 1 3.31195 4.19079zm11.57654 4.54461-.12988.416c-.43116.8584-4.18116 8.53418-3.09815 13.58984a10.18377 10.18377 0 0 1 -3.94971-10.02832c.20411-1.55761.42188-2.93359.61817-4.1709 1.05859-6.68359 1.542-9.73437-4.10938-15.29a17.05912 17.05912 0 0 0 -10.81158-4.66994.985.985 0 0 0 -.26984-.011c-.48321-.03193-.9674-.05634-1.45276-.05634a24.53813 24.53813 0 0 0 -11.59472 2.9668 8.49466 8.49466 0 0 0 -5.72559-6.457l.001-.002c3.25683-3.06738 12.1831-9.78418 24.69873-5.89258a23.78577 23.78577 0 0 1 15.82371 29.60544z"/></svg>