<svg version="1.2" xmlns="http://www.w3.org/2000/svg" viewBox="0 0 512 512" width="512" height="512">
	<title>SnigdhaOS</title>
	<style>
		.s0 { fill: #bd4b4b } 
		.s1 { fill: #a3e4d7 } 
	</style>
	<filter id="f0">
		<feFlood flood-color="#754ffe" flood-opacity="1" />
		<feBlend mode="normal" in2="SourceGraphic"/>
		<feComposite in2="SourceAlpha" operator="in" />
	</filter>
	<g id="snigdhaos-graphics" filter="url(#f0)">
		<path id="&lt;Path&gt;" class="s0" d="m271.3 307.3c-6.5-13.2-6.6-29.6-8-44.2-0.9-15.5-1.2-31.1-1-46.7-1.4 15.6-2.4 31.1-2.7 46.8 0.3 15.2-1 30.6 4.3 45-3 3-5.9 6-8.5 9.2-2.6-3.2-5.5-6.3-8.4-9.2 5.2-14.4 4-29.9 4.2-45-0.3-15.7-1.3-31.2-2.7-46.8 0.2 15.6 0 31.2-1 46.7-1.3 14.6-1.4 31-8 44.2l-1.5 2.4c4.3 4.2 8.8 9.3 12.5 14.8 2 3.2 3.7 6.5 4.9 9.9 1.2-3.4 2.9-6.7 5-9.9 3.6-5.5 8.2-10.6 12.4-14.8z"/>
		<path id="&lt;Path&gt;" class="s0" d="m287.7 348.6c1.6-8 2.6-16.2 2.9-24.4 0.3-13.9-0.7-27.5-4.3-41 14.4-5.8 25.1-17.9 34.4-30.1 0.7-12.9-3.4-25.5-10.1-36.5-7.2 21.5-25.5 36.7-43.2 49.7 16.2-8.4 32.6-19.1 42.9-34.6 1.9 6 2.6 12.4 2.4 18.5-8.8 10.4-20.1 22-33.1 25.6l-4.7 1.2c0 0 1.5 4.8 1.5 4.8 5.8 20.3 6.7 42.7 3.7 63.7-1.7 13.8-8.5 37-11.8 50.8 0 0 13.8-26.9 13.8-26.9 4.9-10.2 9.7-19.2 18.1-26.9 7.8-7.5 17.2-13.6 26.8-19.3-14.5 5.7-28.9 13.4-39.3 25.4z"/>
		<path id="&lt;Path&gt;" class="s0" d="m334.6 220.3c-5.9 31.2-9.6 72.8 14.6 97.4 0 0 6.1-7 6.1-7-23.8-20.4-23.5-61.4-20.7-90.4z"/>
		<path id="&lt;Path&gt;" class="s0" d="m234.5 281.8l1.4-4.8c0 0-4.7-1.2-4.7-1.2-13-3.6-24.3-15.2-33-25.6-0.3-6.1 0.5-12.5 2.3-18.5 10.3 15.5 26.8 26.2 43 34.6-17.8-13-36.1-28.2-43.2-49.7-6.7 11-10.9 23.6-10.1 36.5 9.2 12.2 19.9 24.3 34.3 30.1-1.6 6.1-2.6 12.1-3.3 18.3-1.8 15.7-1.1 31.6 1.9 47.1-10.4-12-24.7-19.7-39.3-25.4 9.6 5.7 19 11.8 26.9 19.3 8.3 7.7 13.1 16.7 18 26.9 0 0 13.9 26.9 13.9 26.9-3.3-13.6-10.2-37-11.9-50.8-2.9-21-2-43.4 3.8-63.7z"/>
		<path id="&lt;Path&gt;" class="s0" d="m155.6 310.7c0 0 6.1 7 6.1 7 24.2-24.6 20.5-66.2 14.5-97.4 2.8 29 3.1 70-20.6 90.4z"/>
		<path id="&lt;Path&gt;" class="s0" d="m230.4 137.1l8.2-3.1c1 14.4 4.4 28.8 11 41.5 1.6 3.2 3.5 6.3 5.6 9.2q3.2-4.6 5.7-9.7c0 0 0-0.1 0.1-0.1 6.5-12.8 9.9-26.7 11.4-40.8 3.6 1.3 8 3 8 3 29.4 12.1 55.8 38.1 54.7 71.9 2.9-21.5-6.7-43.3-21.4-58.8-8.1-8.6-18.2-15.7-28.8-21.5 7.9-27.7 1.8-58.6-15.5-81.6 13.6 23.1 16.9 52.3 7.1 77.3q-1.7-0.9-3.4-1.7c0.4-15.9-1.4-32-4.2-47.3-4.1-21.8-10.6-43-18.9-63.4 6.3 32.2 12.9 64.1 13.3 96.8 0.6 20.5-1.9 39.1-8.1 54.9-4.2-10.2-6.9-21.9-8-34.9-1.9-21.6-0.5-42.9 1.4-64.8-5.6 16.7-9.2 34.1-10.1 51.9q-0.2 3.3-0.3 6.6-1.9 0.9-3.9 1.9c-9.7-25-6.5-54.2 7.2-77.3-17.3 23-23.4 53.9-15.5 81.6-10.6 5.8-20.7 12.9-28.9 21.5-14.7 15.5-24.3 37.3-21.4 58.8-1-33.8 25.3-59.9 54.7-71.9z"/>
	</g>
	<filter id="f1">
		<feFlood flood-color="#754ffe" flood-opacity="1" />
		<feBlend mode="normal" in2="SourceGraphic"/>
		<feComposite in2="SourceAlpha" operator="in" />
	</filter>
	<g id="snigdhaos-texts" filter="url(#f1)">
		<path id="SNIGDHA OS" class="s1" aria-label="SNIGDHA OS"  d="m90 415.8h0.5 1.6 2.3v0.2l0.4-0.1 0.2 0.1 2-0.2h3.7l6.3 0.1 0.2-0.1 0.3 0.1 5.6 0.1h2.2l2.5 0.1v10l-0.1 0.4 0.1 0.4-0.1 0.2h-4l-0.3-0.1-0.3 0.1h-0.1l-0.2-0.1-0.1 0.1h-0.1l-0.8-0.1-0.5 0.1v-0.1 0.1l-0.9-0.1-9.2 0.1h-0.4-3.7l-0.3-0.2-0.5 0.1-0.3-0.3q0 0.1-0.5 0.3l-0.1 0.5v0.9 0.4 0.3q-0.9 0.1-0.9 0.2v0.1q0.9 0.2 0.9 0.3v2 0.2 0.3l-0.1 0.6 0.2 0.5h0.1v-0.1l-0.1-0.3h0.1l0.4 0.2q0.2-0.2 0.5-0.2h7.2l4.2 0.3v-0.1q0-0.1-0.2-0.1v-0.1h0.5l0.7-0.1 0.2 0.1h0.1 3 0.4 0.2q1 0 2.7 0.9 0.1 0.4 0.8 0.8 1.5 1.3 1.5 3.9h-0.1 0.1v0.3l-0.1 0.1h0.1v0.4l-0.1 0.4 0.1 0.3v0.1l-0.1 0.1h0.1l-0.1 0.8 0.1 4.1v4l-0.1 0.6 0.1 0.3-0.2 1.5 0.1 0.6v0.4l-0.1 0.3 0.1 0.2-0.1 0.6 0.1 1.3v0.8q0 2.8-2.4 4.5-1 0.8-3.4 0.8h-8.4l-1.1-0.1-0.1 0.1-0.4-0.1h-4.8-0.9-0.2l-0.6-0.1-0.4 0.1h-1.2l-0.3 0.1q-0.8-0.1-2.8-0.1h-6.2-0.1v-0.3-9.4-1.3l0.4-0.1h1.1l1.7 0.1 1-0.1v0.1l0.2-0.1 1.4 0.1 0.3-0.1 0.3 0.1 0.1-0.1 0.9 0.3q0.6-0.2 1.6-0.2h0.2v0.1l-0.4 0.1v0.1l5.7-0.3h2.8l0.6 0.1 0.1-0.1h0.1l1.7 0.1h1.7q0.2 0 0.2 0.3h0.1q0-0.4 0.1-0.4h0.5v0.1h0.1v-0.1h0.1l-0.1-0.1v-0.1l0.1-0.8v-2.3-0.8l-0.1-0.9 0.1-0.4-0.1-0.4 0.1-0.2-0.4-0.1h-0.4q0-0.3-0.1-0.3-0.2 0-0.3 0.3h-0.1q-1.8-0.3-2.9-0.3l-0.4 0.1-0.4-0.1h-1l-0.8 0.2v-0.1 0.1h-0.1l-1.7 0.1-0.1-0.1-0.3 0.1h-2l-1.1 0.1-0.1-0.1-0.5 0.1-0.2-0.1-0.7 0.1h-2.9q-2.8 0-2.8-0.6 0-0.4-0.8-0.4-1 0-2.1-2.3l-0.1-0.3h0.1q0.1 0.1 1.3 1.8v0.1h0.1l-1.6-2.4q-0.2-0.5-0.2-1.1 0-0.3 0.1-0.3v-0.1-3.6-0.7h-0.1v-0.4l0.1 0.1 0.1-4.7v-1.5q0-0.4-0.3-0.4l0.1-0.8v-3.9l-0.1-0.4 0.1-0.3h-0.1l0.2-0.3-0.2-0.3h0.1v-0.5q0-0.6 0.5-2.1 1.9-2.7 4.5-2.7h0.2l0.2 0.2h0.2zm65.9 33.2v0.3zm0.3 3.6h-0.2v0.1l0.1 0.5h0.1zm-0.1-0.7h-0.1l-0.1 0.1 0.1 0.3h0.1zm-0.1-0.8h-0.1v0.5h0.1zm0.2 10v0.1q0.2 0.9 0.2 3v0.9 1.2 0.9 0.1 0.5 0.3 0.1 0.1l-0.2 0.9v3.3h-0.1q-2.3-2.2-2.4-2.7-6.5-6.6-6.5-7.1l-1.6-1.5q0-1.3-0.1-4.3l0.1-0.2h-0.1v-0.1l0.1-0.5-0.1-0.5 0.1-0.1-0.1-0.6v-0.5l0.1-0.3-0.1-0.4v-1.2q0-2.2 0.5-5.7l-0.2-0.3v-0.1q0-1.1 0.3-2.2l-0.1-0.2h-0.1q-0.1 0-0.3 1.1h-0.1v-5.7q0-7.1 0.1-10.8 0.7-0.2 1.3-0.2v-0.1h-0.4l-0.9 0.1v-0.7q0.1-0.6 0.2-0.6v-0.3q-0.3 0.3-0.5 0.3h-0.8v-0.2l-0.1-0.9h0.1l-0.1-0.3q-0.3 0-0.3 0.9v0.3l-0.1 0.2h-2.4-1.1-1.2-2.3l-0.1-0.2q-0.3 0.2-1 0.2h-0.1-0.1-0.1l-0.5-0.1-0.4 0.1h-0.2l-0.4-0.1q-0.2 0.4-0.2 1.9v1.7l-0.1 0.1h0.1v0.1l-0.1 0.2v0.1h0.1l-0.1 1.1v2.1q0 3.4-0.1 5.4l0.1 1.4-0.1 5.2 0.1 7.7v7h-0.4-1.5-0.3-2.2-4.7l-1.2-0.1-0.1 0.1-0.9-0.1v-0.2l0.2-0.1v-0.3l0.1-14.9 0.1-0.2-0.1-0.3v-0.2l0.1-0.3-0.1-0.4 0.1-0.4v-0.2h-0.1l0.1-1.7v-9-0.1-0.1-0.7-0.1-0.1-0.2-0.1-1.3-0.1-0.1-0.1-0.3-0.1-0.3l0.1-0.4-0.1-0.1 0.1-0.4v-0.8l-0.1-0.4 0.1-0.1h-0.1 0.1v-1.2-4.3-0.6-2.2-2.7q-0.1-0.9-0.1-2.9v-0.9-1.1-0.9-0.1-0.6-0.3-0.1l0.2-0.9v-3.3h0.1q2.3 2.1 2.4 2.6 6.5 6.6 6.5 7.2l1.5 1.3h1l0.2 0.1 0.1-0.1 1.1 0.1h6.4 1.4 0.3 0.1 1.6 1.4 0.1 0.5 2.9l0.1 0.1v0.1l0.3-0.2 1.2 0.4h0.3l0.4-0.1q2.1 0.1 3.2 1.8l0.6 3.8-0.1 2.3v0.7l0.1 2.3-0.1 2.5v3.1 1.1 0.2l-0.1 6.9h-0.1l0.1 0.2-0.2 8 0.1 0.1-0.1 0.6q0 4.6-0.1 4.6h-0.1v0.8l-0.1 0.3q0.2 0.3 0.2 1.3v0.6l-0.1 0.9 0.1 0.1v0.1l-0.1 0.8 0.1 1.6zm6.6-45.4h0.5l1.2 0.1v-0.1l0.5 0.1 2.7 0.1 0.1-0.1 0.4 0.1h0.6 0.3l0.2-0.1 0.4 0.1h0.1 1.7 0.1 0.1 1.2q0 2.7-0.3 5.6v0.2l-0.1 0.4h0.1v-0.1h0.1v1.5 0.6l-0.1 0.1h0.1v0.6q0 0.5-0.2 0.5l0.1 4.7v0.6l0.1 0.5-0.1 6.7v0.1 0.8 0.2 0.4 0.4 1.2l-0.1 0.4q0.1 0.3 0.1 0.8v1.5l0.1 2.1-0.1 2.3v2.5q0 1.4-0.1 1.4l0.1 0.3v3.3l0.1 1.3h-0.1l0.1 0.7v4.2l-0.1 0.8q0.1 0.5 0.1 1.3v1 0.1q-0.1 0.2-0.1 0.2 0 0 0.1 1.7v0.1 1.1 0.3 0.4 0.4 0.6 0.7 0.1 0.3 0.2 0.4 0.3l-0.1 0.8q-0.3 0-3.7-3.6-4.5-4.6-4.5-4.9l-1-1.3 0.4 0.6v0.1h-0.1q-2-1.8-2-2.3l-0.1-0.3v-0.4h0.1l0.3 0.2q-0.4-0.4-0.4-0.8v-0.8l-0.1-1.1 0.1-0.1-0.1-0.3 0.1-2v-0.6l-0.1-1.8 0.1-1.8v-1.2l-0.1-1.5h0.1-0.1l0.1-0.5-0.1-0.6 0.1-0.4-0.1-1v-1.2-1.5-0.5-0.2-0.2l0.4-2.3-0.3-6.2h0.1l-0.1-0.1v-0.9l0.1-0.1-0.1-0.4v-6.8l0.1-1.6-0.1-0.2 0.3-2.4v-0.2h-0.1l0.1-0.6v-1.6-0.5h0.2q0 0.2 0.1 0.2-0.2-0.8-0.3-0.8v-0.3-1.5-0.5h0.2q0.1 0 0.1 0.2h0.1v-0.1-0.1zm9.7 8.4v0.2zm-10 37.3v0.1 0.1h0.1zm19.7-45.5h0.3l0.1 0.2 0.1-0.1h0.1l1.5 0.1 1.3-0.1 0.2 0.1v0.1l-1.1 0.1v0.1h0.1q1.3-0.1 1.9-0.3h1.5 0.1 2.9l2.5-0.1 0.7 0.1 0.8-0.1 1 0.1 0.8-0.1 0.2 0.1 0.6-0.1 0.9 0.1 0.5-0.1 0.4 0.1 0.6-0.1v0.1l0.1-0.1 0.2 0.1h0.2v-0.1l4.2 0.1q0.2 0 0.5 0.3 0.1-0.3 0.2-0.3h0.3q1.3 0 2.2 1v-0.1q0.6 0 1.7 1.5 0.2 0 0.6 2.5l0.2 1.8v0.4 0.3 1 1.5 0.6 0.1 0.2 0.8 2.3l-0.1 0.3 0.1 0.2v0.7l-0.1 0.3 0.1 0.2q-0.1 1.1-0.2 1.1h-0.6l-1.3-0.1-1 0.1q-4-0.1-5.4-0.3l-0.1 0.1h-0.1l-0.8-0.1v0.1h-0.3v-0.1l-0.1-0.1-0.4 0.1q-0.5 0-0.5-0.5v-3.6q0-0.3 0.3-0.3v-0.1q0-0.1-0.3-0.1v-0.3l0.6-0.2v-0.1h-0.1l-0.3 0.1h-0.1l0.1-0.3-0.2-0.3-0.2 0.2h-0.2-0.4-2.1-0.1-0.1-0.5-2v-0.2h-0.2q0 0.2-0.1 0.2h-4l-0.1-0.2v-0.3-0.3-0.3q-0.2 0-0.2 0.9v0.2h-0.7l-0.4-0.2q-0.2 0.3-0.4 0.3l0.1 0.4v0.5 0.6 0.1 0.1 0.2 0.2 0.5 1.2q-0.4 3.2-0.4 7.4v0.5l0.2-0.2v0.7h-0.1l-0.1 0.9v0.4l0.1 2.5h0.1 0.1v0.4h-0.2q0.2 2 0.2 3.4v1.8l-0.1 0.2 0.1 0.3v0.1l-0.1 0.6 0.1 0.1h0.3l0.2 0.1 0.1-0.1h1.5q0 0.3 0.1 0.3l0.1-0.3 8.6 0.2h0.1 0.1l0.6-0.1v-0.1h-0.2v-0.1q0.2-0.3 0.5-0.3h0.4v-0.2q-0.4 0-0.4-0.1l-0.1 0.1h-0.2q-0.3-0.1-0.3-0.5v-0.4l0.3-2h-0.3v-1.3q0.3 0 0.3-0.1v-0.1l-0.3-0.1v-0.3q0-0.1 0.2-0.1v-0.1h-0.1l0.1-0.1v-0.1l-0.3-0.2q-0.2 0-0.5 0.2h-0.1-0.1q-1.2 0-1.2-0.1v-0.1h-0.1v0.2h-0.5q-0.1 0-0.2-0.3h-0.1l0.1 0.3h-2.7l-0.2-0.2 0.1-0.5v-1.1l0.1-0.2-0.2-0.7 0.1-0.2-0.1-0.7v-1l0.2-0.1v-0.1l-0.2-0.2v-0.2q0-0.2 0.7-0.4l0.3 0.1h0.6l0.3-0.1 2.8 0.4v-0.2h-0.2v-0.1h11.7q0.6 0 0.6 0.6l-0.1 2v2l-0.1 1.8 0.1 0.1-0.1 0.7v8.8 1.8q-0.1 0-0.3 0.4h0.3q-0.9 2.4-1.4 2.6h-0.1l0.7-2.6-0.1-0.1h-0.1l-0.9 3.1q-1.4 1.2-2.8 1.2h-0.4q0-0.3-0.3-0.5-0.1 0-0.1 0.5h-2.8l-0.2-0.1-0.1 0.1-10.8-0.2h-0.1-0.4-0.1-0.1-0.1-4-3.3l-0.1 0.1h-0.1v-0.1l-0.7 0.1q-0.7 0-2.1-0.7-1-0.6-1.5-1.3 0.3-0.1 0.5-0.4v-0.1q-0.4 0.4-0.6 0.4h-0.1q-0.6-1-0.6-1.3l0.1-0.4q-0.1-1.2-0.3-1.2-0.2 0-0.2-0.4h0.2v-0.1l-0.2-0.2v-9.3l0.1-1.2-0.1-0.1 0.1-0.3v-4.8-2.2l0.1-0.8h-0.1l0.1-0.3v-2.4q0-2.3 0.2-2.3l-0.1-0.1 0.1-0.9h-0.2v-0.7-0.7l0.4-3.8h-0.2l-0.1 1.2v0.2h-0.2v-3.9h0.2q-0.1-0.8-0.2-0.8l0.1-0.3-0.1-0.6q0-1.9 2.1-3.9 1.8-1.4 2.8-1.4zm2.2 0.4l-1.3 0.1 0.5 0.1 0.9-0.1v-0.1zm-2.7 0.1l-0.1 0.1h1.2v-0.1h-0.7zm-1.7 1.5l-0.1-0.1v0.3h0.1zm18.7 20.9h-0.2v0.1h0.2 0.1 0.1 0.2zm22.6-22.8h0.2 0.3 0.1 0.3 0.1 0.2 0.4 5.6 0.3 0.2 0.1 1.5 0.3 0.2l0.1-0.1 1.1 0.1 0.3-0.1v0.1h1.7l0.2-0.1 0.3 0.1 8.6-0.2v0.3h0.1q0.1 0 0.1-0.2h0.3q2.7-0.1 4.7 2.5 0.6 1.3 0.6 2.5v0.1l0.1 1.1v0.3q0 2-0.2 3.9l0.1 0.7v6.7 0.6 0.1 1.3l0.1 17.1 0.1 1.9q0 2.8-0.8 3.8-0.9 1.6-1.9 1.6-2.7 1-4.1 1h-3.8-0.5l-0.4 0.1v-0.2l1.4-0.2-4.6 0.3-7.3 0.1-0.6-0.1-0.3 0.1v-0.1 0.1l-0.5-0.1-1.8 0.1-2.6-0.1-0.8 0.1-0.5-0.1h-0.2v0.1h-0.4-1.5l-2.4-0.1-0.1 0.1-0.1-0.8q0.1 0 0.3-0.4l-0.1-0.1v-0.9-0.2-0.1-0.1-0.7l-0.2-3.2 0.2-6.7h0.2v-0.2l-0.2-0.2 0.2-0.3-0.1-0.3 0.1-0.3 0.1-3.1-0.1-0.2 0.1-0.3-0.1-0.5v-0.4l0.2-0.8-0.1-0.4h-0.1q-0.2 1.5-0.4 2.2h-0.1v-1l0.1-0.1h-0.1v-0.7q0-2.3 0.3-3.8-0.2-0.3-0.2-1.6l0.2-0.1-0.2-0.2 0.1-0.1v-0.1l-0.1-1.7 0.2-2.1h-0.2q0 0.2-0.1 0.2v-0.1l-0.1-1.7v-0.1q0-4 0.1-8.5v-1.1l-0.2-1.4q0-2.1 0.2-2.7h1.7l0.9-0.1zm15.8 10h-0.2l-0.2 0.9-9.7 0.2-0.2-0.1q-0.3 0.1-0.3 0.1v0.6h-0.2v0.2h0.2l0.1 0.3-0.1 1.1 0.1 8.3v0.1 0.1l0.1 2.1-0.1 0.9 0.1 0.2-0.1 0.2 0.1 0.1-0.1 0.3v3.3l0.1 0.8-0.1 0.7 0.1 0.2-0.1 0.3v0.3l0.1 0.2-0.1 0.2h0.1l-0.1 0.1 0.1 1.1-0.2 0.5h0.2v0.1h-0.2v0.1l-0.4-0.1 0.1-0.1v-0.1h-0.4-0.4q0 0.2 1.3 0.4l-0.2 0.4 1.5 0.2 0.2-0.1h1.4 3.5l0.1 0.1v-0.1h1.7 2.2v1h0.1v-0.7l0.1-0.3h0.3q0.1 0 0.1 0.3l0.2 0.1q0-0.4 0.6-0.4l-0.1-0.1v-0.1-0.1l-0.2-0.1v-1-0.6-0.5-0.6-0.7-0.8l-0.1-0.9 0.3-0.5h-0.1l-0.1 0.1v-0.2-0.9-3.3l-0.1-0.7h0.1v-0.1h-0.1l0.1-1.3-0.1-3.5 0.1-0.1-0.1-0.1v-0.3l0.1-0.1h-0.1v-0.8l-0.1-3.4v-0.5h0.1l-0.1-0.1v-0.3q0-0.1 0.3-0.1v-0.1q0-0.1-0.2-0.1v-0.5q0.1 0 0.1-0.1l-0.1-0.1v-0.1-0.1-0.1-0.3h-0.5-0.5zm50.6-8.8l-0.1 0.2v0.3l0.1 0.5v-0.2-0.4zm-8.2 28.5l-0.1 0.1 0.1 0.1v-0.2zm8.3-25.4l-0.1-0.2v0.1l0.1 0.1zm-0.1-1.9l-0.1 0.4h0.1zm0.2 37.5v14.4 1.1h-0.1q-0.8-0.5-2.8-2.6-0.5-0.3-6.4-6.2-1.4-1.2-1.7-2-0.2-0.3-0.2-0.5v-0.7-0.5-0.5-0.7l0.1-0.1-0.1-0.2 0.2-1.8-0.2-1.5h0.1l-0.1-0.2 0.2-0.8-0.1-1.6v-2.2l0.3-3.4q-0.1 0-0.2 0.5h-0.1v-0.2q0-0.8 0.1-0.8 0.8 0 0.8-0.2h-0.8v-0.2l1 0.1v0.2h0.1q0.3 0 0.4-0.2v-0.1l-1.4-0.1v-0.1l0.2-0.9v-0.1l-0.3 0.1h-0.1q0-0.4-0.2-0.5v0.5h-0.5-0.3-0.4-8.8l-0.1-0.2h-0.1q0 0.2-0.4 0.2-0.2 0-0.2-0.3h-0.1q0 0.2-0.1 0.2-0.2 0-0.2-0.2h-0.2v0.2l-0.2 0.7 0.1 1-0.4 0.2q0 0.1 0.4 0.2v0.9h0.1 0.1v0.2h-0.2q0.1 1.9 0.2 2.4h-0.1l0.1 0.4v0.7l-0.1 2.5 0.1 0.9-0.1 0.1v0.1l0.1 0.2-0.1 0.6 0.1 1v1.9l-0.1 0.3 0.1 0.3v0.1h-0.1l0.1 0.3v0.3l-0.1 1.3q-2.3 0.3-3.7 0.3l-2.7-0.1-0.1 0.1-0.4-0.1-4.1-0.1v-0.1-0.1l-0.1-1.8 0.1-0.3-0.1-0.3 0.1-2.3v-6.2q0-1 0.4-4.8-0.2 0-0.4 1.3h-0.1v-1.7l-0.1-0.1 0.1-0.1v-0.4l-0.1-0.1 0.1-0.1-0.1-1.6v-0.1l0.1-0.7-0.1-0.1 0.1-0.3h-0.1l0.1-0.1v-0.6l-0.1-0.3 0.1-0.1-0.1-0.6 0.1-1-0.1-0.7h0.1-0.1l0.1-0.5 0.1-2.4-0.1-0.3 0.4-9.3-0.1-0.6v-1.7h-0.1l0.3-4h-0.2q0.1-1.8-0.1-2.4v-9.6l0.1-1.1h0.1q0.8 0.5 2.7 2.6 0.5 0.3 6.4 6.2 1.4 1.1 1.8 2h-0.1q0 4.3-0.2 11.8v3.4l-0.5 0.1q0 0.2 0.5 0.3v0.2q0 0.6 0.1 0.9l0.6-0.1q0.6 0.2 1.8 0.2h0.9 0.3v-0.1h-0.3l0.1-0.1h0.6v0.1h-0.3v0.1h0.4 0.1 0.1l5.1-0.1 0.6-0.1 0.1 0.4q0.1 0 0.1-0.2l0.1-0.1h1.1l0.5 0.1v-0.1-0.1q-0.3 0-0.3-0.2v-0.6h0.3v-0.1l-0.3-0.1 0.1-1.1v-5.1-0.9-0.3-0.1-0.2-1.7-0.1l0.1-0.2-0.1-0.3 0.1-0.2h-0.1l0.1-1v-1.1l0.1-2.8-0.1-0.4q0-0.4 0.9-0.4h8.9l0.1 0.1 0.1-0.1h0.1q0.5 0 0.6 0.2l-0.1 0.3 0.1 0.3v-0.7h0.2l0.1 1.8-0.1 0.5 0.2 1.4-0.1 0.4 0.1 1-0.1 4.4q0 0.2-0.2 0.2v0.1l0.1 0.6-0.1 0.1 0.1 0.3v0.7 0.2 0.1l-0.1 3.9v1.9l0.1 1.7-0.1 0.2q0.1 0.2 0.2 1.5l0.1 0.3-0.1 1 0.1 0.2-0.1 0.5-0.1 7.8v5.1 0.7 0.5 1.2 0.8 0.2zm26.6-28.8l-2.5-0.2-5.9 0.2-0.4-0.1-0.2 0.1-0.2-0.2-0.4 0.1h-0.9v-0.3q-0.2 0.2-0.4 0.2v4.9l-0.2 0.2v0.1q0.2 0 0.2 0.1l-0.1 0.6 0.1 0.1 0.3-0.1h0.9q0 0.3 0.1 0.3 0.2 0 0.2-0.3l1.1-0.1 2.1 0.1 0.5-0.1 0.1 0.1h0.1l0.2-0.1v0.1l0.1-0.1 0.1 0.1h0.1v-0.1h0.1l0.4 0.1 0.4-0.1 0.2 0.1 0.3-0.1 0.3 0.1 1.4-0.1h0.5 0.6v-0.1l0.2 0.1h1.1l0.1 0.4h0.1v-0.4h0.5v-0.1q-0.2 0-0.2-0.3l0.2-0.2-0.5-0.1 0.1-0.2-0.1-1.1v-1.6l0.4-0.5v-0.1h-0.1l-0.3 0.3v-1h0.3 0.2l0.2-0.1-0.5-0.1h-0.2v-0.2l0.1-0.3-0.3-0.3v0.2h-0.2l-0.1-0.3h-0.1q-0.1 0-0.1 0.4zm12.1 33.2l-0.1 0.7-0.2 3.7 0.1 0.1-0.1 0.4v1.6 0.6 0.1 1.1 0.9 0.2 0.3 1h-0.3q-2.9-2.6-7.4-6.9l0.1-0.1v-0.1q-0.6-0.2-3.1-2.6v-0.2l0.2-0.1q-0.2-0.2-0.2-0.4v-3.1l0.1-0.2-0.1-0.3v-0.9l0.1-0.1h-0.1v-3.3l0.1-0.1h-0.1v-3.2l0.1-0.2-0.1-0.3v-0.1l0.1-1-0.1-0.1v-0.6l-0.1-1 0.2-0.5-0.2-0.3v-0.2h0.3q-0.2-0.3-0.2-0.5 0.2 0 0.2-0.1l-0.1-0.2h1.1l0.1-0.1v-0.1h-1.4v-0.1l-0.1-0.2h-0.1l-0.2 0.2h-0.1v-0.2h-0.1l-0.3 0.2-0.4-0.1-2.9 0.1h-0.1-0.6-1.6l-0.6 0.1-0.2-0.1v0.1l-0.1-0.1h-0.5-0.6-0.6-1.1v-0.4q-0.2 0-0.2 0.4h-0.5-0.7l-0.1 0.2 0.1 0.4q-0.6 0-0.6 0.1v0.1l0.5 0.1-0.2 4.4 0.2 2.9h-0.1q0.3 1 0.3 3.5v4.9l-0.3 0.3h-0.3l-0.5-0.1h-6.5v0.1h-0.1l-0.1-0.1-0.6 0.1h-1.6-1.1q-0.3-0.2-0.4-2.4v-0.3l-0.1-1.1 0.1-0.1-0.1-0.5v-3.2-0.7-5.7l0.1-3.1-0.1-0.5v-3.3l-0.1-1.6h0.1v-0.1l-0.1-0.3 0.1-0.4-0.1-0.6-0.1-2.8 0.1-0.1v-0.1l-0.1-0.4 0.1-1.2q0-0.9-0.1-0.9v-0.1-0.9-0.4-0.3-1.8-0.3-0.4-1.7-0.3-0.2-1.1l0.1-1.1-0.1-1.5v-3.8l0.1-0.4h-0.1v-0.1l0.1-0.2-0.1-0.6v-0.2l0.1-0.2 0.2-3.6v-0.1-0.5-1.6l0.1-0.6h-0.1v-0.1l0.1-0.9v-0.9l-0.1-0.3 0.1-0.2v-1.1h0.2q3 2.6 7.4 6.9v0.1q0.6 0.2 3.1 2.7v0.1h2.9 0.9 0.8 0.8l2.3 0.1h0.1 1.1 2l-0.1 0.4 5-0.2h0.3 0.3 0.7l1.5-0.1q1.6 0 2.4 0.7 1.2 0.7 2 2.7 0.2 1.1 0.2 2.9v0.4 4.9 0.9 1.2 9.5q0 2.2 0.1 3.1v0.1 0.4 2.8l-0.1 0.6v7.7l0.1 0.7-0.1 0.5v2.8zm60.4-44.6l0.3-0.1 0.3 0.1v-0.1l0.1 0.1h1.6l0.9 0.1 0.8-0.2v0.2l0.7-0.2q0.3 0 0.3 0.3 0.3 0.2 2.3 0.6 0.7 0.4 0.7 0.9 0.5 1.1 0.8 1.3h0.2v-0.1q0.4 0 0.4 1.8h0.1q0 0.5 0.2 0.5v0.2 0.1 0.1l0.1 0.7-0.1 2.3v5 0.5 0.5 1.8 0.7 0.6 0.8 0.4 1.8 0.5 1.1 2l0.1 15 0.1 0.9q-0.5 2.2-1.7 3.5-1.4 1.3-4.3 1.3l-2 0.1-5.4-0.2h-3.6l-1.9 0.1-0.1-0.1-0.6 0.1q-9.2 0-9.2 0.1v0.2h-0.3q-1.8 0-3.7-2.1-1.1-1.3-1.1-3.9v-2.1-0.5q-0.2-0.3-0.2-6.9l0.1-18.2-0.1-2.4h0.1-0.1l0.1-0.3-0.1-2.3v-0.8q0-3.9 3.3-5.3h0.1l0.2 0.2 0.9-0.1v-0.1h-0.5v-0.1q0.9-0.3 2-0.3h0.5l-0.1 0.1v0.1h0.1l0.2-0.1 0.3 0.1q0.8-0.2 1.8-0.2h6.5l0.8-0.1v0.1-0.1h0.8v0.1l0.1-0.1h1.8v0.1l0.1-0.1zm-18.7 0.4h-0.2v0.1h0.3v-0.1zm-0.4 0l-0.5 0.1h0.2 0.4v-0.1zm14.8 10.5l-4.6 0.4-0.3-0.1-0.2 0.1-0.4-0.1-0.1 0.1-0.1-0.1h-0.1l-0.1 0.1-0.4-0.1h-0.3l-0.8 0.1v-0.1l-0.2 0.1-1.1-0.1v0.7 0.3l0.1 0.3-0.1 1.7 0.1 2.9v0.1 2.7 0.1q-0.2 2-0.2 3.5v1l0.2 5.7v0.1 0.4 1 0.1 0.1 0.1 0.5 0.5q0 0.6-0.1 0.6l0.1 0.1v0.3l-0.1 0.5 1.4-0.2 0.2 0.1 0.1-0.1 0.2 0.1 0.2 1v-1l5.4-0.2h0.3 0.3 1.7 0.4 0.7 0.5l0.2 0.2h0.1l0.1-0.2-0.2-0.8 0.1-0.7-0.1-1.3v-0.1h0.2v0.8h0.1v-0.2q-0.3-3.2-0.3-4.6v-3.7l0.1-0.1-0.1-0.1 0.1-0.3-0.1-1.6v-1.7l0.1-0.3h-0.1l0.1-1.5v-3.3h0.1l0.2 1.5h0.1v-0.2q-0.2-2.2-0.5-2.2l0.1-1.1v-0.8l0.2-0.3h-0.1v-0.3q0-0.1 0.4-0.1v-0.1q-0.5 0-0.6-0.1 0 0.2-0.9 0.2h-1.9q0-0.3-0.1-0.3zm3.5 5.3h-0.1v0.3h0.1zm0 0.5h-0.1v0.1l0.1 1.2h0.1v-0.6zm0.1 1.3v0.3zm0 0.5v0.2 0.2h0.1zm0.1 1.1h-0.1v0.2h0.1zm-0.5 12.6h-0.1v0.3h0.1zm21.3-32.1l0.5-0.1 1.6 0.1h2.3v0.1l0.4-0.1 0.2 0.1 2-0.1h3.7 6.3 0.2 0.3l5.6 0.1h2.2l2.5 0.1v10.1l-0.1 0.3 0.1 0.4-0.1 0.2h-4l-0.3-0.1-0.3 0.1h-0.1l-0.2-0.1-0.1 0.1h-0.1l-0.8-0.1-0.5 0.1v-0.1 0.1l-0.9-0.1-9.2 0.1h-0.1-0.3-3.7l-0.4-0.1h-0.4l-0.3-0.3q0 0.1-0.5 0.3l-0.1 0.5v0.9 0.1 0.3 0.3q-0.9 0.1-0.9 0.3v0.1q0.9 0.1 0.9 0.2v2 0.2 0.3l-0.1 0.6 0.2 0.5h0.1l-0.1-0.4h0.1l0.4 0.2q0.2-0.2 0.5-0.2h7.2l4.2 0.3v-0.1q0-0.1-0.2-0.1v-0.1h0.5l0.7-0.1 0.2 0.1h0.1 3 0.4 0.2q1 0 2.7 0.9 0.1 0.4 0.8 0.8 1.5 1.3 1.5 3.9h-0.1 0.1v0.3l-0.1 0.1h0.1v0.4l-0.1 0.4 0.1 0.3v0.1l-0.1 0.1 0.1 0.1-0.1 0.7 0.1 4.1v4.1l-0.1 0.5 0.1 0.3-0.2 1.5 0.1 0.6v0.4l-0.1 0.3 0.1 0.2-0.1 0.6 0.1 1.3v0.8q0 2.8-2.4 4.5-1 0.8-3.4 0.8h-8.4-1.1-0.1-0.4-4.8l-0.9-0.1-0.2 0.1-0.6-0.2-0.4 0.2h-1.2-0.3q-0.8-0.1-2.8-0.1h-6.2v0.1h-0.1l-0.1-0.4 0.1-9.3-0.1-1.4 0.5-0.1h1.1l1.7 0.1 1-0.1v0.1l0.2-0.1 1.4 0.1 0.3-0.1 0.3 0.1 0.1-0.1 0.9 0.3q0.6-0.2 1.6-0.2h0.2v0.1l-0.4 0.1v0.1l5.7-0.3h2.8l0.6 0.1 0.1-0.1h0.1l1.7 0.1h1.7q0.1 0 0.1 0.3h0.2q0-0.4 0.1-0.4h0.5v0.1h0.1v-0.1h0.1l-0.1-0.1v-0.1l0.1-0.7v-2.4-0.8l-0.1-0.9 0.1-0.4-0.1-0.3 0.1-0.3-0.4-0.1h-0.4q0-0.2-0.2-0.2-0.1 0-0.2 0.2h-0.1q-1.8-0.2-3-0.2h-0.3-0.4-1l-0.8 0.1v-0.1 0.1h-0.1l-1.7 0.1h-0.1-0.3-2l-1.1 0.1-0.1-0.1-0.5 0.1-0.3-0.1-0.6 0.1h-2.9q-2.8 0-2.8-0.6 0-0.3-0.8-0.4-1 0-2.1-2.3l-0.1-0.3h0.1q0.1 0.1 1.3 1.8v0.1h0.1l-1.6-2.4q-0.2-0.4-0.2-1.1 0-0.3 0.1-0.3v-3.7-0.7h-0.2v-0.3h0.1 0.1l0.1-4.7v-1.5q0-0.4-0.3-0.4v-0.8-3.9-0.4-0.3l0.2-0.3-0.2-0.3v-0.4q0-0.7 0.6-2.2 1.9-2.6 4.5-2.6h0.2l0.1 0.1h0.3z"/>
		<path id="be silent when it is time to hea" class="s1" aria-label="be silent when it is time to hear!"  d="m28.4 486.7h0.2 0.5q0.5 0 0.7 0.1l0.1-0.1 0.6 0.1h0.6 0.1 0.1 0.4 0.1 0.1 0.1 0.1 0.1 0.1 0.1 0.8 0.1 0.1 0.3 0.9 0.2 0.1 0.3q1 0 1.4 0.6 0.3 0.7 0.3 0.8l-0.1 0.2 0.1 0.1-0.1 0.1 0.1 0.1-0.1 0.6v0.2q0 0 0 0.1v0.1-0.1 0.6-0.1 0.7q-0.1 0.9-0.2 0.9-0.2 0.4-0.5 0.5-0.1 0.1-0.2 0.1h-0.1q0 0.1-0.2 0.1h-0.1-0.1q0 0.1 0.1 0.1h0.3q0.2 0 0.4 0.2 0.1 0 0.3 0.3 0.3 0.3 0.3 0.6v0.2 0.2 1.2 0.5 0.3 0.5 0.2q0 0.6-0.5 1-0.3 0.2-0.6 0.3h-0.3-2-0.1-0.2-0.1l-2.7-0.1-0.1 0.1q-0.3 0-1-0.1h0.1v0.1h-0.1-0.2-0.1-0.3-0.1-0.1v-0.2-0.2-2.9q0.1-0.1 0.1-0.2l-0.1-0.6v-0.1-0.1-0.5-0.2-0.3-0.1q0.1-0.1 0.1-0.1l-0.1-1.8v-0.1-0.2-0.1-0.6-0.1-0.3-0.3-0.2-0.2-0.1-0.1-0.1-0.2-0.1-0.2-0.1-0.3-0.4zm5.4 2.8h-0.2-0.1-0.9-0.4-0.2-0.1-0.1-0.2-0.1-0.2q0 0-0.1 0v1q0 0.1-0.1 0.1h0.1v0.2h-0.1-0.1l0.1 0.1h0.1v0.1h0.1 0.1 0.1 1 0.7 0.4 0.1q0.1 0 0.2 0.1 0-0.1 0.1-0.1 0.1 0 0.1 0v-0.1 0.1h-0.1v-0.1-0.3q0-0.1 0.1-0.2l-0.1-0.2v-0.2-0.3q0-0.1 0.1-0.1v-0.1h-0.3zm3 0.3v0.2zm-5.4 4.1l-0.1-0.1q0 0.1-0.1 0.1v-0.1 0.1 0.3h-0.1q-0.1 0-0.1 0h0.2v0.3 0.1 0.1 0.4q0 0.1-0.2 0.1 0.2 0 0.2 0.1 0 0.1 0 0.1h0.1 0.6 0.1 0.6 0.1 0.1 0.3 0.1 0.1 0.4 0.3v0.1l0.1-0.2h-0.1v-1.2-0.1h0.1q0 0.1 0 0.1v-0.2q-0.1 0-0.1-0.1-0.1 0.1-0.2 0.1h-0.2-0.3q-0.2 0-0.7 0h-0.6-0.4-0.2zm11.6-6.7v-0.3h1.1 0.1 0.1 0.1 0.1 0.2 0.3 0.1 0.1 0.1 0.1 1 0.1 1.8 0.1 0.2 0.2 0.1 0.1 0.2 0.1 0.2 0.2 0.2 0.1 0.1 0.4 0.8v0.3q-0.1 0.3-0.1 0.9v1.5l-0.1 0.1h-0.5-0.7q-0.2 0-0.2-0.1v0.1h-0.1-0.1q-0.1 0-0.1-0.1l-0.2 0.1v-0.1l-0.1 0.1h-0.3l-0.1-0.1v0.1h-0.2v-0.1 0.1h-0.3l-0.1-0.1-0.1 0.1h-0.1v-0.1 0.1h-0.3v-0.1 0.1h-0.1v-0.1 0.1h-0.1l-0.1-0.1v0.1h-0.1l-0.1-0.1v0.1l-0.4-0.1h-0.3-0.6q0 0 0 0 0 0 0 0h-0.1-0.2l-0.1 0.1h0.2 0.1v0.1 0.1q0 0-0.1 0 0.1 0 0.1 0.1v0.7 0.4h0.1q0.1 0 0.1 0 0.3 0 0.7 0h2.8 0.5v0.1 0.5 0.4 0.2 0.2q0 0.3 0 0.8v0.6h-0.1-0.5-0.2-0.1-0.2-1.3-0.1-0.1-0.4-0.2-0.1-0.1-0.2-0.1l-0.1-0.1v0.1h-0.1-0.1q-0.1 0-0.1-0.2-0.1 0.2-0.1 0.5-0.1 0-0.1 0h0.1v0.1 0.1 0.1 0.2q0 0.1-0.1 0.1l0.1 0.1v0.2h-0.1v0.1h0.1v0.1q0 0 0.1 0h1.3 0.1 0.2 0.1 0.1 0.1 0.1 0.1 0.1 0.4 1.6 0.1 0.4 0.3 0.2 0.1q0.1 0 0.1 0 0.1 0 0.1 0v0.3 0.2 0.1 0.1 0.1 0.1 0.3 0.4 0.1 0.1 0.1 0.4 0.2 0.1 0.2h-0.4-0.1-0.2-0.5l-0.5-0.1-0.9 0.1h-0.1l-0.1-0.1q0 0.1-0.2 0.1h-0.4-0.1-0.1-0.9-0.2-0.1-0.1-0.1-0.2-0.2-0.2-0.2-0.1-0.2-0.1-0.5-0.1-0.1-0.1-0.2-0.1-0.4-0.1l0.1-0.1h-0.1q0 0.1-0.2 0.1h-0.3v-0.1l-0.1-0.2 0.1-0.2v-0.1-0.3-0.2-0.1-0.5-0.2q0-0.1 0-0.1 0-0.1 0-0.8v-4.3q0-0.4 0.1-1.2l-0.1-0.1h0.1l-0.1-0.1h0.1q-0.1-0.1-0.1-0.2v-0.1-0.1q0 0 0 0v-0.1-0.1-0.1-0.2-0.6-0.4-0.1 0.1zm0 0.4q0.1-0.5 0.1-0.5 0.1 0 0.2 0.5v-0.1q-0.1-0.5-0.1-0.5h-0.1q0 0-0.1 0.6zm0.3 0.1zm0.1 0.1h-0.1v0.1h0.1zm27.9-0.9h0.2 0.4 0.5v0.1h0.1 0.1l0.5-0.1h0.9l1.5 0.1 0.1-0.1 0.1 0.1h1.4 0.5 0.6v2.5 0.1 0.1h-1-0.1-0.1-0.2-0.2-0.2-2.3v0.1l-0.1-0.1h-0.9-0.1-0.1-0.1q0 0-0.1 0v0.1 0.3 0.1q-0.3 0.1-0.3 0.1 0.3 0.1 0.3 0.1v0.5 0.1l-0.1 0.2 0.1 0.1v-0.1h0.1q0.1 0 0.1 0h1.8l1.1 0.1q0-0.1-0.1-0.1h0.2 0.1 0.1 0.7 0.1 0.1q0.3 0 0.7 0.2 0 0.1 0.2 0.2 0.3 0.3 0.3 1v0.1 0.1 0.1 0.1 0.2 1 1 0.2 0.1 0.3 0.2 0.1 0.1 0.1 0.4 0.2q0 0.7-0.6 1.1-0.2 0.2-0.8 0.2h-2.1-0.3-0.1-1.2-0.2-0.1-0.1-0.1-0.3-0.1q-0.2 0-0.7 0h-1.5-0.1v-0.1-2.3-0.4h0.1 0.3 0.4 0.3 0.4 0.1 0.1l0.2 0.1q0.1-0.1 0.4-0.1v0.1h-0.1l1.4-0.1h0.7l0.2 0.1v-0.1l0.5 0.1h0.4q0 0 0 0h0.1q0-0.1 0-0.1h0.1v0.1-0.1l0.1-0.2-0.1-0.6v-0.2-0.2-0.1-0.1-0.1h-0.1q0-0.1-0.1-0.1 0 0 0 0.1h-0.1q-0.4-0.1-0.7-0.1l-0.1 0.1-0.1-0.1h-0.2l-0.2 0.1h-0.1-0.4-0.1-0.5-0.3-0.1-0.1-0.1-0.7q-0.8 0-0.8-0.1 0-0.1-0.2-0.1-0.2 0-0.5-0.6v-0.1q0.1 0.1 0.3 0.5h0.1l-0.4-0.6q-0.1-0.1-0.1-0.3 0 0 0.1 0l-0.1-0.1v-0.9l0.1-0.1h-0.1v-0.1h0.1v-1.2-0.3q0-0.2-0.1-0.2v-0.2-0.9-0.1-0.1-0.1-0.1-0.1q0-0.1 0.2-0.5 0.4-0.7 1.1-0.7l0.1 0.1zm13.3 0l0.1-0.1 0.3 0.1h0.1 0.7 0.1 0.2 0.1 0.1 0.5 0.3q0 0.7-0.1 1.4v0.1h0.1v0.4 0.1l-0.1 0.1h0.1v0.1q0 0.1-0.1 0.1v1.2 0.1l0.1 0.2-0.1 1.7v0.2 0.1 0.1 0.3 0.1q0 0.1 0 0.2v0.4l0.1 0.5-0.1 0.6v0.6q0 0.4 0 0.4v0.9l0.1 0.3h-0.1l0.1 0.2v1l-0.1 0.2q0.1 0.1 0.1 0.3v0.3q0 0.1-0.1 0.1 0.1 0 0.1 0.4v0.3 0.1 0.1 0.2 0.2 0.1 0.1 0.1l-0.1 0.2q0 0-0.9-0.9-1.1-1.1-1.1-1.2l-0.3-0.4v0.1l0.1 0.1q-0.5-0.4-0.5-0.5v-0.1-0.1h0.1q-0.1-0.1-0.1-0.2v-0.2-0.2-0.1-0.5-0.2-0.4-0.5-0.3-0.3-0.1-0.1-0.1-0.1-0.3-0.3-0.4-0.1-0.1l0.1-0.5-0.1-1.6v-0.2-0.1-0.1-1.7-0.4l0.1-0.6v-0.1h-0.1l0.1-0.1v-0.4-0.1q0 0 0 0 0-0.2 0-0.2v-0.1-0.3-0.1q0 0 0 0h0.1zm2.4 2v0.1zm-2.5 9.3zm8.9-11.3h2.6v0.2 0.7 0.1 4.6 0.9 0.1 0.1 0.1 0.6 0.5 0.1 0.1 0.2h0.2 0.1v0.1q0 0 0.1-0.1h0.2 0.1l0.1-0.1 0.1 0.1v-0.1 0.1l0.1-0.1 0.2 0.1v-0.1l0.2 0.1 0.2-0.1 0.1 0.1h0.1v-0.1 0.1l1.2-0.1h0.4l0.1 0.1 0.2-0.1 0.1 0.1 0.1-0.1 0.1 0.1 0.1-0.1 0.1 0.1 0.2-0.1 0.1 0.1v-0.1 0.1l0.1-0.1 0.2 0.1 0.1-0.1v0.1l0.2-0.1v0.1l0.3-0.1h0.5l0.1 0.1v0.3 0.9l0.1 1.1v0.1 0.1 0.1 0.1 0.1 0.1h-2.3-0.1-0.1-0.9-0.1-0.1-0.1-0.8q-0.3 0-0.8 0h-0.3-0.2-0.3-0.3-0.1-0.2q-0.7 0-1.2 0h-0.4-0.8v-0.4-0.3-0.4-0.3-0.1-0.1-0.1-0.1-0.3-0.5-1.4-0.4-0.1-0.1-0.1-0.8q0-1.3 0-2v-0.1-1-0.1-0.2-2.3q0 0 0.4 0zm14.6 0.4v-0.4h1.1 0.1 0.2 0.1 0.3 0.3l0.1 0.1v-0.1 0.1l0.1-0.1 0.1 0.1 0.1-0.1h1v0.1-0.1h1.8 0.2 0.2 0.2 0.1 0.1 0.2 0.1 0.2 0.2v0.1l0.2-0.1 0.1 0.1 0.1-0.1h0.3 0.9v0.3q-0.1 0.4-0.1 1v1.5h-0.2-0.4-0.7-0.1q-0.1 0-0.1 0h-0.1-0.1-0.1q-0.1 0-0.1 0h-0.1-0.1-0.4-0.2-0.3-0.1-0.1-0.1-0.3-0.1-0.1-0.1-0.2-0.4-0.3-0.6q0-0.1 0-0.1-0.1 0-0.1 0.1h-0.3 0.2 0.1v0.1l-0.1 0.1h0.1q0 0.1-0.1 0.1 0.1 0 0.1 0l-0.1 0.1h0.1v0.7 0.3 0.1h0.1q0.1 0 0.1 0 0.2 0 0.6 0h2.8 0.6v0.5l-0.1 0.4v0.2 0.3q0.1 0.3 0.1 0.8l-0.1 0.5v0.1l-0.5-0.1h-0.3-0.1-0.2-1.2-0.1-0.2-0.4-0.1-0.1-0.1-0.2-0.1-0.2-0.1-0.1q0 0 0-0.2-0.2 0.3-0.2 0.5-0.1 0.1-0.1 0.1h0.1v0.1 0.1h0.1l-0.1 0.3q0 0-0.1 0l0.1 0.1v0.3h-0.1 0.1v0.1q0 0.1 0.2 0.1v-0.1h1.3v0.1-0.1h0.2 0.1 0.2 0.1 0.1 0.1 0.1 0.3 1.6 0.1 0.1 0.4l0.2 0.1v-0.1h0.1l0.1 0.1h0.2q0.1 0 0.1-0.1 0.1 0.1 0.1 0.1v0.2 0.2 0.1 0.2 0.1 0.4 0.4 0.1 0.1 0.1 0.3 0.3 0.1 0.1h-0.4-0.1-0.2-0.5-0.5-0.9-0.1-0.1q-0.1 0-0.2 0h-0.4-0.1-0.1-1-0.2-0.1-0.1-0.1-0.2-0.1-0.2-0.2-0.2-0.2-0.6-0.2-0.1-0.1-0.1-0.4-0.1v-0.1q0 0.1-0.3 0.1h-0.3v-0.2-0.3-0.1-0.2-0.3-0.1-0.5-0.1q0.1-0.1 0.1-0.1-0.1-0.2-0.1-0.8v-4.3q0.1-0.5 0.1-1.2v-0.1-0.1q-0.1-0.2-0.1-0.3v-0.1h0.1v0.1-0.1q0-0.1-0.1-0.1v-0.1h0.1-0.1v-0.1h0.1v-0.1-0.1l-0.1-0.7 0.1-0.4-0.1 0.1zm0.1 0.3v0.1q0-0.6 0.1-0.6 0.1 0 0.2 0.5-0.1-0.5-0.2-0.5-0.1 0-0.1 0.5zm0.3 0.1v0.1zm0 0.1v0.1zm22.2 7.4zm0.1 0.9h-0.1v0.1 0.1h0.1zm-0.1-0.2v0.1zm0-0.2v0.1zm0.1 2.5v0.1q0 0.2 0 0.7v0.2 0.3 0.3 0.1 0.1 0.2 0.9h-0.1q-0.5-0.6-0.6-0.7-1.6-1.6-1.6-1.8l-0.4-0.3q0-0.4 0-1.1v-0.1-0.1-0.1-0.1-0.1-0.1-0.1-0.1-0.3q0-0.6 0.1-1.4v-0.1q0-0.3 0.1-0.6h-0.1q0 0-0.1 0.2v-1.4q0-1.7 0-2.7 0.2 0 0.4 0h-0.1-0.3v-0.2q0.1-0.1 0.1-0.1v-0.1q-0.1 0.1-0.1 0.1h-0.2v-0.1l-0.1-0.2h0.1l-0.1-0.1q0 0 0 0.2v0.1l-0.1 0.1h-0.6-0.2-0.3-0.6v-0.1q-0.1 0.1-0.3 0.1h-0.1l-0.1-0.1-0.1 0.1-0.1-0.1q-0.1 0.1-0.1 0.5v0.4 0.1 0.1 0.2 0.6q0 0.8 0 1.3v0.4 1.3 1.9 1.7h-0.1-0.4-0.1-0.5-1.2-0.3-0.2v-0.1-0.1-3.7h0.1l-0.1-0.1 0.1-0.1-0.1-0.1 0.1-0.1v-0.1h-0.1l0.1-0.4v-2.3-0.2-0.1-0.3-0.1-0.1-0.1-0.1-0.1-0.2-0.1-0.3-1.1-0.1-0.6-0.6q0-0.3 0-0.8v-0.2-0.3-0.2-0.2-0.1-0.2-0.8h0.1q0.5 0.5 0.6 0.6 1.6 1.7 1.6 1.8l0.3 0.4h0.3 0.1 0.2 1.6 0.4 0.1 0.4 0.3 0.1 0.1 0.7 0.1l0.3 0.1h0.1l0.1-0.1q0.5 0.1 0.8 0.5l0.1 0.9v0.6 0.2 0.6 0.6 0.8 0.2 0.1 1.7 0.1l-0.1 1.9v0.1 0.1q0 1.2 0 1.2v0.2h-0.1q0.1 0.1 0.1 0.4v0.1 0.2 0.1 0.2 0.4zm6.6-11.3h0.2 0.3 2.8 1 0.3 0.2 0.4 0.3v0.1q-0.4 0-0.4 0.1h0.3q1.9-0.2 2.4-0.2l0.1 0.2-0.1 0.4v0.6 0.3 0.5 0.8q0 0 0 0h-0.1-0.1-0.2-0.3-0.6-0.4-0.2-0.1-0.2-0.2-0.1-0.1-0.1-0.1v0.1q0 0-0.1 0 0 0.1 0.1 0.1v0.1 0.2 0.2 0.5 0.1 0.1 0.8 0.1 0.4 3.6 2.8 0.3 0.1 1.4 0.1 0.1 0.1q-0.4-0.3-1.4-1.4 0 0-1-1-0.3-0.3-0.3-0.3v-0.1q-0.1 0-0.1-0.2v-0.1-0.1q0-0.1 0.1-0.1l-0.1-0.7v-0.4l0.1-0.1-0.1-0.2v-0.2l0.1-0.3h-0.1l0.1-0.1h-0.1l0.1-0.1-0.1-0.2 0.1-0.3-0.1-0.5 0.1-0.1h-0.1v-0.1h0.1l-0.1-0.3q0.1-0.7 0.1-0.8v-0.2-0.1q0 0-0.1 0v-0.2q0.1-0.3 0.1-0.3 0 0-0.1-0.4 0-0.1 0-0.3v-0.7l0.1-0.3h-0.1 0.1l-0.1-0.2 0.1-0.1h-0.1l0.1-0.1h-0.1l0.1-0.4v-0.1h0.1v-0.1q-0.1 0-0.1 0h-0.1-0.2-0.3-0.2-0.5-0.6-0.1-0.1-0.1-0.3-0.2l-0.1-1.3v-1.4q0-0.1 0.1-0.1zm37.8 0h0.4 0.1 0.3 0.2 0.2 0.1 1.4v0.1q0 0-0.1 0v0.1l0.1-0.1v3.5l0.1 0.1-0.1 0.1 0.1 0.1h-0.1 0.1l-0.1 0.2v0.1l0.1 0.1h-0.1l0.1 0.2-0.1 0.2 0.1 0.2v0.4l-0.1 0.2 0.1 0.1v0.8l-0.1 0.2h0.1v0.1l-0.1 0.2 0.1 0.1-0.1 0.4 0.1 0.5-0.1 0.2 0.1 0.1h-0.1l0.1 0.1q0 0.5-0.2 1.7 0.1 0 0.1 0 0 0.6-0.3 0.8-0.3 0.4-1.1 0.4h-0.1-0.1-0.1-0.1-0.2-0.9-0.9-0.8-0.2q-0.7 0-1.6-0.2-0.5-0.5-0.5-1v-0.1h-0.1v0.1q0 0.4-0.2 0.6 0 0.1-0.8 0.6 0 0-0.2 0h-0.5-1.1-1.4l-0.1 0.1v-0.1l-0.6 0.1h-0.9q-0.2 0-0.5-0.2 0-0.1-0.2-0.1-0.5-0.5-0.5-0.9v-0.1-0.1h-0.1v-0.1l0.1-0.1-0.1-0.1 0.1-0.2h-0.1l0.1-0.1v-2.5-1-0.1-0.1-0.1-0.3-0.1-0.1-0.2-0.5-0.7-0.3-0.4-1.3-1.4-0.2h0.2q0 0 0 0.1l1.4-0.1h0.4 0.1 0.1 0.1q0.2 0 0.3 0.1v-0.1h0.1v0.1l-0.1 0.6 0.1 0.2v0.4 0.1 0.1 0.3 0.1 0.2 0.1 0.2 0.1 0.1q0 0.1 0 0.1v0.1 1.5 0.4 0.1 0.1 0.1 0.2 0.2h-0.1 0.1l-0.1 0.1h0.1v0.8-0.3h-0.1v0.4q0.1 0 0.1 0v1.9 0.2h0.2 1.2 0.2 0.1 0.1 0.6 0.1q0.1 0 0.2 0.1v-0.1h0.1v0.1l0.1-0.1q0 0 0-0.2v-0.1-0.1-0.1-0.2-0.1-0.1-0.2-0.1-0.7-0.1-0.1-1.8l-0.1-0.5h0.1l-0.1-0.1v-0.1h0.1-0.1v-0.8h0.1-0.1v-2.1-0.3-0.1-0.2-0.1-0.1-0.2h0.1 0.6 0.2l0.9 0.1q0.1 0 0.1-0.1h0.5 0.5v0.3 0.8 1.7 1.9 1.4l0.1 0.6-0.1 0.1h0.1-0.1v1 0.1q0 0-0.1 0.1h0.1v0.1l0.1 0.2-0.1 0.1 0.1 0.1h0.1 0.1q0 0 0 0h0.1 0.2 0.1 0.3 0.2 0.1 0.1 0.2 0.8q0 0 0 0.2v-0.2q0.1 0 0.1 0h0.1q0.1 0 0.1 0.1l0.1 0.3v-0.4h0.1 0.1q0-0.1-0.1-0.1 0 0-0.1 0v-0.1-0.3-0.1-0.2-0.1-0.1-0.3-0.1-0.1-0.2-0.1-0.2-0.1-0.1q0-0.1 0.1-0.1l-0.1-0.1v-0.1-0.1-0.1-0.2-0.1-0.1-0.1-0.1-0.2-1.5-0.3-0.1-1.1-0.3-0.5-0.1-0.1-0.2-0.2-0.1-0.4q0-0.1 0.1-0.1zm2.4 0.2zm-11 5.4h-0.1v0.3h0.1v-0.3zm0 0.3h-0.1v0.1h0.1zm25.6-5.5v0.1 0.1-0.1zm-2 7.1h-0.1 0.1zm2-6.4v0.1zm0-0.5v0.1zm0.1 9.3v3.6 0.3h-0.1q-0.2-0.1-0.7-0.7-0.1 0-1.5-1.5-0.4-0.3-0.5-0.5 0-0.1 0-0.1v-0.2-0.1-0.2-0.1-0.1-0.5-0.3-0.1-0.2-0.4-0.5l0.1-0.9q-0.1 0-0.1 0.1 0-0.2 0-0.2 0.2 0 0.2 0h-0.2v-0.1h0.3v0.1q0.1 0 0.1-0.1h-0.4l0.1-0.3h-0.1q0-0.1-0.1-0.1v0.1h-0.1-0.2-2.1-0.1q0 0-0.1 0-0.1 0-0.1 0 0 0 0 0 0 0 0 0h-0.1v0.2 0.2l-0.1 0.1q0 0 0.1 0v0.3-0.1 0.1q0 0.5 0 0.6v0.1 0.2 0.6 0.2 0.1 0.2 0.2 0.5 0.1 0.1 0.1 0.3q-0.6 0.1-0.9 0.1h-0.7-0.1-1v-0.1l-0.1-0.4 0.1-0.1-0.1-0.1 0.1-0.6v-1.5q0-0.3 0.1-1.2-0.1 0-0.1 0.3h-0.1v-0.4-0.1-0.1-0.4-0.2-0.1-0.2-0.1-0.1-0.3-0.1-0.1-0.1l0.1-0.6h-0.1l0.1-2.4v-0.1-0.4l0.1-1h-0.1q0-0.5 0-0.6v-2.4-0.3q0.2 0.1 0.7 0.6 0.1 0.1 1.6 1.6 0.4 0.3 0.4 0.5 0 1.1 0 2.9v0.9h-0.1q0 0.1 0.1 0.1 0 0.2 0 0.3l0.1-0.1q0.2 0.1 0.5 0.1h0.2 0.1-0.1l0.1-0.1h0.1v0.1h-0.1 0.1 0.1 1.2l0.2-0.1v0.1q0.1 0 0.1 0h0.2 0.2v-0.1q-0.1 0-0.1 0v-0.2h0.1-0.1v-0.3-1.3-0.2-0.1-0.5-0.1-0.1-0.2-0.3l0.1-0.7-0.1-0.1q0-0.1 0.3-0.1h2.2 0.1q0.1 0 0.1 0.1v0.1-0.2h0.1v0.5 0.1 0.4 0.1 0.2 1.1q0 0.1-0.1 0.1l0.1 0.1-0.1 0.1h0.1v0.2 0.1l-0.1 1v0.4l0.1 0.5h-0.1q0.1 0 0.1 0.4v0.3 0.1 0.1 1.9 1.3 0.2 0.1 0.3 0.2zm5.9-9.6l0.1-0.3h1.1 0.1 0.1 0.1 0.3 0.3 0.1 0.1 0.1 0.1 1 0.1 1.8 0.1 0.2 0.2 0.1 0.1 0.2 0.1 0.2 0.2 0.2 0.1 0.1 0.4 0.8v0.3q-0.1 0.3-0.1 0.9v1.5h-0.1-0.5l-0.7 0.1v-0.1 0.1q-0.2 0-0.2-0.1v0.1l-0.1-0.1-0.1 0.1q-0.2-0.1-0.2-0.1l-0.1 0.1-0.1-0.1h-0.4-0.2-0.3-0.1-0.1-0.1-0.3-0.1-0.2-0.2-0.4-0.3-0.6q0 0 0 0-0.1 0-0.1 0h-0.2l-0.1 0.1h0.2 0.1v0.1h-0.1 0.1v0.1q0 0-0.1 0 0.1 0 0.1 0.1v0.7 0.4h0.1q0.1 0 0.1 0 0.2 0 0.6 0h0.1 2.7 0.6v0.1 0.5l-0.1 0.4 0.1 0.2-0.1 0.2q0.1 0.3 0.1 0.8v0.6h-0.1-0.5-0.2-0.2-0.1-1.3-0.1-0.1-0.5-0.1-0.1-0.1-0.2-0.1l-0.1-0.1v0.1h-0.1-0.1q-0.1 0-0.1-0.2-0.2 0.2-0.2 0.5h0.1q-0.1 0-0.1 0h0.1v0.1l-0.1 0.1 0.1 0.1v0.2q0 0.1-0.2 0.1l0.2 0.1v0.2h-0.2 0.2v0.2q0 0 0.1 0h1.3 0.3 0.1 0.1 0.1 0.2 0.1 0.4 1.5 0.1 0.1 0.4 0.2 0.1 0.2 0.1q0.1 0 0.1 0 0.1 0 0.1 0v0.3 0.2 0.1 0.1 0.1 0.1 0.3 0.4 0.1 0.1 0.1 0.4 0.2 0.1 0.2h-0.4-0.1-0.2-0.5l-0.5-0.1-0.9 0.1h-0.1l-0.1-0.1q0 0.1-0.2 0.1h-0.4-0.1-0.1-1-0.1-0.1-0.1-0.1-0.2-0.2-0.2-0.2-0.2-0.1-0.1-0.5-0.1-0.2-0.1-0.1-0.1-0.4-0.1v-0.1q0 0.1-0.2 0.1h-0.4v-0.1-0.2l0.1-0.2h-0.1l0.1-0.1v-0.3-0.2-0.1-0.5-0.2q0-0.1 0-0.1 0-0.2 0-0.8v-4.3q0-0.4 0-1.2v-0.1-0.1q0-0.1 0-0.2v-0.1-0.1q0 0 0 0v-0.1-0.1-0.1-0.2-0.6-0.4-0.1 0.1h-0.1zm0.1 0.4q0.1-0.5 0.1-0.5 0.1 0 0.2 0.5v-0.1q-0.1-0.5-0.2-0.5-0.1 0-0.1 0.6zm0.3 0.1zm0 0.1v0.1h0.1zm22.1 7.4v0.1zm0.1 0.9h-0.1l0.1 0.1zm0-0.1h-0.1v0.1h0.1zm-0.1-0.2v0.1zm0.1 2.5q0 0.2 0 0.8v0.2l0.1 0.3-0.1 0.2 0.1 0.2h-0.1l0.1 0.1-0.1 0.2v0.8q-0.6-0.5-0.6-0.6-1.6-1.7-1.6-1.8l-0.4-0.4q0-0.3-0.1-1.1h0.1-0.1l0.1-0.1-0.1-0.2h0.1l-0.1-0.2v-0.1h0.1l-0.1-0.2v-0.2q0-0.6 0.2-1.5h-0.1v-0.1q0-0.2 0.1-0.5v-0.1h-0.1q0 0 0 0.3h-0.1v-1.4q0-1.8 0.1-2.7 0.1-0.1 0.3-0.1h-0.1-0.2v-0.1q0-0.2 0-0.2-0.1 0-0.1 0h-0.2v-0.3h-0.1q0 0 0 0.2v0.1h-0.7-0.2-0.3-0.6q-0.1 0-0.3 0h-0.2-0.1-0.1q-0.1 0.1-0.1 0.5v0.4 0.1 0.3 0.5q0 0.9 0 1.4v0.3 1.3 1.9 1.8h-0.1-0.4-0.6-1.1l-0.3-0.1-0.1 0.1-0.2-0.1h0.1l-0.1-0.1 0.1-3.7v-0.1-0.1-0.1-0.1-0.1-0.4-2.3-0.2-0.1-0.4-0.1-0.1-0.1-0.1-0.2-0.1-0.1-0.3-1-0.2-0.5-0.7q0-0.2 0-0.7v-0.2-0.3-0.3-0.1-0.1l0.1-0.3v-0.8q0.5 0.6 0.6 0.7 1.6 1.6 1.6 1.8l0.4 0.3h0.2 0.1 0.3 1.6 0.3 0.1 0.4 0.4 0.1 0.7l0.1 0.1v-0.1l0.3 0.1h0.1 0.1q0.5 0 0.8 0.5l0.1 0.9v0.6 0.1 0.6 0.6 0.8 0.3 1.8 2 0.2q-0.1 1.1-0.1 1.1v0.2 0.1q0 0.1 0 0.3v0.2 0.2 0.2 0.4zm19.1-11.3h0.1l0.3 0.1v-0.1l0.2 0.1h0.6 0.1 0.1 0.1 0.1 0.1 0.1 0.4 0.3q0 0.7-0.1 1.4h0.1l-0.1 0.1h0.1v0.4 0.1 0.1 0.1q0 0.1-0.1 0.1l0.1 1.2v0.1 0.2l-0.1 1.6 0.1 0.1-0.1 0.1v0.1l0.1 0.1-0.1 0.1v0.3 0.1q0.1 0.1 0.1 0.2v0.4 0.5 0.6 0.6q0 0.3-0.1 0.3l0.1 0.1v0.8 0.4 0.1 1.1 0.2q0 0.1 0 0.3v0.2 0.1q0 0-0.1 0 0.1 0 0.1 0.5v0.2 0.1 0.1 0.1 0.2 0.2 0.1 0.1 0.1 0.2q-0.1 0-1-0.9-1.1-1.2-1.1-1.2l-0.2-0.4 0.1 0.2h-0.1q-0.5-0.4-0.5-0.6v-0.1h0.1q-0.1-0.1-0.1-0.2v-0.2-0.2-0.1-0.1-0.5-0.1-0.4-0.5-0.3-0.4-0.1-0.2-0.3-0.3-0.4-0.1-0.1l0.1-0.6-0.1-1.5v-0.3-0.1-1.7-0.4l0.1-0.6v-0.1-0.1-0.4-0.1q0 0 0.1 0-0.1-0.2-0.1-0.2v-0.1-0.3-0.2q0.1 0 0.1 0.1v-0.1zm2.4 2.1v0.1zm-2.5 9.3zm9-11.3h0.1 0.1 0.3 2.8 1 0.3 0.2 0.4 0.3q-0.4 0.1-0.4 0.1l0.3 0.1q1.9-0.2 2.4-0.2v0.1 0.4 0.7 0.3 0.4 0.9q0 0-0.1 0h-0.2-0.1-0.3-0.6-0.5-0.1-0.1-0.2-0.1l-0.1-0.1-0.1 0.1h-0.1-0.1-0.1v0.1q0 0-0.1 0 0 0 0.1 0v0.1 0.1 0.1 0.1 0.1 0.6 0.2 0.7 0.1 0.5 3.6 2.8 0.2 0.1 1.5 0.1 0.1 0.1q-0.4-0.4-1.4-1.4 0 0-1.1-1.1-0.2-0.2-0.2-0.3-0.1 0-0.1-0.2v-0.1-0.1q0-0.1 0.1-0.1l-0.1-0.8v-0.3l0.1-0.1-0.1-0.2v-0.3l0.1-0.2-0.1-0.1h0.1l-0.1-0.1 0.1-0.1-0.1-0.1 0.1-0.4-0.1-0.4v-0.1l0.1-0.1h-0.1l0.1-0.1-0.1-0.2q0.1-0.8 0.1-0.8v-0.1-0.1-0.1q0-0.1-0.1-0.1v-0.1q0-0.4 0.1-0.4-0.1 0-0.1-0.3 0-0.1 0-0.3v-0.7l0.1-0.3h-0.1l0.1-0.1-0.1-0.1 0.1-0.1h-0.1v-0.1h0.1-0.1l0.1-0.5v-0.1h0.1q-0.1 0-0.1 0v-0.1h-0.1v0.1h-0.2-0.1-0.2-0.2-0.5-0.6-0.1-0.1-0.1-0.3l-0.3-0.1v-1.2-1.4q0-0.1 0.1-0.1zm26.8 0l0.1-0.1 0.3 0.1h0.1 0.7 0.1 0.2 0.1 0.1 0.4 0.1 0.3q0 0.7-0.1 1.4v0.1 0.4 0.1 0.1 0.1q0 0.1 0 0.1v1.2 0.1 0.2 1.7 0.2 0.1 0.1 0.3 0.1q0 0.1 0 0.2v0.4 0.5 0.6 0.6q0 0.4 0 0.4v0.9 0.3 0.2 1 0.2q0 0.1 0 0.3v0.3q0 0.1 0 0.1 0 0 0 0.4v0.3 0.1 0.1 0.2 0.2 0.1 0.1 0.1 0.2q-0.1 0-0.9-0.9-1.1-1.1-1.1-1.2l-0.3-0.4v0.1l0.1 0.1q-0.5-0.4-0.5-0.5v-0.1-0.1h0.1q-0.1-0.1-0.1-0.2v-0.2l-0.1-0.2 0.1-0.1h-0.1l0.1-0.5v-0.2l-0.1-0.4 0.1-0.5v-0.3l-0.1-0.3h0.1l-0.1-0.1 0.1-0.1-0.1-0.1 0.1-0.1-0.1-0.3v-0.3-0.4-0.1-0.1l0.1-0.5v-1.6-0.2-0.1-0.1-1.7-0.4-0.6-0.1-0.1-0.4-0.1h0.1q0 0 0 0-0.1-0.2-0.1-0.2v-0.1-0.3-0.1h0.1q0 0 0 0zm2.5 2h-0.1v0.1h0.1zm-2.5 9.3h-0.1 0.1zm9.9-11.3h0.1 0.4 0.6 0.1 0.5 0.9 1.6 0.1 1.4 0.6l0.6 0.1v2.5 0.1 0.1h-1-0.1-0.1-0.1-0.2-0.1-0.2-2.3-0.1-0.9-0.1-0.1l-0.1-0.1q0 0-0.2 0.1v0.1 0.2 0.1 0.1q-0.2 0-0.2 0.1 0.2 0 0.2 0v0.5 0.1 0.1 0.1 0.1h0.1-0.1l0.1-0.1 0.1 0.1q0-0.1 0.1-0.1h1.8l1 0.1q0 0 0 0v-0.1h0.1 0.2v0.1l0.1-0.1h0.7l0.1 0.1v-0.1q0.3 0 0.7 0.3 0.1 0.1 0.2 0.2 0.4 0.3 0.4 0.9v0.1 0.1 0.1 0.1 0.1 0.2 1 1 0.1 0.1 0.4 0.1 0.1 0.1 0.2 0.3 0.2q0 0.7-0.6 1.1-0.3 0.2-0.9 0.2h-2.1-0.2-0.1-0.1-1.1-0.3-0.2-0.1-0.3-0.1q-0.2 0-0.7 0h-1.5v-0.1-2.3-0.3h0.1 0.2 0.5 0.2 0.1 0.3 0.1 0.1 0.2q0.2 0 0.4 0h0.1-0.1v0.1l1.4-0.1h0.7 0.1 0.1 0.4 0.4q0.1 0 0.1 0.1 0-0.1 0-0.1h0.2v-0.1-0.2-0.5-0.2-0.3-0.1-0.1h-0.1-0.1q0-0.1 0-0.1-0.1 0-0.1 0.1-0.5-0.1-0.7-0.1h-0.1-0.1-0.3-0.2l-0.4 0.1-0.1-0.1v0.1h-0.5-0.3-0.2-0.2-0.7q-0.7 0-0.7-0.2 0-0.1-0.2-0.1-0.3 0-0.5-0.5v-0.1q0 0 0.3 0.4v0.1l-0.4-0.6q0-0.2 0-0.3 0-0.1 0-0.1v-0.9-0.2-0.1-1.1-0.4q0-0.1 0-0.1v-0.2-1-0.1-0.1-0.1-0.1q0-0.2 0.1-0.5 0.5-0.7 1.1-0.7h0.1 0.1zm26 0h0.2 0.1 0.2 2.8 1.1l0.3 0.1v-0.1 0.1l0.2-0.1 0.3 0.1 0.3-0.1v0.1q-0.3 0-0.3 0.1h0.2q2-0.1 2.5-0.1v0.1 0.4 0.7 0.2 0.1 0.4 0.8q0 0-0.1 0h-0.2-0.1-0.4-0.5-0.1-0.4-0.2-0.3-0.1-0.1-0.1-0.1-0.1v0.1q0 0-0.1 0v0.1q0 0 0.1 0v0.1h-0.1 0.1v0.1l-0.1 0.1h0.1v0.2 0.5 0.1 0.1 0.8l-0.1 0.1h0.1l-0.1 0.4v3.6l0.1 2.8v0.3 0.1 1.4 0.1 0.1 0.1q-0.4-0.3-1.4-1.4-0.1 0-1.1-1-0.2-0.3-0.2-0.3v-0.1q-0.1 0-0.1-0.2v-0.1-0.1q0-0.1 0-0.1v-0.7-0.3-0.2-0.1-0.3-0.3-0.1-0.1-0.2-0.3-0.5-0.1-0.1-0.2q0-0.8 0.1-0.9h-0.1l0.1-0.2v-0.1q0 0-0.1 0v-0.1q0-0.4 0-0.4 0 0 0-0.4 0-0.1 0-0.3v-0.7-0.2-0.1-0.2-0.1-0.1-0.4-0.1h0.1v-0.1q0 0 0 0h-0.1-0.1-0.2-0.3-0.1-0.6-0.5-0.1-0.1-0.1-0.4-0.2v-1.2-1.4q0-0.2 0-0.2zm14.2 0h0.1 0.3 0.1 0.7 0.1 0.2 0.1 0.1 0.4 0.1 0.3q0 0.7-0.1 1.4v0.1 0.1 0.3 0.2 0.2q0 0.1 0 0.1v1.1 0.2 0.1 1.7 0.2 0.1 0.1 0.1 0.3 0.1q0 0 0 0.2v0.3 0.6 0.5 0.7q0 0.3 0 0.3v0.1 0.8 0.3 0.2 1.1 0.1q0 0.2 0 0.4v0.2q0 0.1 0 0.1 0 0 0 0.4v0.3 0.1 0.1 0.1 0.2 0.1 0.1 0.1 0.1 0.2q-0.1 0-0.9-0.9-1.1-1.1-1.1-1.2l-0.3-0.3 0.1 0.1v0.1q-0.5-0.5-0.5-0.6v-0.1-0.1l0.1 0.1q-0.1-0.1-0.1-0.2v-0.2-0.3-0.1-0.5-0.1-0.5-0.4-0.3-0.4-0.1-0.2-0.1-0.2-0.3l-0.1-0.4 0.1-0.1-0.1-0.1h0.1-0.1l0.1-0.6v-1.6-0.2-0.1-1.7-0.4-0.1-0.6-0.2-0.4l0.1-0.1q0 0.1 0 0.1 0-0.2-0.1-0.2l0.1-0.1v-0.4l-0.1-0.1h0.1q0 0 0 0zm2.5 2.1h-0.1 0.1zm-2.5 9.3v0.1zm22.9-10.2v0.1zm-8.4 6h-0.1 0.1zm0-0.1h-0.1v0.1h0.1zm-0.1-0.2zm0-0.1zm0-0.2v0.1zm0-0.2v0.1zm0-0.2v0.1 0.1zm-2.2-3.3h-0.1zm11 8v3.3l-1.8-1.8-0.7-0.8-0.3-0.2v-0.1q-0.1-0.4-0.1-1.2v-0.2-0.4-0.1-0.1-0.5-0.4-0.3-0.1-0.2-0.3-0.2-0.3-1.1-0.2-0.1-0.1-0.2-0.1-0.1-0.2-0.2-0.1-0.1-1.4q0.1 0 0.1-0.1h-0.1-0.1-0.2-0.2q-0.1 0-0.1-0.1v0.1h-0.6-0.6-0.8-0.2-0.2v0.3q-0.1 0.2-0.1 0.2v0.1q0 0.2 0.1 0.7v0.4 2.9 3.8h-0.5-0.2-0.1-0.1-0.1-0.1l-0.5-0.1v0.1l-0.1-0.1-0.8 0.1h-0.1-0.1-0.1l-0.1-0.1v-0.7-0.9-0.4-0.1-0.1 0.1h0.1v-0.2q0-0.4 0-0.6-0.1-0.6-0.1-1.7v-0.1-0.5-0.3-0.5l0.1 0.9v-0.1q-0.1-1-0.1-2.4v-0.1h0.1v0.3-0.4-0.1q-0.1 0-0.1-0.3h0.1v-0.1l-0.2 0.1-1.3-0.1h-0.8l-0.1 0.1-0.1-0.1-0.1 0.1-0.2-0.1h-0.1v0.1-0.1h-0.1q0 0 0 0.2h-0.1v0.1q0 0 0 0.1 0 0 0 0v0.2h0.1q-0.1 0.1-0.1 0.4v1.3 1.6 0.5 1 0.3 0.4 0.6 0.1 0.2 0.9 0.1 0.3q0 0.1 0 0.1l-2-0.1v0.1l-0.2-0.1h-0.3-0.1-0.1q-0.1 0-0.1-0.1v-0.3-0.1-3.5-0.2-0.2-0.1-0.2-0.4-0.4-0.3q0-0.5 0-1.4v-0.1-0.2-0.4q0-0.7 0-1.4v-0.3-0.1-0.8-0.1-0.1-0.4q0 0 0-0.1v-2.7l1.8 1.8 0.7 0.8 0.2 0.1h0.6 0.3 0.5 1.1 1.1 0.5 0.1 0.1 0.1 0.1 0.1 0.2 0.2 1.3 0.2 2.9 0.1 0.1l1.3 0.1q0-0.1 0-0.1 0.6 0.3 0.6 0.4 0.2 0.3 0.2 0.5v0.2h0.1v-0.2q0.1 0.2 0.1 0.4v0.5 1.5h-0.1l0.1 0.1-0.1 0.8v0.1l0.1 2.1v0.9l-0.1 3v0.2q0 0.2 0.1 0.3zm6-10.4v-0.3h1.1 0.1 0.1 0.2 0.2 0.4 0.1 0.1 0.1 1 0.1 1.8 0.1 0.3 0.1 0.1 0.1 0.2 0.1 0.1 0.2 0.2 0.2 0.2 0.3 0.9v0.3q-0.1 0.3-0.1 0.9v1.5h-0.2-0.5-0.7q-0.2 0-0.2 0h-0.1-0.1q-0.1 0-0.1 0h-0.2-0.4-0.1-0.2-0.3-0.1-0.1-0.1-0.3-0.1-0.1-0.1-0.1-0.1-0.4-0.3-0.6q0-0.1 0-0.1 0 0 0 0.1h-0.3l-0.1 0.1h0.3v0.1 0.1q0 0-0.1 0 0.1 0 0.1 0v0.1 0.7 0.3 0.1h0.1q0.1 0 0.1 0 0.3 0 0.7 0h2.8 0.5v0.5 0.5 0.1 0.3q0 0.3 0 0.8v0.6h-0.6-0.2l-0.1-0.1-0.2 0.1h-1.2-0.2-0.1-0.4l-0.2-0.1v0.1-0.1l-0.1 0.1-0.2-0.1-0.2 0.1-0.1-0.1h-0.1l-0.1 0.1q-0.1-0.1-0.1-0.2-0.1 0.2-0.1 0.4v0.1q-0.1 0-0.1 0h0.1v0.1 0.1 0.3q0 0-0.1 0v0.1l0.1 0.1v0.2h-0.1 0.1v0.2q0 0 0.1 0h1.3 0.1 0.2 0.1 0.1 0.1 0.1 0.1 0.1 0.4 1.6 0.1 0.1 0.3 0.3 0.2 0.1q0.1 0 0.1 0 0.1 0 0.1 0v0.2 0.3 0.1 0.1 0.1 0.4 0.4 0.1 0.1 0.1 0.4 0.2 0.1 0.2h-0.4-0.1-0.2-0.5l-0.4-0.1h-1-0.1q-0.1 0-0.2 0h-0.5-0.1-1l-0.2 0.1-0.1-0.1v0.1l-0.1-0.1-0.1 0.1v-0.1l-0.2 0.1h-0.2l-0.2-0.1-0.2 0.1h-0.1l-0.2-0.1-0.1 0.1-0.5-0.1-0.1 0.1-0.1-0.1-0.1 0.1-0.2-0.1h-0.1l-0.4 0.1v-0.1-0.1h-0.1q0 0.2-0.2 0.2l-0.3-0.1v-0.2-0.2-0.1-0.3-0.2-0.1-0.1-0.4-0.2q0-0.1 0.1-0.1-0.1-0.2-0.1-0.8v-4.3q0.1-0.4 0.1-1.2v-0.1-0.1q-0.1-0.1-0.1-0.3v-0.1 0.1h0.1v-0.1q0-0.1-0.1-0.1v-0.1h0.1l-0.1-0.1v-0.2-0.6-0.5 0.1zm0 0.4q0.1-0.5 0.2-0.5 0 0 0.1 0.4v0.1-0.1q-0.1-0.5-0.1-0.5-0.1 0-0.2 0.6zm0.4 0.1zm0 0.1v0.1zm27-0.9h0.1 0.1 0.3 2.8 1l0.3 0.1v-0.1 0.1l0.2-0.1 0.4 0.1 0.3-0.1v0.1q-0.4 0-0.4 0.1h0.3q1.9-0.1 2.4-0.1l0.1 0.1-0.1 0.4v0.7 0.2 0.5 0.8q0 0-0.1 0h-0.1-0.2-0.3-0.6-0.4-0.2-0.1-0.2-0.2-0.1-0.1-0.1-0.1v0.1q0 0-0.1 0v0.1q0 0 0.1 0v0.1 0.2 0.2 0.5 0.1 0.1 0.8 0.1 0.4 3.6 2.8 0.3 0.1 1.4 0.1 0.1 0.1q-0.4-0.3-1.4-1.4 0 0-1-1-0.3-0.3-0.3-0.3v-0.1q-0.1 0-0.1-0.2v-0.1-0.1q0-0.1 0.1-0.1l-0.1-0.7v-0.3l0.1-0.2-0.1-0.1v-0.3l0.1-0.3h-0.1 0.1l-0.1-0.1 0.1-0.1-0.1-0.2 0.1-0.3-0.1-0.5 0.1-0.1h-0.1l0.1-0.1-0.1-0.3q0.1-0.7 0.1-0.8v-0.2-0.1q0 0-0.1 0v-0.2q0-0.3 0.1-0.3-0.1 0-0.1-0.4 0-0.1 0-0.3v-0.7l0.1-0.2-0.1-0.1h0.1l-0.1-0.2 0.1-0.1h-0.1 0.1v-0.1h-0.1l0.1-0.4v-0.1h0.1v-0.1q-0.1 0-0.1 0h-0.1-0.2-0.1-0.2-0.2-0.5-0.6-0.1-0.1-0.1-0.3-0.3v-1.2-1.4q0-0.2 0.1-0.2zm19.8 0h0.1 0.1 0.4 0.2 0.2 0.2q0 0 0 0 0.1 0.1 0.6 0.2 0.2 0.1 0.2 0.2 0.1 0.3 0.2 0.3h0.1q0 0 0 0.5h0.1q0 0.1 0 0.1v0.1 0.2 0.5 1.3 0.1 0.1 0.5 0.2 0.1 0.2 0.1 0.5 0.1 0.3 0.4 3.8l0.1 0.2q-0.1 0.6-0.4 0.9-0.4 0.3-1.1 0.3h-0.5-1.4-0.9-0.4-0.1-0.1q-2.3 0-2.3 0v0.1h-0.1q-0.4 0-0.9-0.6-0.3-0.3-0.3-0.9v-0.5-0.1q0-0.1 0-1.8v-4.5-0.6-0.1-0.6-0.2q0-0.9 0.8-1.3l0.1 0.1 0.2-0.1h-0.1q0.2-0.1 0.5-0.1h0.1v0.1l0.1-0.1v0.1q0.2-0.1 0.5-0.1h1.6 0.2 0.2 0.5zm-4.7 0.1h0.1zm-0.2 0h-0.1 0.1 0.1zm3.7 2.6l-1.2 0.1h-0.1-0.1-0.1-0.1-0.1-0.2-0.3v0.2 0.1 0.4 0.8 0.6 0.1q0 0.5 0 0.8v0.3 1.4 0.1 0.3 0.1 0.1 0.1q0 0.2 0 0.2v0.1 0.1l0.3-0.1 0.1 0.1v-0.1l0.1 0.1v0.2-0.2l1.4-0.1h0.1 0.5 0.2 0.1l0.1 0.1v-0.1-0.2-0.2-0.3 0.2h0.1v-0.1q-0.1-0.8-0.1-1.1v-0.9-0.1-0.1-0.3-0.5-0.1-0.3-0.8l0.1 0.3q0-0.6-0.1-0.6v-0.3-0.1l0.1-0.1h-0.1v-0.1q0 0 0.1 0-0.1 0-0.1-0.1 0 0.1-0.2 0.1h-0.5q0-0.1 0-0.1zm0.8 1.3v0.1zm0 0.1v0.1 0.2h0.1v-0.1zm0 0.3v0.1zm0 0.1v0.1zm0 0.3v0.1zm-0.1 3.1v0.1zm29.7-7.7v0.1 0.2-0.1-0.1zm-2.1 7.1v0.1-0.1zm2.1-6.3v-0.1 0.1zm0-0.5v0.1zm0 9.3v3.6 0.3q-0.2-0.1-0.7-0.6-0.1-0.1-1.6-1.6-0.3-0.3-0.4-0.5 0 0 0-0.1v-0.2l-0.1-0.1 0.1-0.1v-0.2-0.1-0.4-0.4-0.2-0.4-0.6-0.8q0 0 0 0.1v-0.1q0-0.2 0-0.2 0.2 0 0.2 0h-0.2v-0.1l0.2 0.1h0.1q0 0 0.1 0v-0.1h-0.4l0.1-0.2v-0.1l-0.1 0.1q0-0.1-0.1-0.2v0.2h-0.1-0.1-0.1-2.2v-0.1q0 0.1-0.1 0.1-0.1 0-0.1-0.1 0 0 0 0-0.1 0-0.1 0l-0.1 0.2 0.1 0.3h-0.1q0 0 0.1 0.1v0.2q0 0.5 0 0.6v0.1 0.2 0.6 0.3 0.1 0.1 0.3 0.4 0.1 0.1 0.1 0.4q-0.6 0-1 0h-0.6-0.1-1.1v-0.5-0.1-0.1-0.5-1.6q0-0.2 0.1-1.2 0 0-0.1 0.4v-0.5-0.1-0.1-0.4-0.2-0.1-0.1-0.1-0.2-0.2-0.2-0.1-0.6-0.1l0.1-2.3v-0.2-0.4-1q0-0.4 0-0.6v-2.4-0.3q0.2 0.2 0.7 0.7 0.1 0.1 1.6 1.5 0.3 0.3 0.4 0.5 0 1.1 0 3v0.8h-0.2v0.1q0 0 0.2 0v0.1q0 0.1 0 0.2h0.1q0.2 0 0.5 0h0.2 0.1-0.1 0.2-0.1 0.1 1.3 0.2v0.1q0 0 0-0.1h0.3 0.1q0 0 0-0.1v-0.1-0.1-0.3-1.2-0.2-0.1-0.1-0.4-0.1-0.1-0.3-0.2-0.7-0.2q0 0 0.2 0h2.3q0.2 0 0.2 0v0.1 0.1-0.2l0.1 0.4-0.1 0.2 0.1 0.3v0.1 0.3 1.1q0 0-0.1 0v0.2 0.1 0.1 0.1 1 0.5 0.4q0 0.1 0.1 0.4v0.1 0.2 0.1 0.1l-0.1 2v1.2 0.2 0.1 0.3 0.2 0.1zm6-9.7v-0.3h1.1 0.1 0.2 0.1 0.3 0.3 0.1 0.1 0.1 0.1 1 1.8 0.2 0.2 0.2 0.1 0.1 0.1 0.1 0.1 0.2 0.2 0.2 0.2 0.3 0.9v0.3q-0.1 0.4-0.1 1v1.5h-0.2-0.5-0.6-0.1q-0.1 0-0.1 0h-0.1-0.1-0.1q-0.1 0-0.1 0h-0.1-0.1-0.4-0.2-0.3-0.1-0.1-0.1-0.3-0.1-0.1-0.1-0.2-0.4-0.3-0.6q0-0.1-0.1-0.1 0 0 0 0.1h-0.3 0.2 0.1v0.1h-0.1v0.1h0.1q0 0-0.1 0v0.1q0.1 0 0.1 0l-0.1 0.1h0.1v0.7 0.3 0.1-0.1h0.1q0.1 0.1 0.1 0.1 0.2-0.1 0.6-0.1v0.1-0.1l2.8 0.1h0.6v0.5l-0.1 0.4v0.2 0.3q0.1 0.3 0.1 0.7l-0.1 0.6h-0.5-0.3-0.1-0.2-1.2-0.1-0.2-0.4-0.1-0.1-0.1-0.2-0.1-0.2-0.1-0.1q0 0 0-0.2-0.2 0.3-0.2 0.5-0.1 0-0.1 0.1h0.1v0.1l0.1 0.1-0.1 0.3q0 0-0.1 0l0.1 0.1v0.2l-0.1 0.1h0.1v0.1q0 0.1 0.2 0.1v-0.1h1.3v0.1-0.1h0.2 0.1 0.2 0.1 0.1 0.1 0.1 0.3 1.6 0.1 0.1 0.4 0.2 0.2 0.2q0.1 0 0.1 0 0.1 0 0.1 0.1v0.2 0.2 0.1 0.2 0.1 0.4 0.4 0.1 0.1 0.1 0.3 0.3 0.2h-0.4-0.1-0.2-0.5-0.5-1-0.1q-0.1 0-0.2 0h-0.4-0.1-0.1-1-0.2-0.1-0.1-0.1-0.2-0.1-0.2-0.2-0.2-0.2-0.6-0.1-0.1-0.1-0.1-0.1-0.4-0.1v-0.1q0 0.1-0.3 0.1h-0.3v-0.2-0.3-0.1-0.2-0.3-0.1-0.5-0.1q0.1-0.1 0.1-0.1-0.1-0.2-0.1-0.8v-4.4q0.1-0.4 0.1-1.1v-0.1-0.1q-0.1-0.2-0.1-0.3v-0.1h0.1q0-0.1-0.1-0.1v-0.1h0.1-0.1v-0.1h0.1v-0.1-0.1l-0.1-0.7 0.1-0.4-0.1 0.1zm0.1 0.3q0-0.5 0.1-0.5 0 0 0.2 0.5-0.1-0.5-0.2-0.5-0.1 0-0.1 0.5zm0.3 0.1v0.1zm0 0.1v0.1zm19.4 1.9h-0.6-1.5-0.1-0.1-0.1-0.2v-0.1q-0.1 0.1-0.1 0.1v1.2h-0.1q0.1 0 0.1 0.1l-0.1 0.1h0.1 0.3q0 0.1 0 0.1 0 0 0-0.1h0.3 0.5 0.2 0.1 0.1 0.1 0.1 0.1 0.1 0.3 0.1 0.2 0.3v0.1l0.1-0.1h0.1q-0.1 0-0.1-0.1l0.1-0.1h-0.1l-0.1-0.3v-0.4l0.2-0.1h-0.1-0.1v-0.2h0.1 0.1v-0.1h-0.1-0.1l0.1-0.1-0.1-0.1v0.1l-0.1-0.1q0 0 0 0.1zm3 8.3v0.2l-0.1 0.9v0.1 0.4 0.1 0.1 0.2 0.3 0.1 0.2q-0.8-0.6-1.9-1.7-0.1-0.1-0.7-0.7v-0.1q0 0 0-0.1v-0.7-0.1-0.3-0.8-0.1-0.7-0.1-0.1-0.2-0.1-0.1l-0.1-0.3 0.1-0.1-0.1-0.1h0.1q0-0.1 0-0.1 0 0 0-0.1h0.2 0.1v-0.1h-0.4-0.1-0.1-0.1-0.7-0.2-0.4-0.1-0.1-0.1-0.2-0.1-0.3v-0.1q-0.1 0-0.1 0.1h-0.1-0.2v0.1q-0.1 0.1-0.1 0.1h0.1v1.1 0.8q0.1 0.2 0.1 0.8v1.3h-0.1-0.1-0.1-1.6-0.1-0.1-0.4-0.3q-0.1 0-0.1-0.6v-0.3-0.2-0.8-0.1-0.1-1.4-0.7-0.2-0.8l-0.1-0.4h0.1l-0.1-0.1 0.1-0.1-0.1-0.1v-0.7-0.1-0.1-0.3q0-0.2 0-0.2v-0.3-0.1-0.5-0.1-0.5-0.1-0.3-0.3-0.3-1-0.1-0.2l0.1-0.1v-0.9-0.1-0.4-0.2-0.2-0.3-0.1-0.3h0.1q0.7 0.7 1.8 1.8 0.2 0 0.8 0.6v0.1h0.7 0.2 0.2 0.2 0.6 0.3 0.5v0.1l1.2-0.1 0.1 0.1 0.1-0.1 0.2 0.1 0.3-0.1q0.4 0 0.6 0.2 0.3 0.2 0.5 0.7 0.1 0.2 0.1 0.7v0.1 1.2 0.3 0.2 2.4q0 0.6 0 0.8v0.1 0.7 0.1 2 0.1 0.2 0.7zm6.3-10.6v0.7 0.1 0.1 0.1 0.2 0.1-0.4-0.4-0.1-0.2zm5.6 7.1h-0.2 0.2zm-0.1-3.6v0.1zm0-0.5h-0.1v0.4h0.1zm-2.9-0.7v0.1 0.2h-0.1l-0.1 0.1h0.2v0.7l-0.1 0.1q0.1 0 0.1 0v0.3h0.2 0.1 0.2 0.1l0.3-0.1v0.1h0.5 0.1 0.1 0.1 0.1 0.1 0.2 0.1q0.2 0 0.3 0 0 0 0 0h0.3v0.1-0.2-0.1-0.8 0.1h0.1v-0.1l-0.1-0.3v-0.1-0.1l-0.1 0.1v-0.1h-0.1-0.7-0.3-0.1-0.1-0.1-0.1-0.5-0.3-0.1-0.1-0.1zm-2.6-0.9v0.1zm8.1 9.3v0.2 0.1 0.1 0.1 0.5 0.4 0.1 0.2 0.2 0.1 0.2 0.2 0.1 0.2l-0.1 0.1q0 0 0.1 0v0.1q-1.4-1.3-2.2-2.2-0.3-0.2-0.5-0.5v-0.1q0 0-0.1 0v-0.2-0.4-1-0.1l0.1-0.8h-0.1l0.1-0.3q-0.1 0-0.1-0.1v-0.5-0.1q0 0 0.1 0 0-0.1 0-0.1v-0.1h-0.1q0.1-0.1 0.1-0.1h0.1q0-0.1-0.1-0.2v-0.1-0.1h0.1-0.5-0.3l-2.2-0.1q0 0.2-0.1 0.2 0 0 0.1 0v0.1q-0.1 0-0.1 0h0.1q0 0.4 0 0.4v0.3l-0.1 2.1v0.1l0.1 0.3-0.1 0.1v0.7h0.1-0.1-0.1-0.1-0.7-1.4-0.1-0.1q-0.2 0-0.2-0.1v-0.2-0.3-0.1-0.1-0.1-0.2-0.1l0.1-4.8v-0.1-0.3-0.2-0.3-0.2-1q0-0.4 0-1.7v-0.1-0.1-0.6l0.1-0.6v-0.1-0.1-0.1-0.5-0.4-0.1-0.2-0.2-0.1-0.2-0.2-0.1-0.2-0.1q0 0-0.1 0v-0.1h0.1q1.3 1.3 2.2 2.2 0.2 0.2 0.4 0.5h0.1 0.1 0.3 0.2q0.5 0 1.4 0h0.2 0.2 0.1 0.1 0.1 0.2 0.1 0.1 0.1 0.7 0.2q0.1 0 0.1 0.1l0.1-0.1q0.3 0 0.5 0.2v0.1q0.2 0.1 0.3 0.1 0.3 0.2 0.4 0.6l0.1 0.2v0.8 1.4 0.1 0.1 0.1q-0.1 1.1-0.2 1.1 0-0.1 0-0.1v0.2q-0.5 0.5-0.6 0.5h-0.1-0.1q0 0.1-0.3 0.1h-0.1-0.1v0.1h0.4v0.1h0.2q0.2 0 0.3 0.2h0.1q0.3 0.3 0.4 0.8v0.1 0.6 0.2 0.1 0.3 0.1 0.2 0.2 0.3 0.1 0.1l-0.1 0.9h0.1v0.3 0.7 0.1zm-8.1-11.1h-0.1l0.1 0.4v-0.2zm14.6-0.1h0.4 0.2 0.1 0.6 0.2 0.2 0.2 0.2 0.2v2.2 0.4 0.1q0 0.1-0.1 0.2v0.1q0.1 0 0.1 0.1v1.7 0.1 0.3l-0.1 0.8h0.1v0.9 1.5h-0.1-0.9q-0.2-0.1-0.5-0.1h-0.8-0.4-0.1v-1.1-0.1-0.1-0.2-0.1-0.2-0.1-0.2-0.1-0.1-0.1-0.3-0.1-0.2-0.6-0.1-0.1-0.1-0.2-0.1-0.1h0.1l-0.1-0.1v-0.7-0.2-0.5l0.1-0.1h-0.1l0.1-0.1h-0.1v-0.1l0.1-0.2v-0.1-0.2-0.1-0.1-0.1-0.1-0.1-0.2-0.1-0.1-0.2-0.1-0.5zm-0.4 9.8l0.8 0.1 0.1-0.1v0.1l0.6-0.1h0.8 0.4v0.1 0.3 0.4 1h0.1q-0.1 0.1-0.1 0.5v0.1 0.1 0.4 0.2 0.1 0.2 0.2 0.1 0.1 0.1 0.1 0.1q-0.1 0-0.5-0.5-0.1 0-0.2-0.2 0 0-1.4-1.3l-0.2-0.3-0.4-0.3q-0.1-0.1-0.1-0.2v-1.2q0.1-0.1 0.1-0.1z"/>
	</g>
</svg>