<svg version="1.2" xmlns="http://www.w3.org/2000/svg" viewBox="0 0 512 512" width="512" height="512">
	<title>New Project</title>
	<style>
		.s0 { fill: #00e5ff } 
		.s1 { fill: #bd4b4b } 
	</style>
	<path id="Shape 1" class="s0" d="m256 512c-141.6 0-256-114.4-256-256 0-141.6 114.4-256 256-256 141.6 0 256 114.4 256 256 0 141.6-114.4 256-256 256z"/>
	<filter id="f0">
		<feFlood flood-color="#ffffff" flood-opacity="1" />
		<feBlend mode="normal" in2="SourceGraphic"/>
		<feComposite in2="SourceAlpha" operator="in" />
	</filter>
	<g id="snigdhaos-graphic" filter="url(#f0)">
		<path id="&lt;Path&gt;" class="s1" d="m276.9 388.9c-8.4-16.9-8.5-38-10.3-56.8-1.2-20-1.5-40.1-1.2-60.1-1.9 20-3.1 40.1-3.5 60.2 0.3 19.5-1.3 39.3 5.4 57.9-3.8 3.8-7.5 7.7-10.8 11.9-3.4-4.2-7.1-8.1-10.9-11.9 6.8-18.6 5.1-38.4 5.5-57.9-0.4-20.1-1.7-40.2-3.5-60.2 0.2 20-0.1 40.1-1.3 60.1-1.7 18.8-1.8 39.9-10.3 56.8l-2 3.2c5.6 5.4 11.4 11.9 16.1 19 2.6 4 4.9 8.3 6.4 12.7 1.5-4.4 3.7-8.7 6.4-12.7 4.6-7.1 10.5-13.6 16-19z"/>
		<path id="&lt;Path&gt;" class="s1" d="m298.1 442.1c2-10.4 3.2-20.9 3.6-31.4 0.4-17.9-0.9-35.4-5.5-52.8 18.6-7.4 32.3-23 44.2-38.7 1-16.7-4.3-32.8-12.9-46.9-9.3 27.6-32.8 47.2-55.6 63.9 20.8-10.8 42-24.6 55.3-44.5 2.3 7.7 3.2 15.9 2.9 23.8-11.2 13.4-25.8 28.3-42.5 33l-6 1.4c0 0 1.8 6.2 1.8 6.2 7.5 26.2 8.6 55 4.9 82-2.2 17.8-10.9 47.6-15.3 65.4 0 0 17.9-34.6 17.9-34.6 6.2-13.2 12.4-24.8 23.1-34.6 10.2-9.8 22.3-17.6 34.6-25-18.7 7.4-37.2 17.4-50.5 32.8z"/>
		<path id="&lt;Path&gt;" class="s1" d="m358.4 277c-7.7 40.1-12.4 93.6 18.7 125.3 0 0 7.9-9 7.9-9-30.6-26.2-30.2-79-26.6-116.3z"/>
		<path id="&lt;Path&gt;" class="s1" d="m229.5 356.1l1.9-6.2c0 0-6.1-1.4-6.1-1.4-16.7-4.7-31.2-19.6-42.5-33-0.3-7.9 0.7-16.1 3-23.8 13.3 19.9 34.4 33.7 55.3 44.5-22.8-16.7-46.4-36.3-55.6-63.9-8.6 14.1-13.9 30.3-13 46.9 11.9 15.7 25.7 31.3 44.2 38.7-2.1 7.9-3.3 15.6-4.2 23.5-2.4 20.2-1.4 40.8 2.5 60.7-13.4-15.4-31.9-25.4-50.6-32.8 12.3 7.4 24.4 15.2 34.5 25 10.7 9.8 17 21.4 23.2 34.6 0 0 17.9 34.6 17.9 34.6-4.3-17.6-13.1-47.7-15.3-65.4-3.8-27-2.6-55.8 4.8-82z"/>
		<path id="&lt;Path&gt;" class="s1" d="m128 393.3c0 0 7.9 9 7.9 9 31.1-31.7 26.3-85.2 18.7-125.3 3.6 37.3 4 90.1-26.6 116.3z"/>
		<path id="&lt;Path&gt;" class="s1" d="m224.3 169.9l10.6-3.9c1.3 18.5 5.6 37.1 14.1 53.4 2.1 4.1 4.5 8 7.1 11.8q4.2-5.9 7.4-12.4c0.1-0.1 0.1-0.2 0.1-0.2 8.4-16.5 12.9-34.3 14.7-52.5 4.7 1.7 10.4 3.8 10.4 3.8 37.8 15.6 71.7 49.1 70.4 92.6 3.7-27.7-8.7-55.7-27.6-75.7-10.5-11.1-23.5-20.2-37.1-27.7 10.1-35.6 2.3-75.3-20-104.9 17.6 29.7 21.8 67.3 9.2 99.4q-2.2-1.1-4.4-2.1c0.6-20.6-1.8-41.3-5.3-61-5.3-28-13.7-55.3-24.4-81.5 8.1 41.5 16.6 82.5 17.1 124.6 0.8 26.3-2.4 50.3-10.4 70.6-5.4-13.2-8.9-28.2-10.3-45-2.5-27.7-0.6-55.1 1.8-83.3-7.2 21.5-11.8 43.9-13 66.8q-0.3 4.2-0.3 8.5-2.5 1.1-5.1 2.4c-12.5-32.1-8.3-69.7 9.3-99.4-22.3 29.5-30.2 69.3-20 104.9-13.6 7.5-26.7 16.6-37.1 27.7-19 20-31.3 48-27.6 75.7-1.3-43.5 32.6-77 70.4-92.6z"/>
	</g>
</svg>