<svg version="1.2" xmlns="http://www.w3.org/2000/svg" viewBox="0 0 256 85" width="256" height="85">
	<title>Snigdha OS</title>
	<style>
		.s0 { fill: #000000 } 
		.s1 { fill: #ff7f53 } 
	</style>
	<filter id="f0">
		<feFlood flood-color="#ff7f53" flood-opacity="1" />
		<feBlend mode="normal" in2="SourceGraphic"/>
		<feComposite in2="SourceAlpha" operator="in" />
	</filter>
	<g id="snigdhaos" filter="url(#f0)">
		<path id="&lt;Path&gt;" class="s0" d="m33.1 47.1c-6.4 6.2-14.4 7.8-19.6 16.1-6 9.6-1.9 18.8-1.9 18.8 0 0 0.6-5.5 9-12.4 8.3-6.9 21-13.7 22.1-19.8 0.7-4 1.3-9.2-4.2-15.9 0 0 1 7.1-5.4 13.2z"/>
		<path id="&lt;Path&gt;" class="s0" d="m20.5 36.9c6.4-6.2 14.3-7.8 19.6-16.1 6-9.6 1.9-18.8 1.9-18.8 0 0-0.7 5.5-9 12.4-8.3 6.9-20.4 13.9-22.1 19.8-1.7 6-1.3 9.2 4.2 15.9 0 0-1-7.1 5.4-13.2z"/>
	</g>
	<path id="Snigdha OS" class="s1" aria-label="Snigdha OS"  d="m89.7 20.4h2.8l-0.2 2.2h-2.1q-1.6 0-2.2 0.4-1.2 0.8-1.2 2.1 0 1.2 1 2.5l3.9 5.1q1.4 1.9 1.4 4.3 0 3.3-2.5 5.3-2.1 1.7-5.5 1.7h-3.2l0.3-2.1h2.7q1.9 0 2.9-0.9 1-0.9 1-2.3 0-1.4-1-2.9l-4.4-6.1q-1-1.3-1-2.9 0-3 2.4-4.8 2-1.6 4.9-1.6zm18.5 21.5l-0.2 2.1h-1.8q-1.6 0-2.5-0.8-1.1-0.9-1-2.5l0.8-8.8q0-0.8-0.4-1.3-0.4-0.7-1.2-0.7h-1.7l-1.3 14.1h-4.3l1.3-14.1h-1.2l0.2-2.2h7.2q2.6 0 4.1 1.1 1.7 1.2 1.5 3.6l-0.7 8.1q0 0.9 0.2 1.2 0.2 0.2 1 0.2zm7.9-19.3q0 0.9-0.6 1.6-0.6 0.6-1.5 0.6-0.9 0-1.6-0.6-0.6-0.7-0.6-1.6 0-0.9 0.6-1.5 0.7-0.7 1.6-0.7 0.9 0 1.5 0.7 0.6 0.6 0.6 1.5zm-0.2 19.3l-0.1 2.1h-0.7q-2.3 0-3.6-1.1-1.3-1-1.1-2.9l0.9-10.1h-1.2l0.1-2.2h5.5l-1 12.3q-0.2 1.7 1.2 1.9zm7.1-14.2h7.3l-0.2 2.2h-1.8q0.4 0.7 0.3 1.6l-0.5 5.5q-0.2 1.8-1.9 2.8 2.6 1.8 2.3 4.7h1.4l-0.2 2.2h-1.4l-0.1 1.2q-0.1 1.8-1.8 2.9-1.5 0.9-3.3 0.9h-2.1q-1.9 0-3.2-0.9-1.5-1.1-1.3-2.9l0.2-3.4h7.6q0.1-1.1-0.6-2.4-0.7-1.3-1.9-1.3-1.8 0-3.1-1-1.4-1-1.3-2.8l0.5-5.5q0.2-1.8 1.8-2.8 1.5-1 3.3-1zm0.8 9.3l0.5-5.5q0.1-0.8-0.2-1.2-0.3-0.4-0.7-0.4-1.1 0-1.2 1.6l-0.5 5.5q-0.1 1.6 0.9 1.7 1.1 0 1.2-1.7zm0.1 10.9l0.2-1.2h-3.3l-0.1 1.2q0 0.9 0.4 1.4 0.4 0.5 1.1 0.5 0.6 0 1.1-0.5 0.5-0.5 0.6-1.4zm15.8-27.5h5.5l-1.8 20q-0.1 1.5 1.3 1.5l-0.1 2.1h-1.6q-2.3 0-3.3-1.3-1.5 1.3-3.7 1.3-2.3 0-3.9-1.1-1.8-1.2-1.6-3.4l0.6-7.2q0.2-2.1 2.1-3.4 1.8-1.2 3.9-1.2h3.1l0.5-5.1h-1.2zm-0.5 19l0.8-9.6h-3.1q-1.3 0-1.4 1.6l-0.7 8.3q-0.2 2.1 1.8 2.1 1 0 1.7-0.7 0.8-0.7 0.9-1.7zm20.9 2.5l-0.2 2.1h-1.7q-1.5 0-2.5-0.8-1.1-0.9-1-2.5l0.7-8.3q0.2-2.5-1.5-2.5h-1.7l-1.2 14h-4.3l1.9-21.4h-1.3l0.2-2.1h5.5l-0.6 7.3h1.7q2.6 0 4.1 1.1 1.7 1.3 1.5 3.8l-0.7 8.1q0 0.7 0.2 1 0.2 0.2 0.9 0.2zm15.4-0.1l-0.2 2.1h-1.5q-2.2 0-3.3-1.3-1.4 1.3-3.3 1.3h-0.6q-2.2 0-3.7-1.1-1.7-1.3-1.5-3.4l0.6-7.2q0.2-2 2.1-3.4 1.7-1.1 3.9-1.1h7.4l-1.1 12.7q-0.1 1.3 1.2 1.4zm-5.4-2.4l0.8-9.6h-3.1q-1.4 0-1.5 1.6l-0.7 8.3q-0.2 2.1 1.8 2.1 1 0 1.8-0.7 0.8-0.7 0.9-1.7zm27.4-14.1l-1.3 13.7q-0.2 2.1-1.8 3.5-1.7 1.4-4.3 1.4h-1.4q-2.6 0-4.1-1.4-1.4-1.4-1.3-3.5l1.2-13.7q0.2-2.1 1.9-3.5 1.7-1.4 4.3-1.4h1.4q2.6 0 4.1 1.4 1.4 1.4 1.3 3.5zm-5.5 14.3l1.2-14.9q0.1-0.9-0.5-1.5-0.6-0.7-1.5-0.7-0.8 0-1.6 0.7-0.7 0.6-0.8 1.5l-1.3 14.9q-0.1 0.9 0.5 1.6 0.6 0.6 1.6 0.6 0.9 0 1.6-0.6 0.7-0.6 0.8-1.6zm13.7-19.2h2.8l-0.2 2.1h-2q-1.6 0-2.3 0.4-1.2 0.8-1.2 2.1 0 1.3 1 2.5l3.9 5.1q1.5 1.9 1.5 4.4 0 3.3-2.6 5.2-2.1 1.7-5.5 1.7h-3.1l0.2-2.1h2.7q1.9 0 3-0.9 1-0.9 1-2.2 0-1.5-1.1-2.9l-4.4-6.1q-0.9-1.3-0.9-3 0-2.9 2.3-4.8 2-1.5 4.9-1.5z"/>
	<path id="be silent when it is time to hea" class="s1" aria-label="be silent when it is time to hear"  d="m56.5 61.4l-0.3 4q-0.1 1.3-1.3 2-1 0.6-2.3 0.6-1.2 0-1.9-0.7-0.7 0.7-2 0.7h-0.9l0.2-1.2q0.7 0 0.8-0.8l1-11.3h3.3l-0.1 1.2h-0.9l-0.2 3h1.7q1.2 0 2.1 0.6 0.9 0.7 0.8 1.9zm-2.8 4.2l0.5-4.6q0-0.9-0.7-0.9h-1.7l-0.5 5.3q-0.1 0.6 0.3 1 0.3 0.4 0.9 0.4 1.1 0 1.2-1.2zm9.5-4.2h-1.2q0.1-0.5-0.3-0.9-0.3-0.4-0.8-0.4-0.7-0.1-1 0.4-0.4 0.5-0.4 1.2 0 1.1 0.8 1.1h2.3l-0.2 1.2h-2.2q-0.5 0-0.8 0.5-0.3 0.4-0.3 1 0 0.6 0.3 1 0.3 0.3 0.9 0.3 0.5 0 0.9-0.4 0.4-0.4 0.5-1h1.2q-0.1 1.3-1.1 2-0.8 0.6-2.1 0.6-1.2 0-2-0.7-1-0.8-0.9-1.9 0.1-1.2 1.2-2-1-0.9-0.9-2 0.1-1.2 1.2-1.9 1-0.6 2.2-0.6 1.3 0 2 0.6 0.8 0.7 0.7 1.9zm9.6 4q0-1-0.8-2l-1.8-2.2q-0.2-0.3-0.2-0.6 0-0.5 0.9-0.5h1.4l0.1-1.2h-1.9q-1.3 0-2.1 0.6-1 0.6-1 1.8 0 0.9 0.7 1.7l1.4 1.7q0.4 0.4 0.4 1 0 1.1-1.1 1.1h-1.9l-0.1 1.2h2.8q1.3 0 2.2-0.6 1-0.7 1-2zm4.4-9.4q0 0.5-0.3 0.8-0.4 0.4-0.9 0.4-0.5 0-0.8-0.4-0.4-0.3-0.4-0.8 0-0.5 0.4-0.9 0.3-0.4 0.8-0.4 0.5 0 0.9 0.4 0.3 0.4 0.3 0.9zm-0.1 10.8l-0.1 1.2h-0.3q-1.4 0-2.1-0.6-0.7-0.6-0.6-1.6l0.5-5.7h-0.7l0.1-1.2h3.1l-0.6 6.9q-0.1 0.9 0.7 1zm1.6-12.1h3l-1 11.1q0 0.9 0.8 1l-0.1 1.2h-0.4q-1.3 0-2-0.6-0.8-0.6-0.7-1.6l0.9-9.9h-0.6zm9.8 6.7h-1.2q0.1-0.5-0.3-0.9-0.3-0.4-0.8-0.4-0.7-0.1-1 0.4-0.4 0.5-0.4 1.2 0 1.1 0.8 1.1h2.3l-0.2 1.2h-2.2q-0.5 0-0.8 0.5-0.3 0.4-0.3 1 0 0.6 0.3 1 0.3 0.4 0.9 0.3 0.5 0 0.9-0.4 0.4-0.4 0.5-0.9h1.2q-0.1 1.2-1.1 1.9-0.8 0.6-2.1 0.6-1.2 0-2-0.7-1-0.8-0.9-1.8 0.1-1.3 1.2-2.1-1-0.9-0.9-2 0.1-1.2 1.2-1.9 1-0.6 2.2-0.6 1.3 0 2 0.6 0.8 0.7 0.7 1.9zm8.3 5.4l-0.1 1.2h-1.1q-0.9 0-1.4-0.4-0.6-0.5-0.6-1.4l0.5-5q0-0.4-0.2-0.8-0.3-0.3-0.7-0.3h-1l-0.7 7.9h-2.4l0.7-7.9h-0.7l0.1-1.2h4.1q1.5 0 2.3 0.6 1 0.6 0.9 2l-0.4 4.5q-0.1 0.5 0.1 0.7 0.1 0.1 0.6 0.1zm4.4-7.9h1.1l-0.1 1.2h-1.1l-0.5 5.7q-0.1 0.9 0.8 1l-0.1 1.2h-0.9q-1 0-1.6-0.6-0.7-0.5-0.6-1.6l0.5-5.7h-0.9l0.1-1.2h0.9l0.2-2.2h2.4zm16.3 8h0.9l-0.1 1.2h-8.7q-1.5 0-2.3-0.6-1-0.7-0.9-2l0.5-5.4h-0.7l0.1-1.2h3.1l-0.6 6.9q0 0.4 0.2 0.7 0.3 0.4 0.7 0.4h1l0.7-8h2.4l-0.6 6.9q0 0.4 0.2 0.7 0.3 0.4 0.7 0.4h1l0.7-8h2.4zm8.9 0.1l-0.1 1.2h-1q-0.8 0-1.4-0.5-0.6-0.5-0.5-1.4l0.4-4.7q0.1-1.3-0.9-1.3h-1l-0.6 7.8h-2.5l1.1-12h-0.7l0.1-1.2h3.1l-0.3 4.1h0.9q1.5 0 2.3 0.6 1 0.8 0.9 2.2l-0.4 4.5q0 0.4 0.1 0.6 0.1 0.1 0.5 0.1zm7.1-5.4h-1.2q0-0.6-0.3-1-0.4-0.3-0.8-0.4-0.7 0-1.1 0.5-0.4 0.5-0.4 1.1 0 1.2 0.9 1.2h2.2l-0.1 1.2h-2.2q-0.5 0-0.8 0.4-0.3 0.5-0.3 1.1 0 0.5 0.3 0.9 0.3 0.4 0.9 0.4 0.5-0.1 0.8-0.4 0.5-0.4 0.5-1h1.2q-0.1 1.2-1 1.9-0.9 0.6-2.1 0.6-1.2 0-2.1-0.7-0.9-0.7-0.9-1.8 0.1-1.3 1.3-2-1-1-0.9-2 0.1-1.2 1.2-1.9 0.9-0.7 2.2-0.7 1.2 0 2 0.6 0.8 0.7 0.7 2zm8.2 5.3l-0.1 1.2h-1q-0.9 0-1.5-0.4-0.6-0.5-0.5-1.4l0.4-5q0.1-0.4-0.2-0.7-0.2-0.4-0.7-0.4h-0.9l-0.7 7.9h-2.4l0.7-7.9h-0.7l0.1-1.2h4.1q1.4 0 2.3 0.6 0.9 0.7 0.8 2l-0.4 4.6q0 0.5 0.1 0.6 0.2 0.1 0.6 0.1zm8.1-10.8q0 0.5-0.4 0.9-0.4 0.3-0.9 0.3-0.5 0-0.8-0.3-0.4-0.4-0.4-0.9 0-0.5 0.4-0.9 0.3-0.3 0.8-0.3 0.5 0 0.9 0.3 0.4 0.4 0.4 0.9zm-0.2 10.8l-0.1 1.2h-0.3q-1.3 0-2.1-0.5-0.7-0.7-0.6-1.7l0.5-5.7h-0.7l0.1-1.2h3.1l-0.6 6.9q0 0.9 0.7 1zm4.5-7.9h1.1l-0.2 1.2h-1l-0.5 5.7q-0.1 0.9 0.8 1l-0.2 1.2h-0.8q-1 0-1.6-0.5-0.7-0.6-0.6-1.7l0.5-5.7h-0.9l0.1-1.2h0.9l0.2-2.1h2.4zm8.4-2.9q0 0.5-0.3 0.9-0.4 0.3-0.9 0.3-0.5 0-0.9-0.3-0.3-0.4-0.3-0.9 0-0.5 0.3-0.9 0.4-0.3 0.9-0.3 0.5 0 0.9 0.3 0.3 0.4 0.3 0.9zm-0.1 10.8l-0.1 1.2h-0.4q-1.3 0-2-0.6-0.7-0.6-0.6-1.6l0.5-5.7h-0.7l0.1-1.2h3.1l-0.6 6.9q-0.1 0.9 0.7 1zm6.4-1.4q0-1-0.8-2l-1.8-2.2q-0.2-0.3-0.2-0.6 0-0.5 0.9-0.5h1.4l0.1-1.2h-2q-1.2 0-2.1 0.6-0.9 0.6-0.9 1.8 0 1 0.7 1.8l1.4 1.6q0.4 0.5 0.4 1.1 0 1-1.1 1h-1.9l-0.2 1.2h2.9q1.3 0 2.2-0.6 1-0.7 1-2zm8-6.5h1.1l-0.1 1.2h-1l-0.6 5.7q0 0.9 0.8 1l-0.1 1.2h-0.9q-1 0-1.6-0.5-0.7-0.6-0.6-1.7l0.5-5.7h-0.9l0.1-1.2h0.9l0.2-2.1h2.4zm4.8-2.9q0 0.5-0.3 0.8-0.4 0.4-0.9 0.4-0.5 0-0.8-0.4-0.4-0.3-0.4-0.8 0-0.6 0.4-0.9 0.3-0.4 0.8-0.4 0.5 0 0.9 0.4 0.3 0.3 0.3 0.9zm-0.1 10.8l-0.1 1.2h-0.3q-1.3 0-2.1-0.6-0.7-0.6-0.6-1.7l0.5-5.6h-0.7l0.1-1.2h3.1l-0.6 6.8q-0.1 1 0.7 1.1zm13.1 0l-0.1 1.2h-1.1q-0.9 0-1.5-0.4-0.6-0.5-0.5-1.4l0.4-5q0.1-0.4-0.2-0.8-0.2-0.3-0.6-0.3h-1l-0.7 7.9h-2.4l0.6-6.8q0-0.4-0.2-0.8-0.3-0.3-0.7-0.3h-1l-0.7 7.9h-2.4l0.7-7.9h-0.6l0.1-1.2h8.4q1.5 0 2.3 0.6 0.9 0.6 0.8 2l-0.4 4.5q0 0.6 0.2 0.7 0.1 0.1 0.6 0.1zm7.1-5.4h-1.2q0-0.6-0.3-0.9-0.4-0.4-0.8-0.4-0.7-0.1-1.1 0.4-0.4 0.5-0.4 1.2 0 1.1 0.9 1.1h2.2l-0.1 1.2h-2.2q-0.5 0-0.8 0.5-0.3 0.4-0.3 1 0 0.6 0.3 1 0.3 0.3 0.9 0.3 0.4 0 0.8-0.4 0.5-0.4 0.5-1h1.2q-0.1 1.3-1 2-0.9 0.6-2.1 0.6-1.2 0-2.1-0.7-0.9-0.8-0.9-1.9 0.1-1.2 1.3-2-1-0.9-0.9-2 0.1-1.2 1.2-1.9 0.9-0.6 2.2-0.6 1.2 0 2 0.6 0.8 0.7 0.7 1.9zm7.6-2.5h1.1l-0.1 1.2h-1.1l-0.5 5.7q-0.1 0.9 0.8 1l-0.1 1.2h-0.9q-1 0-1.6-0.6-0.7-0.6-0.6-1.6l0.5-5.7h-0.9l0.1-1.2h0.9l0.2-2.2h2.4zm8.1 2.6l-0.4 4q-0.1 1.1-1 1.8-1 0.8-2.4 0.8h-0.3q-1.3 0-2.1-0.7-1-0.7-0.9-1.9l0.4-4q0.1-1.2 1.2-1.9 0.9-0.7 2.2-0.7h0.4q1.2 0 2 0.7 1 0.7 0.9 1.9zm-2.8 4l0.4-4q0-0.7-0.2-1-0.3-0.3-0.6-0.3-0.4 0-0.7 0.3-0.4 0.4-0.4 1l-0.4 4q0 0.6 0.2 1 0.3 0.3 0.7 0.4 0.4 0 0.7-0.4 0.3-0.3 0.3-1zm14.6 1.4l-0.1 1.2h-0.9q-0.9 0-1.5-0.4-0.6-0.5-0.5-1.4l0.4-4.7q0.1-1.4-0.9-1.4h-0.9l-0.7 7.9h-2.4l1-12.1h-0.7l0.1-1.2h3.1l-0.3 4.1h0.9q1.5 0 2.3 0.7 1 0.7 0.9 2.1l-0.4 4.6q0 0.4 0.1 0.5 0.1 0.1 0.5 0.1zm7.1-5.4h-1.2q0-0.6-0.3-0.9-0.3-0.4-0.8-0.5-0.7 0-1.1 0.5-0.4 0.5-0.4 1.2 0 1.1 0.9 1.1h2.2l-0.1 1.2h-2.2q-0.5 0-0.8 0.5-0.3 0.4-0.3 1 0 0.6 0.3 0.9 0.3 0.4 0.9 0.4 0.5-0.1 0.9-0.4 0.4-0.4 0.4-1h1.2q-0.1 1.2-1 1.9-0.9 0.7-2.1 0.7-1.2 0-2.1-0.7-0.9-0.8-0.9-1.9 0.1-1.2 1.3-2-1-0.9-0.9-2 0.1-1.2 1.2-1.9 0.9-0.7 2.2-0.7 1.2 0 2 0.7 0.8 0.6 0.7 1.9zm8.2 5.4l-0.1 1.2h-0.8q-1.3 0-1.9-0.8-0.8 0.8-1.8 0.8h-0.4q-1.2 0-2.1-0.7-0.9-0.7-0.8-1.9l0.3-4q0.1-1.2 1.2-1.9 1-0.7 2.2-0.7h4.1l-0.6 7.2q0 0.7 0.7 0.8zm-3-1.4l0.4-5.4h-1.7q-0.8 0-0.8 0.9l-0.4 4.7q-0.2 1.2 1 1.2 0.5 0 1-0.4 0.4-0.4 0.5-1zm9.2-6.6h0.8l-0.2 2.5h-1.3l0.1-1.2q-0.8 0.3-1.4 1.2-0.6 0.8-0.7 1.7l-0.4 5h-2.4l0.7-8h-0.7l0.1-1.2h3.1l-0.1 0.8q1-0.8 2.4-0.8z"/>
</svg>