<svg version="1.2" xmlns="http://www.w3.org/2000/svg" viewBox="0 0 125 30" width="125" height="30">
	<title>Snigdha OS Status</title>
	<style>
		.s0 { fill: #000000 } 
		.s1 { fill: #f86570 } 
	</style>
	<filter id="f0">
		<feFlood flood-color="#f86570" flood-opacity="1" />
		<feBlend mode="normal" in2="SourceGraphic"/>
		<feComposite in2="SourceAlpha" operator="in" />
	</filter>
	<g id="Folder 1" filter="url(#f0)">
		<path id="Layer" class="s0" d="m19.1 1.1q-1.8-0.5-3.6-0.6-1.8 0-3.6 0.4-1.8 0.4-3.4 1.3-1.6 0.9-2.9 2.1 0.3 0.2 0.7 0.3 0.3 0.2 0.6 0.4 0.3 0.2 0.5 0.5 0.3 0.2 0.5 0.5 0.1 0.2 0.3 0.4 0.1 0.3 0.2 0.5 0.1 0.2 0.2 0.5 0.1 0.2 0.1 0.5 0.7-0.4 1.5-0.7 0.8-0.3 1.6-0.5 0.8-0.2 1.6-0.3 0.8-0.1 1.7-0.1 0.9-0.1 1.8 0.1 1 0.1 1.8 0.5 0.9 0.3 1.7 0.8 0.8 0.5 1.5 1.1c3.8 3.5 2.5 6.2 1.9 10.7q-0.1 0.8-0.1 1.5 0.1 0.8 0.4 1.5 0.3 0.8 0.8 1.4 0.4 0.6 1.1 1.1c-0.6-2.8 1.4-7 1.7-7.5 0.5-1.6 0.7-3.3 0.5-5-0.1-1.8-0.6-3.4-1.4-5-0.8-1.5-1.9-2.8-3.2-3.9-1.3-1.1-2.9-2-4.5-2.5z"/>
		<path id="Layer" class="s0" d="m21.1 9.6c-1.8-1.8-4.5-2.4-7-2.2l-0.7 0.5q1.3 0.1 2.6 0.5 1.3 0.4 2.5 1.1 1.1 0.8 2.1 1.8 0.9 1 1.5 2.3 0 0.1 0.1 0.3 0.1 0.2 0.2 0.3 0 0.2 0.1 0.4 0 0.1 0.1 0.3l0.8-1.5c-0.2-1.6-0.9-2.4-2.3-3.8z"/>
		<path id="Layer" class="s0" d="m21.4 14.8c-3.6-9.2-17.2-6.9-17.4 3.2 0 0.7 0 2.1 0 2.8q0 0.2 0.1 0.3 0.1 0.1 0.3 0.2 0.1 0.1 0.3 0 0.1 0 0.3-0.1l2.6-3q0 0 0 0 0 0 0.1-0.1 0 0 0 0 0 0 0.1 0h0.5l-1.1 1.8q-0.1 0.1-0.2 0.3 0 0.1 0 0.2 0 0.1 0 0.3 0 0.1 0 0.2c0.1 0.8 0.3 2.7-1.3 4q-0.1 0.1-0.2 0.2-0.1 0.2-0.2 0.3-0.1 0.1-0.1 0.3 0 0.1 0 0.3v2.6q0 0.3 0.1 0.6 0.1 0.2 0.3 0.4 0.2 0.2 0.4 0.3 0.3 0.1 0.5 0.1c6.2-1.2 9.6-4.8 10.3-6q0-0.1 0.1-0.1 0 0 0 0 0.1 0 0.1 0 0 0 0.1 0h3.3q0.3-0.1 0.6-0.2 0.3-0.1 0.5-0.3 0.2-0.3 0.4-0.6 0.1-0.2 0.1-0.6c-0.1-2 0.3-5.5-0.6-7.4z"/>
	</g>
	<path id="STATUS" class="s1" aria-label="STATUS"  d="m45.9 11.3q-0.8-0.1-2.7-0.3-1.2 0-1.8 0-0.9 0-1.7 0v-3.7h0.6q2 0 4.1 0.3 0.7 0.1 1.5 0.2zm-3.9 12.9v-5q0-0.5-0.1-0.7-0.1-0.3-0.2-0.4-0.2-0.1-0.6-0.1l-3-0.4q-2.6-0.3-3.5-1.7-0.4-0.6-0.5-1.4-0.2-0.9-0.2-2.1 0-2.7 1.4-3.9 1.1-0.9 3.4-1.1v4.8q0 0.3 0.1 0.5 0 0.3 0.1 0.4 0 0.1 0.2 0.2 0.2 0 0.5 0.1l3.3 0.4q1 0.1 1.7 0.3 0.6 0.2 1.1 0.7 1.1 1.1 1.1 4 0 3.1-1.4 4.3-0.6 0.5-1.4 0.8-0.9 0.2-2 0.3zm-1.3 0q-2.4 0-4.5-0.2-1.2-0.1-1.8-0.2v-3.5q1.4 0.1 3.2 0.2 1.2 0.1 1.7 0.1 1.3 0 1.7-0.1v3.7zm7.2-12.8v-3.9h13.5v3.9zm4.3 12.6v-11.7h4.8v11.7zm8.4 0l5.2-16.5h0.4l1.9 6.6-2.7 9.9zm11.5 0l-0.9-2.9h-4l1-3.7h2l-2.9-9.9h4.4l5.3 16.5zm4-12.6v-3.9h13.6v3.9zm4.3 12.6v-11.7h4.8v11.7zm17.7 0.2q-2.6 0-3.9-0.4-1.4-0.4-2-1.3-0.6-0.8-0.8-2.1-0.1-1.3-0.1-3.9v-9h4.8v10q0 0.9 0 1.7 0.1 0.6 0.2 0.9 0.2 0.3 0.6 0.4 0.4 0.1 1.2 0.1h0.5q0.2 0 0.5-0.1v3.7q-0.2 0-0.5 0zm2 0v-16.7h4.8v9q0 2.4-0.1 3.6-0.1 1.2-0.6 2-0.4 0.9-1.4 1.4-1 0.5-2.7 0.7zm19.2-12.9q-0.8-0.1-2.8-0.2-1.1-0.1-1.8-0.1-0.8 0-1.6 0.1v-3.8h0.6q2 0 4.1 0.3 0.6 0.1 1.5 0.3zm-4 12.9v-5.1q0-0.5 0-0.7-0.1-0.2-0.3-0.3-0.2-0.1-0.6-0.2l-2.9-0.3q-2.6-0.3-3.5-1.7-0.4-0.6-0.6-1.5-0.1-0.9-0.1-2.1 0-2.7 1.3-3.8 1.1-1 3.5-1.2v4.9q0 0.3 0 0.5 0 0.2 0.1 0.3 0.1 0.2 0.2 0.2 0.2 0.1 0.6 0.1l3.3 0.4q1 0.2 1.6 0.4 0.7 0.2 1.1 0.6 1.1 1.2 1.1 4.1 0 3-1.3 4.2-0.6 0.6-1.5 0.8-0.8 0.3-2 0.4zm-1.2 0q-2.4 0-4.5-0.2-1.2-0.2-1.9-0.3v-3.5q1.5 0.1 3.3 0.3 1.1 0 1.6 0 1.3 0 1.7-0.1v3.8z"/>
</svg>