<svg version="1.2" xmlns="http://www.w3.org/2000/svg" viewBox="0 0 20 20" width="20" height="20">
	<title>snigdhaos-menu</title>
	<style>
		.s0 { fill: #000000 } 
	</style>
	<filter id="f0">
		<feFlood flood-color="#c1e7e3" flood-opacity="1" />
		<feBlend mode="normal" in2="SourceGraphic"/>
		<feComposite in2="SourceAlpha" operator="in" />
	</filter>
	<g id="Folder 1" filter="url(#f0)">
		<path id="Layer" class="s0" d="m11.6 1.4q-1.1-0.4-2.3-0.4-1.1 0-2.3 0.2-1.1 0.3-2.1 0.9-1.1 0.5-1.9 1.3 0.2 0.1 0.4 0.2 0.2 0.1 0.4 0.3 0.2 0.1 0.4 0.3 0.1 0.1 0.3 0.3 0.1 0.1 0.2 0.3 0 0.1 0.1 0.3 0.1 0.1 0.1 0.3 0.1 0.1 0.1 0.3 0.5-0.3 1-0.4 0.5-0.2 1-0.4 0.5-0.1 1-0.2 0.5 0 1 0 0.6-0.1 1.2 0 0.6 0.1 1.2 0.4 0.6 0.2 1.1 0.5 0.5 0.3 0.9 0.7c2.4 2.2 1.6 3.9 1.2 6.8q-0.1 0.5 0 1 0 0.5 0.2 0.9 0.2 0.5 0.5 0.9 0.3 0.4 0.7 0.7c-0.4-1.8 0.9-4.4 1.1-4.7 0.3-1.1 0.4-2.2 0.4-3.3-0.1-1.1-0.5-2.1-1-3.1-0.5-1-1.2-1.9-2-2.6-0.9-0.7-1.8-1.2-2.9-1.5z"/>
		<path id="Layer" class="s0" d="m12.9 6.8c-1.2-1.2-2.8-1.6-4.4-1.4l-0.5 0.3q0.8 0.1 1.7 0.3 0.8 0.3 1.5 0.8 0.8 0.4 1.4 1.1 0.5 0.6 0.9 1.4 0.1 0.1 0.1 0.2 0.1 0.1 0.1 0.2 0 0.2 0.1 0.3 0 0.1 0.1 0.2l0.5-1c-0.2-1-0.6-1.5-1.5-2.4z"/>
		<path id="Layer" class="s0" d="m13.1 10.1c-2.3-5.8-11-4.4-11.1 2 0 0.5 0 1.4 0 1.8q0 0.1 0.1 0.2 0 0.1 0.1 0.2 0.1 0 0.2 0 0.1-0.1 0.2-0.1l1.7-1.9q0 0 0 0 0-0.1 0-0.1 0.1 0 0.1 0 0 0 0 0h0.3l-0.7 1.2q0 0.1-0.1 0.1 0 0.1 0 0.2 0 0.1 0 0.1 0 0.1 0 0.2c0.1 0.5 0.2 1.7-0.8 2.6q-0.1 0-0.2 0.1 0 0.1-0.1 0.2 0 0 0 0.1-0.1 0.1-0.1 0.2v1.7q0 0.2 0.1 0.4 0.1 0.1 0.2 0.2 0.1 0.2 0.3 0.2 0.1 0.1 0.3 0.1c3.9-0.8 6.1-3.1 6.6-3.8q0-0.1 0-0.1 0 0 0 0 0.1 0 0.1 0 0 0 0 0h2.1q0.2 0 0.4-0.1 0.2-0.1 0.4-0.2 0.1-0.2 0.2-0.4 0.1-0.1 0.1-0.4c-0.1-1.3 0.2-3.5-0.4-4.7z"/>
	</g>
</svg>