<svg version="1.2" xmlns="http://www.w3.org/2000/svg" viewBox="0 0 512 512" width="512" height="512">
	<title>snigdhaos</title>
	<style>
		.s0 { fill: #000000 } 
		.s1 { fill: #c1e7e3 } 
	</style>
	<filter id="f0">
		<feFlood flood-color="#c1e7e3" flood-opacity="1" />
		<feBlend mode="normal" in2="SourceGraphic"/>
		<feComposite in2="SourceAlpha" operator="in" />
	</filter>
	<g id="graphics" filter="url(#f0)">
		<path id="Layer" class="s0" d="m288.1 53.7c-12.7-3.9-25.8-6.1-39-6.6-13.2-0.5-26.4 0.8-39.3 3.9-12.8 3.1-25.2 7.9-36.8 14.2-11.6 6.4-22.3 14.3-31.7 23.6q3.7 1.1 7.2 2.9 3.6 1.8 6.8 4.1 3.2 2.3 6 5.1 2.7 2.8 5 6 1.7 2.3 3 4.7 1.4 2.4 2.5 5 1.1 2.5 2 5.2 0.9 2.6 1.5 5.4 7.9-4.3 16.2-7.6 8.4-3.3 17.1-5.5 8.7-2.3 17.7-3.4 8.9-1.2 17.9-1.2c6.8-0.2 13.6 0.3 20.3 1.4 6.8 1.1 13.4 2.9 19.7 5.3 6.4 2.4 12.5 5.4 18.3 9.1 5.8 3.6 11.2 7.7 16.2 12.4 40.8 37.5 27.1 66.9 20.7 115.6-1 5.6-1.2 11.2-0.7 16.8 0.6 5.6 1.9 11.1 3.9 16.4 2.1 5.2 4.9 10.2 8.3 14.6 3.4 4.5 7.5 8.5 12 11.8-6.4-30 15.9-75.6 18.4-80.7 5.7-17.9 7.9-36.7 6.3-55.3-1.6-18.7-6.9-36.8-15.6-53.4-8.7-16.7-20.6-31.4-35-43.3-14.4-12-31-21-48.9-26.5z"/>
		<path id="Layer" class="s0" d="m310.4 146.2c-20.3-20-48.8-26.7-76.3-24.5l-8.2 5.8c9.9 0.4 19.7 2.1 29.1 5.1 9.4 3 18.4 7.3 26.6 12.7 8.3 5.4 15.9 11.9 22.4 19.3 6.6 7.4 12.1 15.6 16.5 24.5q0.8 1.7 1.6 3.5 0.8 1.8 1.5 3.6 0.8 1.8 1.4 3.6 0.7 1.9 1.3 3.7l8.5-16c-2.2-17.6-10-26.6-24.4-41.3z"/>
		<path id="Layer" class="s0" d="m313.4 202.6c-39.6-100.1-187-74.9-189.4 34.5 0.1 7.6-0.1 23.1 0 30.6 0 1.2 0.4 2.3 1.1 3.3 0.7 1 1.7 1.7 2.8 2.1 1.1 0.4 2.3 0.5 3.5 0.3 1.2-0.3 2.2-0.9 3-1.8l28.5-32.1q0.2-0.2 0.4-0.4 0.3-0.2 0.5-0.3 0.3-0.2 0.6-0.2 0.3-0.1 0.6-0.1l5.8-0.4-12.4 20.2q-0.7 1.1-1.2 2.4-0.5 1.3-0.8 2.6-0.2 1.4-0.2 2.7 0 1.4 0.2 2.7c1.6 8.5 3.3 29.7-14.2 43.8q-1.3 1-2.3 2.3-1.1 1.3-1.8 2.7-0.7 1.5-1.1 3.1-0.4 1.6-0.4 3.3v28.9c0 2 0.4 3.9 1.1 5.7 0.8 1.8 1.9 3.5 3.3 4.8 1.3 1.4 3 2.5 4.8 3.2 1.8 0.8 3.7 1.2 5.7 1.2 66.7-13.5 103.8-52.6 112-65.6q0.2-0.3 0.5-0.5 0.3-0.3 0.6-0.4 0.3-0.2 0.7-0.3 0.3-0.1 0.7-0.1h36c2.3 0 4.6-0.5 6.7-1.4 2.2-0.8 4.1-2.1 5.7-3.8 1.7-1.6 3-3.6 3.9-5.7 0.9-2.1 1.4-4.4 1.4-6.7-0.9-22.2 3.1-60.1-6.3-80.6z"/>
	</g>
	<g id="texts">
		<path id="SNIGDHA OS" class="s1" aria-label="SNIGDHA OS"  d="m97.4 392.9l0.5-0.1 1.5 0.1h2.1v0.1l0.3-0.1 0.2 0.1 1.9-0.1h3.5 5.8 0.2 0.3l5.3 0.1h2l2.3 0.1v9.4l-0.1 0.3 0.1 0.4-0.1 0.1h-3.7-0.3-0.2-0.2-0.2-0.1-0.8-0.4-0.1-0.8-8.6v0.1l-0.3-0.1h-3.5l-0.3-0.1-0.4 0.1-0.3-0.3q0 0.1-0.5 0.3l-0.1 0.4v0.9 0.3 0.3q-0.8 0.1-0.8 0.3v0.1q0.8 0.1 0.8 0.2v1.8 0.3 0.2l-0.1 0.6 0.2 0.5h0.1v-0.1l-0.1-0.3h0.1l0.3 0.1q0.3-0.1 0.6-0.1h6.6l3.9 0.2q0-0.1-0.1-0.1v-0.1h0.5l0.6-0.1 0.2 0.1h0.1 2.7 0.4 0.2q1 0 2.6 0.8 0.1 0.4 0.7 0.8 1.4 1.2 1.4 3.6h-0.1 0.1v0.3h-0.1l0.1 0.1v0.4l-0.1 0.3 0.1 0.3v0.1l-0.1 0.1h0.1l-0.1 0.7 0.1 3.9v3.7l-0.1 0.6 0.1 0.2-0.2 1.4 0.1 0.6v0.4l-0.1 0.2 0.1 0.2-0.1 0.6 0.1 1.2v0.8q0 2.6-2.2 4.2-0.9 0.7-3.2 0.7h-7.9l-1-0.1v0.1l-0.5-0.1h-4.4-0.8-0.3l-0.5-0.1-0.3 0.1h-1.2l-0.3 0.1q-0.7-0.1-2.6-0.1h-5.7-0.1l-0.1-0.3 0.1-8.7-0.1-1.3 0.4-0.1h1l1.7 0.1 0.8-0.1v0.1l0.2-0.1 1.3 0.1 0.3-0.1 0.3 0.1 0.1-0.1 0.8 0.3q0.6-0.1 1.5-0.1h0.3l-0.5 0.1v0.1l5.3-0.2h2.7 0.6 0.1 1.6 1.6q0.1 0 0.1 0.3h0.2q0-0.3 0.1-0.3h0.4 0.1v-0.1h0.1l-0.1-0.1 0.1-0.7v-2.2-0.8l-0.1-0.9 0.1-0.3-0.1-0.3 0.1-0.3-0.3-0.1h-0.4q0-0.2-0.2-0.2-0.1 0-0.2 0.2h-0.1q-1.6-0.2-2.7-0.2l-0.4 0.1-0.3-0.1h-1l-0.7 0.1h-0.1l-1.6 0.1h-0.1-0.3-1.9l-1 0.1v-0.1h-0.1l-0.4 0.1-0.3-0.1-0.6 0.1h-2.6q-2.7 0-2.7-0.6 0-0.2-0.8-0.3-0.9 0-1.9-2.2l-0.1-0.2h0.1q0.1 0.1 1.2 1.7h0.1l-1.5-2.2q-0.1-0.4-0.1-1 0-0.3 0.1-0.3l-0.1-0.1v-3.4l0.1-0.6h-0.2v-0.3h0.1 0.1v-4.4-1.3q0-0.5-0.3-0.5l0.1-0.7v-3.6l-0.1-0.4 0.1-0.3h-0.1l0.2-0.3-0.2-0.2 0.1-0.1v-0.3q0-0.7 0.5-2.1 1.7-2.4 4.2-2.4h0.2l0.1 0.1h0.3zm61.5 31h-0.1v0.3h0.1zm0.2 3.3h-0.2v0.2l0.1 0.4h0.1zm-0.1-0.7h-0.1v0.2 0.2h0.1zm-0.1-0.7v0.4zm0.3 9.4q0.1 0.9 0.1 2.9v0.8 1.1 0.8 0.1 0.5 0.3 0.1l-0.2 0.9v3.1h-0.1q-2.1-2-2.2-2.5-6.1-6.1-6.1-6.7l-1.5-1.3q0-1.3-0.1-4l0.1-0.2-0.1-0.1 0.1-0.5-0.1-0.4 0.1-0.2-0.1-0.6v-0.4l0.1-0.2-0.1-0.5v-1q0-2.1 0.5-5.3l-0.1-0.3v-0.1q0-1.1 0.2-2.1l-0.1-0.2h-0.1q-0.1 0-0.2 1h-0.2v-5.3q0-6.6 0.2-10.1 0.6-0.2 1.2-0.2v-0.1h-0.4l-0.8 0.1v-0.6q0-0.5 0.2-0.5l-0.1-0.3q-0.2 0.2-0.4 0.2h-0.8v-0.1l-0.1-0.9h0.1l-0.1-0.2q-0.2 0-0.2 0.8v0.3l-0.1 0.1h-2.3l-1.1 0.1-1-0.1h-2.1l-0.2-0.1q-0.3 0.2-0.9 0.2l-0.1-0.1-0.1 0.1h-0.1l-0.5-0.2-0.4 0.1h-0.1l-0.4-0.1q-0.2 0.4-0.2 1.8v1.6 0.1 0.1 0.2 0.1 1 2q0 3.1-0.2 5l0.1 1.3-0.1 4.9 0.2 7.1v6.6h-0.5l-1.4-0.1-0.2 0.1-2.1-0.1h-4.3-1.2-0.1l-0.8-0.1v-0.1l0.2-0.1-0.1-0.3 0.2-13.9v-0.2-0.3-0.1-0.3-0.4-0.4-0.1-1.6-8.5h0.1l-0.1-0.1v-0.1l0.1-0.6-0.1-0.1 0.1-0.3h-0.1 0.1v-1.3l-0.1-0.1h0.1v-0.1h-0.1l0.1-0.3v-0.1l-0.1-0.2 0.1-0.5v-0.5-0.7-0.3-0.1-0.1-1.1l0.1-4-0.1-0.6 0.1-2v-2.5q-0.1-0.9-0.1-2.7v-0.8l-0.1-1.1 0.1-0.9-0.1-0.5 0.1-0.3-0.1-0.1v-0.1l0.3-0.8v-3.1h0.1q2 2 2.2 2.5 6.1 6.1 6.1 6.7l1.3 1.2h1l0.2 0.1 0.1-0.1 1 0.1h6 1.2 0.4 1.6 1.2 0.1 0.5 2.7l0.1 0.1v0.1l0.3-0.2 1.1 0.3h0.3 0.3q2 0.1 3 1.7l0.6 3.5-0.1 2.1v0.7l0.1 2.2-0.1 2.3v2.9 1 0.2l-0.1 6.4h-0.1l0.1 0.2-0.2 7.5h0.1v0.1l-0.1 0.5q0 4.3-0.1 4.3h-0.1v0.8l-0.1 0.2q0.2 0.3 0.2 1.2v0.6 0.9 0.1 0.7 1.6zm6.2-42.3l0.4-0.1 1.1 0.1h0.1 0.4l2.5 0.1 0.1-0.1h0.1l0.3 0.1h0.6 0.2l0.3-0.1 0.3 0.1h0.1 1.6 0.1 0.1 1.1q0 2.5-0.3 5.2v0.2l-0.1 0.4h0.1v-0.1h0.1 0.1l-0.1 1.4v0.6h-0.1l0.1 0.1v0.5q0 0.5-0.2 0.5l0.1 4.3v0.6l0.2 0.5-0.2 6.2v0.1 0.1 0.6 0.3 0.3 0.4 1.1l-0.1 0.4q0.1 0.3 0.1 0.8v1.3l0.1 2-0.1 2.1v2.4q0 1.2-0.1 1.2l0.1 0.4v3.1l0.1 1.1-0.1 0.1 0.1 0.6v4l-0.1 0.6q0.2 0.5 0.2 1.3l-0.1 0.9h0.1v0.1q-0.1 0.2-0.2 0.2 0.1 0 0.2 1.6h-0.1 0.1v1.1l-0.1 0.3 0.1 0.3v0.4l-0.1 0.6 0.1 0.6-0.1 0.1 0.1 0.3v0.2l-0.1 0.4 0.1 0.3-0.2 0.7q-0.3 0-3.4-3.4-4.2-4.2-4.2-4.5l-1-1.3v0.1l0.4 0.5v0.1h-0.1q-1.8-1.7-1.8-2.1l-0.2-0.3v-0.4h0.1l0.3 0.2q-0.4-0.4-0.4-0.7v-0.8-1-0.1-0.3-1.9-0.5-1.7-1.7-1.1-1.3-0.1-0.4-0.7-0.2-1-1.1l-0.1-1.4 0.1-0.5-0.1-0.2h0.1l-0.1-0.2 0.4-2.1-0.3-5.9h0.1-0.1v-0.8l0.1-0.2-0.1-0.3v-6.4l0.1-1.4-0.1-0.3 0.3-2.2v-0.2h-0.1l0.1-0.5v-1.5l0.1-0.5h0.1q0 0.2 0.1 0.2-0.2-0.7-0.3-0.7l0.1-0.3v-1.4l-0.1-0.4h0.2q0.1 0 0.1 0.1h0.1v-0.1zm9.1 7.7h-0.1v0.3h0.1zm-9.3 34.7h-0.1v0.1l0.1 0.1zm18.4-42.4h0.3l0.1 0.1h0.1 1.5 1.2 0.1v0.1l-1 0.2h0.1q1.2-0.1 1.8-0.3h1.4l0.1 0.1v-0.1h2.7 2.3 0.7 0.7 1 0.7 0.2 0.6 0.8 0.5 0.3 0.6 0.1 0.2 0.1l4 0.1q0.1 0 0.4 0.2 0.1-0.2 0.2-0.2h0.3q1.2 0 2.1 0.9v-0.1q0.5 0 1.5 1.4 0.2 0 0.7 2.4h-0.1l0.2 1.7v0.3 0.2 1 1.4 0.6 0.1 0.1 0.8 2.1l-0.1 0.3 0.1 0.2v0.7l-0.1 0.2 0.1 0.2q-0.1 1-0.2 1h-0.6-1.1-1q-3.7 0-5.1-0.2h-0.1-0.7v0.1h-0.3v-0.1l-0.2-0.2-0.3 0.1q-0.4 0-0.4-0.4v-3.3q0-0.4 0.2-0.4 0-0.2-0.2-0.2v-0.3l0.5-0.1v-0.1h-0.1l-0.3 0.1h-0.1l0.1-0.2-0.1-0.3h-0.1l-0.2 0.2h-0.1v-0.1l-0.4 0.1h-2l-0.1-0.1v0.1h-0.5l-2-0.1v-0.2h-0.1q0 0.2-0.1 0.2h-3.7l-0.2-0.1v-0.4l0.1-0.2-0.1-0.3q-0.1 0-0.1 0.8v0.2h-0.6l-0.5-0.1q-0.1 0.3-0.3 0.3l0.1 0.3v0.5 0.5 0.1 0.1 0.2 0.1 0.5 1.2q-0.3 2.9-0.3 6.9l-0.1 0.4 0.2-0.1v0.6h-0.1v0.9 0.3 2.4l0.1-0.1h0.1v0.5h-0.2q0.2 1.8 0.2 3.1v1.7l-0.1 0.2 0.1 0.2v0.1l-0.1 0.6 0.1 0.1h0.3l0.2 0.1v-0.1h1.4q0 0.3 0.1 0.3l0.1-0.3 8.1 0.1 0.1 0.1 0.6-0.1v-0.1h-0.2v-0.1q0.2-0.3 0.5-0.3h0.3v-0.1q-0.3-0.1-0.3-0.1h-0.1-0.2q-0.3-0.1-0.3-0.4v-0.4l0.4-1.9h-0.4v-1.2q0.4 0 0.4-0.1v-0.1l-0.4-0.1v-0.2q0-0.2 0.2-0.2l-0.1-0.1h0.1v-0.1l-0.2-0.2q-0.2 0-0.5 0.2h-0.1v-0.1l-0.1 0.1q-1.1 0-1.1-0.1v-0.1h-0.1v0.1h-0.5q-0.1 0-0.1-0.2h-0.1-0.1l0.2 0.2h-2.6l-0.1-0.1v-0.4-1.1l0.1-0.2-0.1-0.6v-0.2-0.7-0.9l0.1-0.1v-0.1l-0.1-0.2v-0.2q0-0.2 0.6-0.3l0.3 0.1h0.5l0.3-0.1 2.6 0.3v-0.1h-0.2v-0.1h10.9q0.6 0 0.6 0.5l-0.1 1.9v1.8 1.8 0.6 8.3l-0.1 1.6q-0.1 0-0.2 0.4l0.2 0.1q-0.9 2.2-1.3 2.4h-0.1v-0.1l0.6-2.4h-0.1l-0.8 2.8q-1.4 1.1-2.7 1.1h-0.3q0-0.3-0.3-0.4-0.2 0-0.2 0.4h-2.5-0.2-0.1-0.1l-10-0.1-0.1-0.1-0.3 0.1h-0.2l-0.1-0.1v0.1l-3.8-0.1h-3l-0.1 0.2h-0.2v-0.1l-0.6 0.1q-0.6 0-2-0.7-0.9-0.6-1.3-1.2 0.2-0.1 0.4-0.4-0.3 0.3-0.5 0.3h-0.1q-0.6-1-0.6-1.2l0.1-0.4q-0.1-1.1-0.3-1.1-0.1 0-0.2-0.4h0.2v-0.1l-0.2-0.2v-8.7l0.1-1.1-0.1-0.1 0.1-0.2v-4.5-2.1l0.1-0.7h-0.1l0.1-0.3v-2.2q0-2.2 0.2-2.2h-0.1v-0.1l0.1-0.8h-0.2l0.1-0.7v-0.6l0.3-3.6h-0.2l-0.1 1.2v0.1h-0.2v-3.6h0.2q-0.1-0.8-0.2-0.8l0.1-0.2-0.1-0.6q0-1.8 2-3.6 1.6-1.3 2.6-1.3zm2 0.4h-1.1v0.1h0.4l0.9-0.1zm-2.5 0l-0.2 0.1h1.2l-0.7-0.1zm-1.6 1.5l-0.1-0.1v0.2h0.1zm17.5 19.5h-0.2v0.1l0.2 0.1 0.1-0.1 0.1 0.1h0.1v-0.1zm21.1-21.2l0.2-0.1 0.3 0.1 0.1-0.1 0.3 0.1h0.1l0.2-0.1 0.3 0.1h5.3l0.2-0.1 0.2 0.1v-0.1l0.1 0.1h1.4l0.2-0.1 0.3 0.1v-0.1l1.1 0.1 0.2-0.1h0.1 1.5l0.2-0.1 0.3 0.1 8.1-0.1v0.3q0.1 0 0.1-0.3h0.3q2.6 0 4.4 2.4 0.6 1.2 0.6 2.4h-0.1l0.1 1v0.3q0 1.9-0.1 3.7l0.1 0.6v6.3l-0.1 0.5 0.1 0.1v1.2l0.1 16v1.8q0 2.6-0.7 3.5-0.8 1.5-1.8 1.5-2.5 0.9-3.8 0.9l-3.5 0.1-0.6-0.1-0.3 0.1v-0.2l1.4-0.1v-0.1h-0.1l-4.3 0.4h-6.7-0.7-0.2-0.1-0.4-1.7l-2.4-0.1-0.8 0.1h-0.4-0.2-0.4-1.4-2.2-0.1l-0.1-0.7q0.1 0 0.2-0.4v-0.1-0.8-0.3-0.1-0.7l-0.2-2.9 0.2-6.3h0.1v-0.2l-0.1-0.1 0.2-0.4-0.1-0.3 0.1-0.2v-2.9-0.2-0.3-0.5-0.3l0.1-0.8v-0.3h-0.1q-0.2 1.4-0.4 2.1v-1-0.1l-0.1-0.6q0-2.2 0.3-3.6-0.2-0.3-0.2-1.4v-0.1l0.2-0.1-0.2-0.2 0.1-0.1-0.1-1.7 0.2-1.9h-0.2q0 0.2-0.1 0.2v-0.1l-0.1-1.6q0-3.8 0.2-8v-1l-0.3-1.4q0-1.9 0.2-2.4l1.6-0.1 0.8-0.1zm14.7 9.3h-0.1l-0.2 0.9-9 0.2-0.2-0.1q-0.3 0-0.3 0.1v0.6h-0.2v0.2h0.2v0.2 1l0.1 7.8-0.1 0.1h0.1v2 0.9l0.1 0.2-0.1 0.2 0.1 0.1-0.1 0.2v3.1l0.1 0.8-0.1 0.6 0.1 0.2-0.1 0.2v0.3l0.1 0.2-0.1 0.2h0.1l-0.1 0.1v1.1l-0.1 0.4h0.1v0.1h-0.1v0.1l-0.4-0.1 0.1-0.1v-0.1h-0.4-0.4q0 0.2 1.2 0.4l-0.1 0.3 1.4 0.3 0.2-0.1h1.3l3.2-0.1 0.1 0.1 0.1-0.1 1.6 0.1h2v0.9h0.1v-0.7-0.2l0.3-0.1q0.1 0 0.1 0.3l0.2 0.1q0-0.4 0.5-0.4v-0.1-0.2h-0.2v-1-0.5-0.5-0.5-0.7-0.8l-0.1-0.8 0.3-0.4h-0.1-0.1v-0.1-0.9-3.1l-0.1-0.6h0.1v-0.1h-0.1l0.1-1.2-0.1-3.3 0.1-0.1h-0.1v-0.3l0.1-0.1-0.1-0.1v-0.7l-0.1-3.2v-0.4l0.1-0.1h-0.1v-0.3q0-0.1 0.3-0.1 0-0.2-0.2-0.2v-0.5q0.1 0 0.1-0.1h-0.1v-0.2-0.1-0.3h-0.5-0.4zm47.2-8.2l-0.1 0.1v0.4l0.1 0.4v-0.1-0.4zm-7.7 26.6l-0.1 0.1 0.2 0.1v-0.2zm7.7-23.8l-0.1-0.1v0.1l0.1 0.1zm-0.1-1.8l-0.1 0.3h0.1zm0.2 35v13.4l-0.1 1.1q-0.8-0.5-2.6-2.4-0.5-0.3-6-5.8-1.3-1.1-1.6-1.8-0.1-0.3-0.1-0.5v-0.7l-0.1-0.5 0.1-0.5v-0.6-0.2l0.1-1.7-0.1-1.4v-0.2l0.1-0.8-0.1-1.4v-2.1l0.3-3.2q-0.1 0-0.2 0.5h-0.1v-0.2q0-0.7 0.1-0.7 0.8-0.1 0.8-0.2h-0.8v-0.2h0.9v0.2h0.1q0.3 0 0.4-0.2l-1.3-0.1v-0.1l0.2-0.9v-0.1l-0.3 0.1h-0.1q0-0.3-0.2-0.4v0.5h-0.5l-0.2-0.1-0.4 0.1h-8.2l-0.1-0.3h-0.1q0 0.3-0.4 0.3-0.2 0-0.2-0.3h-0.1q0 0.1-0.1 0.1-0.1 0-0.1-0.1h-0.2v0.1l-0.2 0.7 0.1 1-0.4 0.1q0 0.1 0.4 0.2v0.9l0.1-0.1h0.1v0.2h-0.2q0.1 1.8 0.2 2.3h-0.1l0.1 0.3v0.7l-0.1 2.4 0.1 0.8-0.1 0.1 0.1 0.3-0.1 0.5 0.1 1v1.7l-0.1 0.3 0.1 0.2v0.2h-0.1l0.1 0.3v0.2l-0.1 1.2q-2.1 0.3-3.5 0.3h-2.5-0.1-0.3l-3.8-0.2h-0.1v-0.1l-0.1-1.7 0.1-0.3-0.1-0.3 0.1-2.1v-5.8q0-0.9 0.4-4.5-0.2 0-0.3 1.2h-0.2v-1.6-0.1-0.4-0.1-0.1-1.5-0.1-0.7-0.1-0.2-0.1-0.6-0.2-0.1-0.6-1-0.6-0.5l0.2-2.2-0.2-0.3 0.4-8.7-0.1-0.5v-1.6h-0.1l0.3-3.7h-0.2q0.1-1.8-0.1-2.3v-8.9l0.1-1h0.1q0.7 0.4 2.6 2.3 0.4 0.3 5.9 5.8 1.3 1.1 1.7 1.9h-0.1q0 4-0.2 11v3.2h-0.5v0.1q0 0.2 0.5 0.3v0.2q0 0.5 0.1 0.8l0.5-0.1q0.6 0.2 1.8 0.2h0.8 0.2v-0.1h-0.2l0.1-0.1h0.5v0.1h-0.2v0.1h0.3 0.1 0.1l4.8-0.1 0.5-0.1 0.1 0.4q0.1 0 0.1-0.2l0.1-0.1h1l0.5 0.1v-0.1-0.1q-0.3 0-0.3-0.2v-0.5l0.3-0.1-0.3-0.1 0.1-1.1v-4.7-0.9-0.3-0.2-1.6-0.1l0.1-0.2-0.1-0.2 0.1-0.2-0.1-0.1 0.1-0.9v-1l0.1-2.6-0.1-0.4q0-0.4 0.8-0.4h8.4v0.1l0.1-0.1h0.2q0.4 0 0.5 0.2l-0.1 0.3 0.1 0.3v-0.7h0.2l0.1 1.7-0.1 0.5 0.1 1.3v0.4 0.9 4.1q0 0.2-0.2 0.2v0.1 0.5 0.1 0.3 0.7l0.1 0.1v0.1h-0.1v3.7 1.8 1.5 0.2q0.1 0.2 0.2 1.5v0.2 0.9 0.3 0.4l-0.1 7.3v4.7l-0.1 0.7 0.1 0.5v1.1l-0.1 0.7 0.1 0.2h-0.1zm24.9-26.9l-2.3-0.1-5.5 0.1-0.4-0.1-0.2 0.1-0.2-0.1h-0.3-0.9v-0.2q-0.2 0.2-0.4 0.2v4.5l-0.2 0.2v0.1q0.2 0 0.2 0.1v0.5 0.1l0.3-0.1h0.9q0 0.3 0.1 0.3 0.1 0 0.1-0.3h1 2 0.5 0.1 0.3 0.1 0.1 0.1 0.4 0.4 0.2 0.2 0.3l1.3-0.1 0.5 0.1h0.5v-0.1h0.1l0.1 0.1h1.1v0.3h0.1l0.1-0.3h0.4v-0.1q-0.2 0-0.2-0.3l0.2-0.2-0.4-0.1v-0.2l-0.1-1v-1.5l0.4-0.5h-0.1l-0.2 0.2h-0.1v-1l0.3 0.1h0.2l0.2-0.1-0.5-0.1h-0.2v-0.2l0.2-0.3-0.3-0.2-0.1 0.1h-0.2v-0.3h-0.1q-0.1 0-0.1 0.4zm11.3 31l-0.1 0.7-0.2 3.4 0.1 0.1-0.1 0.4v1.5 0.5 0.1 0.1 0.9 0.9 0.2 0.2 1h-0.2q-2.8-2.5-7-6.5l0.1-0.1q-0.6-0.2-2.9-2.5v-0.2h0.2q-0.2-0.2-0.2-0.5v-2.8l0.1-0.2-0.1-0.3v-0.8l0.1-0.1h-0.1v-3.1l0.1-0.1h-0.1v-2.9l0.1-0.3-0.1-0.2v-0.2l0.1-0.8-0.1-0.1v-0.6l-0.1-1 0.2-0.4-0.2-0.3v-0.2h0.3q-0.2-0.2-0.2-0.4 0.2 0 0.2-0.2l-0.1-0.1h1l0.1-0.1v-0.1h-1.3v-0.1-0.1l-0.1-0.1h-0.1l-0.2 0.1h-0.1v-0.1l-0.4 0.1h-0.3l-2.7 0.1-0.1-0.1-0.6 0.1h-1.5l-0.5 0.1-0.2-0.1v0.1l-0.1-0.1h-0.5l-0.5-0.1-0.6 0.1h-1v-0.3q-0.2 0-0.2 0.3h-0.5l-0.6-0.1-0.1 0.3 0.1 0.3q-0.5 0-0.5 0.2l0.4 0.1-0.2 4.1 0.2 2.8h-0.1q0.3 0.9 0.3 3.2v4.6l-0.3 0.2h-0.3l-0.4-0.1-6.1 0.1h-0.1-0.1l-0.5 0.1-1.6-0.1h-0.9q-0.4-0.2-0.5-2.2l0.1-0.2-0.1-1.1v-0.1-0.4-3l-0.1-0.7h0.1-0.1v-5.3l0.2-2.9-0.2-0.4v-3.2-1.4-0.1-0.3-0.4-0.5l-0.1-2.7 0.1-0.1-0.1-0.4 0.1-1.1q-0.1-0.9-0.2-0.9l0.1-0.1v-0.8l-0.1-0.3h0.1l-0.1-0.1 0.1-0.3v-1.6l-0.1-0.3 0.1-0.4v-1.6l-0.1-0.3 0.1-0.2v-1l0.1-1-0.1-1.4v-3.5l0.1-0.4h-0.1v-0.1l0.1-0.2-0.1-0.5v-0.2l0.1-0.2 0.2-3.4-0.1-0.1 0.1-0.4v-1.5l0.1-0.6h-0.1v-0.1l0.1-0.9v-0.8l-0.1-0.2 0.1-0.3v-0.9h0.2q2.7 2.4 6.9 6.4h-0.1v0.1q0.6 0.2 2.9 2.5v0.1h2.7l0.9-0.1 0.8 0.1h0.7l2.1 0.1h0.1 1 1.9l-0.1 0.3 4.7-0.2 0.2 0.1 0.3-0.1 0.7 0.1 1.4-0.1q1.5 0 2.2 0.6 1.1 0.7 1.9 2.5 0.1 1 0.2 2.7l-0.1 0.1 0.1 0.3v4.6l-0.1 0.9 0.1 1v8.9q0 2.1 0.1 2.9v0.1 0.4 2.6l-0.1 0.5v7.2l0.1 0.7-0.1 0.5v2.5zm56.3-41.5l0.4-0.1 0.2 0.1v-0.1l0.1 0.1h1.4 0.9l0.8-0.1v0.1l0.6-0.1q0.3 0 0.3 0.2 0.3 0.2 2.1 0.6 0.7 0.3 0.7 0.8 0.5 1 0.7 1.2h0.2q0.4 0 0.4 1.6l0.1 0.1q0 0.4 0.2 0.4v0.2 0.1 0.1l0.1 0.7-0.1 2.1v4.6 0.5 0.5 1.7 0.6 0.6 0.7 0.4 1.7 0.5 1 1.8l0.1 14v0.8q-0.4 2.1-1.5 3.3-1.3 1.2-4 1.2l-1.9 0.1-5-0.2h-3.4l-1.8 0.1v-0.1l-0.6 0.1q-8.6 0.1-8.6 0.2v0.1h-0.2q-1.7 0-3.6-2-0.9-1.2-0.9-3.6l-0.1-1.9 0.1-0.5q-0.2-0.3-0.2-6.4v-17-2.2-0.1-0.3l-0.1-2.1v-0.8q0-3.6 3.1-4.8h0.1l0.2 0.1 0.8-0.1v-0.1h-0.4v-0.1q0.8-0.3 1.8-0.3h0.5v0.1 0.1l0.2-0.1 0.3 0.1q0.7-0.2 1.7-0.2h6 0.7 0.1 0.7 0.1 1.7 0.1zm-17.4 0.3h-0.2v0.1h0.2v-0.1zm-0.4 0l-0.4 0.1v0.1h0.2l0.3-0.1v-0.1zm13.8 9.8l-4.2 0.4-0.3-0.1-0.2 0.1-0.4-0.1v0.1h-0.1l-0.1-0.1-0.1 0.1-0.4-0.1h-0.3l-0.8 0.1v-0.1l-0.1 0.1-1-0.1v0.7l-0.1 0.3 0.1 0.2v1.6l0.1 2.7h-0.1l0.1 0.1v2.5h-0.1l0.1 0.1q-0.3 1.9-0.3 3.3v0.9l0.3 5.3h-0.1v0.1l0.1 0.4v0.9l-0.1 0.1 0.1 0.1v0.1l-0.1 0.4 0.1 0.6q0 0.5-0.1 0.5v0.1 0.3 0.4l1.2-0.2 0.2 0.1 0.1-0.1 0.2 0.1 0.2 0.9v-0.9l5-0.1 0.3-0.1 0.3 0.1 1.6-0.1 0.4 0.1 0.6-0.1h0.4l0.3 0.2h0.1v-0.2l-0.2-0.7 0.2-0.6-0.1-1.2v-0.1h0.1l0.1 0.7v-0.2q-0.2-3-0.2-4.3v-3.5h0.1l-0.1-0.1 0.1-0.3-0.1-1.5v-1.6l0.1-0.2-0.1-0.1 0.1-1.3v-3.1h0.1l0.2 1.3v-0.2q-0.1-2-0.4-2l0.1-1v-0.8l0.1-0.2v-0.1h-0.1v-0.2q0-0.1 0.5-0.1v-0.1q-0.5 0-0.7-0.1 0 0.2-0.8 0.2h-1.8q0-0.3-0.1-0.3zm3.3 5h-0.1v0.2h0.1zm0.1 0.5h-0.2v0.1l0.2 1.1v-0.6zm0.1 1.3v0.3zm0 0.4v0.2 0.2h0.1zm0.1 1h-0.1v0.2 0.1h0.1zm-0.5 11.7v0.3zm19.9-30l0.5-0.1 1.5 0.1h2.1v0.1l0.4-0.1 0.1 0.1 1.9-0.1h3.5 5.8 0.3 0.2l5.3 0.1h2l2.3 0.1v9.4l-0.1 0.3 0.1 0.3-0.1 0.2h-3.7-0.2-0.3-0.1-0.3-0.1-0.7-0.5-0.1-0.8-8.5l-0.1 0.1-0.3-0.1h-3.4l-0.4-0.1-0.4 0.1-0.3-0.3q0 0.1-0.5 0.3l-0.1 0.4 0.1 0.9h-0.1 0.1v0.3l-0.1 0.3q-0.8 0.1-0.8 0.3v0.1q0.9 0.1 0.9 0.2v1.8l-0.1 0.3 0.1 0.2-0.1 0.6 0.1 0.5h0.1v-0.1l-0.1-0.3 0.1-0.1 0.4 0.2q0.2-0.2 0.5-0.2h6.6l4 0.3q0-0.1-0.2-0.1v-0.2h0.5 0.7l0.1 0.1 0.1-0.1h2.8l0.4 0.1 0.1-0.1q1 0 2.6 0.9 0.1 0.4 0.8 0.8 1.3 1.2 1.3 3.6h-0.1 0.1v0.3h-0.1l0.1 0.1v0.3l-0.1 0.4 0.1 0.3v0.1l-0.1 0.1h0.1l-0.1 0.7 0.1 3.9v3.7l-0.1 0.6 0.1 0.2-0.1 1.4v0.5 0.5 0.2 0.2 0.6 1.2 0.8q0 2.5-2.2 4.2-0.9 0.7-3.1 0.7h-7.9l-1-0.1-0.1 0.1-0.4-0.1h-4.4-0.9-0.2l-0.5-0.1-0.4 0.1h-1.2l-0.3 0.1q-0.7-0.1-2.6-0.1h-5.7-0.1l-0.1-0.3 0.1-8.7-0.1-1.3 0.5-0.1h0.9l1.7 0.1 0.9-0.1v0.1l0.2-0.1 1.2 0.1 0.3-0.1 0.4 0.1v-0.1h0.1l0.8 0.3q0.5-0.1 1.5-0.1h0.2l-0.4 0.1v0.1l5.3-0.2h2.7 0.5 0.1 1.6 1.7q0.1 0 0.1 0.3h0.1q0-0.3 0.1-0.3h0.4 0.1 0.1v-0.1-0.1l0.1-0.8-0.1-2.1v-0.8-0.9-0.3-0.3-0.3l-0.3-0.1h-0.4q0-0.2-0.1-0.2-0.2 0-0.2 0.2h-0.1q-1.7-0.2-2.8-0.2l-0.3 0.1-0.4-0.1h-1l-0.6 0.1h-0.1-0.1l-1.6 0.1h-0.3-1.9l-1 0.1-0.1-0.1-0.5 0.1-0.2-0.1-0.6 0.1h-2.7q-2.6 0-2.6-0.6 0-0.3-0.8-0.3-1 0-2-2.2v-0.2q0.2 0 1.2 1.7h0.1 0.1l-1.5-2.2q-0.2-0.4-0.2-1 0-0.3 0.1-0.3l-0.1-0.1v-3.4l0.1-0.6h-0.2v-0.3h0.1 0.1l0.1-4.4v-1.3q0-0.5-0.3-0.5v-0.7-3.6-0.4-0.3l0.1-0.3-0.1-0.2v-0.1-0.4q0-0.6 0.6-2 1.7-2.4 4.1-2.4h0.2l0.2 0.1h0.2z"/>
		<path id="be silent when it is time to hea" class="s1" aria-label="be silent when it is time to hear!"  d="m91.9 448.6h0.2 0.5q0.5 0 0.8 0h0.1l0.6 0.1v-0.1h0.8 0.1 0.1 0.4 0.1 0.1 0.1 0.1 0.1 0.1 0.2 0.8 0.2 0.4 0.9 0.3 0.1 0.1 0.2q1.2 0 1.6 0.8 0.3 0.7 0.3 0.9v0.1 0.2 0.1 0.1 0.6 0.2q-0.1 0.1-0.1 0.2h0.1v0.6h-0.1v-0.1 0.8q-0.1 1-0.2 1-0.2 0.4-0.5 0.5-0.2 0.1-0.3 0.1h-0.1q0 0.1-0.2 0.1h-0.1l-0.1 0.1q0 0.1 0.1 0.1h0.3q0.2 0 0.4 0.1 0.2 0.1 0.4 0.4 0.3 0.4 0.3 0.7v0.1 0.3 1.4 0.4 0.4 0.5 0.3q0 0.6-0.6 1.1-0.3 0.2-0.6 0.3h-0.4-2.1-0.1-0.1-0.2-0.1l-2.9-0.1-0.1 0.1q-0.4 0-1.1-0.1h0.1v0.1h-0.1l-0.2-0.1-0.2 0.1-0.4-0.1v0.1l-0.1-0.1v0.1l-0.1-0.2 0.1-0.3v-3.2q0 0 0-0.1v-0.7-0.2-0.1-0.5-0.2-0.4q0-0.1 0.1-0.1l-0.1-0.1v-1.9-0.2-0.1-0.2-0.6-0.2-0.3-0.4-0.1-0.2-0.1-0.1-0.1-0.1-0.2-0.1-0.2-0.2l-0.1-0.3 0.1-0.4zm5.9 3l-0.2 0.1v-0.1l-0.1 0.1h-1-0.4-0.3-0.1-0.1-0.3-0.2v-0.1q-0.1 0.1-0.2 0.1v1.1q0 0.1 0 0.1v0.2h-0.1v0.1h0.1v0.1h0.1 0.1 0.1 0.1 1.1 0.8 0.4 0.1q0.1 0 0.2 0.1 0-0.1 0.1-0.1 0.1 0 0.1 0h-0.1l0.1-0.1v-0.4q0-0.1 0-0.2v-0.1-0.3-0.3q0-0.1 0-0.1v-0.1h0.1-0.4zm3.3 0.3v0.2zm-6 4.5l-0.1-0.1q0 0.1 0 0.1h-0.1v0.3q-0.1 0-0.1 0.1h0.1v0.3 0.1 0.1 0.4q0 0.2-0.1 0.2h-0.1q0.2 0 0.2 0.1 0 0.1 0 0.1l0.1-0.1 0.1 0.1v-0.1h0.6v0.1l0.1-0.1h0.7l0.1 0.1 0.1-0.1h0.3l0.1 0.1v-0.1l0.1 0.1 0.4-0.1h0.4v0.2l0.1-0.3v0.1h-0.1v-1.4h0.1q0 0.1 0.1 0.1l-0.1-0.2q-0.1 0-0.1-0.1-0.1 0.1-0.2 0.1v-0.1l-0.2 0.1-0.3-0.1q-0.3 0.1-0.8 0.1h-0.6l-0.5-0.1h-0.2zm7.4-7.3v-0.4h1.2 0.1 0.2 0.1 0.3 0.4 0.1 0.1 0.1 0.1 1.1 0.1 2 0.1 0.2 0.2 0.1 0.1 0.1 0.2 0.1 0.2 0.3 0.2 0.2 0.4 0.9v0.4q-0.1 0.3-0.1 1v1.6l-0.2 0.1h-0.5-0.7-0.1q-0.2 0-0.2-0.1v0.1h-0.1-0.1q-0.2 0-0.2-0.1l-0.1 0.1-0.1-0.1v0.1h-0.4v-0.1l-0.1 0.1h-0.2v-0.1 0.1h-0.3l-0.1-0.1-0.1 0.1h-0.1v-0.1l-0.1 0.1h-0.3v-0.1 0.1h-0.1v-0.1 0.1h-0.2v-0.1 0.1h-0.2v-0.1 0.1l-0.5-0.1h-0.3-0.7q0 0 0 0 0 0 0 0h-0.3l-0.1 0.1h0.2 0.1v0.1 0.1q0 0-0.1 0v0.1q0.1 0 0.1 0v0.1 0.7 0.4 0.1h0.1q0.2 0 0.2 0 0.2 0 0.7 0h3 0.6 0.1v0.6l-0.1 0.4v0.2 0.3q0 0.4 0 0.9v0.6 0.1l-0.6-0.1h-0.3-0.1-0.2-1.4-0.1-0.2-0.4-0.2-0.1-0.1-0.2-0.1-0.2-0.1-0.1q-0.1 0-0.1-0.2-0.1 0.3-0.1 0.5v0.1q-0.1 0-0.1 0h0.1v0.1 0.1 0.1 0.2q0 0.1-0.1 0.1l0.1 0.1v0.3h-0.1 0.1v0.2q0 0 0.1 0h1.5 0.3 0.1 0.1 0.1 0.1 0.1 0.1 0.1 0.4 1.7 0.1 0.1 0.4 0.3 0.2 0.2q0.1 0 0.1 0 0.1 0 0.1 0v0.3 0.2 0.1 0.2 0.1 0.4 0.5 0.1 0.1 0.1 0.4 0.3 0.3h-0.4l-0.1-0.1-0.1 0.1-0.2-0.1h-0.5-0.5-1.1-0.1-0.1q0 0-0.2 0h-0.4-0.1-0.1-1.1-0.2-0.1-0.1-0.1-0.3-0.2-0.2-0.2-0.2-0.2-0.6-0.1-0.2-0.1-0.1-0.1-0.5-0.1l0.1-0.1h-0.1q0 0.1-0.3 0.1h-0.3v-0.2-0.3-0.1-0.3-0.3-0.1-0.5-0.2q0-0.1 0.1-0.1-0.1-0.2-0.1-0.9v-4.8q0.1-0.4 0.1-1.2v-0.1-0.1-0.1q-0.1-0.1-0.1-0.3v-0.1h0.1v0.1-0.1q0-0.1-0.1-0.1v-0.1-0.1h0.1l-0.1-0.1 0.1-0.1-0.1-0.7 0.1-0.5v-0.1h-0.1v0.2zm0 0.3v0.1h0.1q0-0.6 0.1-0.6 0.1 0 0.2 0.5-0.1-0.6-0.2-0.6-0.1 0-0.2 0.6zm0.4 0.1v0.1zm0 0.1v0.1h0.1zm20.1-1h0.2 0.4 0.7v0.1h0.1l0.6-0.1h1l1.7 0.1 0.1-0.1v0.1h1.6 0.6 0.7v2.8l-0.1 0.1 0.1 0.1h-0.1-1.1-0.1-0.1-0.1-0.2-0.1-0.3-2.5-0.1-1-0.1-0.1l-0.1-0.1q0 0-0.2 0.1v0.1 0.3 0.1 0.1q-0.2 0-0.2 0v0.1q0.2 0 0.2 0v0.6 0.1 0.2 0.1h0.1l-0.1-0.1h0.1l0.1 0.1q0-0.1 0.1-0.1h2l1.1 0.1q0-0.1 0-0.1h0.1 0.2 0.1 0.8 0.1 0.1q0.3 0 0.7 0.3 0.1 0.1 0.3 0.2 0.4 0.3 0.4 1h-0.1l0.1 0.1-0.1 0.1h0.1v0.1l-0.1 0.1 0.1 0.1h-0.1 0.1l-0.1 0.2 0.1 1.2v1.1l-0.1 0.1 0.1 0.1-0.1 0.4v0.2 0.1 0.1 0.2 0.4 0.2q0 0.7-0.6 1.2-0.3 0.2-0.9 0.2h-2.4-0.3-0.1-1.3-0.3-0.2-0.1-0.3-0.1q-0.2 0-0.8 0h-1.7v-0.1-2.5-0.4h0.1 0.3 0.5 0.2 0.1 0.4 0.1 0.1 0.2q0.2 0 0.5 0h-0.1v0.1l1.6-0.1h0.8 0.1 0.1 0.4 0.5q0 0 0 0.1h0.1q0-0.1 0-0.1h0.1 0.1v-0.1-0.2-0.6-0.2-0.3-0.1-0.1-0.1h-0.1-0.1q0-0.1-0.1-0.1 0 0 0 0.1h-0.1q-0.4-0.1-0.8-0.1l-0.1 0.1-0.1-0.1h-0.3l-0.2 0.1h-0.5-0.1-0.5-0.3-0.1-0.1-0.1-0.1-0.8q-0.8 0-0.8-0.1 0-0.1-0.2-0.1-0.3 0-0.6-0.7 0 0 0.4 0.4v0.1l-0.4-0.7q-0.1-0.1-0.1-0.3 0-0.1 0-0.1v-1-0.2-0.1l0.1-1.3v-0.4q0-0.1-0.1-0.1v-0.2-1.1-0.1-0.1-0.1-0.1q0-0.2 0.2-0.6 0.5-0.8 1.2-0.8l0.1 0.1zm9.4-0.1h0.1l0.3 0.1v-0.1l0.2 0.1h0.7 0.2 0.1 0.1 0.1 0.1 0.5 0.3q0 0.7-0.1 1.5l0.1 0.1-0.1 0.1h0.1v0.4 0.1 0.1 0.1q0 0.2-0.1 0.2l0.1 1.3v0.1 0.2l-0.1 1.8h0.1l-0.1 0.2v0.1l0.1 0.1-0.1 0.1v0.4 0.1q0.1 0 0.1 0.2v0.4 0.6 0.6 0.7q0 0.4-0.1 0.4l0.1 0.1v0.9 0.3 0.2 1.2 0.2q0 0.1 0 0.3v0.3q0 0.1-0.1 0.1 0.1 0 0.1 0.5v0.3 0.1 0.1 0.1 0.2 0.1 0.1 0.1 0.1 0.1 0.2q-0.1 0-1.1-1-1.2-1.2-1.2-1.3l-0.3-0.4 0.1 0.2q-0.5-0.5-0.5-0.6l-0.1-0.1v-0.1l0.1 0.1v-0.1q-0.1-0.1-0.1-0.2v-0.2-0.3-0.1-0.6-0.1-0.5-0.5-0.3-0.4-0.2-0.1-0.1-0.3-0.3-0.5-0.1-0.1l0.1-0.6-0.1-1.8v-0.2-0.1-1.9-0.5l0.1-0.7v-0.2-0.4-0.2h0.1q0 0.1 0 0.1-0.1-0.2-0.1-0.2v-0.1-0.4-0.2h0.1q0 0 0 0.1v-0.1zm2.7 2.3v0.1zm-2.7 10.2h-0.1v0.1h0.1zm4.4-12.5h2.9v0.3 0.7 0.1 5.1 1 0.1 0.1 0.1 0.7 0.5 0.1 0.1 0.2h0.3v0.1q0.1 0 0.1-0.1h0.3 0.1 0.1 0.1 0.1 0.1 0.1 0.3 0.2 0.1 0.1 1.3 0.4 0.2 0.2 0.1 0.1 0.1 0.1 0.1 0.2 0.1 0.1 0.1 0.2 0.1 0.2 0.1 0.2 0.6 0.2v0.4 1 1.2 0.1 0.1 0.1 0.1 0.1 0.1 0.1h-2.5-0.1-0.1-1-0.1-0.1-0.1-0.9q-0.4-0.1-0.9-0.1h-0.3-0.2-0.4-0.4-0.1-0.1q-0.8 0.1-1.4 0.1h-0.5-0.8v-0.5-0.3-0.5-0.3-0.1-0.1-0.2-0.1-0.3-0.5l0.1-1.5-0.1-0.5 0.1-0.1-0.1-0.1 0.1-0.1h-0.1 0.1v-0.9q0-1.4-0.1-2.2v-0.1-1.1-0.1-0.1-0.2-2.5q0 0 0.4 0zm10.9 0.4v-0.4h1.2v0.1l0.1-0.1 0.1 0.1 0.2-0.1v0.1-0.1l0.3 0.1h0.3 0.1 0.1 0.1 0.1 0.1 1.1l2-0.1h0.2l0.2 0.1 0.2-0.1 0.1 0.1v-0.1l0.1 0.1 0.2-0.1 0.1 0.1v-0.1h0.1v0.1l0.2-0.1h0.2v0.1h0.2 0.1l0.2-0.1 0.3 0.1h1v0.3q-0.1 0.4-0.1 1v1.7h-0.2-0.5-0.8q-0.2 0-0.2 0h-0.1-0.2q-0.1 0-0.1 0h-0.1-0.1-0.5-0.2-0.4-0.1-0.1-0.1-0.3-0.1-0.1-0.1-0.2-0.1-0.4-0.3-0.7q0-0.1 0-0.1-0.1 0-0.1 0.1h-0.3-0.1 0.3 0.1v0.2h-0.1 0.1q0 0.1-0.1 0.1 0.1 0 0.1 0v0.1 0.8 0.3 0.1h0.1q0.1 0 0.1 0 0.3 0 0.7 0h0.1 3 0.6v0.1 0.5 0.5 0.2 0.3q0 0.3 0 0.8v0.7h-0.1l-0.6-0.1h-0.2-0.1-0.2-1.4l-0.2 0.1-0.1-0.1h-0.5-0.1-0.1-0.1-0.2-0.2-0.1-0.1-0.1q-0.1 0-0.1-0.2-0.2 0.3-0.2 0.6h0.1q-0.2 0-0.2 0h0.2v0.1l-0.1 0.1 0.1 0.1v0.3q0 0-0.2 0v0.1l0.2 0.1v0.2h-0.2 0.2v0.2q0 0 0.1 0.1v-0.1h1.4 0.1 0.2 0.1 0.2 0.1 0.2 0.1 0.4 1.8 0.1 0.1 0.4 0.2 0.1 0.2 0.1q0.2 0 0.2 0 0.1 0 0.1 0.1v0.2 0.2 0.1 0.1 0.1 0.1 0.1 0.4 0.4 0.1 0.1 0.1 0.4 0.3 0.1 0.2h-0.5-0.1-0.2-0.6l-0.5-0.1h-1l-0.1 0.1-0.1-0.1q-0.1 0.1-0.2 0.1h-0.5l-0.1-0.1-0.1 0.1h-1.1-0.2-0.1-0.1-0.1-0.2-0.2-0.2-0.2-0.2-0.2-0.1-0.6-0.1-0.1-0.1-0.2-0.1-0.4l-0.1-0.1v-0.1q0 0.2-0.3 0.2h-0.3v-0.1l-0.1-0.2 0.1-0.3v-0.1-0.3-0.2-0.1-0.1-0.5-0.1q0-0.2 0-0.2 0-0.2 0-0.9v-4.7q0-0.5 0.1-1.3l-0.1-0.1 0.1-0.1h-0.1 0.1q-0.1-0.2-0.1-0.3v-0.1-0.1q0-0.1 0-0.1v-0.1-0.1-0.1-0.1-0.7-0.5 0.1zm0 0.4q0.1-0.6 0.2-0.6 0 0 0.1 0.5v0.1h0.1v-0.1q-0.2-0.5-0.2-0.5-0.1 0-0.2 0.6zm0.4 0.1zm0 0.1v0.1 0.1-0.1zm19.1 8.2v0.1zm0.1 0.9v0.1 0.1zm0-0.2l-0.1 0.1h0.1zm0-0.2h-0.1v0.1h0.1zm0 2.8q0.1 0.3 0.1 0.9v0.2 0.3 0.3 0.1 0.1 0.1l-0.1 0.2v0.9q-0.6-0.6-0.7-0.7-1.8-1.8-1.8-2l-0.4-0.4q0-0.3 0-1.1v-0.1-0.2-0.1-0.2-0.1-0.1-0.1-0.3q0-0.7 0.1-1.6v-0.1q0-0.3 0-0.6v-0.1q-0.1 0-0.1 0.3v-1.5q0-2 0-3 0.2-0.1 0.4-0.1h-0.1-0.3v-0.2q0-0.1 0.1-0.1l-0.1-0.1q0 0.1-0.1 0.1h-0.2v-0.1-0.2-0.1q-0.1 0-0.1 0.2v0.1 0.1h-0.7-0.3-0.3-0.6l-0.1-0.1q-0.1 0.1-0.3 0.1l-0.2-0.1-0.1 0.1-0.2-0.1q0 0.2 0 0.6v0.4 0.1 0.1 0.3 0.6q0 0.9-0.1 1.4l0.1 0.4-0.1 1.5 0.1 2.1v1.9h-0.2-0.4-0.6-1.3-0.4l-0.2-0.1v-0.1-4.1l0.1-0.1-0.1-0.1 0.1-0.1-0.1-0.1 0.1-0.1h-0.1l0.1-0.5v-2.5-0.1-0.1-0.1-0.1-0.3-0.1-0.1-0.1-0.1-0.2-0.2-0.1-0.3-1.2-0.2-0.6-0.7q0-0.3 0-0.8v-0.3-0.3-0.2-0.2-0.1-0.3-0.9h0.1q0.6 0.6 0.6 0.7 1.8 1.9 1.8 2l0.4 0.4h0.3 0.1 0.3 1.7 0.4 0.1 0.5 0.3 0.1 0.1 0.8 0.1l0.3 0.1h0.1 0.1q0.6 0 0.9 0.5l0.2 1v0.6 0.2 0.7 0.7 0.8l-0.1 0.3h0.1l-0.1 0.1v1.9 2.2 0.2q0 1.3-0.1 1.3v0.2 0.1q0 0 0 0.3v0.2 0.2 0.1 0.2 0.5zm2-12.5h0.2 0.1 0.3 3 1.2l0.3 0.1v-0.1 0.1l0.2-0.1 0.4 0.1 0.4-0.1v0.1h-0.1q-0.3 0-0.3 0.1h0.2q2.2-0.1 2.7-0.1l0.1 0.1-0.1 0.4v0.8 0.3 0.5 0.9q0 0-0.1 0h-0.2-0.1-0.4-0.6-0.1-0.4-0.2-0.1-0.2-0.1-0.1-0.1-0.1-0.1-0.1-0.1 0.1v0.1q0 0-0.1 0v0.1q0 0 0.1 0v0.1h-0.1 0.1v0.1l-0.1 0.1 0.1 0.1v0.1l-0.1 0.7h0.1l-0.1 0.2v0.8 0.1 0.5 3.9 3.1l0.1 0.3h-0.1v0.1h0.1-0.1 0.1v1.6l-0.1 0.1 0.1 0.1v0.1h-0.1q-0.4-0.3-1.5-1.5-0.1 0-1.2-1.1-0.2-0.3-0.2-0.4-0.1 0-0.2-0.3h0.1v-0.2h-0.1q0.1-0.1 0.1-0.1v-0.8-0.4-0.1-0.2-0.3-0.3-0.1-0.2-0.1-0.4-0.5-0.2-0.1-0.2q0-0.9 0.1-1h-0.1l0.1-0.2v-0.1q0 0-0.1 0v-0.2q0-0.3 0-0.3 0 0 0-0.5h-0.1q0.1 0 0.1-0.3v-0.8-0.3-0.2-0.1-0.1-0.1-0.4-0.1h0.1v-0.1q0 0 0 0h-0.1-0.1-0.2-0.3-0.2-0.6-0.6-0.1-0.1-0.2-0.3-0.3v-1.4-1.5q0-0.2 0-0.2zm31.1 0h0.4 0.1 0.4 0.2 0.2 0.1 0.1 1.5v0.1q0 0-0.2 0.1h0.2v3.8 0.1 0.1 0.1 0.3 0.1 0.1 0.2 0.2 0.3 0.4 0.1 0.2 0.9 0.2 0.1 0.3 0.1 0.4 0.5 0.2 0.1 0.1 0.1q0 0.5-0.1 1.8 0.1 0 0.1 0 0 0.7-0.4 0.9-0.3 0.5-1.2 0.5h-0.1-0.1-0.1-0.1-0.2-1l-1-0.1-0.9 0.1-0.2-0.1v0.1q-0.7 0-1.8-0.2-0.6-0.6-0.6-1.2l0.1-0.1h-0.1v0.1q0 0.5-0.3 0.7 0 0.1-0.8 0.6 0 0-0.2 0.1h-0.6-1.2-1.5-0.1-0.1-0.6-1.1q-0.2 0-0.5-0.1v-0.1q0 0-0.2 0-0.6-0.6-0.6-1.1v-0.1-0.1-0.1-0.1-0.1-0.2-0.1-2.8-1.1l0.1-0.2h-0.1v-0.1l0.1-0.3-0.1-0.1 0.1-0.1-0.1-0.1 0.1-0.2-0.1-0.5v-0.8l0.1-0.3-0.1-0.4v-1.5-1.6-0.2h0.3q0 0.1 0 0.1l1.5-0.1h0.5 0.1 0.1 0.1q0.2 0 0.3 0.1v-0.1h0.1v0.1 0.7 0.3 0.3 0.2 0.1 0.3 0.1 0.2 0.1 0.1 0.2 0.1 0.1q0 0.1 0.1 0.1l-0.1 0.1v1.7 0.4 0.1 0.2 0.2 0.2 0.1h0.1v0.9h-0.1v-0.3 0.4q0.1 0 0.1 0.1v2.1l-0.1 0.2h0.1 0.1 1.4 0.2 0.1 0.1 0.7 0.1q0.1 0 0.2 0h0.1 0.1v-0.1q0 0 0-0.1v-0.1-0.1-0.2-0.2-0.1-0.1-0.2-0.2-0.7-0.1-0.1-2-0.6-0.1-0.1-0.8-0.1-2.3l-0.1-0.3 0.1-0.1-0.1-0.2v-0.1l0.1-0.1h-0.1 0.1l-0.1-0.1v-0.2h0.1 0.7l0.2 0.1v-0.1l1 0.1q0.1 0 0.1-0.1h0.6l0.5 0.1 0.1 0.3v0.8l-0.1 1.9 0.1 2.1v1.6 0.6 0.1 1.1l-0.1 0.1h0.1q-0.1 0-0.2 0.2h0.2v0.2 0.2 0.1h0.1 0.1q0 0 0 0h0.2 0.2 0.1 0.3 0.3 0.1 0.3 0.8q0.1 0 0.1 0.2v-0.2q0-0.1 0.1-0.1h0.1q0.1 0 0.1 0.2l0.1 0.3-0.1-0.4h0.2l0.1-0.1q0 0-0.1 0 0 0-0.1 0v-0.2-0.2-0.1-0.1-0.2-0.1-0.1-0.3-0.1-0.1-0.1-0.2-0.1-0.2-0.1-0.1q0-0.1 0.1-0.1l-0.1-0.1v-0.1-0.2-0.1-0.2-0.1-0.1-0.1-0.1-0.2-1.8-0.2-0.1-1.3-0.3-0.6-0.2-0.2-0.2-0.1-0.4q0-0.1 0.1-0.2zm2.7 0.2h-0.1 0.1zm-12.2 6v0.3-0.3zm0 0.3v0.1zm23-6h-0.1v0.1 0.1h0.1l-0.1-0.1zm-2.2 7.8zm2.3-7h-0.1 0.1zm0-0.5h-0.1v0.1h0.1zm0 10.3v3.9 0.3q-0.3-0.1-0.8-0.7-0.1-0.1-1.7-1.7-0.4-0.3-0.5-0.5-0.1-0.1-0.1-0.2v-0.2-0.1-0.1-0.2h0.1l-0.1-0.1 0.1-0.5-0.1-0.4h0.1l-0.1-0.1 0.1-0.2v-0.4-0.6-1q0 0 0 0.2v-0.1q0-0.2 0-0.2 0.2 0 0.2-0.1h-0.2 0.3v0.1q0.1 0 0.1-0.1h-0.4v-0.1l0.1-0.2h-0.1q0-0.1-0.1-0.1v0.1h-0.1-0.1-0.1-2.4l-0.1-0.1q0 0.1-0.1 0.1-0.1 0-0.1-0.1 0 0.1 0 0.1-0.1 0-0.1-0.1v0.1l-0.1 0.2v0.2l-0.1 0.1q0 0 0.1 0v0.3h0.1-0.1q0.1 0.6 0.1 0.7v0.1 0.2 0.7 0.2 0.1 0.2 0.3 0.5 0.1 0.1 0.1 0.1 0.3q-0.7 0.1-1.1 0.1h-0.7-0.1l-1.1-0.1h-0.1v-0.5-0.1-0.1-0.6-1.7q0-0.3 0.2-1.3-0.1 0-0.1 0.3h-0.1v-0.4-0.1-0.1-0.5-0.2-0.1-0.2-0.1-0.2-0.3-0.1-0.1-0.1l0.1-0.7h-0.1l0.1-2.6v-0.1-0.5l0.1-1.1h-0.1q0-0.5 0-0.7v-2.6-0.3q0.2 0.1 0.8 0.7 0.1 0.1 1.7 1.7 0.4 0.3 0.5 0.5 0 1.2-0.1 3.3v0.9h-0.1v0.1q0 0 0.1 0v0.1q0 0.2 0.1 0.2h0.1q0.2 0.1 0.5 0.1h0.3 0.1v-0.1h-0.1 0.2-0.1v0.1h0.1l1.5-0.1h0.1v0.1q0.1 0 0.1 0v-0.1h0.3l0.1 0.1v-0.1q0 0 0 0v-0.2-0.1-0.3-1.4-0.2-0.1-0.1-0.4-0.1-0.1-0.1-0.2-0.3-0.8-0.1q0-0.1 0.3-0.1h2.4 0.1q0.1 0 0.1 0v0.1 0.1h0.1v-0.2 0.5 0.1 0.4 0.1 0.3 1.2q0 0.1 0 0.1v0.2 0.1 0.2 1.1 0.5 0.5 0.1q0 0 0 0.4v0.3 0.1 0.1 2.2 1.4 0.1 0.2 0.3 0.2 0.1zm1.3-10.6v-0.4h1.2 0.1 0.2 0.1 0.3 0.4l0.1 0.1v-0.1 0.1l0.1-0.1 0.1 0.1 0.1-0.1h1.1v0.1-0.1h0.1 2 0.1 0.2 0.2 0.1 0.1 0.1 0.2 0.1 0.2 0.2v0.1l0.3-0.1v0.1l0.2-0.1h0.4 0.9v0.4q-0.1 0.3-0.1 1v1.7h-0.2-0.5-0.8q-0.2 0-0.2 0h-0.1-0.1q-0.2 0-0.2 0h-0.1-0.1-0.4-0.1-0.2-0.3-0.1-0.1-0.1-0.1-0.3-0.1-0.2-0.2l-0.5-0.1-0.3 0.1h-0.7q0-0.1 0-0.1 0 0 0 0v0.1h-0.3-0.1 0.2 0.1v0.1 0.1q0 0.1-0.1 0.1 0.1 0 0.1 0v0.1 0.7 0.4 0.1h0.1q0.2 0 0.2 0 0.2 0 0.7 0h3 0.6 0.1v0.6l-0.1 0.5v0.2 0.2q0 0.4 0 0.9v0.6 0.1l-0.6-0.1h-0.3-0.1-0.2-1.4-0.1-0.2-0.4-0.2-0.1-0.1-0.2-0.1-0.2-0.1-0.1q-0.1 0-0.1-0.2-0.1 0.3-0.1 0.5v0.1q-0.1 0-0.1 0h0.1v0.1 0.1 0.1 0.3q0 0-0.1 0l0.1 0.1v0.3h-0.1 0.1v0.2q0 0 0.1 0h1.5 0.3 0.1 0.1 0.1 0.1 0.1 0.1 0.1 0.4 1.7 0.1 0.1 0.4 0.3 0.2 0.2q0.1 0 0.1 0 0.1 0 0.1 0v0.3 0.2 0.1 0.2 0.1 0.4 0.5 0.1 0.1 0.1 0.4 0.3 0.1 0.2h-0.4-0.2-0.2-0.5l-0.5-0.1h-1.1-0.1-0.1q0 0-0.2 0h-0.4-0.1-0.1-1.1l-0.2 0.1-0.1-0.1v0.1l-0.1-0.1-0.1 0.1h-0.1v-0.1l-0.2 0.1h-0.2l-0.2-0.1-0.2 0.1h-0.2l-0.2-0.1v0.1l-0.6-0.1-0.1 0.1-0.2-0.1-0.1 0.1-0.1-0.1h-0.1l-0.5 0.1-0.1-0.1 0.1-0.1h-0.1q0 0.2-0.3 0.2l-0.3-0.1v-0.2-0.3-0.1-0.3-0.3-0.1-0.5-0.2q0-0.1 0.1-0.1-0.1-0.2-0.1-0.9v-4.7q0.1-0.5 0.1-1.3v-0.1-0.1q-0.1-0.2-0.1-0.3v-0.1h0.1v-0.1q0-0.1-0.1-0.1v-0.1l0.1-0.1-0.1-0.1 0.1-0.1-0.1-0.7 0.1-0.5v-0.1h-0.1v0.2zm0 0.3v0.1h0.1q0-0.6 0.1-0.6 0 0 0.2 0.5-0.1-0.6-0.2-0.6-0.1 0-0.2 0.6zm0.4 0.1v0.1zm0 0.1v0.1h0.1zm19.1 8.2v0.1zm0 0.9v0.1 0.1zm0-0.2v0.1zm0-0.2v0.1zm0 2.8q0.1 0.3 0.1 0.8v0.3 0.3 0.3 0.1 0.1l-0.1 0.3v0.9q-0.6-0.6-0.6-0.7-1.8-1.8-1.8-2l-0.5-0.4q0-0.4 0-1.2v-0.2-0.1-0.1-0.1-0.2-0.2-0.3q0-0.6 0.1-1.5v-0.1-0.1q0-0.3 0.1-0.6h-0.1q0 0-0.1 0.3v-1.6q0-1.9 0-2.9 0.2-0.1 0.4-0.1h-0.1-0.3v-0.2q0.1-0.1 0.1-0.1v-0.1q-0.1 0-0.1 0h-0.3v-0.3q-0.1 0-0.1 0.2v0.1h-0.7l-0.3 0.1-0.3-0.1h-0.6-0.1q0 0.1-0.2 0.1l-0.1-0.1v0.1l-0.2-0.1h-0.1-0.1q-0.1 0.1-0.1 0.6v0.4 0.1 0.1 0.3 0.5q0 1 0 1.5v0.4 1.4 2.1 2h-0.1l-0.4-0.1-0.1 0.1-0.6-0.1h-1.3-0.3-0.1-0.2l0.1-0.1h-0.1l0.1-4.1v-0.1-0.1-0.1-0.1-0.1-0.1-0.4-2.5-0.1-0.2-0.1-0.4-0.1-0.1-0.1-0.1-0.1-0.2-0.1-0.4-1.1-0.2-0.6-0.7q0-0.3 0-0.8v-0.3-0.3-0.3-0.1-0.1l0.1-0.3v-0.9q0.6 0.6 0.6 0.7 1.8 1.8 1.8 2l0.4 0.4h0.3 0.1 0.3 1.8 0.3 0.1 0.5 0.4 0.1 0.8 0.1l0.4 0.1h0.1 0.1q0.5 0 0.8 0.5l0.2 1v0.6 0.2 0.7 0.6 0.9 0.3 1.9h-0.1l0.1 0.1-0.1 2.2v0.2q0 1.2 0 1.2h-0.1v0.3q0.1 0.1 0.1 0.4v0.2l-0.1 0.2h0.1v0.1l-0.1 0.2 0.1 0.4zm10.4-12.4h0.1 0.4 0.1 0.7 0.1 0.1 0.2 0.1 0.1 0.5 0.4q0 0.8-0.1 1.5v0.1 0.1 0.4 0.2 0.2q0 0.1 0 0.1v1.3 0.1 0.2 1.8 0.1 0.2 0.1 0.1 0.4 0.1q0 0.1 0 0.2v0.4 0.6 0.6 0.7q0 0.4 0 0.4v0.1 0.9 0.3 0.1 0.1 1.2 0.2q0 0.1 0 0.4v0.2 0.1q0 0 0 0 0 0 0 0.5v0.3 0.1 0.1 0.1 0.2 0.2 0.1 0.1 0.1 0.2q-0.1 0-1-0.9-1.3-1.3-1.3-1.4l-0.2-0.3 0.1 0.1v0.1q-0.6-0.5-0.6-0.7v-0.2l0.1 0.1q-0.1-0.1-0.1-0.2v-0.3-0.2-0.1-0.1-0.5-0.2-0.5-0.5-0.3-0.4-0.1-0.2-0.1-0.3-0.3l-0.1-0.4 0.1-0.2h-0.1 0.1l-0.1-0.1 0.2-0.6-0.1-1.7v-0.3-0.1-1.9-0.4-0.1l0.1-0.7h-0.1l0.1-0.2v-0.4-0.1q0 0 0 0 0-0.2 0-0.2v-0.1-0.4-0.1q0 0 0 0h0.1zm2.6 2.3zm-2.7 10.3zm4.6-12.5h0.1v0.1l0.1-0.1v0.1l0.3-0.1 3.1 0.1h1.2 0.3 0.2 0.4 0.3q-0.4 0.1-0.4 0.1l0.3 0.1q2.1-0.2 2.7-0.2v0.1 0.4 0.8 0.3 0.5 0.9q0 0-0.1 0h-0.2-0.1-0.4-0.6-0.1-0.5-0.2-0.3-0.2-0.1-0.1-0.1-0.1v0.1q0 0-0.1 0v0.1q0 0 0.1 0v0.1 0.1 0.1 0.1 0.1 0.7 0.2 0.8 0.1 0.5 3.9 3.2 0.2 0.1 1.6 0.1 0.1 0.1q-0.4-0.3-1.5-1.5-0.1 0-1.2-1.1-0.3-0.3-0.3-0.4-0.1 0-0.1-0.3v-0.2q0-0.1 0.1-0.1l-0.1-0.8v-0.3l0.1-0.2-0.1-0.2v-0.3l0.1-0.3h-0.1 0.1l-0.1-0.1 0.1-0.1-0.1-0.2 0.1-0.4-0.1-0.5 0.1-0.1-0.1-0.1 0.1-0.1-0.1-0.2q0.1-0.9 0.1-0.9v-0.1-0.1-0.1q0-0.1-0.1-0.1v-0.1q0.1-0.4 0.1-0.4 0 0-0.1-0.5 0 0 0-0.3v-0.8l0.1-0.2-0.1-0.1h0.1l-0.1-0.2 0.1-0.1h-0.1v-0.1h0.1-0.1l0.1-0.5v-0.1h0.1v-0.1q-0.1 0-0.1 0h-0.1-0.2-0.1-0.3-0.1-0.6-0.6-0.1-0.2-0.1-0.4-0.2l-0.1-1.4v-1.5q0-0.2 0.1-0.2zm18.9 0h0.2 0.3 0.1 0.8 0.1 0.2v0.1l0.1-0.1 0.1 0.1v-0.1 0.1h0.5v-0.1l0.1 0.1h0.3q0 0.7-0.1 1.5v0.2-0.1 0.4 0.2 0.2q0 0.1 0 0.1v1.3 0.2 0.1 1.9 0.2 0.1 0.1 0.1 0.3 0.1q0 0.1 0 0.3v0.4 0.5 0.7 0.7q0 0.3 0 0.3v0.1 0.9 0.4 0.2 1.1 0.2q0 0.2 0 0.4v0.3q0 0.1 0 0.1 0 0 0 0.4v0.3 0.1 0.1 0.1 0.2 0.2 0.1 0.1 0.1 0.1 0.2q-0.1 0-1-1-1.2-1.3-1.2-1.3l-0.3-0.4 0.1 0.1v0.1q-0.6-0.5-0.6-0.6v-0.1-0.1h0.1q-0.1-0.1-0.1-0.2v-0.2-0.3-0.1-0.6-0.1-0.5-0.5-0.4-0.4-0.1-0.2-0.1-0.3-0.3-0.4-0.1-0.1-0.1l0.1-0.6-0.1-1.7v-0.2-0.1-0.1-1.9-0.4-0.1l0.1-0.6v-0.1h-0.1l0.1-0.1v-0.5-0.1q0 0.1 0.1 0.1-0.1-0.3-0.1-0.3v-0.5-0.1q0.1 0 0.1 0.1v-0.1zm2.6 2.3v0.1zm-2.7 10.2zm5.6-12.4l0.2-0.1 0.4 0.1h0.6 0.1 0.1 0.5 1.1 1.7 0.1 1.6 0.6 0.6v2.8 0.1 0.1h-1.1-0.1-0.1-0.1-0.2-0.1-0.3-2.5v0.1l-0.1-0.1h-1-0.1-0.1l-0.1-0.1q0 0.1-0.2 0.1v0.2 0.2 0.1 0.1q-0.2 0-0.2 0.1 0.2 0 0.2 0.1v0.5 0.1 0.1 0.1 0.2h0.1v-0.1h-0.1l0.1-0.1 0.1 0.1q0-0.1 0.1-0.1h2l1.1 0.1q0 0 0 0v-0.1h0.1 0.2l0.1 0.1v-0.1h0.8l0.1 0.1 0.1-0.1q0.3 0 0.7 0.3 0.1 0.1 0.2 0.2 0.4 0.4 0.4 1.1v0.1 0.1 0.1 0.1 0.1 0.2 1.1 1.1 0.2 0.4 0.2 0.1 0.1 0.2 0.4 0.2q0 0.8-0.6 1.2-0.3 0.3-1 0.3h-2.3l-0.3-0.1v0.1l-0.1-0.1h-1.3-0.3-0.2-0.1-0.3l-0.1 0.1q-0.2-0.1-0.8-0.1h-1.7v-0.1-2.5-0.4h0.1 0.3 0.5 0.2 0.1 0.4 0.1 0.1l0.2 0.1q0.2-0.1 0.5-0.1l-0.1 0.1 1.6-0.1h0.7 0.2 0.5 0.5q0 0 0 0.1h0.1q0-0.1 0-0.1h0.1 0.1v-0.3-0.6-0.2-0.3-0.1-0.1l-0.1-0.1h-0.1q0 0-0.1 0 0 0 0 0h-0.1q-0.4 0-0.8 0h-0.1-0.1-0.3-0.2-0.5-0.1-0.5l-0.3 0.1v-0.1h-0.1l-0.1 0.1-0.1-0.1-0.1 0.1h-0.8q-0.8 0-0.8-0.2 0-0.1-0.2-0.1-0.3 0-0.6-0.7 0 0 0.3 0.5h0.1l-0.5-0.7q0-0.1 0-0.3 0 0 0 0v-0.1-1-0.1-0.1-0.1 0.1-1.3-0.4q0-0.2 0-0.2v-0.2-1-0.2-0.1-0.1-0.1q0-0.2 0.1-0.6 0.5-0.7 1.3-0.7h0.1zm18.1 0h0.2 0.1 0.3 3.1 1.1 0.3 0.3 0.4 0.3v0.1q-0.4 0-0.4 0.1h0.3q2.1-0.2 2.7-0.2v0.2 0.4 0.8 0.2 0.1 0.4 1q0 0-0.1 0h-0.1-0.1-0.2-0.4-0.6-0.5-0.2-0.3l-0.2-0.1-0.1 0.1h-0.1-0.1-0.1v0.1q0 0-0.1 0 0 0.1 0.1 0.1v0.1 0.2 0.2 0.6 0.1 0.1 0.9 0.1 0.5 3.9 3.1 0.3 0.1 1.6 0.1 0.1 0.1q-0.4-0.3-1.5-1.5-0.1 0-1.2-1.2-0.3-0.2-0.3-0.3v-0.1q-0.1 0-0.1-0.2v-0.1-0.1q0-0.1 0-0.1v-0.8-0.4-0.2-0.1-0.3-0.3-0.1-0.1-0.1-0.2-0.3-0.6-0.1-0.1-0.3q0-0.8 0.1-0.9v-0.2-0.1q0 0-0.1 0v-0.2q0-0.4 0.1-0.4-0.1 0-0.1-0.4 0-0.1 0-0.3v-0.8-0.3-0.1-0.1-0.2-0.1l0.1-0.4v-0.1l0.1-0.1q-0.1 0-0.1 0v-0.1h-0.1l-0.1 0.1h-0.2-0.3-0.2-0.6-0.6-0.1-0.1-0.1-0.4l-0.3-0.1v-1.3-1.6q0-0.1 0.1-0.1zm10.3 0h0.1 0.3 0.2 0.7 0.2 0.1 0.1 0.1 0.1 0.5 0.3q0 0.8-0.1 1.5l0.1 0.1-0.1 0.1h0.1v0.4 0.2 0.2q0 0.1-0.1 0.1l0.1 1.3v0.1 0.2l-0.1 1.8h0.1v0.1l-0.1 0.2 0.1 0.1-0.1 0.1v0.4 0.1q0.1 0.1 0.1 0.2v0.4 0.6 0.6 0.7q0 0.4-0.1 0.4l0.1 0.1v0.9 0.3 0.2 1.2 0.2q0 0.1 0 0.4v0.2 0.1q0 0-0.1 0 0.1 0 0.1 0.5v0.3 0.1 0.1 0.1 0.2 0.2 0.1 0.2 0.2q-0.1 0-1.1-0.9-1.2-1.3-1.2-1.4l-0.3-0.4v0.1l0.1 0.1q-0.5-0.4-0.5-0.6l-0.1-0.1v-0.1l0.1 0.1q-0.1-0.1-0.1-0.2v-0.3-0.2-0.1-0.1-0.5-0.2-0.5-0.5-0.3-0.4-0.1-0.2-0.1-0.3-0.3-0.4-0.2-0.1l0.1-0.6-0.1-1.7v-0.3-0.1-1.9-0.4-0.1l0.1-0.7v-0.2-0.4-0.1h0.1q0 0 0 0-0.1-0.2-0.1-0.2v-0.1-0.4-0.1h0.1q0 0 0 0zm2.7 2.3zm-2.7 10.3h-0.1 0.1zm20-11.2h-0.1v0.1h0.1zm-9.4 6.6zm0 0zm0-0.2v0.1zm0-0.2h-0.1 0.1zm0-0.2h-0.1v0.1h0.1zm-0.1-0.2v0.1h0.1zm-0.1-0.2v0.1 0.1h0.1v-0.1zm-2.5-3.6h-0.1v0.1h0.1zm12 8.7v3.7l-2-2-0.7-0.9-0.3-0.3h-0.1q0-0.4-0.1-1.3v-0.1-0.2-0.4-0.2-0.5-0.5-0.3-0.2-0.2-0.3-0.2-0.3-1.2-0.3-0.1-0.1-0.2-0.1-0.1-0.1-0.1-0.2-0.1-0.1-0.1-1.6q0.1 0 0.1 0l-0.1-0.1-0.1 0.1h-0.2-0.2q-0.1 0-0.1-0.1v-0.1l-0.1 0.2-0.6-0.1-0.7 0.1-0.8-0.1h-0.2v0.1h-0.3v0.3q-0.1 0.1-0.1 0.2v0.1q0 0.2 0.1 0.7v0.5 3.3 4h-0.5l-0.2 0.1-0.2-0.1v0.1l-0.1-0.1-0.2 0.1-0.5-0.1h-0.2-0.9v0.1l-0.1-0.1-0.1 0.1-0.1-0.1-0.1-0.7v-1.1-0.4-0.1-0.1h0.1v0.1-0.2q0-0.4 0-0.7-0.1-0.7-0.1-1.9v-0.6-0.1-0.3-0.6h0.1v1.1-0.1q0-1.1 0-2.7v-0.1 0.4h0.1l-0.1-0.5h0.1v-0.1q-0.1 0-0.1-0.3v-0.1h-0.2-1.4-0.9-0.1-0.1-0.2-0.2-0.1q-0.1 0-0.1 0.1l-0.1 0.1q0.1 0 0.1 0.1v0.1h-0.1q0 0 0.1 0v0.2q0 0.1 0 0.4v1.5l-0.1 1.7v0.5 0.1 1.1 0.3 0.4 0.8 0.1 0.2l0.1 0.9h-0.1v0.1h0.1v0.3l-0.1 0.1h0.1q0 0.1-0.1 0.1l-2.2-0.1h-0.2-0.3-0.1-0.2q-0.1 0-0.1-0.1v-0.3l0.1-0.1-0.1-0.1 0.1-3.9v-0.1-0.3-0.3-0.4-0.4-0.4q-0.1-0.5-0.1-1.6v-0.1h0.1v-0.1h-0.1l0.1-0.5q-0.1-0.8-0.1-1.6v-0.3-0.1-0.9-0.1-0.1-0.5q0 0 0 0v-3.1h0.1l1.9 2 0.8 0.9 0.2 0.2h0.7 0.3 0.5 1.2 1.2 0.7 0.2 0.2 0.3 0.3 1.3 0.1 0.2 3.1 0.2 0.1 1.4q0 0 0 0 0.6 0.3 0.6 0.4 0.3 0.3 0.3 0.5v0.2h0.1v-0.2q0.1 0.3 0.1 0.5v0.5 1.7 0.1l-0.1 0.9v0.1l0.1 2.3v1l-0.1 3.3v0.2q0 0.3 0.1 0.3zm1.3-11.4v-0.4h1.2 0.1 0.1 0.1 0.1 0.1 0.2 0.4 0.1 0.1 0.1 0.1 1.1 0.1 2 0.1 0.3 0.1 0.1 0.1 0.1 0.2 0.1 0.3 0.2 0.2 0.1 0.1 0.4 0.9v0.4q-0.1 0.3-0.1 1v1.6l-0.1 0.1h-0.6-0.7-0.1q-0.1 0-0.1-0.1l-0.1 0.1h-0.1-0.1q-0.1 0-0.1-0.1l-0.2 0.1-0.1-0.1v0.1h-0.4v-0.1 0.1h-0.3v-0.1 0.1h-0.3l-0.1-0.1-0.1 0.1h-0.1v-0.1 0.1h-0.4v-0.1 0.1h-0.1v-0.1 0.1h-0.2v-0.1 0.1h-0.2v-0.1 0.1l-0.4-0.1h-0.4-0.6q0 0-0.1 0 0 0 0 0h-0.3l-0.1 0.1h0.3v0.1 0.1q0 0-0.1 0v0.1q0.1 0 0.1 0v0.1 0.7 0.4l0.1 0.1q0.2 0 0.2 0 0.2 0 0.7 0h3.1 0.5 0.1v0.6l-0.1 0.5v0.1 0.3q0 0.4 0 0.9v0.6 0.1l-0.6-0.1h-0.2-0.2-0.2-1.4-0.1-0.1-0.5-0.2-0.1-0.3-0.1-0.2-0.1-0.1q0 0 0-0.2-0.2 0.3-0.2 0.5v0.1q-0.1 0-0.1 0h0.1v0.1 0.1 0.1 0.3q0 0-0.1 0l0.1 0.1v0.3h-0.1 0.1v0.2q0 0 0.1 0h0.1-0.1 1.5 0.3 0.1 0.1 0.1 0.1 0.1 0.1 0.1 0.4 1.7 0.1 0.1 0.4 0.3 0.2 0.2q0.1 0 0.1 0 0.1 0 0.1 0v0.3 0.2 0.1 0.2 0.1 0.4 0.5 0.1 0.1 0.1 0.4 0.3 0.1 0.2h-0.4-0.1-0.1-0.2-0.5l-0.5-0.1h-1.1-0.1q-0.1 0-0.3 0h-0.4-0.1-0.1-1.1l-0.2 0.1-0.1-0.1v0.1l-0.1-0.1-0.1 0.1v-0.1l-0.2 0.1h-0.2l-0.3-0.1-0.2 0.1h-0.2l-0.1-0.1-0.1 0.1-0.6-0.1-0.1 0.1-0.2-0.1-0.1 0.1-0.1-0.1h-0.1l-0.5 0.1v-0.1-0.1h-0.1q0 0.2-0.2 0.2l-0.4-0.1v-0.2-0.3-0.1-0.3-0.3-0.1-0.5-0.2q0.1-0.1 0.1-0.1-0.1-0.2-0.1-0.9v-4.7q0.1-0.5 0.1-1.3v-0.1-0.1-0.1q-0.1-0.1-0.1-0.2v-0.2h0.1v0.1-0.1q0-0.1-0.1-0.1l0.1-0.1h-0.1v-0.1h0.1v-0.1-0.1l-0.1-0.7 0.1-0.5v-0.1l-0.1 0.2zm0.1 0.3v0.1q0-0.6 0.1-0.6 0.1 0 0.2 0.5-0.1-0.6-0.2-0.6-0.1 0-0.1 0.6zm0.3 0.1v0.1zm0.1 0.1h-0.1l0.1 0.1zm19.1-1h0.2v0.1-0.1l0.1 0.1 0.3-0.1 3 0.1h1.2 0.3 0.2 0.4 0.4-0.1q-0.3 0.1-0.3 0.1l0.2 0.1q2.2-0.2 2.7-0.2l0.1 0.1v0.5 0.7l-0.1 0.3h0.1l-0.1 0.5v0.9q0 0-0.1 0.1v-0.1l-0.2 0.1h-0.1l-0.4-0.1h-0.6-0.1-0.4-0.2-0.1-0.2-0.1-0.1-0.1-0.1-0.1-0.1-0.1l0.1 0.1q0 0.1-0.1 0.1 0 0 0.1 0v0.1l-0.1 0.1h0.1l-0.1 0.1 0.1 0.1v0.2l-0.1 0.6h0.1l-0.1 0.2v0.8 0.1 0.5 4 3.1l0.1 0.2-0.1 0.1h0.1-0.1l0.1 0.1v1.5l-0.1 0.1 0.1 0.1v0.1h-0.1q-0.4-0.3-1.5-1.5-0.1 0-1.2-1.1-0.2-0.3-0.2-0.3v-0.1q-0.1 0-0.2-0.2l0.1-0.1v-0.1l-0.1-0.1q0.1-0.1 0.1-0.1v-0.8-0.3-0.2-0.2-0.3-0.3-0.1-0.1-0.2-0.4-0.5-0.1-0.1-0.1-0.2q0-0.9 0.1-0.9l-0.1-0.1 0.1-0.1v-0.1q0-0.1-0.1-0.1v-0.1q0-0.4 0-0.4 0 0 0-0.4h-0.1q0.1-0.1 0.1-0.4v-0.7-0.3-0.1-0.2-0.1-0.1-0.5-0.1h0.1q0 0 0-0.1h-0.1l-0.1 0.1-0.2-0.1v0.1l-0.3-0.1h-0.2-0.6-0.6-0.1-0.1-0.2-0.3-0.3v-1.4-1.5q0-0.1 0-0.2zm16.6 0h0.1 0.1 0.4 0.3 0.2 0.2q0.1 0 0.1 0.1 0.1 0 0.6 0.1 0.2 0.1 0.2 0.3 0.1 0.3 0.2 0.3h0.1q0.1 0 0.1 0.5 0 0.1 0.1 0.1v0.1h-0.1 0.1v0.1 0.2 0.6 1.3l-0.1 0.2 0.1 0.1v0.5l-0.1 0.2 0.1 0.2-0.1 0.2 0.1 0.1-0.1 0.5 0.1 0.1-0.1 0.3v0.6l0.1 4.1v0.2q-0.1 0.7-0.5 1-0.3 0.4-1.1 0.4h-0.6l-1.5-0.1h-1l-0.5 0.1v-0.1l-0.2 0.1q-2.5 0-2.5 0h-0.1q-0.5 0-1-0.5-0.3-0.4-0.3-1.1v-0.6-0.1q0-0.1 0-1.9v-5-0.6-0.1-0.1l-0.1-0.6v-0.2q0-1.1 0.9-1.4h0.1 0.3v-0.1h-0.1q0.2-0.1 0.5-0.1h0.1v0.1h0.1 0.1q0.2-0.1 0.5-0.1h1.7 0.3 0.2 0.5zm-5.1 0.1zm-0.1 0h-0.1v0.1l0.2-0.1zm4 2.9l-1.2 0.1h-0.1-0.1-0.1-0.1-0.1-0.1-0.2-0.1-0.3v0.2 0.1 0.1 0.4l0.1 0.8h-0.1 0.1v0.8h-0.1 0.1q-0.1 0.6-0.1 1v0.2l0.1 1.6h-0.1l0.1 0.1v0.3h-0.1l0.1 0.1-0.1 0.1 0.1 0.2q0 0.1-0.1 0.1v0.1 0.2l0.4-0.1h0.1l0.1 0.3v-0.3h1.5 0.1 0.1 0.4 0.1 0.2 0.1 0.1 0.1l-0.1-0.2v-0.2-0.4h0.1v0.2q-0.1-0.9-0.1-1.3v-1-0.1-0.5-0.5-0.4-0.9h0.1v0.4-0.1q0-0.6-0.1-0.6v-0.3-0.2l0.1-0.1v-0.1q0 0 0.1 0-0.2 0-0.2-0.1 0 0.1-0.2 0.1h-0.6q0-0.1 0-0.1zm1 1.5h-0.1 0.1zm0 0.2h-0.1l0.1 0.3v-0.1zm0 0.3v0.1zm0 0.1v0.1 0.1h0.1zm0 0.3zm-0.2 3.5v0.1zm22.1-8.5v0.1 0.1 0.1-0.2zm-2.2 7.9h-0.1 0.1zm2.3-7l-0.1-0.1v0.1h0.1zm-0.1-0.5v0.1zm0.1 10.3v3.9 0.3q-0.3-0.1-0.8-0.7-0.1-0.1-1.8-1.7-0.3-0.3-0.4-0.5-0.1-0.1-0.1-0.2v-0.2-0.1-0.2-0.1-0.1l0.1-0.5-0.1-0.4v-0.1l0.1-0.2-0.1-0.4v-0.6l0.1-1q0 0 0 0.2h-0.1v-0.1q0-0.2 0.1-0.2 0.2 0 0.2-0.1h-0.2 0.2 0.1q0.1 0 0.1 0l-0.4-0.1v-0.2-0.1 0.1h-0.1q0-0.1 0-0.2v0.2h-0.2-0.2-2.4v-0.1q0 0.1-0.1 0.1-0.1 0-0.1-0.1 0 0 0 0-0.1 0-0.1 0l-0.1 0.2v0.3l-0.1 0.1q0 0 0.1 0v0.3h0.1-0.1q0 0.5 0.1 0.7v0.1 0.2 0.7 0.2 0.1 0.2 0.3 0.5 0.1 0.1 0.1 0.4q-0.7 0.1-1.1 0.1h-0.7-0.1l-1.2-0.1v-0.5-0.1-0.1-0.6-1.7q0-0.3 0.1-1.3 0 0-0.1 0.3v-0.5-0.1-0.1-0.4-0.2-0.1-0.1-0.1-0.1-0.2-0.3-0.2-0.1-0.7-0.1l0.1-2.5v-0.2-0.4-1.1q0-0.5 0-0.7v-2.6-0.3q0.2 0.1 0.8 0.7 0.1 0.1 1.7 1.7 0.4 0.3 0.5 0.5 0 1.2-0.1 3.3v0.9h-0.1q0 0.1 0.1 0.1v0.1q0 0.1 0.1 0.2h0.1q0.2 0.1 0.5 0.1h0.3v-0.1h0.2-0.1l0.1 0.1v-0.1h1.4 0.2v0.1q0.1 0 0.1-0.1h0.3 0.1q-0.1 0-0.1-0.1v-0.1h0.1l-0.1-0.1 0.1-0.3v-1.4-0.2-0.1-0.1-0.5-0.1-0.1-0.3-0.3-0.7-0.1q0-0.1 0.2-0.1h2.5 0.1q0.1 0 0.1 0v0.1 0.1-0.2h0.1v0.5 0.1 0.4 0.1 0.3 1.2q0 0.1 0 0.1v0.1 0.1 0.2 0.1 1.1 0.5 0.5q0 0.1 0 0.5v0.3 0.1 0.1 2.1 1.4 0.2 0.2 0.3 0.2 0.1zm1.3-10.6v-0.4h1.2 0.1 0.1 0.2 0.3 0.4 0.1 0.1 0.1 0.1 1.1 0.1 1.9 0.2 0.2 0.2 0.1 0.1 0.1 0.1 0.1 0.1 0.2 0.2 0.3 0.2 0.3 1v0.3q-0.1 0.4-0.1 1.1v1.6h-0.2-0.5l-0.8 0.1v-0.1 0.1q-0.2 0-0.2-0.1v0.1l-0.1-0.1-0.1 0.1q-0.2-0.1-0.2-0.1l-0.1 0.1-0.1-0.1h-0.4-0.1-0.2-0.3-0.1-0.1-0.1-0.1-0.3-0.1-0.2-0.2-0.5-0.3-0.7q0 0 0 0 0 0 0 0h-0.1-0.3v0.1h0.2 0.1v0.1 0.1q0 0-0.1 0v0.1q0.1 0 0.1 0v0.1 0.7 0.4 0.1h0.1q0.1 0 0.1 0 0.3 0 0.7 0h0.1 3 0.6 0.1v0.6l-0.1 0.4v0.2 0.3q0 0.4 0 0.9v0.6h-0.6-0.3-0.1-0.2-1.4-0.1-0.2-0.4-0.2-0.1-0.1-0.2-0.2-0.1-0.1-0.1q-0.1 0-0.1-0.2-0.1 0.3-0.1 0.5-0.1 0.1-0.1 0.1h0.1v0.1 0.1 0.1 0.2q0 0.1-0.2 0.1l0.2 0.1v0.3h-0.2 0.2v0.2q0 0 0.1 0h1.5 0.3 0.1 0.1 0.1 0.1 0.1 0.1 0.1 0.3 1.8 0.1 0.1 0.4 0.3 0.2 0.2q0.1 0 0.1 0 0.1 0 0.1 0v0.3 0.2 0.1 0.2 0.1 0.4 0.5 0.1 0.1 0.1 0.4 0.3 0.3h-0.5l-0.1-0.1v0.1l-0.2-0.1h-0.5-0.6-1-0.1-0.1q-0.1 0-0.2 0h-0.5-0.2-1-0.2-0.1-0.1-0.1-0.1-0.2-0.2-0.2-0.2-0.2-0.2-0.1-0.5-0.1-0.2-0.1-0.1-0.2-0.4-0.1v-0.1q0 0.1-0.3 0.1h-0.3v-0.2-0.3-0.1-0.3-0.3-0.1-0.5-0.2q0-0.1 0.1-0.1-0.1-0.2-0.1-0.9v-4.8q0.1-0.4 0.1-1.3v-0.1-0.1q-0.1-0.1-0.1-0.3v-0.1 0.1h0.1v-0.1q0-0.1-0.1-0.1v-0.1-0.1h0.1l-0.1-0.1v-0.2-0.7-0.4-0.1 0.1zm0 0.4v0.1q0.1-0.6 0.2-0.6 0 0 0.2 0.5-0.1-0.6-0.2-0.6-0.1 0-0.2 0.6zm0.4 0.1v0.1zm0 0.1v0.1zm16 2.1h-0.6-1.7-0.1-0.1-0.1-0.2v-0.1q-0.1 0.1-0.1 0.1v1.3l-0.1 0.1q0.1 0 0.1 0l-0.1 0.2h0.1 0.3q0 0.1 0 0.1 0.1 0 0.1-0.1h0.3 0.6 0.1 0.1 0.1 0.1 0.1 0.1 0.1 0.4 0.2 0.1 0.1 0.3v0.1-0.1h0.2q-0.1 0-0.1-0.1l0.1-0.1h-0.2l0.1-0.1-0.1-0.3v-0.4l0.2-0.2h-0.1l-0.1 0.1v-0.3h0.1 0.1-0.1-0.1v-0.1l0.1-0.1h-0.1-0.1v-0.1q-0.1 0-0.1 0.1zm3.4 9.1v0.2l-0.1 1v0.1 0.1 0.4 0.2 0.3 0.3 0.1 0.3h-0.1q-0.8-0.7-2-1.9v-0.1q-0.2 0-0.8-0.7v-0.1q0 0 0-0.1v-0.8-0.1-0.1-0.2-0.9-0.1-0.8-0.1-0.1-0.3-0.2l-0.1-0.3 0.1-0.1-0.1-0.1h0.1q0-0.1 0-0.2 0 0 0 0h0.3v-0.1h-0.4v-0.1l-0.1 0.1v-0.1l-0.1 0.1-0.1-0.1-0.8 0.1h-0.2-0.5-0.1-0.1-0.1-0.2-0.2-0.3v-0.1q0 0 0 0.1h-0.2-0.2v0.1q-0.1 0-0.1 0.1h0.1v1.2 0.8q0.1 0.3 0.1 1v1.3l-0.1 0.1h-0.1-0.1-1.8-0.1-0.1-0.5-0.3q-0.1-0.1-0.1-0.7v-0.3-0.1-0.1-0.9-0.2-1.5-0.9-0.1-0.9-0.5-0.1-0.1-0.1l-0.1-0.8h0.1v-0.1l-0.1-0.1 0.1-0.3q-0.1-0.3-0.1-0.3v-0.2-0.1-0.1-0.5-0.1-0.1-0.5-0.1-0.3l0.1-0.3-0.1-0.4v-1.1l0.1-0.1h-0.1l0.1-0.1-0.1-0.1v-0.1h0.1v-1-0.1-0.1-0.4-0.2-0.3-0.2-0.1-0.1-0.2h0.1q0.8 0.7 2 1.8v0.1q0.2 0 0.9 0.7h0.8 0.2 0.2 0.3l0.6 0.1h0.3 0.6l-0.1 0.1 1.4-0.1h0.1 0.1 0.2 0.4q0.4 0 0.6 0.2 0.4 0.2 0.6 0.7 0 0.3 0 0.8v0.1 1.4 0.2 0.3 2.7q0 0.6 0.1 0.8v0.1 0.8l-0.1 0.2v2.1l0.1 0.2-0.1 0.1v0.8zm1.7-11.7v0.8 0.1 0.1 0.1 0.2 0.1-0.4-0.4-0.1-0.2zm6.1 7.8h-0.1 0.1zm0-3.9h-0.1v0.1h0.1zm-0.1-0.6v0.5zm-3.1-0.8v0.3h-0.2v0.1h0.2v0.8l-0.1 0.1q0 0 0 0v0.3h0.3 0.1 0.2 0.1 0.1l0.2-0.1 0.1 0.1h0.5 0.1 0.1 0.1 0.1 0.1 0.1 0.1 0.2q0.2 0 0.3 0 0 0 0 0h0.3v0.1h0.1v-0.2-0.1-0.9 0.1-0.1-0.3-0.1-0.1h-0.1-0.2-0.7-0.3-0.1-0.2-0.1-0.1-0.6-0.3-0.1-0.1-0.1zm-2.8-1.1h-0.1v0.2h0.1zm8.8 10.2v0.3 0.1 0.1 0.6 0.5 0.1 0.1 0.3 0.1 0.2 0.1 0.1 0.2 0.2 0.1q0 0 0.1 0v0.1h-0.1q-1.5-1.5-2.4-2.4-0.3-0.3-0.6-0.6h0.1v-0.1q0 0-0.1 0v-0.2-0.4-1.2-0.1-0.8-0.1l0.1-0.3q-0.1 0-0.1 0v-0.7q0-0.1 0.1-0.1 0 0-0.1 0v-0.1h0.1-0.1q0-0.2 0.1-0.2h0.1q0 0-0.2-0.2v-0.1h0.1v-0.1l-0.4-0.1h-0.4-2.4q0 0.2-0.1 0.2 0 0 0.1 0v0.1q-0.1 0-0.1 0h0.1q0 0.4-0.1 0.4v0.4 2.3 0.1 0.3 0.2 0.7h0.1-0.1-0.2-0.8-1.6-0.1q-0.3 0-0.3-0.1v-0.2-0.3-0.1-0.1-0.1-0.1-0.2-0.1l0.1-5.3v-0.1-0.3-0.3-0.3l0.1-0.2-0.1-1.1q0.1-0.4 0.1-1.9l-0.1-0.1 0.1-0.1v-0.6-0.7-0.1-0.1-0.1-0.6-0.5-0.1-0.1-0.3-0.1-0.2-0.2-0.2-0.2-0.1q0 0-0.1 0v-0.1h0.1q1.5 1.5 2.4 2.4 0.3 0.3 0.5 0.6h0.1 0.1 0.3 0.2q0.6 0 1.5 0h0.4 0.1 0.1 0.1 0.1 0.1 0.2 0.1 0.1 0.1 0.1 0.7 0.2q0.2 0 0.2 0.1v-0.1h0.1q0.3 0 0.5 0.2v0.1q0.2 0.1 0.3 0.1 0.3 0.2 0.5 0.7v0.2 0.9 1.5 0.1 0.2 0.1q0 1.1-0.1 1.1h-0.1q0 0 0 0v0.1q-0.5 0.6-0.6 0.6l-0.1 0.1-0.1-0.1q0 0.2-0.3 0.2l-0.1-0.1-0.1 0.1h-0.1l0.5 0.1-0.1 0.1h0.3q0.2 0 0.3 0.2h0.1q0.3 0.4 0.5 0.9v0.1 0.6 0.1 0.1 0.1 0.4 0.1l-0.1 0.2 0.1 0.2v0.4h-0.1 0.1v0.2h-0.1 0.1l-0.1 1v0.3 0.8 0.1zm-8.9-12.2v0.4-0.2zm10.8-0.1h0.4 0.1 0.1 0.2 0.7 0.2 0.1 0.3 0.2 0.3v2.4l-0.1 0.5h0.1q0 0.2-0.1 0.3v0.1q0 0 0 0.1v1.9 0.1 0.3l-0.1 0.9h0.1v1 1.6h-0.1-0.9q-0.3-0.1-0.6-0.1h-0.9-0.4-0.1v-1.2-0.1-0.1-0.2-0.1-0.2-0.1-0.1-0.2-0.1-0.1-0.1-0.4-0.3-0.6-0.1-0.1-0.1-0.3-0.1-0.1-0.1-0.7-0.1-0.2-0.6-0.1-0.1-0.1-0.2-0.2l0.1-0.1-0.1-0.2 0.1-0.1-0.1-0.1 0.1-0.1-0.1-0.1v-0.2-0.1-0.2l0.1-0.1-0.1-0.1 0.1-0.6zm-0.5 10.7l1 0.1h0.1 0.6l0.8-0.1 0.5 0.1v0.4 0.5 1l0.1 0.1q-0.1 0.1-0.1 0.5v0.1 0.1 0.5 0.1 0.1 0.1 0.2 0.2 0.2 0.1 0.1 0.1q-0.1 0-0.5-0.5-0.1 0-0.2-0.2-0.1 0-1.6-1.4l-0.3-0.3-0.4-0.4q-0.1-0.1-0.1-0.2v-1.3h0.1-0.1v-0.1q0.1-0.1 0.1-0.1z"/>
	</g>
</svg>