<svg id="icons" height="512" viewBox="0 0 500 500" width="512" xmlns="http://www.w3.org/2000/svg"><path d="m305.414 144.892c20.953 2.219 34.71 7.03 34.877 7.089a3.754 3.754 0 0 0 4.449-1.558c18.447-26.622 26.249-62.187 94.9-70.78a3.773 3.773 0 0 0 2.123-6.618c-.834-.7-20.819-17.2-54.514-31.182a16.211 16.211 0 0 0 -18.869 4.692l-5.01 6.112 1.974-15.49a3.749 3.749 0 0 0 -2.644-4.067c-65.189-19.514-130.271-10.362-190 24.556a15.569 15.569 0 0 0 -7.385 17.035l1.3 5.581-9.315-9.307a3.747 3.747 0 0 0 -4.787-.431c-24.4 16.664-45.325 37.452-60.506 60.683a17.1 17.1 0 0 0 1.264 20.273l9.921 11.785-11.276-2.983a3.889 3.889 0 0 0 -2.694.208 3.758 3.758 0 0 0 -2.029 4.258l1.325 5.546-11.808-2.994a3.757 3.757 0 0 0 -4.419 2.283c-11.291 29.2-16.386 61.917-15.222 97.378a191.249 191.249 0 0 0 2.443 29.522c5.637 48.6 50.069 107.31 24.368 160.472-1.759 3.261 2.416 6.978 5.449 4.779 37.788-24.324 37.908-88.576 29.166-117.276-4.685-13.387 4.615-20.749 4.993-21.04a3.751 3.751 0 0 0 1.5-3.19c-1.2-23.856.367-76.125 31.219-117.379a10.4 10.4 0 0 1 11.421-3.782c8.324 2.6 13.784 13.427 8.287 21.082-11.129 16.588-18.093 37.665-14.462 63.736a12 12 0 0 0 -9.691 14.166l.706 3.533a12.008 12.008 0 0 0 14.434 9.3c4.749 22.9 16.148 66.76 12.871 75l-7.206 2.66a11.981 11.981 0 0 0 -7.622 14.124 11.767 11.767 0 0 0 15.437 8.041l33.1-12.221a29.74 29.74 0 0 0 18.8-22.169c1.758-9.149 7.268-30.426 20.414-30.426a5.757 5.757 0 0 1 4.574 2.078c5.857 6.2 9.174 23.854 8.067 42.92a37.4 37.4 0 0 0 7.432 24.748c11.989 15.83 40.436 44.788 96.263 60.882a11.76 11.76 0 0 0 12.927-17.96c-.182-.27-18.216-27.738-26.428-95.9a40.367 40.367 0 0 0 -16.358-27.795 191.6 191.6 0 0 1 -24.786-21.053l40.714 2.794c2.782 4.349 11.377 19.666 16.13 49.245a3.743 3.743 0 0 0 .792 1.77c.388.478 9.789 11.741 34.736 15.9a3.779 3.779 0 0 0 3.68-5.862c-.266-.378-26.676-38.742-33.415-120-.267-3.225-.69-6.455-1.249-9.637a14.882 14.882 0 0 0 9.044-14.984c-.944-9.845-9.377-14.223-18.584-13.748a96.316 96.316 0 0 0 -63-50.082 12.923 12.923 0 0 1 -8.8-17.59 10.635 10.635 0 0 1 10.979-6.727zm53.1 148.407-67.514-4.633c-8.6-.869-15.345 8.9-11.482 16.645 8.826 19.125 29.819 36.988 45.875 48.606a16.8 16.8 0 0 1 6.805 11.568c4.42 36.691 11.539 62.511 17.634 79.272-30.749-13.405-61.854-38.839-61.038-52.495 1.8-19.419-2.032-76.772-42.954-69.238l.042-.016c-13.316 1-22.871 5.127-29.058 8.953a7.966 7.966 0 0 1 -11.929-4.758l-4.083-15.803c10.221-4.025 29.287-12.228 38.54-20.71 12.949-11.869 41.472-28.05 41.681-28.168 23.542-9.057 50.33-15.006 87.314-13.368.545 8.3 1.4 16.541 2.5 24.612-.047 20.662-12.329 19.534-12.329 19.534zm12-66.247c9.447.784 8.819 14.71-.672 14.636-26.528-.825-77.265 1.4-119.038 25.664-7.969 4.628-15.578 8.7-22.783 12.3-11.8 5.147-14.239-5.246-8.11-12.227l-.019.007c7.291-3.875 15.235-8.332 23.878-13.481 48.009-28.597 104.63-28.339 126.745-26.899zm-21.681-20.712a88.782 88.782 0 0 1 8.764 12.73c-80.368-1.958-111.722 29.119-165.479 53.323-17.558-109.049 113.309-122.82 156.715-66.053zm-231.424 112.428c-4.8 4.6-10.69 14.753-5.993 28.172 5.142 16.166 6.7 47.61-1.358 73.172-7.686-2.9-7.627-13.13-7.437-18.823v.014a230.539 230.539 0 0 0 -4.359-51.429c-31.862-152.311 98.232-281.658 257.009-230.702l-15.36 24.8c-128.441-34.904-231.159 50.988-222.502 174.796z"/></svg>