<svg id="Capa_1" enable-background="new 0 0 512 512" height="512" viewBox="0 0 512 512" width="512" xmlns="http://www.w3.org/2000/svg" xmlns:xlink="http://www.w3.org/1999/xlink"><linearGradient id="SVGID_1_" gradientUnits="userSpaceOnUse" x1="256" x2="256" y1="480.711" y2="0"><stop offset="0" stop-color="#c3ffe8"/><stop offset=".9973" stop-color="#f0fff4"/></linearGradient><linearGradient id="SVGID_00000169553591482481838470000017315207888081825684_" gradientUnits="userSpaceOnUse" x1="256" x2="256" y1="512" y2="242"><stop offset="0" stop-color="#00b59c"/><stop offset="1" stop-color="#9cffac"/></linearGradient><g><path d="m483.695 154.371c-14.187-15.597-32.54-26.449-52.718-31.375-1.068-45.948-38.777-82.996-84.977-82.996-14.019 0-27.802 3.502-40.057 10.044-23.44-31.205-60.452-50.044-99.943-50.044-68.261 0-123.917 54.998-124.984 123.009-20.236 4.943-38.639 15.846-52.833 31.505-17.53 19.336-27.183 44.368-27.183 70.486 0 57.897 47.103 105 105 105h65v19.297c0 57.232 33.165 108.171 85 131.414 51.835-23.243 85-74.182 85-131.414v-19.297h65c57.897 0 105-47.103 105-105 0-26.187-9.697-51.271-27.305-70.629z" fill="url(#SVGID_1_)"/><path d="m366.606 286.394-40-40c-2.813-2.813-6.628-4.394-10.606-4.394h-120c-3.978 0-7.793 1.581-10.606 4.394l-40 40c-2.813 2.813-4.394 6.628-4.394 10.606v52.297c0 34.926 10.35 68.674 29.93 97.595 19.581 28.921 47.071 51.064 79.499 64.036 1.788.715 3.679 1.073 5.571 1.073s3.783-.357 5.571-1.073c32.428-12.971 59.918-35.114 79.499-64.036 19.58-28.921 29.93-62.669 29.93-97.595v-52.297c0-3.978-1.581-7.793-4.394-10.606zm-25.606 62.903c0 57.232-33.165 108.171-85 131.414-51.835-23.243-85-74.182-85-131.414v-46.083l31.213-31.214h107.573l31.214 31.213zm-109.749 56.594-28.284-28.284c-5.858-5.858-5.858-15.355 0-21.213 5.858-5.858 15.355-5.858 21.213 0l17.678 17.677 45.962-45.962c5.858-5.858 15.355-5.858 21.213 0 5.858 5.858 5.858 15.355 0 21.213l-56.568 56.568c-5.858 5.859-15.356 5.859-21.214.001z" fill="url(#SVGID_00000169553591482481838470000017315207888081825684_)"/></g></svg>